<svg xmlns="http://www.w3.org/2000/svg" xmlns:xlink="http://www.w3.org/1999/xlink" width="1366" zoomAndPan="magnify" viewBox="0 0 1024.5 576" height="768" preserveAspectRatio="xMidYMid meet" version="1.0"><defs><g/><clipPath id="9f63fdb45a"><path d="M 0 0.140625 L 1024 0.140625 L 1024 575.859375 L 0 575.859375 Z M 0 0.140625 " clip-rule="nonzero"/></clipPath><clipPath id="56e5328da6"><path d="M 0 406.261719 L 57.703125 406.261719 L 57.703125 575.859375 L 0 575.859375 Z M 0 406.261719 " clip-rule="nonzero"/></clipPath><clipPath id="5a097fe2d7"><path d="M 13.410156 510.195312 L 69.660156 510.195312 L 69.660156 521.445312 L 13.410156 521.445312 Z M 13.410156 510.195312 " clip-rule="nonzero"/></clipPath></defs><g clip-path="url(#9f63fdb45a)"><path fill="#ffffff" d="M 0 0.140625 L 1024.5 0.140625 L 1024.5 576.140625 L 0 576.140625 Z M 0 0.140625 " fill-opacity="1" fill-rule="nonzero"/><path fill="#ffffff" d="M 0 0.140625 L 1024.5 0.140625 L 1024.5 576.140625 L 0 576.140625 Z M 0 0.140625 " fill-opacity="1" fill-rule="nonzero"/></g><g clip-path="url(#56e5328da6)"><path fill="#587d9f" d="M 56.816406 410.832031 C 56.566406 410.863281 56.328125 410.933594 56.101562 411.046875 C 55.855469 411.167969 55.625 411.308594 55.402344 411.46875 C 55.207031 411.640625 55.046875 411.851562 54.859375 412.03125 C 51.570312 415.140625 48.582031 418.441406 47.90625 423.175781 C 47.84375 423.398438 47.75 423.617188 47.636719 423.820312 C 47.496094 423.609375 47.375 423.390625 47.269531 423.164062 C 45.828125 419.722656 44.566406 416.195312 42.863281 412.855469 C 42.4375 412.007812 41.851562 411.242188 41.441406 410.375 C 41.238281 409.953125 41.097656 409.511719 41.023438 409.046875 C 40.9375 408.5625 41.085938 408.070312 41.023438 407.578125 C 40.929688 407.15625 40.742188 406.777344 40.460938 406.449219 C 40.417969 406.382812 40.359375 406.332031 40.289062 406.296875 C 40.21875 406.261719 40.144531 406.242188 40.066406 406.242188 C 39.988281 406.242188 39.914062 406.261719 39.84375 406.296875 C 39.773438 406.332031 39.714844 406.382812 39.671875 406.449219 C 39.566406 406.59375 39.472656 406.746094 39.390625 406.871094 C 39.132812 407.308594 38.972656 407.78125 38.910156 408.285156 C 38.800781 408.808594 38.714844 409.335938 38.589844 409.855469 C 38.359375 410.832031 38.042969 411.777344 37.640625 412.695312 C 36.804688 414.601562 35.503906 416.113281 33.742188 417.226562 C 33.433594 417.410156 33.144531 417.632812 32.890625 417.835938 L 32.890625 416.765625 C 32.890625 416.417969 32.890625 416.070312 32.890625 415.71875 C 32.949219 414.316406 33.015625 412.925781 33.066406 411.523438 C 33.066406 410.824219 33.117188 410.128906 33.136719 409.429688 C 33.210938 408.832031 33.191406 408.238281 33.085938 407.644531 C 32.988281 407.28125 32.785156 406.992188 32.472656 406.777344 L 32.402344 406.777344 C 32.375 406.792969 32.351562 406.8125 32.335938 406.839844 C 31.84375 407.835938 31.601562 408.890625 31.601562 410 C 31.476562 411.230469 31.257812 412.441406 30.9375 413.636719 C 29.007812 419.464844 26.0625 424.726562 22.105469 429.421875 C 21.246094 430.460938 20.5 431.578125 19.867188 432.765625 C 19.234375 433.957031 18.726562 435.195312 18.34375 436.488281 C 17.960938 437.777344 17.710938 439.09375 17.589844 440.4375 C 17.472656 441.777344 17.488281 443.117188 17.640625 444.457031 C 17.847656 446.195312 18.300781 447.871094 18.996094 449.480469 C 19.695312 451.085938 20.605469 452.5625 21.730469 453.910156 C 22.691406 455.125 23.125 456.175781 22.042969 457.75 C 21.160156 459.105469 20.5625 460.574219 20.257812 462.164062 C 19.953125 463.75 19.960938 465.335938 20.28125 466.921875 C 20.691406 470.386719 21.351562 473.808594 22.257812 477.179688 C 22.847656 479.046875 23.039062 480.949219 22.828125 482.894531 C 22.617188 484.839844 22.023438 486.660156 21.046875 488.355469 C 20.875 488.742188 20.734375 489.144531 20.628906 489.554688 C 19.394531 493.40625 18.074219 497.203125 16.96875 501.113281 C 15.417969 506.640625 13.875 512.164062 12.65625 517.78125 C 12.253906 519.613281 11.585938 521.347656 10.65625 522.980469 C 9.730469 524.613281 8.582031 526.074219 7.214844 527.359375 C 6.914062 527.710938 6.652344 528.085938 6.421875 528.484375 C 6.90625 528.382812 7.394531 528.324219 7.886719 528.304688 C 8.414062 528.304688 9.34375 528.429688 9.386719 528.644531 C 10.792969 535.519531 10.707031 542.445312 10.007812 549.390625 C 9.53125 554.246094 8.960938 559.097656 8.484375 563.949219 C 8.003906 568.804688 7.683594 573.878906 7.085938 578.800781 C 6.539062 583.421875 5.722656 588.011719 5.074219 592.621094 C 4.691406 595.339844 4.554688 598.09375 4.070312 600.789062 C 3.507812 603.90625 2.691406 606.976562 1.984375 610.070312 C 1.8125 610.664062 1.640625 611.277344 1.472656 611.878906 C 1.140625 612.503906 0.855469 613.148438 0.621094 613.816406 C 0.167969 615.515625 -0.128906 617.269531 -0.605469 618.917969 C -1.695312 622.785156 -2.863281 626.617188 -4.015625 630.46875 C -4.355469 631.070312 -4.703125 631.675781 -5.054688 632.277344 C -5.214844 632.761719 -5.410156 633.238281 -5.554688 633.730469 C -5.972656 635.210938 -5.8125 636.160156 -3.851562 636.339844 C -2.257812 636.484375 -1.800781 635.933594 -1.433594 634.496094 C -0.632812 631.367188 0.371094 628.292969 1.371094 625.222656 C 3.023438 620.125 5.203125 615.117188 6.292969 609.925781 C 7.707031 603.125 8.277344 596.136719 9.199219 589.238281 C 10.335938 580.894531 11.433594 572.5625 12.496094 564.230469 C 12.980469 560.449219 14.019531 559.980469 17.085938 562.226562 C 17.277344 562.40625 17.488281 562.554688 17.726562 562.667969 C 17.980469 562.742188 18.382812 562.785156 18.527344 562.667969 C 18.699219 562.417969 18.730469 562.152344 18.621094 561.867188 C 18.375 561.425781 17.972656 561.070312 17.683594 560.644531 C 15.980469 558.09375 13.984375 555.765625 14.359375 552.28125 C 14.964844 546.644531 15.296875 540.976562 15.664062 535.28125 C 15.988281 530.265625 15.945312 525.210938 16.515625 520.222656 C 17 516.175781 18.160156 512.199219 19.070312 508.203125 C 19.546875 506.136719 20.691406 505.652344 22.546875 506.679688 C 22.785156 506.816406 23.160156 506.679688 23.46875 506.679688 C 23.460938 506.363281 23.417969 506.050781 23.332031 505.746094 C 22.992188 504.894531 22.25 504.132812 22.265625 503.339844 C 22.34375 500.460938 22.265625 497.484375 23.007812 494.738281 C 23.859375 491.527344 25.433594 488.492188 26.796875 485.390625 C 27.585938 483.394531 28.5625 481.492188 29.71875 479.6875 C 31.984375 476.472656 34.960938 473.6875 36.851562 470.285156 C 38.996094 466.417969 40.394531 462.09375 38.179688 457.589844 C 38.15625 457.46875 38.191406 457.371094 38.28125 457.292969 C 40.488281 456.441406 42.761719 455.71875 44.882812 454.742188 C 48.632812 452.9375 51.699219 450.167969 53.019531 446.242188 C 53.679688 444.261719 53.957031 442.226562 53.851562 440.140625 C 53.746094 438.058594 53.269531 436.0625 52.414062 434.15625 C 51.5625 432.253906 51.117188 430.261719 51.085938 428.175781 C 51.058594 426.09375 51.4375 424.089844 52.234375 422.164062 C 52.960938 420.464844 53.300781 418.304688 54.1875 416.6875 C 54.859375 415.535156 55.640625 415.082031 56.296875 413.910156 C 56.699219 413.160156 57.507812 412.3125 57.550781 411.445312 C 57.550781 411.191406 57.449219 411.15625 57.378906 411.054688 C 57.238281 410.867188 57.050781 410.792969 56.816406 410.832031 Z M 41.21875 413.605469 C 41.257812 413.4375 41.332031 413.292969 41.449219 413.171875 C 41.503906 413.101562 41.574219 413.0625 41.660156 413.054688 C 41.746094 413.042969 41.824219 413.066406 41.894531 413.121094 C 42.007812 413.203125 42.09375 413.308594 42.15625 413.433594 C 43.792969 417.980469 46.316406 422.441406 46.765625 427.101562 C 47.175781 431.351562 45.328125 435.746094 44.457031 440.078125 C 44.457031 440.183594 44.175781 440.242188 44.023438 440.324219 L 44.023438 440.417969 L 44.023438 440.316406 C 43.714844 436.484375 43.589844 432.667969 43.070312 428.828125 C 42.660156 425.808594 41.59375 422.894531 41.160156 419.859375 C 41 417.773438 41.019531 415.6875 41.21875 413.605469 Z M 39.242188 411.207031 C 39.703125 416.027344 40.097656 420.871094 40.667969 425.65625 C 41.09375 428.960938 42.164062 432.199219 42.4375 435.515625 C 42.847656 440.613281 41.722656 445.535156 38.441406 449.589844 C 37.300781 451 35.273438 451.699219 33.648438 452.71875 L 33.289062 453.015625 L 33.238281 452.929688 C 34.21875 451.675781 35.070312 450.34375 35.792969 448.925781 C 36.527344 447.316406 37.09375 445.652344 37.496094 443.929688 C 37.703125 443.078125 37.863281 442.230469 38 441.320312 C 38.078125 440.871094 38.171875 440.417969 38.214844 439.960938 C 38.261719 439.589844 38.226562 439.226562 38.101562 438.871094 C 38.097656 438.84375 38.082031 438.824219 38.058594 438.804688 C 37.933594 438.726562 37.683594 439.347656 37.640625 439.441406 C 37.53125 439.679688 37.429688 439.925781 37.335938 440.171875 C 37.15625 440.65625 37.003906 441.152344 36.832031 441.636719 L 35.785156 444.59375 C 35.304688 445.769531 34.964844 446.984375 34.773438 448.238281 C 34.625 448.152344 34.660156 447.933594 34.71875 447.761719 C 35.148438 446.054688 35.460938 444.320312 35.65625 442.570312 C 36.042969 441.199219 36.207031 439.800781 36.152344 438.378906 C 35.878906 438.523438 35.835938 438.769531 35.734375 439.042969 C 35.1875 440.605469 34.738281 442.1875 34.234375 443.761719 C 33.597656 445.722656 32.964844 447.6875 32.300781 449.632812 C 31.964844 450.367188 31.550781 451.058594 31.058594 451.699219 C 30.972656 451.484375 30.757812 451.222656 30.820312 451.070312 C 32.839844 446.5625 33.792969 441.839844 33.679688 436.902344 C 33.605469 434.5625 33.722656 432.210938 33.578125 429.878906 C 33.289062 425.136719 35.988281 421.382812 37.472656 417.132812 C 38.277344 415.21875 38.867188 413.246094 39.242188 411.207031 Z M 33.152344 418.855469 C 33.550781 418.402344 33.984375 417.984375 34.449219 417.597656 C 34.90625 417.214844 35.574219 416.945312 35.972656 416.527344 C 34.738281 419.824219 33.09375 423.03125 32.394531 426.429688 C 31.808594 429.300781 32.328125 432.378906 32.351562 435.414062 C 32.351562 436.511719 32.429688 437.605469 32.445312 438.703125 C 32.4375 438.890625 32.382812 439.0625 32.285156 439.222656 C 31.890625 439.015625 31.609375 437.699219 31.433594 437.265625 C 31.144531 436.542969 30.863281 435.828125 30.582031 435.109375 C 29.9375 433.6875 29.542969 432.203125 29.394531 430.652344 C 29.464844 429.1875 29.679688 427.742188 30.035156 426.320312 C 30.273438 424.734375 30.710938 423.203125 31.347656 421.730469 C 31.804688 420.679688 32.40625 419.71875 33.152344 418.847656 Z M 22.335938 450.457031 C 22.0625 449.789062 21.832031 449.105469 21.644531 448.410156 C 21.175781 446.648438 20.960938 444.859375 21.003906 443.039062 C 21.03125 442.117188 21.117188 441.203125 21.261719 440.292969 C 21.328125 439.824219 21.414062 439.367188 21.515625 438.898438 C 21.609375 438.507812 21.671875 438.109375 21.703125 437.707031 C 21.703125 437.316406 21.039062 437.625 20.980469 437.84375 C 20.546875 439.542969 19.746094 441.242188 19.871094 442.945312 C 20.246094 445.984375 20.773438 448.996094 21.457031 451.980469 C 20.441406 450.460938 19.695312 448.816406 19.214844 447.054688 C 18.734375 445.292969 18.550781 443.5 18.652344 441.675781 C 18.925781 435.097656 22.992188 430.425781 26.601562 425.417969 C 28.5625 422.691406 29.644531 419.332031 31.109375 416.253906 C 31.390625 415.679688 31.59375 415.066406 31.832031 414.472656 C 31.527344 415.964844 31.289062 417.488281 30.894531 418.96875 C 29.976562 422.46875 28.894531 425.929688 28.074219 429.445312 C 27.875 430.527344 28.023438 431.558594 28.519531 432.539062 C 31.925781 439.230469 31.925781 445.773438 27.949219 452.21875 C 27.25 453.347656 26.421875 454.402344 25.664062 455.496094 C 25.914062 454.214844 26.132812 452.949219 26.421875 451.648438 C 26.941406 449.308594 27.539062 446.988281 28.023438 444.644531 C 28.054688 444.351562 28.015625 444.066406 27.90625 443.792969 C 27.90625 443.675781 27.71875 443.121094 27.546875 443.410156 C 27.242188 443.949219 27.011719 444.515625 26.859375 445.113281 C 26.441406 446.445312 26.117188 447.804688 25.597656 449.105469 C 25.488281 449.417969 25.417969 449.738281 25.382812 450.066406 C 25.382812 450.238281 25.207031 450.363281 25.101562 450.507812 C 25.039062 450.355469 24.996094 450.195312 24.976562 450.03125 C 24.976562 448.679688 24.832031 447.320312 24.753906 445.960938 C 24.621094 444.113281 24.65625 442.269531 24.863281 440.429688 C 24.988281 439.5 25.199219 438.59375 25.496094 437.707031 C 25.648438 437.253906 25.828125 436.808594 26.03125 436.375 C 26.234375 436.027344 26.382812 435.660156 26.484375 435.269531 C 26.542969 434.929688 25.914062 435.269531 25.828125 435.398438 C 25.179688 436.628906 24.175781 437.84375 24.054688 439.136719 C 23.699219 443.078125 23.699219 447.050781 23.535156 451.035156 C 23.46875 451.613281 23.351562 452.179688 23.1875 452.734375 L 23.101562 452.675781 C 23.03125 452.28125 22.921875 451.898438 22.769531 451.527344 C 22.617188 451.144531 22.46875 450.804688 22.335938 450.457031 Z M 32.316406 474.925781 C 30.613281 476.8125 28.722656 478.566406 27.34375 480.65625 C 26.320312 482.484375 25.53125 484.410156 24.976562 486.425781 C 22.34375 494.078125 19.558594 501.597656 17.25 509.300781 C 16.738281 511.058594 16.363281 512.847656 16.117188 514.664062 C 15.878906 516.363281 15.484375 517.992188 15.382812 519.710938 C 15.289062 521.265625 15.316406 522.832031 15.265625 524.394531 C 15.171875 527.792969 14.71875 531.195312 14.410156 534.550781 L 13.902344 540.363281 C 13.636719 543.414062 13.644531 546.484375 13.21875 549.535156 C 12.886719 551.964844 12.367188 554.363281 12.035156 556.792969 C 11.4375 561.042969 10.894531 565.378906 10.332031 569.679688 L 10.28125 570.113281 C 10.058594 571.964844 9.84375 573.820312 9.632812 575.671875 C 8.976562 581.441406 8.527344 587.257812 7.65625 593 C 7.539062 593.757812 7.417969 594.523438 7.308594 595.289062 C 7.140625 596.011719 7.023438 596.746094 6.964844 597.488281 C 6.183594 602.65625 5.542969 607.851562 4.257812 612.925781 C 3.585938 615.578125 2.777344 618.191406 1.828125 620.761719 C 1.523438 621.609375 1.207031 622.417969 0.867188 623.234375 C 0.6875 623.683594 0.5 624.085938 0.3125 624.578125 C 0.0390625 625.207031 -0.230469 625.828125 -0.539062 626.445312 C -0.882812 627.011719 -1.167969 627.609375 -1.390625 628.230469 C 0.746094 618.132812 4.640625 608.4375 6.097656 598.21875 C 6.515625 595.28125 6.738281 592.3125 6.949219 589.355469 C 7.164062 586.398438 7.390625 583.601562 7.800781 580.753906 C 8.210938 577.90625 8.816406 575.1875 9.128906 572.363281 C 9.640625 567.773438 9.855469 563.160156 10.273438 558.5625 C 10.757812 553.222656 11.371094 547.894531 11.832031 542.550781 C 12.027344 540.246094 11.898438 537.917969 12.042969 535.605469 C 12.160156 532.265625 12.445312 528.9375 12.894531 525.625 C 13.996094 518.988281 14.984375 512.289062 16.710938 505.796875 C 18.542969 498.878906 21.285156 492.199219 23.382812 485.347656 C 23.925781 483.578125 23.65625 481.515625 23.5 479.601562 C 23.03125 473.652344 20.453125 467.914062 21.507812 461.804688 C 21.671875 460.375 22.207031 459.101562 23.109375 457.980469 C 23.714844 457.359375 25.273438 457.5625 26.40625 457.578125 C 29.25 457.632812 32.105469 457.929688 34.925781 457.851562 C 36.925781 457.800781 37.992188 458.371094 37.941406 460.46875 C 37.917969 463.140625 37.421875 465.722656 36.453125 468.210938 C 35.484375 470.699219 34.105469 472.941406 32.316406 474.925781 Z M 51.910156 417.863281 C 51.757812 418.234375 51.613281 418.609375 51.484375 418.992188 C 51.214844 419.828125 51 420.679688 50.839844 421.542969 C 50.378906 423.976562 50.210938 426.429688 50.335938 428.902344 C 50.375 430.042969 50.480469 431.175781 50.652344 432.300781 C 50.898438 433.652344 51.234375 434.976562 51.65625 436.28125 C 51.75 436.578125 51.835938 436.882812 51.910156 437.179688 C 52.082031 437.957031 52.199219 438.738281 52.269531 439.527344 C 52.609375 442.773438 52.558594 445.960938 50.140625 448.441406 C 49.957031 448.582031 49.789062 448.734375 49.636719 448.902344 C 49.699219 448.78125 49.738281 448.65625 49.746094 448.519531 C 49.933594 448.011719 50.058594 447.492188 50.121094 446.957031 C 49.941406 447.027344 49.777344 447.128906 49.636719 447.261719 C 49.441406 447.40625 49.253906 447.558594 49.050781 447.703125 C 48.714844 447.9375 48.429688 448.21875 48.195312 448.554688 C 45.171875 452.640625 41.339844 455.429688 36.21875 456.203125 C 35.875 456.234375 35.53125 456.234375 35.1875 456.203125 C 35.484375 456.050781 35.769531 455.882812 36.039062 455.691406 L 36.21875 455.566406 C 38.910156 453.519531 41.613281 451.480469 44.320312 449.445312 C 45.214844 448.847656 45.992188 448.125 46.664062 447.289062 C 46.96875 446.84375 47.21875 446.359375 47.515625 445.945312 C 47.722656 445.753906 47.835938 445.519531 47.847656 445.238281 C 44.59375 447.585938 41.269531 449.914062 37.871094 452.226562 C 39.144531 451.203125 40.21875 450.003906 41.09375 448.628906 C 41.96875 447.253906 42.597656 445.777344 42.984375 444.195312 C 43.039062 443.910156 43.140625 443.648438 43.289062 443.402344 C 43.523438 443.144531 43.785156 442.921875 44.074219 442.730469 C 44.738281 442.148438 45.21875 441.4375 45.515625 440.605469 C 46.222656 438.90625 46.960938 437.207031 47.574219 435.429688 C 48.382812 433.058594 48.914062 430.625 49.167969 428.128906 C 49.371094 426.167969 49.109375 424.101562 49.636719 422.179688 C 49.929688 421.171875 50.328125 420.207031 50.839844 419.289062 C 51.304688 418.441406 51.9375 417.65625 52.398438 416.800781 C 52.441406 417.089844 52.054688 417.597656 51.945312 417.863281 Z M 51.910156 417.863281 " fill-opacity="1" fill-rule="nonzero"/></g><g clip-path="url(#5a097fe2d7)"><path fill="#000000" d="M 69.542969 515.613281 C 69.53125 515.601562 69.515625 515.59375 69.5 515.582031 C 67.054688 514.101562 64.761719 512.394531 62.640625 510.480469 C 62.34375 510.210938 61.347656 510.621094 61.664062 510.910156 C 63.554688 512.617188 65.578125 514.164062 67.726562 515.539062 C 59.890625 515.226562 52.054688 515.058594 44.214844 515.03125 C 38.609375 514.714844 33.003906 514.457031 27.390625 514.390625 C 23.515625 514.34375 19.644531 514.390625 15.773438 514.554688 C 15.464844 514.566406 14.628906 515.050781 15.328125 515.023438 C 21.703125 514.753906 28.074219 514.832031 34.441406 515.074219 C 31.765625 515.105469 29.09375 515.152344 26.421875 515.21875 C 22.460938 515.3125 18.507812 515.445312 14.550781 515.617188 C 14.242188 515.628906 13.40625 516.113281 14.105469 516.085938 C 23.851562 515.667969 33.605469 515.472656 43.359375 515.5 C 47.507812 515.730469 51.65625 515.996094 55.804688 516.246094 C 58.902344 516.429688 62 516.601562 65.097656 516.746094 C 64.265625 517.09375 63.457031 517.503906 62.664062 517.976562 C 60.996094 518.972656 59.425781 520.121094 57.558594 520.722656 C 57.246094 520.820312 57.125 521.019531 57.164062 521.167969 C 57.203125 521.316406 57.398438 521.414062 57.714844 521.3125 C 61.8125 520.015625 65.734375 518.25 69.417969 516.035156 C 69.484375 515.996094 69.542969 515.9375 69.578125 515.875 C 69.648438 515.789062 69.652344 515.699219 69.542969 515.613281 Z M 53.910156 515.617188 C 54.523438 515.628906 55.140625 515.640625 55.753906 515.652344 C 59.558594 515.738281 63.363281 515.859375 67.167969 516.007812 C 66.863281 516.097656 66.558594 516.195312 66.257812 516.300781 C 62.140625 516.113281 58.027344 515.871094 53.910156 515.617188 Z M 62.65625 518.757812 C 63.933594 517.957031 65.25 517.296875 66.644531 516.8125 C 66.675781 516.8125 66.710938 516.816406 66.742188 516.816406 C 65.324219 517.585938 63.871094 518.289062 62.386719 518.925781 C 62.476562 518.871094 62.566406 518.8125 62.65625 518.757812 Z M 62.65625 518.757812 " fill-opacity="1" fill-rule="nonzero"/></g><g fill="#8b93db" fill-opacity="1"><g transform="translate(75.762627, 521.42812)"><g><path d="M 7.125 -7.65625 C 7.269531 -7.65625 7.375 -7.617188 7.4375 -7.546875 C 7.5 -7.484375 7.53125 -7.375 7.53125 -7.21875 C 7.53125 -7.050781 7.5 -6.9375 7.4375 -6.875 C 7.375 -6.8125 7.269531 -6.78125 7.125 -6.78125 L 6.796875 -6.78125 L 6.96875 -0.875 L 7.3125 -0.875 C 7.457031 -0.875 7.5625 -0.835938 7.625 -0.765625 C 7.6875 -0.703125 7.71875 -0.59375 7.71875 -0.4375 C 7.71875 -0.28125 7.6875 -0.164062 7.625 -0.09375 C 7.5625 -0.03125 7.457031 0 7.3125 0 L 5.296875 0 C 5.148438 0 5.046875 -0.03125 4.984375 -0.09375 C 4.921875 -0.164062 4.890625 -0.28125 4.890625 -0.4375 C 4.890625 -0.59375 4.921875 -0.703125 4.984375 -0.765625 C 5.046875 -0.835938 5.148438 -0.875 5.296875 -0.875 L 6.015625 -0.875 L 5.859375 -6.15625 L 4.546875 -2.484375 C 4.492188 -2.328125 4.421875 -2.21875 4.328125 -2.15625 C 4.234375 -2.09375 4.109375 -2.0625 3.953125 -2.0625 C 3.796875 -2.0625 3.671875 -2.09375 3.578125 -2.15625 C 3.492188 -2.21875 3.421875 -2.328125 3.359375 -2.484375 L 2.046875 -6.15625 L 1.90625 -0.875 L 2.625 -0.875 C 2.769531 -0.875 2.875 -0.835938 2.9375 -0.765625 C 3 -0.703125 3.03125 -0.59375 3.03125 -0.4375 C 3.03125 -0.28125 3 -0.164062 2.9375 -0.09375 C 2.875 -0.03125 2.769531 0 2.625 0 L 0.59375 0 C 0.445312 0 0.34375 -0.03125 0.28125 -0.09375 C 0.21875 -0.164062 0.1875 -0.28125 0.1875 -0.4375 C 0.1875 -0.59375 0.21875 -0.703125 0.28125 -0.765625 C 0.34375 -0.835938 0.445312 -0.875 0.59375 -0.875 L 0.953125 -0.875 L 1.109375 -6.78125 L 0.796875 -6.78125 C 0.648438 -6.78125 0.546875 -6.8125 0.484375 -6.875 C 0.421875 -6.9375 0.390625 -7.050781 0.390625 -7.21875 C 0.390625 -7.375 0.421875 -7.484375 0.484375 -7.546875 C 0.546875 -7.617188 0.648438 -7.65625 0.796875 -7.65625 L 2.15625 -7.65625 C 2.257812 -7.65625 2.335938 -7.632812 2.390625 -7.59375 C 2.453125 -7.5625 2.5 -7.507812 2.53125 -7.4375 L 3.953125 -3.515625 L 5.390625 -7.4375 C 5.429688 -7.582031 5.554688 -7.65625 5.765625 -7.65625 Z M 7.125 -7.65625 "/></g></g></g><g fill="#8b93db" fill-opacity="1"><g transform="translate(83.674014, 521.42812)"><g><path d="M 7.1875 -5.953125 C 7.332031 -5.953125 7.4375 -5.914062 7.5 -5.84375 C 7.5625 -5.78125 7.59375 -5.671875 7.59375 -5.515625 C 7.59375 -5.359375 7.5625 -5.242188 7.5 -5.171875 C 7.4375 -5.109375 7.332031 -5.078125 7.1875 -5.078125 L 6.78125 -5.078125 L 4.15625 0.328125 C 3.875 0.898438 3.597656 1.347656 3.328125 1.671875 C 3.066406 1.992188 2.769531 2.234375 2.4375 2.390625 C 2.101562 2.546875 1.695312 2.628906 1.21875 2.640625 C 1.070312 2.648438 0.957031 2.613281 0.875 2.53125 C 0.789062 2.445312 0.75 2.304688 0.75 2.109375 C 0.75 1.828125 0.863281 1.679688 1.09375 1.671875 C 1.5 1.648438 1.820312 1.582031 2.0625 1.46875 C 2.3125 1.351562 2.535156 1.148438 2.734375 0.859375 C 2.941406 0.578125 3.195312 0.140625 3.5 -0.453125 L 1.140625 -5.078125 L 0.734375 -5.078125 C 0.585938 -5.078125 0.484375 -5.109375 0.421875 -5.171875 C 0.359375 -5.242188 0.328125 -5.359375 0.328125 -5.515625 C 0.328125 -5.671875 0.359375 -5.78125 0.421875 -5.84375 C 0.484375 -5.914062 0.585938 -5.953125 0.734375 -5.953125 L 3.015625 -5.953125 C 3.160156 -5.953125 3.265625 -5.914062 3.328125 -5.84375 C 3.390625 -5.78125 3.421875 -5.671875 3.421875 -5.515625 C 3.421875 -5.359375 3.390625 -5.242188 3.328125 -5.171875 C 3.265625 -5.109375 3.160156 -5.078125 3.015625 -5.078125 L 2.1875 -5.078125 L 4 -1.453125 L 5.734375 -5.078125 L 5.15625 -5.078125 C 5.007812 -5.078125 4.90625 -5.109375 4.84375 -5.171875 C 4.78125 -5.242188 4.75 -5.359375 4.75 -5.515625 C 4.75 -5.671875 4.78125 -5.78125 4.84375 -5.84375 C 4.90625 -5.914062 5.007812 -5.953125 5.15625 -5.953125 Z M 7.1875 -5.953125 "/></g></g></g><g fill="#8b93db" fill-opacity="1"><g transform="translate(91.585402, 521.42812)"><g/></g></g><g fill="#8b93db" fill-opacity="1"><g transform="translate(99.49679, 521.42812)"><g><path d="M 5.421875 -5.953125 C 5.566406 -5.953125 5.671875 -5.914062 5.734375 -5.84375 C 5.796875 -5.78125 5.828125 -5.671875 5.828125 -5.515625 L 5.828125 0.375 C 5.828125 1.125 5.65625 1.6875 5.3125 2.0625 C 4.976562 2.445312 4.445312 2.640625 3.71875 2.640625 C 3.351562 2.640625 2.960938 2.570312 2.546875 2.4375 C 2.140625 2.300781 1.769531 2.128906 1.4375 1.921875 C 1.289062 1.835938 1.21875 1.722656 1.21875 1.578125 C 1.21875 1.503906 1.25 1.410156 1.3125 1.296875 C 1.414062 1.097656 1.539062 1 1.6875 1 C 1.757812 1 1.820312 1.019531 1.875 1.0625 C 2.175781 1.257812 2.484375 1.414062 2.796875 1.53125 C 3.117188 1.644531 3.425781 1.703125 3.71875 1.703125 C 4.132812 1.703125 4.425781 1.585938 4.59375 1.359375 C 4.769531 1.128906 4.859375 0.769531 4.859375 0.28125 L 4.859375 -5.078125 L 2.125 -5.078125 C 1.976562 -5.078125 1.875 -5.109375 1.8125 -5.171875 C 1.75 -5.242188 1.71875 -5.359375 1.71875 -5.515625 C 1.71875 -5.671875 1.75 -5.78125 1.8125 -5.84375 C 1.875 -5.914062 1.976562 -5.953125 2.125 -5.953125 Z M 5.203125 -8.78125 C 5.441406 -8.78125 5.601562 -8.75 5.6875 -8.6875 C 5.78125 -8.625 5.828125 -8.519531 5.828125 -8.375 L 5.828125 -7.53125 C 5.828125 -7.375 5.78125 -7.265625 5.6875 -7.203125 C 5.601562 -7.140625 5.441406 -7.109375 5.203125 -7.109375 C 4.972656 -7.109375 4.8125 -7.140625 4.71875 -7.203125 C 4.632812 -7.265625 4.59375 -7.375 4.59375 -7.53125 L 4.59375 -8.375 C 4.59375 -8.519531 4.632812 -8.625 4.71875 -8.6875 C 4.8125 -8.75 4.972656 -8.78125 5.203125 -8.78125 Z M 5.203125 -8.78125 "/></g></g></g><g fill="#8b93db" fill-opacity="1"><g transform="translate(107.408177, 521.42812)"><g><path d="M 3.953125 -6.09375 C 4.546875 -6.09375 5.078125 -5.957031 5.546875 -5.6875 C 6.023438 -5.425781 6.394531 -5.054688 6.65625 -4.578125 C 6.925781 -4.109375 7.0625 -3.578125 7.0625 -2.984375 C 7.0625 -2.378906 6.925781 -1.835938 6.65625 -1.359375 C 6.394531 -0.890625 6.023438 -0.519531 5.546875 -0.25 C 5.078125 0.0078125 4.546875 0.140625 3.953125 0.140625 C 3.367188 0.140625 2.835938 0.0078125 2.359375 -0.25 C 1.890625 -0.519531 1.519531 -0.890625 1.25 -1.359375 C 0.976562 -1.835938 0.84375 -2.378906 0.84375 -2.984375 C 0.84375 -3.578125 0.976562 -4.109375 1.25 -4.578125 C 1.519531 -5.054688 1.890625 -5.425781 2.359375 -5.6875 C 2.835938 -5.957031 3.367188 -6.09375 3.953125 -6.09375 Z M 3.953125 -5.140625 C 3.535156 -5.140625 3.171875 -5.046875 2.859375 -4.859375 C 2.546875 -4.679688 2.300781 -4.425781 2.125 -4.09375 C 1.957031 -3.769531 1.875 -3.398438 1.875 -2.984375 C 1.875 -2.554688 1.957031 -2.175781 2.125 -1.84375 C 2.300781 -1.519531 2.546875 -1.265625 2.859375 -1.078125 C 3.171875 -0.898438 3.535156 -0.8125 3.953125 -0.8125 C 4.367188 -0.8125 4.734375 -0.898438 5.046875 -1.078125 C 5.367188 -1.265625 5.613281 -1.519531 5.78125 -1.84375 C 5.957031 -2.175781 6.046875 -2.554688 6.046875 -2.984375 C 6.046875 -3.398438 5.957031 -3.769531 5.78125 -4.09375 C 5.613281 -4.425781 5.367188 -4.679688 5.046875 -4.859375 C 4.734375 -5.046875 4.367188 -5.140625 3.953125 -5.140625 Z M 3.953125 -5.140625 "/></g></g></g><g fill="#8b93db" fill-opacity="1"><g transform="translate(115.319565, 521.42812)"><g><path d="M 6.03125 -5.953125 C 6.175781 -5.953125 6.28125 -5.914062 6.34375 -5.84375 C 6.40625 -5.78125 6.4375 -5.671875 6.4375 -5.515625 L 6.4375 -0.875 L 6.96875 -0.875 C 7.113281 -0.875 7.21875 -0.835938 7.28125 -0.765625 C 7.34375 -0.703125 7.375 -0.59375 7.375 -0.4375 C 7.375 -0.28125 7.34375 -0.164062 7.28125 -0.09375 C 7.21875 -0.03125 7.113281 0 6.96875 0 L 5.9375 0 C 5.789062 0 5.6875 -0.03125 5.625 -0.09375 C 5.5625 -0.15625 5.53125 -0.269531 5.53125 -0.4375 L 5.53125 -1.21875 C 5.25 -0.769531 4.914062 -0.429688 4.53125 -0.203125 C 4.15625 0.0234375 3.75 0.140625 3.3125 0.140625 C 2.925781 0.140625 2.585938 0.0546875 2.296875 -0.109375 C 2.003906 -0.285156 1.78125 -0.53125 1.625 -0.84375 C 1.476562 -1.164062 1.40625 -1.535156 1.40625 -1.953125 L 1.40625 -5.078125 L 0.875 -5.078125 C 0.726562 -5.078125 0.625 -5.109375 0.5625 -5.171875 C 0.5 -5.242188 0.46875 -5.359375 0.46875 -5.515625 C 0.46875 -5.671875 0.5 -5.78125 0.5625 -5.84375 C 0.625 -5.914062 0.726562 -5.953125 0.875 -5.953125 L 1.953125 -5.953125 C 2.097656 -5.953125 2.203125 -5.914062 2.265625 -5.84375 C 2.328125 -5.78125 2.359375 -5.671875 2.359375 -5.515625 L 2.359375 -2.0625 C 2.359375 -1.675781 2.445312 -1.367188 2.625 -1.140625 C 2.800781 -0.921875 3.0625 -0.8125 3.40625 -0.8125 C 3.769531 -0.8125 4.109375 -0.914062 4.421875 -1.125 C 4.742188 -1.332031 5 -1.617188 5.1875 -1.984375 C 5.375 -2.359375 5.46875 -2.773438 5.46875 -3.234375 L 5.46875 -5.078125 L 4.5625 -5.078125 C 4.414062 -5.078125 4.3125 -5.109375 4.25 -5.171875 C 4.1875 -5.242188 4.15625 -5.359375 4.15625 -5.515625 C 4.15625 -5.671875 4.1875 -5.78125 4.25 -5.84375 C 4.3125 -5.914062 4.414062 -5.953125 4.5625 -5.953125 Z M 6.03125 -5.953125 "/></g></g></g><g fill="#8b93db" fill-opacity="1"><g transform="translate(123.230952, 521.42812)"><g><path d="M 5.9375 -6.09375 C 6.269531 -6.09375 6.582031 -6.007812 6.875 -5.84375 C 7.039062 -5.738281 7.125 -5.601562 7.125 -5.4375 C 7.125 -5.363281 7.109375 -5.273438 7.078125 -5.171875 C 6.984375 -4.921875 6.859375 -4.796875 6.703125 -4.796875 C 6.640625 -4.796875 6.578125 -4.816406 6.515625 -4.859375 C 6.304688 -4.972656 6.082031 -5.03125 5.84375 -5.03125 C 5.457031 -5.03125 5.066406 -4.894531 4.671875 -4.625 C 4.285156 -4.351562 3.960938 -3.992188 3.703125 -3.546875 C 3.453125 -3.097656 3.328125 -2.625 3.328125 -2.125 L 3.328125 -0.875 L 5.5 -0.875 C 5.644531 -0.875 5.75 -0.835938 5.8125 -0.765625 C 5.875 -0.703125 5.90625 -0.59375 5.90625 -0.4375 C 5.90625 -0.28125 5.875 -0.164062 5.8125 -0.09375 C 5.75 -0.03125 5.644531 0 5.5 0 L 1.359375 0 C 1.210938 0 1.109375 -0.03125 1.046875 -0.09375 C 0.984375 -0.164062 0.953125 -0.28125 0.953125 -0.4375 C 0.953125 -0.59375 0.984375 -0.703125 1.046875 -0.765625 C 1.109375 -0.835938 1.210938 -0.875 1.359375 -0.875 L 2.359375 -0.875 L 2.359375 -5.078125 L 1.546875 -5.078125 C 1.398438 -5.078125 1.296875 -5.109375 1.234375 -5.171875 C 1.171875 -5.242188 1.140625 -5.359375 1.140625 -5.515625 C 1.140625 -5.671875 1.171875 -5.78125 1.234375 -5.84375 C 1.296875 -5.914062 1.398438 -5.953125 1.546875 -5.953125 L 2.859375 -5.953125 C 3.003906 -5.953125 3.109375 -5.914062 3.171875 -5.84375 C 3.234375 -5.78125 3.265625 -5.671875 3.265625 -5.515625 L 3.265625 -4.21875 C 3.472656 -4.59375 3.722656 -4.921875 4.015625 -5.203125 C 4.304688 -5.492188 4.617188 -5.710938 4.953125 -5.859375 C 5.285156 -6.015625 5.613281 -6.09375 5.9375 -6.09375 Z M 5.9375 -6.09375 "/></g></g></g><g fill="#8b93db" fill-opacity="1"><g transform="translate(131.14234, 521.42812)"><g><path d="M 4.6875 -6.09375 C 5.082031 -6.09375 5.421875 -6.007812 5.703125 -5.84375 C 5.992188 -5.675781 6.21875 -5.429688 6.375 -5.109375 C 6.53125 -4.796875 6.609375 -4.425781 6.609375 -4 L 6.609375 -0.875 L 7.125 -0.875 C 7.269531 -0.875 7.375 -0.835938 7.4375 -0.765625 C 7.5 -0.703125 7.53125 -0.59375 7.53125 -0.4375 C 7.53125 -0.28125 7.5 -0.164062 7.4375 -0.09375 C 7.375 -0.03125 7.269531 0 7.125 0 L 5.046875 0 C 4.898438 0 4.796875 -0.03125 4.734375 -0.09375 C 4.671875 -0.164062 4.640625 -0.28125 4.640625 -0.4375 C 4.640625 -0.59375 4.671875 -0.703125 4.734375 -0.765625 C 4.796875 -0.835938 4.898438 -0.875 5.046875 -0.875 L 5.640625 -0.875 L 5.640625 -3.90625 C 5.640625 -4.28125 5.550781 -4.578125 5.375 -4.796875 C 5.195312 -5.023438 4.9375 -5.140625 4.59375 -5.140625 C 4.226562 -5.140625 3.882812 -5.035156 3.5625 -4.828125 C 3.25 -4.617188 3 -4.328125 2.8125 -3.953125 C 2.625 -3.585938 2.53125 -3.175781 2.53125 -2.71875 L 2.53125 -0.875 L 3.125 -0.875 C 3.269531 -0.875 3.375 -0.835938 3.4375 -0.765625 C 3.5 -0.703125 3.53125 -0.59375 3.53125 -0.4375 C 3.53125 -0.28125 3.5 -0.164062 3.4375 -0.09375 C 3.375 -0.03125 3.269531 0 3.125 0 L 1.03125 0 C 0.882812 0 0.78125 -0.03125 0.71875 -0.09375 C 0.65625 -0.164062 0.625 -0.28125 0.625 -0.4375 C 0.625 -0.59375 0.65625 -0.703125 0.71875 -0.765625 C 0.78125 -0.835938 0.882812 -0.875 1.03125 -0.875 L 1.5625 -0.875 L 1.5625 -5.078125 L 0.90625 -5.078125 C 0.757812 -5.078125 0.65625 -5.109375 0.59375 -5.171875 C 0.53125 -5.242188 0.5 -5.359375 0.5 -5.515625 C 0.5 -5.671875 0.53125 -5.78125 0.59375 -5.84375 C 0.65625 -5.914062 0.757812 -5.953125 0.90625 -5.953125 L 2.0625 -5.953125 C 2.207031 -5.953125 2.3125 -5.914062 2.375 -5.84375 C 2.4375 -5.78125 2.46875 -5.671875 2.46875 -5.515625 L 2.46875 -4.75 C 2.75 -5.1875 3.078125 -5.519531 3.453125 -5.75 C 3.835938 -5.976562 4.25 -6.09375 4.6875 -6.09375 Z M 4.6875 -6.09375 "/></g></g></g><g fill="#8b93db" fill-opacity="1"><g transform="translate(139.053728, 521.42812)"><g><path d="M 4.015625 -6.09375 C 4.640625 -6.09375 5.171875 -5.96875 5.609375 -5.71875 C 6.046875 -5.46875 6.382812 -5.117188 6.625 -4.671875 C 6.863281 -4.234375 7 -3.722656 7.03125 -3.140625 C 7.03125 -2.992188 7 -2.890625 6.9375 -2.828125 C 6.875 -2.765625 6.769531 -2.734375 6.625 -2.734375 L 1.953125 -2.734375 C 1.984375 -2.097656 2.175781 -1.613281 2.53125 -1.28125 C 2.882812 -0.957031 3.378906 -0.796875 4.015625 -0.796875 C 4.410156 -0.796875 4.800781 -0.84375 5.1875 -0.9375 C 5.570312 -1.039062 5.910156 -1.175781 6.203125 -1.34375 C 6.273438 -1.382812 6.34375 -1.40625 6.40625 -1.40625 C 6.5625 -1.40625 6.6875 -1.289062 6.78125 -1.0625 C 6.8125 -0.96875 6.828125 -0.882812 6.828125 -0.8125 C 6.828125 -0.644531 6.734375 -0.515625 6.546875 -0.421875 C 6.210938 -0.253906 5.820312 -0.117188 5.375 -0.015625 C 4.925781 0.0859375 4.472656 0.140625 4.015625 0.140625 C 3.367188 0.140625 2.8125 0.015625 2.34375 -0.234375 C 1.882812 -0.484375 1.535156 -0.84375 1.296875 -1.3125 C 1.054688 -1.78125 0.9375 -2.335938 0.9375 -2.984375 C 0.9375 -3.597656 1.066406 -4.140625 1.328125 -4.609375 C 1.597656 -5.078125 1.960938 -5.441406 2.421875 -5.703125 C 2.890625 -5.960938 3.421875 -6.09375 4.015625 -6.09375 Z M 4.015625 -5.15625 C 3.484375 -5.15625 3.046875 -5.019531 2.703125 -4.75 C 2.359375 -4.488281 2.132812 -4.117188 2.03125 -3.640625 L 5.96875 -3.640625 C 5.875 -4.140625 5.664062 -4.515625 5.34375 -4.765625 C 5.019531 -5.023438 4.578125 -5.15625 4.015625 -5.15625 Z M 4.015625 -5.15625 "/></g></g></g><g fill="#8b93db" fill-opacity="1"><g transform="translate(146.965115, 521.42812)"><g><path d="M 7.1875 -5.953125 C 7.332031 -5.953125 7.4375 -5.914062 7.5 -5.84375 C 7.5625 -5.78125 7.59375 -5.671875 7.59375 -5.515625 C 7.59375 -5.359375 7.5625 -5.242188 7.5 -5.171875 C 7.4375 -5.109375 7.332031 -5.078125 7.1875 -5.078125 L 6.78125 -5.078125 L 4.15625 0.328125 C 3.875 0.898438 3.597656 1.347656 3.328125 1.671875 C 3.066406 1.992188 2.769531 2.234375 2.4375 2.390625 C 2.101562 2.546875 1.695312 2.628906 1.21875 2.640625 C 1.070312 2.648438 0.957031 2.613281 0.875 2.53125 C 0.789062 2.445312 0.75 2.304688 0.75 2.109375 C 0.75 1.828125 0.863281 1.679688 1.09375 1.671875 C 1.5 1.648438 1.820312 1.582031 2.0625 1.46875 C 2.3125 1.351562 2.535156 1.148438 2.734375 0.859375 C 2.941406 0.578125 3.195312 0.140625 3.5 -0.453125 L 1.140625 -5.078125 L 0.734375 -5.078125 C 0.585938 -5.078125 0.484375 -5.109375 0.421875 -5.171875 C 0.359375 -5.242188 0.328125 -5.359375 0.328125 -5.515625 C 0.328125 -5.671875 0.359375 -5.78125 0.421875 -5.84375 C 0.484375 -5.914062 0.585938 -5.953125 0.734375 -5.953125 L 3.015625 -5.953125 C 3.160156 -5.953125 3.265625 -5.914062 3.328125 -5.84375 C 3.390625 -5.78125 3.421875 -5.671875 3.421875 -5.515625 C 3.421875 -5.359375 3.390625 -5.242188 3.328125 -5.171875 C 3.265625 -5.109375 3.160156 -5.078125 3.015625 -5.078125 L 2.1875 -5.078125 L 4 -1.453125 L 5.734375 -5.078125 L 5.15625 -5.078125 C 5.007812 -5.078125 4.90625 -5.109375 4.84375 -5.171875 C 4.78125 -5.242188 4.75 -5.359375 4.75 -5.515625 C 4.75 -5.671875 4.78125 -5.78125 4.84375 -5.84375 C 4.90625 -5.914062 5.007812 -5.953125 5.15625 -5.953125 Z M 7.1875 -5.953125 "/></g></g></g></svg>