<svg xmlns="http://www.w3.org/2000/svg" xmlns:xlink="http://www.w3.org/1999/xlink" width="1366" zoomAndPan="magnify" viewBox="0 0 1024.5 576" height="768" preserveAspectRatio="xMidYMid meet" version="1.0"><defs><clipPath id="740353f216"><path d="M 0 0.140625 L 1024 0.140625 L 1024 575.859375 L 0 575.859375 Z M 0 0.140625 " clip-rule="nonzero"/></clipPath><clipPath id="495694eea7"><path d="M 498 422.566406 L 521 422.566406 L 521 502.316406 L 498 502.316406 Z M 498 422.566406 " clip-rule="nonzero"/></clipPath><clipPath id="0a5908046c"><path d="M 486.070312 411 L 498 411 L 498 426 L 486.070312 426 Z M 486.070312 411 " clip-rule="nonzero"/></clipPath><clipPath id="fa5132a522"><path d="M 487 348.011719 L 540 348.011719 L 540 478 L 487 478 Z M 487 348.011719 " clip-rule="nonzero"/></clipPath><clipPath id="9fc69a6e97"><path d="M 523.484375 388 L 562.570312 388 L 562.570312 439 L 523.484375 439 Z M 523.484375 388 " clip-rule="nonzero"/></clipPath></defs><g clip-path="url(#740353f216)"><path fill="#ffffff" d="M 0 0.140625 L 1024.5 0.140625 L 1024.5 583.640625 L 0 583.640625 Z M 0 0.140625 " fill-opacity="1" fill-rule="nonzero"/><path fill="#ffffff" d="M 0 0.140625 L 1024.5 0.140625 L 1024.5 576.140625 L 0 576.140625 Z M 0 0.140625 " fill-opacity="1" fill-rule="nonzero"/><path fill="#ffffff" d="M 0 0.140625 L 1024.5 0.140625 L 1024.5 576.140625 L 0 576.140625 Z M 0 0.140625 " fill-opacity="1" fill-rule="nonzero"/></g><g clip-path="url(#495694eea7)"><path fill="#040505" d="M 501.34375 426.546875 C 500.492188 426.386719 499.867188 425.40625 500.179688 424.46875 L 500.210938 424.382812 L 500.3125 424.324219 C 501.015625 423.945312 501.941406 424.042969 502.570312 424.628906 L 502.59375 424.652344 L 502.621094 424.703125 C 503.269531 425.726562 502.929688 427.15625 501.832031 427.808594 C 500.703125 428.417969 499.242188 428.015625 498.585938 426.824219 L 498.523438 426.699219 L 498.53125 426.496094 C 498.558594 425.246094 499.097656 424.035156 499.984375 423.125 L 500.332031 422.761719 L 500.820312 422.972656 C 502.578125 423.738281 504.019531 425.195312 504.878906 426.828125 C 505.785156 428.464844 506.25 430.226562 506.570312 431.957031 C 507.160156 435.464844 507.246094 438.875 508.078125 442.222656 C 509.601562 448.976562 512.933594 455.105469 515.652344 461.496094 C 518.320312 467.867188 520.582031 474.765625 520.347656 481.910156 C 520.109375 489.011719 518.167969 495.78125 515.898438 502.316406 L 515.71875 502.273438 C 516.945312 495.453125 518.523438 488.675781 518.453125 481.894531 C 518.4375 475.128906 516.605469 468.503906 514.242188 462.035156 C 511.960938 455.527344 509.398438 449.066406 507.386719 442.40625 C 506.308594 439.089844 505.808594 435.566406 505.039062 432.285156 C 504.289062 429.035156 503.082031 425.71875 500.195312 424.339844 L 501.03125 424.1875 C 500.367188 424.796875 499.949219 425.675781 499.832031 426.582031 L 499.773438 426.261719 C 499.941406 426.78125 500.785156 427.132812 501.335938 426.863281 C 501.902344 426.632812 502.230469 425.726562 501.925781 425.109375 L 501.984375 425.1875 C 501.691406 424.804688 501.050781 424.617188 500.550781 424.820312 L 500.683594 424.671875 C 500.40625 425.21875 500.703125 426.101562 501.394531 426.363281 L 501.34375 426.546875 " fill-opacity="1" fill-rule="nonzero"/></g><g clip-path="url(#0a5908046c)"><path fill="#040505" d="M 494.699219 417.128906 C 494.042969 416.066406 493.433594 415.066406 492.699219 414.296875 C 491.964844 413.527344 491.085938 413.0625 490.152344 412.859375 C 489.257812 412.597656 488.101562 412.851562 487.464844 413.824219 C 486.816406 414.769531 486.859375 416.023438 487.304688 417.039062 C 488.269531 419.058594 489.832031 420.765625 491.609375 422.085938 C 493.351562 423.472656 495.367188 424.519531 497.699219 425.277344 L 497.691406 425.464844 C 495.214844 425.894531 492.539062 425.167969 490.421875 423.6875 C 489.359375 422.9375 488.480469 421.949219 487.753906 420.882812 C 487.011719 419.828125 486.476562 418.601562 486.316406 417.296875 C 486.140625 415.988281 486.34375 414.660156 486.945312 413.519531 C 487.246094 412.953125 487.644531 412.386719 488.226562 411.964844 C 488.816406 411.550781 489.558594 411.3125 490.300781 411.316406 C 491.773438 411.339844 493.097656 412.277344 493.832031 413.410156 C 494.589844 414.542969 494.859375 415.828125 494.878906 417.078125 L 494.699219 417.128906 " fill-opacity="1" fill-rule="nonzero"/></g><path fill="#040505" d="M 502.914062 424.933594 C 502.257812 423.199219 501.933594 421.347656 501.886719 419.480469 C 501.875 417.558594 501.996094 416.023438 501.234375 414.617188 C 500.441406 413.15625 499.320312 411.617188 497.992188 410.445312 C 496.644531 409.257812 495.046875 408.382812 493.417969 407.679688 L 494.328125 407.296875 C 493.855469 410.207031 495.148438 413.230469 495.722656 416.410156 C 496.058594 417.960938 496.289062 419.625 496.566406 421.121094 C 496.863281 422.597656 497.324219 424.128906 498.777344 424.839844 L 498.726562 425.019531 C 497.882812 424.964844 497.046875 424.449219 496.488281 423.773438 C 495.925781 423.089844 495.527344 422.3125 495.207031 421.523438 C 494.625 419.910156 494.238281 418.421875 493.824219 416.84375 C 493.425781 415.277344 493.089844 413.730469 492.835938 412.074219 C 492.597656 410.445312 492.488281 408.640625 493.113281 406.96875 L 493.417969 406.164062 L 494.027344 406.574219 C 495.570312 407.636719 496.964844 408.84375 498.363281 410.027344 C 499.738281 411.261719 501.207031 412.3125 502.449219 413.847656 C 503.089844 414.617188 503.472656 415.734375 503.515625 416.726562 C 503.554688 417.730469 503.453125 418.652344 503.363281 419.523438 C 503.210938 421.28125 503.140625 423.0625 503.09375 424.90625 L 502.914062 424.933594 " fill-opacity="1" fill-rule="nonzero"/><path fill="#040505" d="M 499.597656 423.082031 C 499.054688 422.453125 498.886719 422.015625 499.003906 421.515625 C 499.105469 421.269531 499.371094 420.984375 499.394531 420.714844 C 499.417969 420.4375 499.25 420.199219 499.03125 419.996094 C 498.542969 419.605469 498.28125 419.210938 498.0625 418.792969 C 497.925781 418.320312 497.875 417.824219 498.011719 417.03125 L 498.160156 416.917969 C 498.972656 416.976562 499.503906 417.40625 499.84375 417.914062 C 500.105469 418.457031 500.230469 419.089844 500.019531 419.742188 C 499.933594 420.0625 499.875 420.351562 499.992188 420.621094 C 500.085938 420.882812 500.414062 421.136719 500.550781 421.433594 C 500.726562 422.015625 500.507812 422.660156 499.789062 423.113281 L 499.597656 423.082031 " fill-opacity="1" fill-rule="nonzero"/><path fill="#040505" d="M 491.003906 418.085938 C 491.839844 418.472656 492.277344 418.878906 492.507812 419.472656 C 492.589844 419.792969 492.546875 420.230469 492.71875 420.519531 C 492.878906 420.816406 493.199219 420.976562 493.542969 421.078125 C 494.261719 421.246094 494.800781 421.515625 495.324219 421.820312 C 495.808594 422.195312 496.246094 422.640625 496.703125 423.410156 L 496.644531 423.589844 C 495.808594 423.953125 495.003906 423.832031 494.320312 423.527344 C 493.671875 423.140625 493.113281 422.589844 492.84375 421.828125 C 492.699219 421.457031 492.546875 421.128906 492.261719 420.910156 C 491.992188 420.6875 491.535156 420.59375 491.230469 420.351562 C 490.691406 419.828125 490.480469 419.023438 490.828125 418.152344 L 491.003906 418.085938 " fill-opacity="1" fill-rule="nonzero"/><g clip-path="url(#fa5132a522)"><path fill="#040505" d="M 527.65625 357.820312 C 529.234375 356.507812 530.976562 355.382812 532.847656 354.488281 C 533.777344 354.046875 534.738281 353.660156 535.726562 353.332031 C 536.664062 353.066406 537.785156 352.535156 538.976562 353.160156 C 539.523438 353.480469 539.863281 354.152344 539.847656 354.757812 C 539.855469 355.359375 539.683594 355.902344 539.464844 356.40625 C 539.007812 357.429688 538.375 358.214844 537.84375 359.085938 L 534.492188 364.234375 L 527.78125 374.515625 C 526.660156 376.207031 525.539062 377.988281 524.085938 379.554688 C 522.675781 381.125 520.734375 382.527344 518.414062 382.792969 L 517.324219 382.917969 L 517.601562 381.84375 C 519.609375 374.066406 521.972656 366.367188 524.828125 358.851562 C 525.503906 356.992188 526.332031 355.054688 526.941406 353.28125 C 527.210938 352.402344 527.34375 351.488281 527.117188 350.804688 C 526.898438 350.125 526.273438 349.695312 525.46875 349.644531 C 523.796875 349.535156 522.050781 350.667969 520.554688 351.835938 C 519.03125 353.058594 517.660156 354.503906 516.148438 355.867188 C 514.648438 357.21875 512.941406 358.554688 510.847656 359.070312 C 509.820312 359.355469 508.703125 359.347656 507.683594 359.1875 C 506.652344 359.019531 505.683594 358.722656 504.722656 358.503906 C 503.773438 358.277344 502.804688 358.140625 501.886719 358.292969 C 500.972656 358.445312 500.136719 358.925781 499.496094 359.609375 C 498.1875 360.996094 497.738281 363.027344 498.0625 364.921875 C 498.382812 366.839844 499.300781 368.632812 500.40625 370.269531 C 501.519531 371.902344 502.847656 373.390625 504.324219 374.71875 C 507.269531 377.398438 510.65625 379.539062 514.054688 381.660156 L 513.652344 382.234375 C 510.722656 380.09375 507.734375 378.023438 504.695312 376.042969 C 503.167969 375.054688 501.632812 374.082031 500.085938 373.136719 C 498.53125 372.207031 497.003906 371.191406 495.402344 370.550781 C 493.804688 369.890625 492.058594 369.746094 490.617188 370.492188 C 489.144531 371.191406 488.460938 372.773438 489.035156 374.253906 C 489.550781 375.757812 490.894531 376.828125 492.472656 377.484375 C 494.050781 378.152344 495.847656 378.625 497.570312 379.191406 C 501.039062 380.261719 504.5 381.320312 508.015625 382.097656 C 509.761719 382.496094 511.5 382.832031 513.011719 382.476562 C 513.390625 382.386719 513.742188 382.265625 514.066406 382.082031 C 514.417969 381.894531 514.816406 381.625 515.339844 381.398438 C 515.820312 381.175781 516.707031 380.957031 517.476562 381.421875 C 518.25 381.910156 518.5 382.664062 518.539062 383.324219 C 518.597656 384.800781 517.5625 385.875 516.429688 386.308594 C 515.847656 386.535156 515.148438 386.597656 514.472656 386.382812 C 513.796875 386.1875 513.214844 385.664062 512.910156 385.066406 C 512.316406 383.871094 512.4375 382.519531 513.269531 381.4375 C 514.207031 380.296875 515.835938 380.21875 516.894531 380.703125 C 517.988281 381.140625 518.859375 382.097656 519.289062 383.078125 C 519.738281 384.066406 519.90625 385.066406 520.042969 385.980469 L 520.820312 391.386719 L 523.910156 412.980469 C 524.40625 416.582031 524.921875 420.171875 525.335938 423.816406 C 525.757812 427.453125 525.816406 431.238281 525.207031 434.890625 C 524.636719 438.542969 523.664062 442.058594 522.878906 445.59375 C 522.070312 449.125 521.382812 452.6875 520.800781 456.269531 C 519.65625 463.429688 518.785156 470.648438 518.429688 477.910156 L 518.25 477.902344 C 518.347656 470.625 518.792969 463.335938 519.847656 456.125 C 520.363281 452.515625 520.980469 448.914062 521.707031 445.339844 C 522.429688 441.757812 523.324219 438.238281 523.796875 434.6875 C 524.878906 427.597656 523.015625 420.445312 522.066406 413.25 L 518.894531 391.660156 L 518.101562 386.273438 C 517.863281 384.515625 517.367188 383 516.140625 382.503906 C 515.558594 382.25 515.003906 382.359375 514.75 382.671875 C 514.445312 383.011719 514.359375 383.761719 514.597656 384.183594 C 514.800781 384.59375 515.222656 384.734375 515.773438 384.550781 C 516.320312 384.363281 516.734375 383.816406 516.691406 383.425781 C 516.699219 383.195312 516.5625 383 516.539062 383.003906 C 516.503906 382.976562 516.394531 382.949219 516.050781 383.078125 C 515.730469 383.207031 515.375 383.441406 514.925781 383.679688 C 514.445312 383.933594 513.929688 384.117188 513.421875 384.234375 C 511.339844 384.675781 509.398438 384.203125 507.625 383.804688 C 504.039062 382.960938 500.527344 381.886719 497.074219 380.722656 C 495.351562 380.113281 493.621094 379.644531 491.855469 378.859375 C 490.125 378.097656 488.351562 376.714844 487.71875 374.691406 C 487.390625 373.710938 487.367188 372.546875 487.828125 371.539062 C 488.277344 370.539062 489.128906 369.796875 490.050781 369.351562 C 491.914062 368.421875 494.125 368.707031 495.839844 369.46875 C 497.613281 370.226562 499.105469 371.285156 500.644531 372.242188 C 502.1875 373.230469 503.707031 374.242188 505.210938 375.265625 C 508.230469 377.320312 511.179688 379.460938 514.074219 381.675781 L 513.671875 382.257812 C 510.300781 380.101562 506.890625 377.910156 503.917969 375.164062 C 502.425781 373.796875 501.082031 372.257812 499.933594 370.585938 C 498.792969 368.925781 497.808594 367.078125 497.445312 365.023438 C 497.0625 363 497.527344 360.710938 498.988281 359.136719 C 499.699219 358.351562 500.695312 357.761719 501.757812 357.582031 C 502.828125 357.398438 503.894531 357.539062 504.890625 357.734375 C 506.875 358.175781 508.78125 358.714844 510.605469 358.15625 C 512.425781 357.652344 513.972656 356.40625 515.390625 355.054688 C 516.824219 353.695312 518.175781 352.195312 519.746094 350.855469 C 520.546875 350.203125 521.375 349.558594 522.328125 349.070312 C 523.257812 348.539062 524.363281 348.179688 525.554688 348.222656 C 526.746094 348.222656 528.121094 349.035156 528.527344 350.296875 C 528.972656 351.539062 528.710938 352.710938 528.425781 353.726562 C 527.75 355.75 527.003906 357.496094 526.324219 359.410156 C 523.605469 366.914062 521.148438 374.515625 519.070312 382.230469 L 518.253906 381.285156 C 520.058594 381.09375 521.703125 379.992188 523.023438 378.5625 C 524.371094 377.136719 525.46875 375.445312 526.625 373.746094 L 533.582031 363.625 L 537.066406 358.570312 C 537.617188 357.714844 538.285156 356.890625 538.699219 356.058594 C 539.128906 355.222656 539.289062 354.199219 538.589844 353.753906 C 537.914062 353.3125 536.847656 353.617188 535.894531 353.886719 C 534.921875 354.160156 533.960938 354.496094 533.03125 354.894531 C 531.160156 355.695312 529.394531 356.726562 527.773438 357.96875 L 527.65625 357.820312 " fill-opacity="1" fill-rule="nonzero"/></g><path fill="#040505" d="M 502.78125 379.136719 C 503.910156 378.867188 504.871094 378.996094 505.742188 379.433594 C 506.164062 379.6875 506.527344 380.121094 506.980469 380.316406 C 507.414062 380.53125 507.917969 380.550781 508.417969 380.53125 C 509.449219 380.441406 510.394531 380.585938 511.328125 380.8125 C 512.234375 381.132812 513.117188 381.554688 513.9375 382.34375 L 513.894531 382.527344 C 512.824219 382.902344 511.8125 382.886719 510.847656 382.734375 C 509.894531 382.488281 508.96875 382.132812 508.140625 381.507812 C 507.710938 381.21875 507.285156 380.964844 506.796875 380.890625 C 506.316406 380.804688 505.761719 380.941406 505.261719 380.90625 C 504.289062 380.738281 503.414062 380.238281 502.71875 379.308594 L 502.78125 379.136719 " fill-opacity="1" fill-rule="nonzero"/><path fill="#040505" d="M 516.679688 382.671875 C 517.144531 381.488281 517.804688 380.652344 518.667969 379.992188 C 519.128906 379.6875 519.722656 379.496094 520.128906 379.128906 C 520.546875 378.765625 520.8125 378.261719 521.027344 377.742188 C 521.417969 376.660156 521.941406 375.730469 522.5 374.8125 C 523.140625 373.949219 523.839844 373.128906 524.847656 372.390625 L 525.015625 372.460938 C 525.082031 373.726562 524.71875 374.851562 524.1875 375.867188 C 523.578125 376.832031 522.820312 377.71875 521.824219 378.371094 C 521.347656 378.714844 520.902344 379.0625 520.582031 379.527344 C 520.253906 379.984375 520.085938 380.59375 519.769531 381.082031 C 519.0625 381.988281 518.066406 382.628906 516.792969 382.816406 L 516.679688 382.671875 " fill-opacity="1" fill-rule="nonzero"/><path fill="#040505" d="M 510.496094 374.152344 C 511.269531 374.65625 511.617188 375.167969 511.703125 375.816406 C 511.703125 376.148438 511.550781 376.5625 511.632812 376.882812 C 511.703125 377.210938 511.953125 377.457031 512.25 377.667969 C 512.875 378.0625 513.28125 378.523438 513.652344 379.03125 C 513.945312 379.59375 514.160156 380.195312 514.167969 381.089844 L 514.03125 381.210938 C 513.136719 381.132812 512.511719 380.703125 512.03125 380.179688 C 511.632812 379.601562 511.339844 378.921875 511.347656 378.140625 C 511.328125 377.761719 511.289062 377.414062 511.085938 377.132812 C 510.890625 376.847656 510.484375 376.644531 510.25 376.355469 C 509.871094 375.75 509.835938 374.988281 510.316406 374.195312 L 510.496094 374.152344 " fill-opacity="1" fill-rule="nonzero"/><path fill="#040505" d="M 516.371094 381.769531 C 516.074219 380.8125 516.082031 380.105469 516.351562 379.410156 C 516.53125 379.070312 516.878906 378.734375 516.96875 378.359375 C 517.070312 377.980469 516.960938 377.582031 516.800781 377.210938 C 516.414062 376.46875 516.226562 375.78125 516.066406 375.074219 C 515.996094 374.347656 515.988281 373.617188 516.21875 372.664062 L 516.394531 372.589844 C 517.265625 373.078125 517.746094 373.839844 518.007812 374.65625 C 518.183594 375.480469 518.175781 376.367188 517.820312 377.195312 C 517.660156 377.609375 517.527344 378 517.570312 378.402344 C 517.59375 378.808594 517.839844 379.25 517.875 379.6875 C 517.867188 380.535156 517.441406 381.347656 516.546875 381.84375 L 516.371094 381.769531 " fill-opacity="1" fill-rule="nonzero"/><g clip-path="url(#9fc69a6e97)"><path fill="#040505" d="M 556.921875 402.351562 C 556.222656 399.730469 555.234375 397.046875 553.222656 395.3125 C 552.222656 394.480469 551.03125 393.867188 549.765625 393.613281 C 548.523438 393.339844 547.222656 393.519531 546.4375 394.355469 C 545.628906 395.183594 545.273438 396.503906 544.824219 397.796875 C 544.371094 399.089844 543.964844 400.375 543.644531 401.675781 C 543.019531 404.257812 542.851562 406.96875 543.835938 409.308594 L 542.632812 408.9375 C 546.464844 406.34375 550.585938 404.203125 554.851562 402.429688 C 555.933594 402.023438 556.957031 401.550781 558.191406 401.261719 C 558.804688 401.132812 559.464844 401.050781 560.164062 401.195312 C 560.855469 401.320312 561.542969 401.753906 561.9375 402.351562 C 563.296875 404.738281 562.570312 407.449219 561.226562 409.371094 C 559.859375 411.355469 557.765625 412.699219 555.574219 413.460938 C 553.375 414.25 551.113281 414.628906 548.84375 415.066406 C 547.695312 415.226562 546.507812 415.3125 545.324219 415.09375 C 544.160156 414.90625 542.917969 414.246094 542.34375 413.082031 C 541.753906 411.921875 541.847656 410.652344 541.914062 409.523438 C 541.980469 408.378906 542.074219 407.238281 542.183594 406.089844 C 542.417969 403.808594 542.722656 401.523438 543.121094 399.265625 C 543.523438 397.027344 543.964844 394.769531 543.214844 392.886719 C 542.851562 391.949219 542.226562 391.132812 541.421875 390.722656 C 540.628906 390.304688 539.667969 390.339844 538.78125 390.679688 C 536.941406 391.378906 535.863281 393.265625 535.539062 395.355469 C 534.933594 399.628906 535.726562 404.195312 537.332031 408.253906 C 538.140625 410.265625 539.28125 412.320312 540.511719 413.925781 C 540.800781 414.222656 540.917969 414.257812 541.214844 414.246094 C 541.5 414.214844 541.863281 414.027344 542.082031 413.765625 C 542.546875 413.242188 542.675781 412.234375 542.582031 411.195312 L 543.449219 412.050781 C 541.964844 411.90625 540.589844 411.914062 539.960938 412.734375 C 539.625 413.15625 539.527344 413.5625 539.726562 413.925781 C 539.835938 414.160156 540.082031 414.457031 540.316406 414.898438 C 540.570312 415.347656 540.664062 416.03125 540.539062 416.539062 C 540.285156 417.578125 539.703125 418.195312 539.304688 418.804688 L 537.980469 420.664062 L 535.320312 424.367188 C 533.53125 426.824219 531.722656 429.277344 529.851562 431.679688 C 527.960938 434.070312 526.003906 436.40625 524 438.695312 L 523.851562 438.578125 C 527.527344 433.730469 530.921875 428.703125 534.265625 423.632812 L 536.773438 419.835938 L 538.039062 417.933594 C 538.46875 417.289062 538.890625 416.699219 538.960938 416.226562 C 539 415.988281 538.976562 415.878906 538.859375 415.660156 C 538.742188 415.4375 538.488281 415.144531 538.242188 414.703125 C 537.980469 414.257812 537.859375 413.597656 537.957031 413.070312 C 538.054688 412.515625 538.292969 412.046875 538.597656 411.652344 C 539.210938 410.839844 540.21875 410.375 541.09375 410.242188 C 541.984375 410.089844 542.824219 410.132812 543.585938 410.195312 L 544.394531 410.25 L 544.445312 411.050781 C 544.523438 412.242188 544.546875 413.722656 543.507812 415 C 542.988281 415.597656 542.285156 416.019531 541.433594 416.125 C 540.585938 416.292969 539.542969 415.785156 539.101562 415.203125 C 537.53125 413.199219 536.453125 411.203125 535.523438 408.996094 C 533.71875 404.601562 533.042969 399.808594 533.761719 395.03125 C 533.988281 393.832031 534.402344 392.605469 535.132812 391.53125 C 535.863281 390.433594 536.925781 389.5625 538.183594 389.097656 C 539.414062 388.625 540.953125 388.609375 542.183594 389.324219 C 543.410156 390.003906 544.199219 391.175781 544.617188 392.367188 C 545.5 394.863281 544.832031 397.324219 544.351562 399.503906 C 543.855469 401.71875 543.441406 403.953125 543.128906 406.207031 C 542.976562 407.332031 542.84375 408.457031 542.730469 409.589844 C 542.617188 410.714844 542.511719 411.839844 542.960938 412.769531 C 543.410156 413.707031 544.386719 414.265625 545.449219 414.464844 C 546.515625 414.679688 547.648438 414.617188 548.761719 414.476562 C 550.988281 414.121094 553.257812 413.65625 555.351562 412.859375 C 557.4375 412.058594 559.394531 410.8125 560.535156 408.921875 C 561.117188 408 561.507812 406.96875 561.609375 405.914062 C 561.703125 404.898438 561.523438 403.746094 561 403.019531 C 560.484375 402.3125 559.507812 402.253906 558.496094 402.53125 C 557.515625 402.808594 556.464844 403.335938 555.429688 403.78125 C 551.285156 405.617188 547.328125 407.839844 543.527344 410.289062 L 542.691406 410.824219 L 542.328125 409.917969 C 541.207031 407.085938 541.515625 404.027344 542.21875 401.324219 C 542.574219 399.953125 543.027344 398.632812 543.507812 397.332031 C 544.015625 396.082031 544.414062 394.632812 545.59375 393.484375 C 546.808594 392.316406 548.617188 392.226562 550 392.613281 C 551.417969 392.976562 552.734375 393.6875 553.773438 394.710938 C 555.839844 396.796875 556.667969 399.621094 557.101562 402.3125 L 556.921875 402.351562 " fill-opacity="1" fill-rule="nonzero"/></g><path fill="#040505" d="M 539.230469 402.21875 C 539.585938 403.191406 539.617188 403.933594 539.382812 404.679688 C 539.222656 405.050781 538.894531 405.429688 538.839844 405.828125 C 538.757812 406.234375 538.890625 406.644531 539.085938 407.019531 C 539.527344 407.765625 539.769531 408.480469 539.988281 409.199219 C 540.050781 409.578125 540.121094 409.953125 540.125 410.367188 C 540.140625 410.554688 540.160156 410.816406 540.121094 410.976562 C 540.105469 411.042969 540.03125 411.007812 539.882812 411.085938 C 539.726562 411.164062 539.785156 411.277344 539.8125 411.261719 C 539.804688 411.253906 539.964844 411.324219 539.972656 411.253906 L 539.878906 411.09375 C 539.890625 411.042969 540.042969 411.019531 540.113281 411.085938 C 540.175781 411.136719 540.203125 411.195312 540.21875 411.246094 C 540.257812 411.332031 540.273438 411.566406 540 411.675781 C 539.640625 411.78125 539.40625 411.542969 539.296875 411.449219 C 539.070312 411.238281 538.941406 411.117188 538.773438 410.925781 C 538.46875 410.578125 538.257812 410.179688 538.089844 409.765625 C 537.84375 408.914062 537.777344 407.992188 538.074219 407.109375 C 538.199219 406.664062 538.292969 406.242188 538.234375 405.820312 C 538.179688 405.410156 537.90625 404.957031 537.84375 404.507812 C 537.796875 403.621094 538.183594 402.742188 539.054688 402.160156 L 539.230469 402.21875 " fill-opacity="1" fill-rule="nonzero"/><path fill="#040505" d="M 543.8125 412.445312 C 544.675781 411.878906 545.476562 411.769531 546.253906 411.933594 C 546.632812 412.058594 547.03125 412.363281 547.433594 412.398438 C 547.832031 412.457031 548.226562 412.304688 548.582031 412.089844 C 549.285156 411.609375 549.925781 411.316406 550.558594 411.011719 C 551.226562 410.789062 551.882812 410.613281 552.855469 410.417969 L 552.992188 410.542969 C 552.902344 411.574219 552.195312 412.351562 551.402344 412.808594 C 550.566406 413.199219 549.628906 413.34375 548.726562 413.097656 C 548.28125 412.996094 547.871094 412.917969 547.453125 413.003906 C 547.046875 413.082031 546.625 413.382812 546.203125 413.480469 C 545.351562 413.597656 544.539062 413.335938 543.789062 412.625 L 543.8125 412.445312 " fill-opacity="1" fill-rule="nonzero"/><path fill="#040505" d="M 546.765625 403.070312 C 546.675781 403.910156 546.480469 404.339844 546.035156 404.625 C 545.789062 404.730469 545.390625 404.753906 545.1875 404.945312 C 544.976562 405.132812 544.929688 405.429688 544.945312 405.734375 C 545.027344 406.367188 544.953125 406.839844 544.835938 407.308594 C 544.625 407.761719 544.34375 408.183594 543.730469 408.71875 L 543.550781 408.710938 C 542.960938 408.128906 542.835938 407.433594 542.917969 406.796875 C 543.089844 406.1875 543.433594 405.605469 544.042969 405.25 C 544.335938 405.066406 544.582031 404.882812 544.691406 404.601562 C 544.808594 404.332031 544.757812 403.910156 544.871094 403.601562 C 545.171875 403.039062 545.820312 402.714844 546.652344 402.917969 L 546.765625 403.070312 " fill-opacity="1" fill-rule="nonzero"/></svg>