<svg xmlns="http://www.w3.org/2000/svg" xmlns:xlink="http://www.w3.org/1999/xlink" width="1366" zoomAndPan="magnify" viewBox="0 0 1024.5 576" height="768" preserveAspectRatio="xMidYMid meet" version="1.0"><defs><clipPath id="b0e31735f5"><path d="M 0 0.140625 L 1024 0.140625 L 1024 575.859375 L 0 575.859375 Z M 0 0.140625 " clip-rule="nonzero"/></clipPath><clipPath id="e9e9191f65"><path d="M 697 167 L 857 167 L 857 323 L 697 323 Z M 697 167 " clip-rule="nonzero"/></clipPath><clipPath id="cdaea867d1"><path d="M 664.769531 224.554688 L 805.5 132.800781 L 898.074219 274.785156 L 757.34375 366.542969 Z M 664.769531 224.554688 " clip-rule="nonzero"/></clipPath><clipPath id="114f7822a1"><path d="M 664.769531 224.554688 L 805.5 132.800781 L 898.074219 274.785156 L 757.34375 366.542969 Z M 664.769531 224.554688 " clip-rule="nonzero"/></clipPath><clipPath id="f724423976"><path d="M 664.78125 36.144531 L 769 36.144531 L 769 117 L 664.78125 117 Z M 664.78125 36.144531 " clip-rule="nonzero"/></clipPath><clipPath id="e7501245dd"><path d="M 48 300.476562 L 80 300.476562 L 80 350 L 48 350 Z M 48 300.476562 " clip-rule="nonzero"/></clipPath><clipPath id="d407cd1fa3"><path d="M 78 300.476562 L 86 300.476562 L 86 315 L 78 315 Z M 78 300.476562 " clip-rule="nonzero"/></clipPath><clipPath id="7ffe86fb9f"><path d="M 26 346 L 59 346 L 59 542.726562 L 26 542.726562 Z M 26 346 " clip-rule="nonzero"/></clipPath><clipPath id="9eab4d89c1"><path d="M 0 333 L 109.5 333 L 109.5 499 L 0 499 Z M 0 333 " clip-rule="nonzero"/></clipPath><clipPath id="4fd95f1743"><path d="M 0 0.140625 L 255 0.140625 L 255 190 L 0 190 Z M 0 0.140625 " clip-rule="nonzero"/></clipPath><clipPath id="b558e8f2fd"><path d="M 0 0.140625 L 301.171875 0.140625 L 301.171875 230.390625 L 0 230.390625 Z M 0 0.140625 " clip-rule="nonzero"/></clipPath><clipPath id="806fd5b069"><path d="M 769 307 L 1024 307 L 1024 496.769531 L 769 496.769531 Z M 769 307 " clip-rule="nonzero"/></clipPath><clipPath id="5bead625b4"><path d="M 723.324219 266.660156 L 1024 266.660156 L 1024 496.769531 L 723.324219 496.769531 Z M 723.324219 266.660156 " clip-rule="nonzero"/></clipPath></defs><g clip-path="url(#b0e31735f5)"><path fill="#ffffff" d="M 0 0.140625 L 1024.5 0.140625 L 1024.5 583.640625 L 0 583.640625 Z M 0 0.140625 " fill-opacity="1" fill-rule="nonzero"/><path fill="#ffffff" d="M 0 0.140625 L 1024.5 0.140625 L 1024.5 576.140625 L 0 576.140625 Z M 0 0.140625 " fill-opacity="1" fill-rule="nonzero"/><path fill="#ffffff" d="M 0 0.140625 L 1024.5 0.140625 L 1024.5 576.140625 L 0 576.140625 Z M 0 0.140625 " fill-opacity="1" fill-rule="nonzero"/></g><path fill="#ffffff" d="M 625.132812 233.21875 C 616.421875 210.066406 629.65625 199.042969 632.109375 182.003906 C 634.566406 164.964844 660.117188 97.957031 730.753906 80.867188 C 801.394531 63.78125 839.167969 66.234375 853.796875 102.820312 C 868.421875 139.402344 867.171875 194.230469 835.511719 210.066406 C 803.847656 225.902344 707.945312 262.152344 691.777344 267.300781 C 657.660156 278.277344 631.582031 250.355469 625.132812 233.21875 Z M 625.132812 233.21875 " fill-opacity="1" fill-rule="nonzero"/><g clip-path="url(#e9e9191f65)"><g clip-path="url(#cdaea867d1)"><g clip-path="url(#114f7822a1)"><path fill="#d6e8f7" d="M 845.144531 290.046875 C 821.335938 324.820312 743.925781 338.101562 715.113281 297.894531 C 688.300781 260.398438 694.128906 221.699219 721.410156 190.066406 C 725.636719 185.246094 730.875 181.457031 736.796875 178.945312 C 754.722656 171.199219 795.238281 157.617188 820.597656 179.097656 C 853.960938 207.367188 868.976562 255.257812 845.144531 290.046875 Z M 817.957031 187.160156 C 794.925781 167.691406 758.035156 180.144531 741.714844 187.183594 C 736.347656 189.445312 731.542969 192.917969 727.703125 197.296875 C 702.820312 226.089844 697.425781 261.242188 721.753906 295.214844 C 747.839844 331.648438 818.296875 319.40625 840.042969 287.816406 C 861.789062 256.226562 848.25 212.742188 817.957031 187.160156 Z M 817.957031 187.160156 " fill-opacity="1" fill-rule="nonzero"/></g></g></g><g clip-path="url(#f724423976)"><path fill="#cb962e" d="M 735.316406 44.675781 C 733.984375 45.75 733.128906 47.394531 733.128906 49.234375 C 733.128906 52.46875 735.765625 55.09375 739.015625 55.09375 C 740.210938 55.09375 741.6875 54.75 743.074219 53.605469 C 743.851562 52.964844 745.339844 50.820312 745.339844 50.820312 C 745.339844 50.820312 745.277344 50.914062 745.25 50.949219 C 746.183594 49.671875 747.207031 48.136719 748.371094 47.09375 C 750.785156 44.933594 750.988281 41.222656 748.816406 38.816406 C 746.648438 36.410156 742.925781 36.210938 740.507812 38.371094 C 738.765625 39.933594 737.128906 42.144531 735.734375 44.054688 C 735.664062 44.148438 735.480469 44.429688 735.316406 44.675781 Z M 715.640625 52.742188 C 717.09375 51.507812 717.914062 49.59375 717.660156 47.566406 C 717.277344 44.457031 715.4375 43.019531 712.960938 42.53125 C 712.214844 42.382812 710.371094 42.050781 708.289062 43.582031 C 708.003906 43.789062 706.566406 45.3125 706.1875 45.671875 C 704.804688 46.976562 703.570312 48.339844 702.339844 49.789062 C 702.300781 49.839844 701.902344 50.238281 701.640625 50.5 C 700.125 51.558594 699.132812 53.3125 699.132812 55.296875 C 699.132812 58.195312 700.667969 59.691406 702.378906 60.550781 C 703.390625 61.054688 705.226562 61.726562 707.601562 60.59375 C 708.148438 60.335938 711.085938 57.644531 711.34375 57.339844 C 712.285156 56.230469 713.222656 55.179688 714.28125 54.183594 C 714.488281 53.988281 715.3125 53.097656 715.640625 52.742188 Z M 676.144531 63.601562 C 676.847656 62.976562 678.867188 61.179688 679.320312 60.675781 L 681.019531 58.617188 C 681.242188 58.351562 681.511719 57.96875 681.707031 57.683594 C 682.980469 56.183594 683.46875 54.082031 682.8125 52.082031 C 682.207031 50.230469 681.046875 49.273438 679.949219 48.699219 C 678.597656 47.992188 676.953125 47.671875 675.019531 48.445312 C 674.476562 48.660156 673.660156 49.054688 672.839844 49.941406 C 672.714844 50.078125 672.378906 50.632812 671.976562 51.109375 L 670.578125 52.8125 C 670.074219 53.25 667.09375 55.847656 666.152344 57.246094 C 665.148438 58.734375 664.789062 60.226562 664.789062 61.445312 C 664.789062 64.679688 667.425781 67.308594 670.671875 67.308594 C 673.15625 67.308594 675.28125 65.769531 676.144531 63.601562 Z M 753.40625 74.886719 C 751.628906 75.894531 750.433594 77.796875 750.433594 79.980469 C 750.433594 83.214844 753.070312 85.839844 756.316406 85.839844 C 757.339844 85.839844 759.386719 85.453125 761.367188 83.574219 C 763.082031 81.945312 766.03125 77.8125 766.714844 77.132812 C 769.015625 74.851562 769.027344 71.136719 766.738281 68.84375 C 764.445312 66.550781 760.71875 66.539062 758.414062 68.820312 C 757.824219 69.40625 754.222656 73.875 753.40625 74.886719 Z M 731.0625 80.558594 C 732.414062 79.046875 732.941406 76.878906 732.261719 74.824219 C 731.242188 71.75 727.914062 70.078125 724.828125 71.089844 C 724.230469 71.289062 723.492188 71.628906 722.746094 72.273438 C 722.375 72.59375 721.316406 74.109375 720.878906 74.746094 C 719.554688 76.304688 718.292969 78.039062 716.855469 79.472656 C 714.558594 81.757812 714.558594 85.472656 716.855469 87.761719 C 719.152344 90.046875 722.878906 90.046875 725.175781 87.761719 C 726.894531 86.050781 728.421875 83.988281 730.003906 82.148438 C 730.164062 81.964844 730.761719 81.03125 731.0625 80.558594 Z M 684.496094 73.910156 C 682.238281 76.480469 679.882812 78.972656 677.46875 81.378906 C 675.171875 83.664062 675.171875 87.378906 677.46875 89.667969 C 679.765625 91.953125 683.492188 91.953125 685.789062 89.667969 C 688.386719 87.082031 690.921875 84.398438 693.351562 81.632812 C 695.492188 79.199219 695.246094 75.496094 692.800781 73.363281 C 690.359375 71.230469 686.636719 71.476562 684.496094 73.910156 Z M 739.582031 109.414062 C 740.617188 108.511719 741.335938 107.25 741.53125 105.789062 C 741.957031 102.582031 739.6875 99.632812 736.46875 99.207031 C 735.457031 99.074219 734.042969 99.121094 732.519531 100.058594 C 731.859375 100.464844 729.820312 102.859375 729.820312 102.859375 C 729.820312 102.859375 730.023438 102.597656 730.058594 102.554688 C 728.882812 103.960938 727.449219 105.207031 726.160156 106.492188 C 723.863281 108.78125 723.863281 112.496094 726.160156 114.78125 C 728.453125 117.070312 732.183594 117.070312 734.480469 114.78125 C 736.019531 113.25 737.699219 111.734375 739.101562 110.058594 L 739.582031 109.414062 " fill-opacity="1" fill-rule="evenodd"/></g><g clip-path="url(#e7501245dd)"><path fill="#010101" d="M 65.039062 348.070312 C 60.863281 348.480469 56.941406 346.441406 54.140625 343.429688 C 51.03125 339.960938 49.707031 335.523438 49.859375 330.984375 C 50.011719 326.546875 51.644531 322.3125 53.832031 318.539062 C 55.921875 314.96875 58.417969 311.753906 61.726562 309.304688 C 65.089844 306.753906 68.960938 305.019531 72.726562 303.183594 C 74.050781 302.574219 78.023438 300.53125 78.074219 303.339844 C 78.128906 304.359375 77.820312 305.480469 77.71875 306.5 C 77.617188 307.878906 77.617188 309.253906 77.566406 310.683594 C 77.566406 312.113281 77.566406 313.539062 77.464844 314.96875 C 77.363281 316.34375 77.109375 317.773438 76.957031 319.152344 C 76.648438 321.089844 76.394531 322.976562 76.089844 324.964844 C 75.835938 326.597656 75.632812 328.230469 75.324219 329.863281 C 74.765625 332.769531 73.847656 335.726562 72.726562 338.484375 C 71.8125 340.828125 70.84375 343.226562 69.214844 345.265625 C 67.789062 347.101562 65.902344 348.175781 63.5625 348.277344 C 62.796875 348.277344 62.082031 348.226562 61.320312 348.175781 C 60.554688 348.125 60.554688 349.246094 61.320312 349.347656 C 63.203125 349.601562 65.089844 349.5 66.871094 348.785156 C 69.164062 347.816406 70.691406 345.574219 71.863281 343.429688 C 73.949219 339.503906 75.425781 335.167969 76.34375 330.832031 C 76.648438 329.453125 76.804688 328.078125 77.058594 326.75 C 77.71875 322.261719 78.6875 317.722656 78.789062 313.132812 C 78.839844 310.222656 78.839844 307.367188 79.246094 304.460938 C 79.347656 303.542969 79.398438 302.523438 78.789062 301.707031 C 78.230469 300.941406 77.261719 300.789062 76.394531 300.890625 C 74 301.144531 71.710938 302.574219 69.570312 303.59375 C 67.585938 304.5625 65.496094 305.582031 63.613281 306.804688 C 59.84375 309.152344 56.632812 312.214844 54.191406 315.988281 C 51.796875 319.660156 49.757812 323.742188 49.097656 328.128906 C 48.28125 332.871094 48.945312 337.972656 51.542969 342.105469 C 53.832031 345.726562 57.550781 348.683594 61.929688 349.398438 C 62.949219 349.550781 64.070312 349.652344 65.089844 349.5 C 65.800781 349.195312 65.800781 347.96875 65.039062 348.070312 Z M 65.039062 348.070312 " fill-opacity="1" fill-rule="nonzero"/></g><path fill="#010101" d="M 77.414062 323.484375 C 80.316406 319.863281 83.21875 316.242188 86.121094 312.621094 C 86.734375 311.804688 87.445312 310.9375 88.058594 310.171875 C 88.160156 310.070312 88.3125 309.816406 88.464844 309.867188 C 88.875 310.019531 88.875 311.550781 88.925781 311.804688 C 89.078125 313.132812 89.078125 314.457031 89.027344 315.785156 C 88.769531 321.34375 86.785156 326.648438 84.441406 331.648438 C 83.21875 334.199219 81.894531 336.59375 80.671875 339.042969 C 79.65625 340.980469 78.738281 343.074219 77.058594 344.550781 C 73.695312 347.664062 68.808594 348.328125 64.375 347.917969 C 63.613281 347.867188 63.613281 348.992188 64.375 349.09375 C 68.550781 349.5 72.984375 348.835938 76.496094 346.441406 C 78.484375 345.0625 79.757812 343.226562 80.878906 341.085938 C 82.253906 338.429688 83.679688 335.882812 85.003906 333.179688 C 87.601562 327.871094 89.738281 322.3125 90.148438 316.394531 C 90.25 314.917969 90.199219 313.386719 90.09375 311.90625 C 89.992188 310.9375 89.992188 309.457031 89.078125 308.796875 C 87.855469 308.03125 86.988281 309.613281 86.429688 310.324219 C 83.167969 314.457031 79.910156 318.488281 76.597656 322.566406 C 76.089844 323.230469 76.957031 324.097656 77.414062 323.484375 Z M 77.414062 323.484375 " fill-opacity="1" fill-rule="nonzero"/><g clip-path="url(#d407cd1fa3)"><path fill="#010101" d="M 79.554688 303.644531 C 80.367188 302.929688 81.792969 301.808594 82.863281 302.113281 C 83.527344 302.265625 83.832031 303.183594 84.035156 303.847656 C 84.59375 306.195312 84.289062 308.796875 83.933594 311.140625 C 83.832031 312.007812 83.628906 312.925781 83.476562 313.792969 C 83.320312 314.558594 84.441406 314.816406 84.644531 314.101562 C 85.105469 311.804688 85.460938 309.457031 85.511719 307.113281 C 85.5625 305.226562 85.613281 301.605469 83.269531 300.992188 C 81.640625 300.53125 79.960938 301.859375 78.789062 302.828125 C 78.179688 303.285156 78.992188 304.101562 79.554688 303.644531 Z M 79.554688 303.644531 " fill-opacity="1" fill-rule="nonzero"/></g><path fill="#010101" d="M 79.09375 377.042969 C 84.085938 374.851562 89.230469 373.117188 94.527344 371.894531 C 95.851562 371.535156 97.175781 371.28125 98.5 371.027344 C 99.109375 370.925781 99.773438 370.769531 100.332031 370.667969 C 100.945312 370.566406 101.808594 370.261719 102.320312 370.71875 C 103.183594 371.433594 103.183594 373.066406 103.082031 374.035156 C 102.929688 375.207031 102.371094 376.28125 101.757812 377.25 C 100.484375 379.238281 98.652344 380.921875 96.816406 382.402344 C 94.933594 383.929688 92.847656 385.308594 90.707031 386.480469 C 88.515625 387.65625 86.277344 388.625 83.933594 389.335938 C 81.589844 390.101562 78.941406 390.714844 76.75 389.183594 C 75.019531 387.960938 74 385.972656 73.035156 384.1875 C 71.8125 381.941406 70.691406 379.542969 71.558594 376.941406 C 72.320312 374.648438 74.15625 372.863281 75.835938 371.332031 C 77.617188 369.800781 79.554688 368.425781 81.640625 367.25 C 85.765625 364.957031 90.351562 363.527344 95.035156 363.171875 C 96.105469 363.121094 97.429688 362.863281 98.5 363.425781 C 99.414062 363.886719 99.925781 364.804688 100.179688 365.722656 C 100.738281 368.066406 99.261719 370.3125 97.9375 372.097656 C 94.882812 376.125 91.214844 379.75 87.191406 382.757812 C 85.257812 384.1875 83.167969 385.613281 80.773438 386.074219 C 78.636719 386.480469 76.34375 386.074219 74.460938 385.003906 C 73.492188 384.492188 72.675781 383.777344 71.914062 383.011719 C 71.402344 382.453125 70.589844 383.320312 71.097656 383.828125 C 72.625 385.613281 74.816406 386.839844 77.160156 387.195312 C 79.707031 387.65625 82.097656 387.144531 84.339844 385.972656 C 86.785156 384.695312 89.027344 382.859375 91.113281 381.023438 C 93.253906 379.1875 95.238281 377.097656 97.074219 375.003906 C 98.753906 373.015625 100.6875 370.820312 101.300781 368.21875 C 101.757812 366.230469 101.25 363.78125 99.414062 362.558594 C 98.398438 361.84375 97.125 361.84375 95.902344 361.945312 C 94.578125 361.996094 93.304688 362.203125 92.082031 362.355469 C 89.484375 362.8125 86.988281 363.527344 84.492188 364.546875 C 82.097656 365.566406 79.859375 366.84375 77.71875 368.324219 C 75.632812 369.800781 73.59375 371.535156 72.066406 373.679688 C 70.4375 375.820312 69.671875 378.320312 70.386719 380.972656 C 70.742188 382.296875 71.402344 383.574219 72.066406 384.796875 C 72.625 385.816406 73.238281 386.941406 73.898438 387.910156 C 75.324219 389.847656 77.210938 391.277344 79.757812 391.429688 C 82.457031 391.480469 85.308594 390.359375 87.753906 389.285156 C 92.640625 387.195312 97.480469 384.1875 101.097656 380.207031 C 102.777344 378.371094 104.304688 376.074219 104.355469 373.472656 C 104.40625 372.402344 104.203125 371.027344 103.4375 370.160156 C 102.574219 369.191406 101.351562 369.34375 100.230469 369.597656 C 94.273438 370.617188 88.414062 372.300781 82.761719 374.496094 C 81.386719 375.003906 80.011719 375.566406 78.636719 376.230469 C 77.820312 376.332031 78.433594 377.402344 79.09375 377.042969 Z M 79.09375 377.042969 " fill-opacity="1" fill-rule="nonzero"/><g clip-path="url(#7ffe86fb9f)"><path fill="#010101" d="M 35.804688 541.648438 C 32.75 530.425781 30.609375 519 29.335938 507.523438 C 27.707031 493.089844 27.503906 478.5 28.777344 464.117188 C 29.945312 451.160156 32.339844 438.304688 35.089844 425.65625 C 37.433594 414.535156 40.082031 403.46875 43.1875 392.550781 C 47.007812 379.136719 51.542969 365.824219 56.683594 352.816406 C 57.398438 351.03125 58.113281 349.246094 58.824219 347.460938 C 59.128906 346.746094 57.957031 346.492188 57.652344 347.152344 C 52.203125 360.46875 47.46875 374.085938 43.289062 387.910156 C 39.980469 398.925781 37.230469 409.996094 34.734375 421.167969 C 31.984375 433.816406 29.386719 446.570312 27.960938 459.421875 C 26.332031 473.859375 26.28125 488.394531 27.605469 502.78125 C 28.671875 514.921875 30.761719 526.957031 33.714844 538.742188 C 34.019531 539.8125 34.277344 540.984375 34.582031 542.054688 C 34.886719 542.667969 35.957031 542.414062 35.804688 541.648438 Z M 35.804688 541.648438 " fill-opacity="1" fill-rule="nonzero"/></g><path fill="#010101" d="M 28.011719 489.210938 C 31.933594 473.757812 36.160156 458.402344 40.796875 443.203125 C 42.984375 436.0625 45.175781 428.921875 47.621094 421.882812 C 49.910156 415.503906 52.660156 409.28125 56.277344 403.621094 C 60.757812 396.53125 66.363281 390.257812 72.832031 384.949219 C 73.390625 384.492188 72.625 383.625 72.015625 384.136719 C 66.210938 388.828125 61.117188 394.335938 56.890625 400.507812 C 52.917969 406.273438 49.859375 412.496094 47.363281 419.074219 C 44.820312 425.757812 42.78125 432.644531 40.640625 439.480469 C 38.199219 447.386719 35.804688 455.34375 33.613281 463.300781 C 31.21875 471.816406 28.980469 480.335938 26.789062 488.90625 C 26.6875 489.621094 27.808594 489.976562 28.011719 489.210938 Z M 28.011719 489.210938 " fill-opacity="1" fill-rule="nonzero"/><g clip-path="url(#9eab4d89c1)"><path fill="#010101" d="M 27.195312 497.527344 C 24.804688 486.761719 20.882812 476.511719 17.164062 466.207031 C 13.445312 456.003906 9.828125 445.652344 7.996094 434.835938 C 6.011719 423.003906 6.976562 411.015625 7.84375 399.132812 C 8.300781 393.011719 8.8125 386.839844 9.371094 380.71875 C 9.929688 374.699219 10.695312 368.730469 11.304688 362.660156 C 11.867188 357.050781 12.222656 351.285156 11.253906 345.675781 C 10.441406 341.238281 8.761719 334.964844 3.617188 333.941406 C 2.597656 333.6875 1.476562 333.839844 0.457031 334.25 C 0.203125 334.351562 0 334.554688 0.0507812 334.808594 C 0.304688 337.207031 1.222656 339.402344 2.242188 341.542969 C 3.414062 343.890625 4.480469 346.183594 5.601562 348.480469 C 7.894531 353.171875 10.136719 357.867188 12.425781 362.558594 C 17.011719 372.046875 21.59375 381.429688 26.179688 390.917969 C 30.761719 400.355469 35.34375 409.742188 39.878906 419.175781 C 43.648438 427.03125 46.144531 435.550781 46.804688 444.222656 C 47.160156 448.304688 47.058594 452.382812 46.703125 456.414062 C 46.5 458.964844 46.246094 461.515625 45.683594 464.015625 C 45.125 466.617188 44.257812 469.113281 43.289062 471.613281 C 42.476562 473.707031 41.558594 475.695312 40.539062 477.632812 C 39.980469 478.703125 39.367188 479.828125 38.757812 480.847656 C 38.300781 481.613281 37.585938 483.191406 36.773438 483.550781 C 35.550781 484.007812 35.039062 481.867188 35.039062 481.101562 C 34.988281 479.878906 35.34375 478.703125 35.753906 477.582031 C 36.566406 475.390625 37.585938 473.296875 38.554688 471.15625 C 40.4375 466.921875 42.476562 462.636719 44.769531 458.554688 C 48.6875 451.515625 53.578125 445.039062 59.332031 439.375 C 71.761719 427.136719 87.652344 418.871094 104.710938 415.25 C 106.085938 414.945312 107.515625 414.6875 108.941406 414.433594 C 109.5 414.332031 109.449219 413.464844 108.941406 413.261719 C 104.050781 412.035156 100.28125 417.390625 97.53125 420.605469 C 94.171875 424.535156 90.859375 428.460938 87.652344 432.492188 C 81.183594 440.550781 74.765625 448.710938 67.636719 456.210938 C 63.613281 460.390625 59.382812 464.421875 54.851562 468.042969 C 54.292969 468.503906 55.054688 469.320312 55.667969 468.859375 C 63.511719 462.585938 70.386719 455.242188 76.90625 447.589844 C 83.371094 439.886719 89.535156 431.828125 96.054688 424.175781 C 97.835938 422.035156 99.671875 419.941406 101.554688 417.902344 C 103.386719 415.964844 105.832031 413.71875 108.734375 414.382812 C 108.734375 413.976562 108.734375 413.617188 108.734375 413.210938 C 101.503906 414.433594 94.476562 416.371094 87.703125 419.175781 C 78.6875 422.902344 70.335938 428.105469 62.949219 434.480469 C 56.839844 439.785156 51.285156 445.957031 46.90625 452.84375 C 44.257812 456.921875 42.015625 461.308594 39.980469 465.644531 C 38.910156 467.890625 37.890625 470.1875 36.875 472.429688 C 35.957031 474.523438 34.785156 476.613281 34.328125 478.855469 C 33.917969 480.644531 33.917969 483.039062 35.550781 484.265625 C 37.382812 485.640625 38.808594 483.296875 39.625 481.96875 C 41.964844 478.144531 43.902344 473.960938 45.429688 469.726562 C 46.144531 467.839844 46.804688 465.800781 47.160156 463.808594 C 47.773438 460.546875 48.128906 457.128906 48.332031 453.8125 C 48.894531 444.578125 47.570312 435.195312 44.511719 426.421875 C 43.136719 422.59375 41.355469 418.871094 39.574219 415.199219 C 37.230469 410.300781 34.835938 405.457031 32.441406 400.558594 C 27.707031 390.714844 22.917969 380.972656 18.183594 371.128906 C 13.445312 361.285156 8.65625 351.539062 3.921875 341.695312 C 2.851562 339.402344 1.628906 337.105469 1.476562 334.554688 C 1.375 334.707031 1.171875 334.964844 1.070312 335.117188 C 3.464844 334.097656 6.0625 335.472656 7.488281 337.460938 C 9.015625 339.605469 9.726562 342.308594 10.238281 344.859375 C 11.410156 350.367188 11.101562 356.132812 10.542969 361.691406 C 9.980469 367.609375 9.21875 373.472656 8.65625 379.339844 C 8.097656 385.308594 7.589844 391.277344 7.128906 397.242188 C 6.265625 408.925781 5.246094 420.757812 6.824219 432.335938 C 8.300781 442.898438 11.664062 453.046875 15.277344 463.148438 C 18.894531 473.246094 22.816406 483.242188 25.464844 493.648438 C 25.820312 494.976562 26.078125 496.25 26.382812 497.578125 C 26.230469 498.597656 27.347656 498.242188 27.195312 497.527344 Z M 27.195312 497.527344 " fill-opacity="1" fill-rule="nonzero"/></g><g clip-path="url(#4fd95f1743)"><path fill="#777cbb" d="M 33.976562 103.9375 C 36.253906 110.042969 36.34375 114.34375 35.332031 118.039062 C 35.015625 119.1875 33.777344 123.257812 28.949219 127.882812 C 22.21875 134.332031 9.359375 141.046875 -0.328125 139.648438 L -0.328125 189.078125 C 11.730469 188.347656 26.355469 183.953125 38.363281 175.777344 C 43.882812 172.019531 57.375 162.839844 62.226562 146.222656 C 65.171875 136.132812 63.921875 126.769531 62.808594 118.414062 C 61.824219 111.0625 60.8125 109.832031 56.425781 93.3125 C 51.707031 75.515625 49.351562 66.488281 49.65625 60.285156 C 49.851562 56.300781 50.546875 42.332031 60.496094 30.921875 C 69.855469 20.183594 82.222656 17.683594 93.191406 15.472656 C 113.777344 11.3125 131.058594 15.417969 142.914062 18.367188 C 155.34375 21.457031 152.960938 22.527344 176.191406 29.765625 C 202.414062 37.933594 211.4375 38.433594 219.332031 37.679688 C 227.09375 36.941406 237.027344 35.847656 244.671875 28.210938 C 251.386719 21.507812 252.933594 13.164062 253.953125 7.160156 C 253.953125 7.160156 254.410156 4.46875 254.578125 0.140625 L -0.320312 0.140625 L -0.320312 64.433594 C 2.335938 67.046875 6.097656 70.785156 11.546875 76.113281 C 24.414062 88.714844 30.320312 94.128906 33.976562 103.9375 Z M 33.976562 103.9375 " fill-opacity="1" fill-rule="nonzero"/></g><g clip-path="url(#b558e8f2fd)"><path fill="#caaacd" d="M 63.957031 220.253906 C 85.054688 212.761719 99.484375 201.820312 104.585938 189.445312 C 105.128906 188.128906 109.875 176.117188 109.566406 159.953125 C 109.453125 153.925781 108.398438 145.039062 97.359375 115.738281 C 94.96875 109.402344 92.957031 104.351562 91.179688 99.882812 C 86.066406 87.027344 83.488281 80.578125 82.363281 69.226562 C 81.554688 61.054688 81.871094 54.230469 83.320312 48.945312 C 84.5 44.628906 86.144531 42.3125 87.277344 40.953125 C 90.355469 37.257812 94.589844 34.511719 99.882812 32.792969 C 104.109375 31.421875 107.890625 31.089844 109.496094 30.941406 C 110.542969 30.84375 111.5625 30.800781 112.566406 30.800781 C 119.921875 30.800781 126.082031 33.195312 133.640625 36.125 C 141.015625 38.988281 145.605469 41.671875 152.539062 45.734375 C 154.042969 46.613281 155.589844 47.523438 157.332031 48.527344 C 173.828125 58.054688 182.109375 62.835938 186.617188 64.3125 C 205.234375 70.382812 222.460938 66.863281 235.046875 64.292969 C 240.453125 63.1875 248.628906 61.519531 258.515625 57 C 264.6875 54.175781 283.46875 45.585938 293.113281 29.792969 C 293.136719 29.738281 296.230469 24.605469 298.210938 15.789062 C 299.125 11.714844 299.886719 6.414062 299.863281 0.140625 L 301.144531 0.140625 C 301.171875 5.582031 300.601562 10.933594 299.449219 16.058594 C 297.425781 25.078125 294.332031 30.230469 294.203125 30.441406 C 289.28125 38.503906 282.054688 44.71875 275.277344 49.261719 C 268.5 53.816406 262.171875 56.703125 259.042969 58.140625 C 249.023438 62.722656 240.769531 64.40625 235.300781 65.53125 C 229.195312 66.777344 221.582031 68.328125 213.242188 68.785156 C 203.441406 69.3125 194.605469 68.25 186.230469 65.511719 C 181.589844 64.003906 173.273438 59.195312 156.707031 49.621094 C 154.964844 48.613281 153.410156 47.710938 151.90625 46.824219 C 145.023438 42.796875 140.472656 40.128906 133.195312 37.300781 C 124.429688 33.898438 118.101562 31.441406 109.621094 32.195312 C 100.003906 33.046875 92.816406 36.257812 88.253906 41.761719 C 83.894531 47 82.335938 56.203125 83.621094 69.109375 C 84.738281 80.289062 87.285156 86.6875 92.359375 99.425781 C 94.132812 103.894531 96.15625 108.957031 98.546875 115.300781 C 109.664062 144.785156 110.71875 153.796875 110.84375 159.929688 C 110.964844 166.113281 110.367188 172.398438 109.074219 178.601562 C 107.828125 184.59375 106.34375 188.515625 105.761719 189.921875 C 103.089844 196.394531 97.972656 202.476562 90.539062 208.011719 C 83.488281 213.261719 74.691406 217.78125 64.390625 221.4375 C 48.09375 227.230469 29.160156 230.371094 10.773438 230.371094 C 9.789062 230.371094 8.804688 230.363281 7.828125 230.34375 C 5.078125 230.292969 2.351562 230.167969 -0.328125 229.984375 L -0.328125 228.773438 C 22.585938 230.390625 45.859375 226.675781 63.957031 220.253906 Z M 63.957031 220.253906 " fill-opacity="1" fill-rule="nonzero"/></g><g clip-path="url(#806fd5b069)"><path fill="#777cbb" d="M 990.519531 393.113281 C 988.242188 387.003906 988.152344 382.707031 989.164062 379.011719 C 989.480469 377.863281 990.71875 373.789062 995.546875 369.167969 C 1002.277344 362.71875 1015.136719 356.003906 1024.824219 357.398438 L 1024.824219 307.972656 C 1012.765625 308.699219 998.136719 313.097656 986.132812 321.273438 C 980.613281 325.03125 967.121094 334.207031 962.269531 350.828125 C 959.324219 360.917969 960.570312 370.28125 961.6875 378.632812 C 962.671875 385.988281 963.683594 387.214844 968.070312 403.738281 C 972.789062 421.535156 975.144531 430.5625 974.835938 436.765625 C 974.644531 440.75 973.949219 454.71875 964 466.125 C 954.640625 476.867188 942.273438 479.367188 931.300781 481.578125 C 910.71875 485.738281 893.4375 481.632812 881.578125 478.683594 C 869.152344 475.59375 871.535156 474.523438 848.300781 467.285156 C 822.082031 459.117188 813.054688 458.617188 805.164062 459.371094 C 797.402344 460.105469 787.46875 461.203125 779.824219 468.835938 C 773.109375 475.542969 771.5625 483.886719 770.542969 489.886719 C 770.542969 489.886719 770.085938 492.582031 769.917969 496.90625 L 1024.816406 496.90625 L 1024.816406 432.617188 C 1022.160156 430 1018.398438 426.261719 1012.949219 420.9375 C 1000.082031 408.335938 994.175781 402.921875 990.519531 393.113281 Z M 990.519531 393.113281 " fill-opacity="1" fill-rule="nonzero"/></g><g clip-path="url(#5bead625b4)"><path fill="#caaacd" d="M 960.535156 276.796875 C 939.441406 284.289062 925.007812 295.230469 919.910156 307.605469 C 919.367188 308.917969 914.621094 320.933594 914.925781 337.09375 C 915.042969 343.125 916.097656 352.011719 927.136719 381.3125 C 929.527344 387.644531 931.539062 392.699219 933.316406 397.167969 C 938.429688 410.019531 941.007812 416.472656 942.132812 427.824219 C 942.941406 435.996094 942.625 442.820312 941.171875 448.101562 C 939.996094 452.421875 938.351562 454.738281 937.21875 456.097656 C 934.140625 459.792969 929.90625 462.539062 924.613281 464.257812 C 920.386719 465.625 916.605469 465.960938 914.996094 466.109375 C 913.953125 466.207031 912.933594 466.25 911.929688 466.25 C 904.574219 466.25 898.410156 463.855469 890.851562 460.921875 C 883.476562 458.0625 878.890625 455.378906 871.957031 451.316406 C 870.453125 450.4375 868.90625 449.523438 867.164062 448.523438 C 850.667969 438.996094 842.386719 434.214844 837.878906 432.738281 C 819.261719 426.667969 802.035156 430.183594 789.449219 432.757812 C 784.042969 433.863281 775.867188 435.527344 765.980469 440.046875 C 759.808594 442.875 741.027344 451.464844 731.382812 467.257812 C 731.355469 467.3125 728.261719 472.445312 726.285156 481.261719 C 725.371094 485.335938 724.605469 490.632812 724.632812 496.90625 L 723.351562 496.90625 C 723.324219 491.46875 723.894531 486.113281 725.046875 480.992188 C 727.066406 471.96875 730.160156 466.820312 730.292969 466.609375 C 735.214844 458.546875 742.441406 452.332031 749.21875 447.789062 C 755.996094 443.234375 762.324219 440.347656 765.453125 438.90625 C 775.472656 434.328125 783.726562 432.640625 789.191406 431.519531 C 795.300781 430.273438 802.914062 428.71875 811.253906 428.265625 C 821.054688 427.738281 829.886719 428.800781 838.265625 431.535156 C 842.90625 433.046875 851.21875 437.855469 867.789062 447.425781 C 869.53125 448.4375 871.085938 449.339844 872.589844 450.226562 C 879.46875 454.253906 884.023438 456.921875 891.300781 459.746094 C 900.0625 463.152344 906.394531 465.609375 914.875 464.855469 C 924.492188 464.003906 931.679688 460.792969 936.242188 455.289062 C 940.601562 450.050781 942.15625 440.847656 940.875 427.9375 C 939.757812 416.761719 937.210938 410.363281 932.136719 397.621094 C 930.363281 393.15625 928.339844 388.09375 925.949219 381.75 C 914.832031 352.265625 913.777344 343.253906 913.652344 337.121094 C 913.53125 330.933594 914.128906 324.652344 915.417969 318.449219 C 916.667969 312.457031 918.152344 308.535156 918.734375 307.128906 C 921.40625 300.652344 926.519531 294.574219 933.957031 289.035156 C 941.007812 283.789062 949.804688 279.269531 960.105469 275.609375 C 976.402344 269.820312 995.335938 266.679688 1013.722656 266.679688 C 1014.707031 266.679688 1015.691406 266.6875 1016.667969 266.703125 C 1019.417969 266.757812 1022.144531 266.878906 1024.824219 267.066406 L 1024.824219 268.277344 C 1001.910156 266.660156 978.632812 270.371094 960.535156 276.796875 Z M 960.535156 276.796875 " fill-opacity="1" fill-rule="nonzero"/></g></svg>