<svg xmlns="http://www.w3.org/2000/svg" xmlns:xlink="http://www.w3.org/1999/xlink" width="1024" zoomAndPan="magnify" viewBox="0 0 768 576" height="768" preserveAspectRatio="xMidYMid meet" version="1.0"><defs><clipPath id="03a39d3967"><path d="M 54 192 L 86 192 L 86 231 L 54 231 Z M 54 192 " clip-rule="nonzero"/></clipPath><clipPath id="dcd157fbfa"><path d="M 21.148438 178.066406 L 111 198.96875 L 64.941406 396.933594 L -24.910156 376.027344 Z M 21.148438 178.066406 " clip-rule="nonzero"/></clipPath><clipPath id="4d14395194"><path d="M 21.148438 178.066406 L 111 198.96875 L 64.941406 396.933594 L -24.910156 376.027344 Z M 21.148438 178.066406 " clip-rule="nonzero"/></clipPath><clipPath id="72f6669167"><path d="M 21.148438 178.066406 L 111 198.96875 L 64.941406 396.933594 L -24.910156 376.027344 Z M 21.148438 178.066406 " clip-rule="nonzero"/></clipPath><clipPath id="d712ff9605"><path d="M 64 201 L 94 201 L 94 232 L 64 232 Z M 64 201 " clip-rule="nonzero"/></clipPath><clipPath id="29923eff6f"><path d="M 21.148438 178.066406 L 111 198.96875 L 64.941406 396.933594 L -24.910156 376.027344 Z M 21.148438 178.066406 " clip-rule="nonzero"/></clipPath><clipPath id="e499b93558"><path d="M 21.148438 178.066406 L 111 198.96875 L 64.941406 396.933594 L -24.910156 376.027344 Z M 21.148438 178.066406 " clip-rule="nonzero"/></clipPath><clipPath id="f2e2858421"><path d="M 21.148438 178.066406 L 111 198.96875 L 64.941406 396.933594 L -24.910156 376.027344 Z M 21.148438 178.066406 " clip-rule="nonzero"/></clipPath><clipPath id="dc3971b4c3"><path d="M 85 194 L 91 194 L 91 206 L 85 206 Z M 85 194 " clip-rule="nonzero"/></clipPath><clipPath id="f7190310a2"><path d="M 21.148438 178.066406 L 111 198.96875 L 64.941406 396.933594 L -24.910156 376.027344 Z M 21.148438 178.066406 " clip-rule="nonzero"/></clipPath><clipPath id="7d83693596"><path d="M 21.148438 178.066406 L 111 198.96875 L 64.941406 396.933594 L -24.910156 376.027344 Z M 21.148438 178.066406 " clip-rule="nonzero"/></clipPath><clipPath id="dfc8b1a761"><path d="M 21.148438 178.066406 L 111 198.96875 L 64.941406 396.933594 L -24.910156 376.027344 Z M 21.148438 178.066406 " clip-rule="nonzero"/></clipPath><clipPath id="269d23c119"><path d="M 63 246 L 94 246 L 94 268 L 63 268 Z M 63 246 " clip-rule="nonzero"/></clipPath><clipPath id="8fd63afeb0"><path d="M 21.148438 178.066406 L 111 198.96875 L 64.941406 396.933594 L -24.910156 376.027344 Z M 21.148438 178.066406 " clip-rule="nonzero"/></clipPath><clipPath id="781b5ec08c"><path d="M 21.148438 178.066406 L 111 198.96875 L 64.941406 396.933594 L -24.910156 376.027344 Z M 21.148438 178.066406 " clip-rule="nonzero"/></clipPath><clipPath id="c516e47885"><path d="M 21.148438 178.066406 L 111 198.96875 L 64.941406 396.933594 L -24.910156 376.027344 Z M 21.148438 178.066406 " clip-rule="nonzero"/></clipPath><clipPath id="736e677e44"><path d="M 3 227 L 61 227 L 61 383 L 3 383 Z M 3 227 " clip-rule="nonzero"/></clipPath><clipPath id="b6db1abef6"><path d="M 21.148438 178.066406 L 111 198.96875 L 64.941406 396.933594 L -24.910156 376.027344 Z M 21.148438 178.066406 " clip-rule="nonzero"/></clipPath><clipPath id="ab2cf2513f"><path d="M 21.148438 178.066406 L 111 198.96875 L 64.941406 396.933594 L -24.910156 376.027344 Z M 21.148438 178.066406 " clip-rule="nonzero"/></clipPath><clipPath id="61aef5c025"><path d="M 21.148438 178.066406 L 111 198.96875 L 64.941406 396.933594 L -24.910156 376.027344 Z M 21.148438 178.066406 " clip-rule="nonzero"/></clipPath><clipPath id="7014422954"><path d="M 7 260 L 66 260 L 66 338 L 7 338 Z M 7 260 " clip-rule="nonzero"/></clipPath><clipPath id="aadb00394c"><path d="M 21.148438 178.066406 L 111 198.96875 L 64.941406 396.933594 L -24.910156 376.027344 Z M 21.148438 178.066406 " clip-rule="nonzero"/></clipPath><clipPath id="24b2e3725a"><path d="M 21.148438 178.066406 L 111 198.96875 L 64.941406 396.933594 L -24.910156 376.027344 Z M 21.148438 178.066406 " clip-rule="nonzero"/></clipPath><clipPath id="e6cd54e36a"><path d="M 21.148438 178.066406 L 111 198.96875 L 64.941406 396.933594 L -24.910156 376.027344 Z M 21.148438 178.066406 " clip-rule="nonzero"/></clipPath><clipPath id="e92cf4ff03"><path d="M 1 205 L 90 205 L 90 345 L 1 345 Z M 1 205 " clip-rule="nonzero"/></clipPath><clipPath id="c9993181c4"><path d="M 21.148438 178.066406 L 111 198.96875 L 64.941406 396.933594 L -24.910156 376.027344 Z M 21.148438 178.066406 " clip-rule="nonzero"/></clipPath><clipPath id="b6631408d4"><path d="M 21.148438 178.066406 L 111 198.96875 L 64.941406 396.933594 L -24.910156 376.027344 Z M 21.148438 178.066406 " clip-rule="nonzero"/></clipPath><clipPath id="162cb335ac"><path d="M 21.148438 178.066406 L 111 198.96875 L 64.941406 396.933594 L -24.910156 376.027344 Z M 21.148438 178.066406 " clip-rule="nonzero"/></clipPath><clipPath id="bf2f507e88"><path d="M 0.175781 0 L 171 0 L 171 127 L 0.175781 127 Z M 0.175781 0 " clip-rule="nonzero"/></clipPath><clipPath id="7e79ee6447"><path d="M 0.175781 0 L 201 0 L 201 153.75 L 0.175781 153.75 Z M 0.175781 0 " clip-rule="nonzero"/></clipPath><clipPath id="2a9d1308b4"><path d="M 519 390 L 768 390 L 768 575.992188 L 519 575.992188 Z M 519 390 " clip-rule="nonzero"/></clipPath><clipPath id="d3d8039f28"><path d="M 473.527344 350.253906 L 768 350.253906 L 768 575.992188 L 473.527344 575.992188 Z M 473.527344 350.253906 " clip-rule="nonzero"/></clipPath></defs><rect x="-76.8" width="921.6" fill="#ffffff" y="-57.6" height="691.2" fill-opacity="1"/><rect x="-76.8" width="921.6" fill="#ffffff" y="-57.6" height="691.2" fill-opacity="1"/><rect x="-76.8" width="921.6" fill="#ffffff" y="-57.6" height="691.2" fill-opacity="1"/><path fill="#ffffff" d="M 433.929688 308.402344 C 431 300.550781 435.449219 296.8125 436.273438 291.035156 C 437.101562 285.253906 445.691406 262.53125 469.449219 256.734375 C 493.207031 250.9375 505.910156 251.769531 510.828125 264.179688 C 515.75 276.585938 515.328125 295.179688 504.679688 300.550781 C 494.03125 305.921875 461.777344 318.214844 456.339844 319.960938 C 444.867188 323.683594 436.097656 314.214844 433.929688 308.402344 Z M 433.929688 308.402344 " fill-opacity="1" fill-rule="nonzero"/><g clip-path="url(#03a39d3967)"><g clip-path="url(#dcd157fbfa)"><g clip-path="url(#4d14395194)"><g clip-path="url(#72f6669167)"><path fill="#010101" d="M 65.464844 229.371094 C 61.960938 228.910156 59.132812 226.492188 57.40625 223.5 C 55.515625 220.070312 55.273438 216.191406 56.261719 212.511719 C 57.230469 208.914062 59.375 205.765625 61.886719 203.097656 C 64.28125 200.578125 66.9375 198.429688 70.121094 197.058594 C 73.363281 195.617188 76.871094 194.9375 80.3125 194.15625 C 81.515625 193.910156 85.160156 193 84.671875 195.304688 C 84.519531 196.148438 84.054688 197.003906 83.777344 197.820312 C 83.429688 198.925781 83.167969 200.050781 82.855469 201.207031 C 82.585938 202.375 82.3125 203.542969 81.957031 204.691406 C 81.613281 205.796875 81.132812 206.914062 80.746094 208.011719 C 80.125 209.539062 79.558594 211.03125 78.929688 212.597656 C 78.410156 213.882812 77.933594 215.179688 77.371094 216.453125 C 76.359375 218.722656 75.042969 220.964844 73.601562 223.003906 C 72.402344 224.746094 71.152344 226.519531 69.425781 227.878906 C 67.90625 229.105469 66.15625 229.621094 64.214844 229.257812 C 63.589844 229.113281 63.011719 228.933594 62.398438 228.746094 C 61.78125 228.558594 61.566406 229.476562 62.171875 229.703125 C 63.671875 230.273438 65.238281 230.550781 66.835938 230.304688 C 68.898438 229.953125 70.582031 228.410156 71.949219 226.882812 C 74.410156 224.070312 76.445312 220.808594 78.023438 217.441406 C 78.535156 216.375 78.921875 215.277344 79.382812 214.242188 C 80.78125 210.699219 82.4375 207.175781 83.394531 203.441406 C 83.988281 201.078125 84.53125 198.742188 85.417969 196.445312 C 85.675781 195.714844 85.914062 194.890625 85.566406 194.105469 C 85.25 193.375 84.488281 193.0625 83.757812 192.980469 C 81.746094 192.734375 79.59375 193.460938 77.644531 193.886719 C 75.828125 194.300781 73.921875 194.734375 72.140625 195.375 C 68.605469 196.574219 65.390625 198.464844 62.664062 201.082031 C 60.003906 203.625 57.554688 206.570312 56.179688 210.03125 C 54.609375 213.75 54.179688 218.046875 55.527344 221.917969 C 56.71875 225.316406 59.207031 228.445312 62.664062 229.863281 C 63.472656 230.183594 64.371094 230.480469 65.238281 230.550781 C 65.878906 230.4375 66.113281 229.433594 65.464844 229.371094 Z M 65.464844 229.371094 " fill-opacity="1" fill-rule="nonzero"/></g></g></g></g><g clip-path="url(#d712ff9605)"><g clip-path="url(#29923eff6f)"><g clip-path="url(#e499b93558)"><g clip-path="url(#f2e2858421)"><path fill="#010101" d="M 80.296875 211.644531 C 83.367188 209.238281 86.4375 206.832031 89.507812 204.425781 C 90.164062 203.875 90.914062 203.304688 91.5625 202.792969 C 91.664062 202.730469 91.839844 202.550781 91.953125 202.621094 C 92.257812 202.824219 91.96875 204.074219 91.960938 204.292969 C 91.835938 205.40625 91.582031 206.492188 91.289062 207.566406 C 90.023438 212.058594 87.382812 216.015625 84.511719 219.652344 C 83.023438 221.503906 81.480469 223.210938 80.011719 224.980469 C 78.808594 226.367188 77.660156 227.902344 76 228.789062 C 72.648438 230.691406 68.511719 230.300781 64.953125 229.121094 C 64.335938 228.933594 64.121094 229.851562 64.730469 230.078125 C 68.078125 231.210938 71.839844 231.515625 75.179688 230.226562 C 77.070312 229.480469 78.464844 228.222656 79.792969 226.683594 C 81.425781 224.78125 83.078125 222.96875 84.679688 221.011719 C 87.820312 217.171875 90.632812 213.035156 92.09375 208.277344 C 92.457031 207.089844 92.707031 205.828125 92.902344 204.601562 C 93.003906 203.789062 93.285156 202.582031 92.660156 201.863281 C 91.800781 201.003906 90.789062 202.132812 90.195312 202.609375 C 86.734375 205.363281 83.292969 208.035156 79.800781 210.738281 C 79.257812 211.179688 79.804688 212.054688 80.296875 211.644531 Z M 80.296875 211.644531 " fill-opacity="1" fill-rule="nonzero"/></g></g></g></g><g clip-path="url(#dc3971b4c3)"><g clip-path="url(#f7190310a2)"><g clip-path="url(#7d83693596)"><g clip-path="url(#dfc8b1a761)"><path fill="#010101" d="M 85.824219 195.835938 C 86.628906 195.40625 88.011719 194.761719 88.832031 195.21875 C 89.347656 195.46875 89.421875 196.277344 89.464844 196.859375 C 89.476562 198.882812 88.730469 200.949219 87.992188 202.800781 C 87.746094 203.488281 87.402344 204.199219 87.113281 204.878906 C 86.839844 205.476562 87.710938 205.898438 88.015625 205.351562 C 88.828125 203.566406 89.566406 201.714844 90.054688 199.808594 C 90.453125 198.273438 91.183594 195.324219 89.378906 194.378906 C 88.128906 193.691406 86.496094 194.453125 85.351562 195.023438 C 84.765625 195.28125 85.277344 196.105469 85.824219 195.835938 Z M 85.824219 195.835938 " fill-opacity="1" fill-rule="nonzero"/></g></g></g></g><g clip-path="url(#269d23c119)"><g clip-path="url(#8fd63afeb0)"><g clip-path="url(#781b5ec08c)"><g clip-path="url(#c516e47885)"><path fill="#010101" d="M 71.492188 255.734375 C 76.003906 254.894531 80.554688 254.457031 85.132812 254.46875 C 86.289062 254.429688 87.425781 254.476562 88.558594 254.519531 C 89.078125 254.550781 89.652344 254.554688 90.132812 254.578125 C 90.652344 254.609375 91.421875 254.527344 91.75 255 C 92.324219 255.746094 92.015625 257.082031 91.746094 257.855469 C 91.398438 258.785156 90.734375 259.550781 90.050781 260.226562 C 88.628906 261.609375 86.804688 262.636719 85.015625 263.496094 C 83.179688 264.386719 81.203125 265.113281 79.226562 265.664062 C 77.207031 266.203125 75.183594 266.566406 73.125 266.703125 C 71.058594 266.882812 68.769531 266.875 67.261719 265.207031 C 66.074219 263.875 65.617188 262.054688 65.160156 260.414062 C 64.585938 258.34375 64.121094 256.171875 65.328125 254.210938 C 66.390625 252.480469 68.234375 251.371094 69.902344 250.441406 C 71.65625 249.53125 73.507812 248.777344 75.445312 248.214844 C 79.265625 247.128906 83.296875 246.835938 87.210938 247.4375 C 88.097656 247.601562 89.234375 247.644531 90.003906 248.308594 C 90.667969 248.859375 90.914062 249.707031 90.945312 250.503906 C 90.960938 252.527344 89.320312 254.082031 87.894531 255.289062 C 84.621094 257.996094 80.925781 260.257812 77.050781 261.949219 C 75.191406 262.746094 73.207031 263.515625 71.15625 263.433594 C 69.320312 263.359375 67.519531 262.585938 66.175781 261.351562 C 65.480469 260.75 64.945312 260.011719 64.464844 259.238281 C 64.152344 258.683594 63.320312 259.238281 63.640625 259.75 C 64.554688 261.503906 66.121094 262.921875 67.972656 263.660156 C 69.976562 264.519531 72.039062 264.5625 74.097656 264.03125 C 76.347656 263.453125 78.535156 262.382812 80.597656 261.28125 C 82.703125 260.1875 84.730469 258.859375 86.632812 257.5 C 88.390625 256.195312 90.394531 254.769531 91.390625 252.761719 C 92.144531 251.222656 92.191406 249.125 90.921875 247.773438 C 90.222656 246.996094 89.175781 246.753906 88.152344 246.601562 C 87.058594 246.390625 85.972656 246.316406 84.941406 246.207031 C 82.722656 246.085938 80.539062 246.195312 78.296875 246.550781 C 76.140625 246.929688 74.058594 247.542969 72.023438 248.34375 C 70.027344 249.152344 68.027344 250.179688 66.363281 251.640625 C 64.621094 253.082031 63.519531 254.976562 63.597656 257.28125 C 63.640625 258.433594 63.941406 259.601562 64.25 260.726562 C 64.515625 261.667969 64.804688 262.703125 65.164062 263.621094 C 65.964844 265.476562 67.238281 267.003906 69.300781 267.617188 C 71.503906 268.171875 74.058594 267.800781 76.269531 267.390625 C 80.679688 266.617188 85.222656 265.078125 88.945312 262.519531 C 90.671875 261.339844 92.363281 259.753906 92.898438 257.636719 C 93.144531 256.773438 93.238281 255.609375 92.777344 254.753906 C 92.25 253.796875 91.21875 253.6875 90.25 253.683594 C 85.167969 253.378906 80.042969 253.636719 74.984375 254.347656 C 73.761719 254.503906 72.527344 254.699219 71.269531 254.980469 C 70.582031 254.90625 70.882812 255.898438 71.492188 255.734375 Z M 71.492188 255.734375 " fill-opacity="1" fill-rule="nonzero"/></g></g></g></g><g clip-path="url(#736e677e44)"><g clip-path="url(#b6db1abef6)"><g clip-path="url(#ab2cf2513f)"><g clip-path="url(#61aef5c025)"><path fill="#010101" d="M 4.671875 381.988281 C 4.300781 372.234375 4.71875 362.488281 5.855469 352.867188 C 7.261719 340.757812 9.867188 328.796875 13.648438 317.285156 C 17.074219 306.921875 21.480469 296.871094 26.140625 287.058594 C 30.179688 278.417969 34.457031 269.878906 39.082031 261.550781 C 44.765625 251.316406 51.015625 241.304688 57.710938 231.65625 C 58.636719 230.332031 59.558594 229.007812 60.484375 227.6875 C 60.871094 227.160156 59.957031 226.730469 59.582031 227.210938 C 52.578125 237.050781 46.101562 247.277344 40.046875 257.777344 C 35.238281 266.148438 30.875 274.671875 26.703125 283.324219 C 22.042969 293.136719 17.484375 303.0625 13.871094 313.292969 C 9.789062 324.78125 6.984375 336.652344 5.335938 348.660156 C 3.90625 358.785156 3.328125 369.019531 3.511719 379.214844 C 3.558594 380.148438 3.546875 381.15625 3.59375 382.089844 C 3.726562 382.648438 4.652344 382.644531 4.671875 381.988281 Z M 4.671875 381.988281 " fill-opacity="1" fill-rule="nonzero"/></g></g></g></g><g clip-path="url(#7014422954)"><g clip-path="url(#aadb00394c)"><g clip-path="url(#24b2e3725a)"><g clip-path="url(#e6cd54e36a)"><path fill="#010101" d="M 8.25 337.648438 C 14.40625 325.765625 20.792969 314.027344 27.488281 302.488281 C 30.640625 297.070312 33.796875 291.652344 37.140625 286.367188 C 40.234375 281.59375 43.671875 277.03125 47.71875 273.097656 C 52.742188 268.15625 58.53125 264.097656 64.847656 261 C 65.394531 260.730469 64.933594 259.875 64.335938 260.175781 C 58.679688 262.902344 53.453125 266.433594 48.808594 270.671875 C 44.453125 274.621094 40.765625 279.125 37.464844 284.023438 C 34.105469 289 31.125 294.238281 28.070312 299.417969 C 24.558594 305.410156 21.082031 311.457031 17.773438 317.542969 C 14.1875 324.046875 10.730469 330.578125 7.304688 337.164062 C 7.085938 337.730469 7.9375 338.234375 8.25 337.648438 Z M 8.25 337.648438 " fill-opacity="1" fill-rule="nonzero"/></g></g></g></g><g clip-path="url(#e92cf4ff03)"><g clip-path="url(#c9993181c4)"><g clip-path="url(#b6631408d4)"><g clip-path="url(#162cb335ac)"><path fill="#010101" d="M 6 344.289062 C 6.082031 335.035156 4.8125 325.90625 3.722656 316.777344 C 2.609375 307.730469 1.613281 298.578125 2.164062 289.390625 C 2.785156 279.339844 5.855469 269.730469 8.828125 260.179688 C 10.367188 255.265625 11.957031 250.320312 13.582031 245.425781 C 15.1875 240.613281 16.949219 235.882812 18.605469 231.039062 C 20.128906 226.558594 21.519531 221.917969 21.792969 217.144531 C 21.964844 213.363281 21.78125 207.914062 17.753906 206.101562 C 16.964844 205.695312 16.015625 205.609375 15.105469 205.746094 C 14.875 205.78125 14.667969 205.910156 14.664062 206.128906 C 14.417969 208.136719 14.75 210.101562 15.179688 212.046875 C 15.695312 214.191406 16.136719 216.269531 16.617188 218.359375 C 17.609375 222.632812 18.554688 226.894531 19.542969 231.167969 C 21.5 239.796875 23.476562 248.339844 25.433594 256.96875 C 27.402344 265.558594 29.378906 274.101562 31.300781 282.679688 C 32.902344 289.820312 33.328125 297.257812 32.222656 304.46875 C 31.742188 307.871094 30.882812 311.1875 29.824219 314.414062 C 29.171875 316.457031 28.476562 318.492188 27.542969 320.429688 C 26.585938 322.449219 25.402344 324.324219 24.132812 326.183594 C 23.066406 327.738281 21.9375 329.1875 20.730469 330.578125 C 20.066406 331.347656 19.351562 332.148438 18.65625 332.863281 C 18.136719 333.402344 17.25 334.558594 16.515625 334.695312 C 15.421875 334.835938 15.414062 332.988281 15.558594 332.363281 C 15.75 331.351562 16.265625 330.460938 16.8125 329.621094 C 17.898438 327.984375 19.132812 326.46875 20.332031 324.90625 C 22.683594 321.804688 25.171875 318.691406 27.828125 315.792969 C 32.382812 310.789062 37.628906 306.429688 43.425781 302.902344 C 55.949219 295.269531 70.5625 291.550781 85.25 291.847656 C 86.4375 291.859375 87.652344 291.921875 88.871094 291.988281 C 89.351562 292.011719 89.476562 291.292969 89.097656 291.027344 C 85.316406 289.09375 81.207031 292.75 78.339844 294.851562 C 74.832031 297.421875 71.371094 300 67.972656 302.679688 C 61.132812 308.03125 54.3125 313.476562 47.039062 318.242188 C 42.941406 320.890625 38.707031 323.378906 34.296875 325.472656 C 33.75 325.742188 34.222656 326.554688 34.8125 326.296875 C 42.441406 322.664062 49.480469 317.976562 56.28125 312.96875 C 63.054688 307.90625 69.644531 302.496094 76.449219 297.488281 C 78.316406 296.078125 80.21875 294.71875 82.152344 293.410156 C 84.027344 292.175781 86.460938 290.808594 88.714844 291.90625 C 88.792969 291.574219 88.859375 291.28125 88.9375 290.949219 C 82.769531 290.566406 76.636719 290.808594 70.542969 291.808594 C 62.4375 293.132812 54.597656 295.789062 47.324219 299.589844 C 41.300781 302.757812 35.570312 306.742188 30.667969 311.535156 C 27.71875 314.363281 25.046875 317.519531 22.550781 320.675781 C 21.246094 322.304688 19.972656 323.984375 18.710938 325.625 C 17.5625 327.160156 16.203125 328.644531 15.398438 330.390625 C 14.726562 331.773438 14.269531 333.730469 15.375 335.042969 C 16.617188 336.519531 18.234375 334.875 19.15625 333.945312 C 21.804688 331.265625 24.1875 328.21875 26.246094 325.050781 C 27.191406 323.644531 28.121094 322.101562 28.792969 320.542969 C 29.914062 317.992188 30.855469 315.269531 31.65625 312.597656 C 33.871094 305.160156 34.566406 297.238281 33.726562 289.484375 C 33.328125 286.09375 32.574219 282.710938 31.808594 279.371094 C 30.816406 274.921875 29.773438 270.503906 28.742188 266.042969 C 26.726562 257.09375 24.648438 248.21875 22.636719 239.269531 C 20.621094 230.320312 18.542969 221.445312 16.53125 212.496094 C 16.089844 210.414062 15.523438 208.304688 15.882812 206.191406 C 15.769531 206.296875 15.554688 206.46875 15.441406 206.574219 C 17.597656 206.195312 19.46875 207.816406 20.261719 209.714844 C 21.105469 211.757812 21.175781 214.101562 21.109375 216.285156 C 21.023438 221.011719 19.679688 225.664062 18.160156 230.097656 C 16.578125 234.828125 14.835938 239.476562 13.257812 244.164062 C 11.664062 248.933594 10.113281 253.714844 8.601562 258.503906 C 5.671875 267.882812 2.585938 277.359375 1.679688 287.125 C 0.882812 296.035156 1.710938 304.972656 2.757812 313.917969 C 3.804688 322.859375 5.121094 331.78125 5.316406 340.789062 C 5.355469 341.941406 5.324219 343.03125 5.320312 344.175781 C 5.003906 344.976562 5.988281 344.902344 6 344.289062 Z M 6 344.289062 " fill-opacity="1" fill-rule="nonzero"/></g></g></g></g><g clip-path="url(#bf2f507e88)"><path fill="#777cbb" d="M 23.046875 69.3125 C 24.5625 73.390625 24.621094 76.261719 23.949219 78.726562 C 23.738281 79.492188 22.910156 82.210938 19.695312 85.300781 C 15.207031 89.605469 6.632812 94.089844 0.175781 93.15625 L 0.175781 126.160156 C 8.214844 125.675781 17.964844 122.738281 25.96875 117.277344 C 29.648438 114.769531 38.644531 108.644531 41.878906 97.546875 C 43.84375 90.808594 43.011719 84.554688 42.265625 78.976562 C 41.609375 74.070312 40.9375 73.25 38.011719 62.214844 C 34.867188 50.332031 33.292969 44.304688 33.5 40.164062 C 33.628906 37.503906 34.089844 28.175781 40.726562 20.558594 C 46.964844 13.386719 55.210938 11.714844 62.523438 10.238281 C 76.246094 7.464844 87.765625 10.203125 95.671875 12.171875 C 103.957031 14.234375 102.371094 14.949219 117.855469 19.785156 C 135.335938 25.238281 141.355469 25.574219 146.617188 25.070312 C 151.789062 24.578125 158.410156 23.84375 163.507812 18.746094 C 167.984375 14.269531 169.019531 8.699219 169.699219 4.691406 C 169.699219 4.691406 170.003906 2.894531 170.113281 0.00390625 L 0.179688 0.00390625 L 0.179688 42.933594 C 1.953125 44.679688 4.460938 47.175781 8.09375 50.730469 C 16.671875 59.144531 20.609375 62.761719 23.046875 69.3125 Z M 23.046875 69.3125 " fill-opacity="1" fill-rule="nonzero"/></g><g clip-path="url(#7e79ee6447)"><path fill="#caaacd" d="M 43.035156 146.976562 C 57.097656 141.976562 66.71875 134.667969 70.117188 126.40625 C 70.480469 125.527344 73.644531 117.507812 73.441406 106.714844 C 73.363281 102.691406 72.660156 96.753906 65.300781 77.191406 C 63.707031 72.960938 62.363281 69.585938 61.179688 66.605469 C 57.769531 58.019531 56.054688 53.714844 55.304688 46.132812 C 54.765625 40.679688 54.976562 36.121094 55.941406 32.59375 C 56.726562 29.710938 57.824219 28.164062 58.578125 27.253906 C 60.628906 24.789062 63.453125 22.953125 66.980469 21.804688 C 69.800781 20.890625 72.320312 20.667969 73.394531 20.570312 C 74.089844 20.503906 74.769531 20.476562 75.4375 20.476562 C 80.34375 20.476562 84.449219 22.074219 89.488281 24.03125 C 94.40625 25.941406 97.464844 27.734375 102.089844 30.449219 C 103.089844 31.035156 104.121094 31.644531 105.28125 32.3125 C 116.28125 38.675781 121.800781 41.867188 124.804688 42.851562 C 137.21875 46.90625 148.703125 44.554688 157.09375 42.839844 C 160.695312 42.101562 166.144531 40.988281 172.738281 37.972656 C 176.851562 36.085938 189.375 30.347656 195.800781 19.800781 C 195.820312 19.765625 197.882812 16.339844 199.199219 10.449219 C 199.808594 7.734375 200.320312 4.195312 200.300781 0.00390625 L 201.15625 0.00390625 C 201.175781 3.636719 200.792969 7.210938 200.027344 10.632812 C 198.679688 16.65625 196.617188 20.09375 196.527344 20.234375 C 193.246094 25.621094 188.429688 29.769531 183.914062 32.804688 C 179.394531 35.84375 175.175781 37.773438 173.089844 38.734375 C 166.410156 41.792969 160.90625 42.917969 157.261719 43.664062 C 153.191406 44.496094 148.117188 45.535156 142.554688 45.839844 C 136.023438 46.191406 130.132812 45.480469 124.546875 43.652344 C 121.453125 42.648438 115.910156 39.4375 104.867188 33.042969 C 103.707031 32.371094 102.667969 31.765625 101.667969 31.175781 C 97.078125 28.484375 94.042969 26.703125 89.191406 24.816406 C 83.347656 22.542969 79.128906 20.902344 73.476562 21.40625 C 67.0625 21.976562 62.269531 24.121094 59.230469 27.792969 C 56.324219 31.292969 55.285156 37.4375 56.140625 46.054688 C 56.886719 53.519531 58.585938 57.792969 61.964844 66.300781 C 63.148438 69.28125 64.496094 72.664062 66.089844 76.898438 C 73.503906 96.585938 74.207031 102.601562 74.289062 106.699219 C 74.371094 110.828125 73.972656 115.023438 73.113281 119.164062 C 72.28125 123.167969 71.289062 125.785156 70.902344 126.722656 C 69.121094 131.046875 65.710938 135.109375 60.753906 138.804688 C 56.054688 142.308594 50.1875 145.324219 43.320312 147.769531 C 32.457031 151.636719 19.835938 153.734375 7.578125 153.734375 C 6.921875 153.734375 6.265625 153.726562 5.613281 153.714844 C 3.78125 153.679688 1.964844 153.597656 0.175781 153.476562 L 0.175781 152.667969 C 15.453125 153.746094 30.96875 151.265625 43.035156 146.976562 Z M 43.035156 146.976562 " fill-opacity="1" fill-rule="nonzero"/></g><g clip-path="url(#2a9d1308b4)"><path fill="#777cbb" d="M 734.738281 474.226562 C 732.511719 468.238281 732.425781 464.023438 733.414062 460.402344 C 733.726562 459.273438 734.9375 455.28125 739.652344 450.746094 C 746.234375 444.425781 758.808594 437.84375 768.277344 439.210938 L 768.277344 390.75 C 756.488281 391.464844 742.1875 395.773438 730.453125 403.792969 C 725.054688 407.472656 711.863281 416.472656 707.121094 432.765625 C 704.242188 442.660156 705.464844 451.839844 706.554688 460.03125 C 707.515625 467.238281 708.503906 468.445312 712.792969 484.644531 C 717.40625 502.089844 719.710938 510.945312 719.410156 517.027344 C 719.21875 520.933594 718.542969 534.628906 708.816406 545.8125 C 699.664062 556.34375 687.574219 558.792969 676.847656 560.960938 C 656.726562 565.039062 639.832031 561.015625 628.238281 558.125 C 616.089844 555.09375 618.417969 554.046875 595.707031 546.949219 C 570.074219 538.9375 561.25 538.449219 553.535156 539.1875 C 545.945312 539.910156 536.238281 540.984375 528.761719 548.472656 C 522.195312 555.042969 520.683594 563.226562 519.6875 569.109375 C 519.6875 569.109375 519.242188 571.75 519.078125 575.992188 L 768.269531 575.992188 L 768.269531 512.957031 C 765.671875 510.394531 761.996094 506.726562 756.667969 501.507812 C 744.089844 489.152344 738.3125 483.84375 734.738281 474.226562 Z M 734.738281 474.226562 " fill-opacity="1" fill-rule="nonzero"/></g><g clip-path="url(#d3d8039f28)"><path fill="#caaacd" d="M 705.429688 360.183594 C 684.804688 367.53125 670.695312 378.257812 665.714844 390.386719 C 665.179688 391.679688 660.539062 403.457031 660.839844 419.304688 C 660.953125 425.214844 661.984375 433.929688 672.777344 462.65625 C 675.113281 468.867188 677.082031 473.820312 678.816406 478.199219 C 683.816406 490.804688 686.335938 497.128906 687.4375 508.261719 C 688.226562 516.269531 687.917969 522.960938 686.5 528.140625 C 685.347656 532.375 683.742188 534.644531 682.632812 535.980469 C 679.625 539.601562 675.484375 542.292969 670.308594 543.980469 C 666.175781 545.320312 662.480469 545.648438 660.910156 545.796875 C 659.886719 545.890625 658.890625 545.933594 657.910156 545.933594 C 650.71875 545.933594 644.695312 543.585938 637.304688 540.710938 C 630.097656 537.90625 625.609375 535.273438 618.832031 531.289062 C 617.363281 530.429688 615.847656 529.535156 614.148438 528.554688 C 598.019531 519.210938 589.925781 514.523438 585.515625 513.078125 C 567.316406 507.125 550.476562 510.574219 538.171875 513.09375 C 532.886719 514.179688 524.894531 515.8125 515.226562 520.242188 C 509.195312 523.015625 490.832031 531.4375 481.40625 546.921875 C 481.378906 546.972656 478.355469 552.007812 476.421875 560.652344 C 475.527344 564.644531 474.78125 569.839844 474.808594 575.992188 L 473.550781 575.992188 C 473.527344 570.660156 474.085938 565.410156 475.210938 560.386719 C 477.1875 551.542969 480.210938 546.492188 480.339844 546.285156 C 485.152344 538.378906 492.214844 532.289062 498.839844 527.832031 C 505.464844 523.367188 511.652344 520.535156 514.710938 519.125 C 524.507812 514.632812 532.578125 512.984375 537.921875 511.882812 C 543.894531 510.660156 551.335938 509.136719 559.488281 508.691406 C 569.070312 508.171875 577.707031 509.214844 585.894531 511.898438 C 590.433594 513.378906 598.558594 518.09375 614.757812 527.480469 C 616.460938 528.46875 617.980469 529.355469 619.449219 530.222656 C 626.179688 534.171875 630.628906 536.789062 637.742188 539.558594 C 646.3125 542.894531 652.496094 545.304688 660.789062 544.566406 C 670.191406 543.730469 677.21875 540.582031 681.679688 535.1875 C 685.941406 530.050781 687.460938 521.027344 686.207031 508.371094 C 685.117188 497.410156 682.625 491.140625 677.664062 478.648438 C 675.929688 474.269531 673.953125 469.304688 671.617188 463.085938 C 660.746094 434.179688 659.714844 425.34375 659.59375 419.328125 C 659.476562 413.265625 660.058594 407.105469 661.324219 401.023438 C 662.542969 395.144531 663.996094 391.300781 664.5625 389.921875 C 667.175781 383.574219 672.175781 377.613281 679.445312 372.183594 C 686.335938 367.039062 694.9375 362.609375 705.007812 359.019531 C 720.9375 353.34375 739.449219 350.261719 757.425781 350.261719 C 758.386719 350.261719 759.347656 350.273438 760.300781 350.289062 C 762.992188 350.339844 765.65625 350.460938 768.277344 350.640625 L 768.277344 351.828125 C 745.875 350.246094 723.121094 353.886719 705.429688 360.183594 Z M 705.429688 360.183594 " fill-opacity="1" fill-rule="nonzero"/></g></svg>