<svg xmlns="http://www.w3.org/2000/svg" xmlns:xlink="http://www.w3.org/1999/xlink" width="1366" zoomAndPan="magnify" viewBox="0 0 1024.5 576" height="768" preserveAspectRatio="xMidYMid meet" version="1.0"><defs><clipPath id="63f969b0e2"><path d="M 0 0.140625 L 1024 0.140625 L 1024 575.859375 L 0 575.859375 Z M 0 0.140625 " clip-rule="nonzero"/></clipPath><clipPath id="c9efa6537d"><path d="M 732 283 L 893 283 L 893 439 L 732 439 Z M 732 283 " clip-rule="nonzero"/></clipPath><clipPath id="cf543cf2c3"><path d="M 699.984375 340.257812 L 840.714844 248.503906 L 933.289062 390.492188 L 792.558594 482.246094 Z M 699.984375 340.257812 " clip-rule="nonzero"/></clipPath><clipPath id="97eddde918"><path d="M 699.984375 340.257812 L 840.714844 248.503906 L 933.289062 390.492188 L 792.558594 482.246094 Z M 699.984375 340.257812 " clip-rule="nonzero"/></clipPath><clipPath id="073dbeaddf"><path d="M 700 152 L 804 152 L 804 232.847656 L 700 232.847656 Z M 700 152 " clip-rule="nonzero"/></clipPath><clipPath id="6d3cf07d0f"><path d="M 27 396 L 60 396 L 60 575.859375 L 27 575.859375 Z M 27 396 " clip-rule="nonzero"/></clipPath><clipPath id="70f909c2d7"><path d="M 0 0.140625 L 255 0.140625 L 255 190 L 0 190 Z M 0 0.140625 " clip-rule="nonzero"/></clipPath><clipPath id="b0be72b16b"><path d="M 0 0.140625 L 301.171875 0.140625 L 301.171875 230.390625 L 0 230.390625 Z M 0 0.140625 " clip-rule="nonzero"/></clipPath><clipPath id="d3d4d11f5a"><path d="M 769 387 L 1024 387 L 1024 575.859375 L 769 575.859375 Z M 769 387 " clip-rule="nonzero"/></clipPath><clipPath id="bc970daf99"><path d="M 723.324219 345.882812 L 1024 345.882812 L 1024 575.859375 L 723.324219 575.859375 Z M 723.324219 345.882812 " clip-rule="nonzero"/></clipPath></defs><g clip-path="url(#63f969b0e2)"><path fill="#ffffff" d="M 0 0.140625 L 1024.5 0.140625 L 1024.5 583.640625 L 0 583.640625 Z M 0 0.140625 " fill-opacity="1" fill-rule="nonzero"/><path fill="#ffffff" d="M 0 0.140625 L 1024.5 0.140625 L 1024.5 576.140625 L 0 576.140625 Z M 0 0.140625 " fill-opacity="1" fill-rule="nonzero"/><path fill="#ffffff" d="M 0 0.140625 L 1024.5 0.140625 L 1024.5 576.140625 L 0 576.140625 Z M 0 0.140625 " fill-opacity="1" fill-rule="nonzero"/></g><path fill="#ffffff" d="M 660.347656 348.925781 C 651.636719 325.769531 664.871094 314.75 667.324219 297.707031 C 669.777344 280.667969 695.332031 213.660156 765.96875 196.574219 C 836.609375 179.484375 874.382812 181.941406 889.011719 218.523438 C 903.636719 255.105469 902.386719 309.933594 870.722656 325.769531 C 839.0625 341.609375 743.160156 377.855469 726.992188 383.003906 C 692.875 393.980469 666.796875 366.0625 660.347656 348.925781 Z M 660.347656 348.925781 " fill-opacity="1" fill-rule="nonzero"/><g clip-path="url(#c9efa6537d)"><g clip-path="url(#cf543cf2c3)"><g clip-path="url(#97eddde918)"><path fill="#d6e8f7" d="M 880.359375 405.75 C 856.550781 440.523438 779.140625 453.804688 750.328125 413.597656 C 723.515625 376.105469 729.34375 337.402344 756.625 305.769531 C 760.851562 300.949219 766.089844 297.160156 772.011719 294.648438 C 789.933594 286.902344 830.453125 273.320312 855.8125 294.800781 C 889.175781 323.074219 904.191406 370.960938 880.359375 405.75 Z M 853.171875 302.863281 C 830.140625 283.394531 793.25 295.851562 776.929688 302.886719 C 771.5625 305.148438 766.753906 308.621094 762.917969 313 C 738.035156 341.796875 732.640625 376.949219 756.96875 410.921875 C 783.054688 447.351562 853.511719 435.113281 875.257812 403.523438 C 897 371.933594 883.464844 328.445312 853.171875 302.863281 Z M 853.171875 302.863281 " fill-opacity="1" fill-rule="nonzero"/></g></g></g><g clip-path="url(#073dbeaddf)"><path fill="#cb962e" d="M 770.53125 160.378906 C 769.199219 161.453125 768.34375 163.097656 768.34375 164.9375 C 768.34375 168.171875 770.980469 170.800781 774.230469 170.800781 C 775.425781 170.800781 776.902344 170.453125 778.289062 169.308594 C 779.066406 168.671875 780.554688 166.523438 780.554688 166.523438 C 780.554688 166.523438 780.492188 166.617188 780.464844 166.652344 C 781.398438 165.378906 782.421875 163.839844 783.585938 162.800781 C 786 160.636719 786.203125 156.929688 784.03125 154.523438 C 781.863281 152.113281 778.140625 151.914062 775.722656 154.078125 C 773.980469 155.636719 772.339844 157.847656 770.949219 159.757812 C 770.878906 159.855469 770.691406 160.132812 770.53125 160.378906 Z M 750.855469 168.449219 C 752.308594 167.210938 753.128906 165.296875 752.875 163.269531 C 752.488281 160.160156 750.652344 158.722656 748.175781 158.234375 C 747.429688 158.085938 745.582031 157.753906 743.503906 159.285156 C 743.21875 159.492188 741.78125 161.015625 741.402344 161.375 C 740.019531 162.679688 738.78125 164.042969 737.554688 165.492188 C 737.515625 165.542969 737.117188 165.941406 736.855469 166.203125 C 735.339844 167.261719 734.347656 169.015625 734.347656 171 C 734.347656 173.898438 735.882812 175.394531 737.59375 176.253906 C 738.605469 176.761719 740.441406 177.429688 742.816406 176.296875 C 743.363281 176.039062 746.300781 173.347656 746.558594 173.042969 C 747.496094 171.933594 748.4375 170.886719 749.496094 169.886719 C 749.699219 169.691406 750.527344 168.800781 750.855469 168.449219 Z M 711.359375 179.304688 C 712.0625 178.683594 714.082031 176.882812 714.535156 176.382812 L 716.234375 174.320312 C 716.457031 174.054688 716.726562 173.671875 716.921875 173.390625 C 718.195312 171.890625 718.683594 169.789062 718.027344 167.785156 C 717.421875 165.933594 716.261719 164.976562 715.164062 164.402344 C 713.8125 163.695312 712.167969 163.378906 710.230469 164.148438 C 709.691406 164.363281 708.875 164.757812 708.054688 165.648438 C 707.929688 165.785156 707.589844 166.339844 707.191406 166.816406 L 705.792969 168.515625 C 705.289062 168.953125 702.308594 171.554688 701.367188 172.949219 C 700.363281 174.441406 700.003906 175.929688 700.003906 177.148438 C 700.003906 180.386719 702.640625 183.011719 705.886719 183.011719 C 708.371094 183.011719 710.496094 181.476562 711.359375 179.304688 Z M 788.621094 190.589844 C 786.84375 191.597656 785.648438 193.503906 785.648438 195.683594 C 785.648438 198.917969 788.285156 201.546875 791.53125 201.546875 C 792.554688 201.546875 794.601562 201.15625 796.582031 199.277344 C 798.296875 197.648438 801.246094 193.515625 801.929688 192.839844 C 804.230469 190.558594 804.242188 186.84375 801.953125 184.546875 C 799.660156 182.253906 795.933594 182.246094 793.628906 184.527344 C 793.039062 185.109375 789.4375 189.578125 788.621094 190.589844 Z M 766.277344 196.261719 C 767.628906 194.75 768.15625 192.585938 767.472656 190.527344 C 766.457031 187.453125 763.128906 185.78125 760.042969 186.796875 C 759.445312 186.992188 758.707031 187.332031 757.960938 187.980469 C 757.589844 188.296875 756.53125 189.816406 756.089844 190.449219 C 754.769531 192.011719 753.507812 193.746094 752.070312 195.175781 C 749.773438 197.464844 749.773438 201.179688 752.070312 203.464844 C 754.367188 205.753906 758.09375 205.753906 760.390625 203.464844 C 762.109375 201.757812 763.636719 199.695312 765.21875 197.851562 C 765.378906 197.667969 765.976562 196.738281 766.277344 196.261719 Z M 719.710938 189.617188 C 717.453125 192.1875 715.09375 194.675781 712.683594 197.082031 C 710.386719 199.371094 710.386719 203.082031 712.683594 205.371094 C 714.976562 207.660156 718.707031 207.660156 721.003906 205.371094 C 723.601562 202.785156 726.136719 200.101562 728.566406 197.339844 C 730.707031 194.90625 730.460938 191.199219 728.015625 189.066406 C 725.574219 186.9375 721.851562 187.183594 719.710938 189.617188 Z M 774.796875 225.117188 C 775.832031 224.214844 776.550781 222.953125 776.742188 221.492188 C 777.171875 218.285156 774.902344 215.335938 771.683594 214.910156 C 770.671875 214.777344 769.257812 214.824219 767.730469 215.765625 C 767.074219 216.167969 765.035156 218.5625 765.035156 218.5625 C 765.035156 218.5625 765.238281 218.300781 765.273438 218.261719 C 764.097656 219.664062 762.664062 220.914062 761.375 222.199219 C 759.078125 224.484375 759.078125 228.199219 761.375 230.488281 C 763.667969 232.773438 767.398438 232.773438 769.695312 230.488281 C 771.234375 228.957031 772.914062 227.4375 774.316406 225.765625 L 774.796875 225.117188 " fill-opacity="1" fill-rule="evenodd"/></g><path fill="#010101" d="M 65.929688 398.179688 C 61.695312 398.59375 57.71875 396.527344 54.878906 393.480469 C 51.730469 389.96875 50.390625 385.476562 50.542969 380.878906 C 50.699219 376.386719 52.351562 372.101562 54.570312 368.277344 C 56.6875 364.664062 59.21875 361.410156 62.574219 358.933594 C 65.980469 356.347656 69.902344 354.59375 73.726562 352.734375 C 75.066406 352.113281 79.09375 350.050781 79.144531 352.890625 C 79.195312 353.921875 78.886719 355.058594 78.785156 356.089844 C 78.679688 357.484375 78.679688 358.878906 78.628906 360.324219 C 78.628906 361.773438 78.628906 363.21875 78.527344 364.664062 C 78.421875 366.058594 78.164062 367.503906 78.007812 368.898438 C 77.699219 370.859375 77.441406 372.773438 77.132812 374.785156 C 76.875 376.4375 76.667969 378.089844 76.359375 379.742188 C 75.789062 382.6875 74.859375 385.683594 73.726562 388.472656 C 72.796875 390.847656 71.8125 393.273438 70.164062 395.339844 C 68.714844 397.199219 66.804688 398.285156 64.429688 398.386719 C 63.65625 398.386719 62.933594 398.335938 62.160156 398.285156 C 61.386719 398.230469 61.386719 399.367188 62.160156 399.472656 C 64.070312 399.730469 65.980469 399.625 67.789062 398.902344 C 70.109375 397.921875 71.660156 395.648438 72.847656 393.480469 C 74.964844 389.503906 76.460938 385.113281 77.390625 380.726562 C 77.699219 379.332031 77.855469 377.9375 78.113281 376.59375 C 78.785156 372.050781 79.765625 367.453125 79.867188 362.804688 C 79.921875 359.859375 79.921875 356.96875 80.332031 354.027344 C 80.4375 353.097656 80.488281 352.0625 79.867188 351.238281 C 79.300781 350.460938 78.320312 350.308594 77.441406 350.410156 C 75.015625 350.667969 72.691406 352.113281 70.523438 353.148438 C 68.511719 354.128906 66.394531 355.160156 64.484375 356.402344 C 60.664062 358.777344 57.410156 361.875 54.933594 365.695312 C 52.503906 369.414062 50.441406 373.546875 49.769531 377.988281 C 48.941406 382.789062 49.613281 387.957031 52.246094 392.136719 C 54.570312 395.804688 58.339844 398.800781 62.78125 399.523438 C 63.8125 399.679688 64.949219 399.78125 65.980469 399.625 C 66.703125 399.316406 66.703125 398.078125 65.929688 398.179688 Z M 65.929688 398.179688 " fill-opacity="1" fill-rule="nonzero"/><path fill="#010101" d="M 78.472656 373.289062 C 81.417969 369.621094 84.359375 365.957031 87.304688 362.289062 C 87.921875 361.460938 88.644531 360.585938 89.265625 359.808594 C 89.367188 359.707031 89.523438 359.449219 89.675781 359.5 C 90.089844 359.65625 90.089844 361.203125 90.140625 361.460938 C 90.296875 362.804688 90.296875 364.148438 90.246094 365.492188 C 89.988281 371.121094 87.972656 376.492188 85.597656 381.550781 C 84.359375 384.132812 83.019531 386.5625 81.777344 389.039062 C 80.746094 391.003906 79.816406 393.121094 78.113281 394.617188 C 74.707031 397.765625 69.75 398.4375 65.257812 398.027344 C 64.484375 397.972656 64.484375 399.109375 65.257812 399.214844 C 69.492188 399.625 73.984375 398.957031 77.546875 396.527344 C 79.558594 395.132812 80.847656 393.273438 81.984375 391.105469 C 83.378906 388.417969 84.824219 385.835938 86.167969 383.101562 C 88.800781 377.730469 90.96875 372.101562 91.382812 366.109375 C 91.484375 364.613281 91.433594 363.0625 91.328125 361.566406 C 91.226562 360.585938 91.226562 359.085938 90.296875 358.414062 C 89.058594 357.640625 88.179688 359.242188 87.613281 359.964844 C 84.308594 364.148438 81.003906 368.226562 77.648438 372.359375 C 77.132812 373.03125 78.007812 373.910156 78.472656 373.289062 Z M 78.472656 373.289062 " fill-opacity="1" fill-rule="nonzero"/><path fill="#010101" d="M 80.644531 353.199219 C 81.46875 352.476562 82.914062 351.339844 84 351.648438 C 84.667969 351.804688 84.980469 352.734375 85.1875 353.40625 C 85.753906 355.78125 85.445312 358.414062 85.082031 360.789062 C 84.980469 361.667969 84.773438 362.597656 84.617188 363.476562 C 84.464844 364.25 85.597656 364.507812 85.804688 363.785156 C 86.269531 361.460938 86.632812 359.085938 86.683594 356.710938 C 86.734375 354.800781 86.785156 351.132812 84.410156 350.515625 C 82.757812 350.050781 81.054688 351.390625 79.867188 352.375 C 79.25 352.835938 80.074219 353.664062 80.644531 353.199219 Z M 80.644531 353.199219 " fill-opacity="1" fill-rule="nonzero"/><path fill="#010101" d="M 80.179688 427.511719 C 85.238281 425.292969 90.453125 423.539062 95.820312 422.296875 C 97.164062 421.9375 98.507812 421.679688 99.847656 421.417969 C 100.46875 421.316406 101.140625 421.160156 101.707031 421.058594 C 102.328125 420.953125 103.203125 420.644531 103.71875 421.109375 C 104.597656 421.832031 104.597656 423.484375 104.496094 424.464844 C 104.339844 425.65625 103.773438 426.738281 103.152344 427.71875 C 101.863281 429.734375 100.003906 431.4375 98.144531 432.9375 C 96.234375 434.484375 94.117188 435.878906 91.949219 437.066406 C 89.730469 438.253906 87.457031 439.238281 85.082031 439.960938 C 82.707031 440.734375 80.023438 441.355469 77.804688 439.804688 C 76.046875 438.566406 75.015625 436.550781 74.035156 434.742188 C 72.796875 432.472656 71.660156 430.042969 72.539062 427.410156 C 73.3125 425.085938 75.171875 423.277344 76.875 421.730469 C 78.679688 420.179688 80.644531 418.785156 82.757812 417.597656 C 86.941406 415.273438 91.585938 413.828125 96.335938 413.464844 C 97.421875 413.414062 98.765625 413.15625 99.847656 413.726562 C 100.777344 414.191406 101.292969 415.121094 101.550781 416.050781 C 102.121094 418.425781 100.621094 420.695312 99.28125 422.503906 C 96.183594 426.585938 92.464844 430.25 88.386719 433.296875 C 86.425781 434.742188 84.308594 436.191406 81.882812 436.65625 C 79.714844 437.066406 77.390625 436.65625 75.480469 435.570312 C 74.5 435.054688 73.671875 434.332031 72.898438 433.554688 C 72.382812 432.988281 71.554688 433.867188 72.074219 434.382812 C 73.621094 436.191406 75.839844 437.429688 78.214844 437.789062 C 80.796875 438.253906 83.222656 437.738281 85.496094 436.550781 C 87.972656 435.261719 90.246094 433.402344 92.363281 431.542969 C 94.53125 429.683594 96.542969 427.566406 98.402344 425.449219 C 100.105469 423.433594 102.066406 421.214844 102.6875 418.578125 C 103.152344 416.566406 102.636719 414.085938 100.777344 412.847656 C 99.746094 412.125 98.453125 412.125 97.214844 412.226562 C 95.871094 412.277344 94.582031 412.484375 93.34375 412.640625 C 90.710938 413.105469 88.179688 413.828125 85.652344 414.859375 C 83.222656 415.894531 80.953125 417.183594 78.785156 418.683594 C 76.667969 420.179688 74.601562 421.9375 73.054688 424.105469 C 71.402344 426.273438 70.628906 428.804688 71.351562 431.488281 C 71.710938 432.832031 72.382812 434.125 73.054688 435.363281 C 73.621094 436.394531 74.242188 437.53125 74.910156 438.511719 C 76.359375 440.476562 78.269531 441.921875 80.847656 442.078125 C 83.585938 442.128906 86.476562 440.992188 88.953125 439.90625 C 93.910156 437.789062 98.816406 434.742188 102.480469 430.714844 C 104.183594 428.855469 105.734375 426.53125 105.785156 423.898438 C 105.835938 422.8125 105.628906 421.417969 104.855469 420.542969 C 103.980469 419.5625 102.738281 419.714844 101.605469 419.972656 C 95.5625 421.007812 89.625 422.710938 83.894531 424.929688 C 82.5 425.449219 81.105469 426.015625 79.714844 426.6875 C 78.886719 426.789062 79.507812 427.875 80.179688 427.511719 Z M 80.179688 427.511719 " fill-opacity="1" fill-rule="nonzero"/><g clip-path="url(#6d3cf07d0f)"><path fill="#010101" d="M 36.292969 594.164062 C 33.195312 582.804688 31.027344 571.234375 29.738281 559.617188 C 28.085938 545 27.878906 530.230469 29.167969 515.667969 C 30.355469 502.550781 32.785156 489.535156 35.570312 476.730469 C 37.945312 465.472656 40.632812 454.265625 43.78125 443.214844 C 47.652344 429.632812 52.246094 416.152344 57.460938 402.984375 C 58.183594 401.175781 58.90625 399.367188 59.628906 397.5625 C 59.941406 396.835938 58.753906 396.578125 58.441406 397.25 C 52.917969 410.730469 48.117188 424.519531 43.882812 438.511719 C 40.527344 449.667969 37.738281 460.875 35.210938 472.183594 C 32.421875 484.992188 29.789062 497.902344 28.34375 510.917969 C 26.691406 525.53125 26.640625 540.25 27.980469 554.8125 C 29.066406 567.105469 31.183594 579.292969 34.175781 591.222656 C 34.488281 592.304688 34.746094 593.496094 35.054688 594.578125 C 35.363281 595.199219 36.449219 594.941406 36.292969 594.164062 Z M 36.292969 594.164062 " fill-opacity="1" fill-rule="nonzero"/></g><path fill="#010101" d="M 28.394531 541.078125 C 32.371094 525.429688 36.65625 509.882812 41.355469 494.496094 C 43.574219 487.265625 45.792969 480.035156 48.273438 472.90625 C 50.59375 466.453125 53.382812 460.152344 57.050781 454.417969 C 61.59375 447.242188 67.269531 440.890625 73.828125 435.519531 C 74.394531 435.054688 73.621094 434.175781 73 434.691406 C 67.117188 439.441406 61.953125 445.019531 57.667969 451.269531 C 53.640625 457.105469 50.542969 463.40625 48.015625 470.066406 C 45.433594 476.832031 43.367188 483.804688 41.199219 490.726562 C 38.722656 498.730469 36.292969 506.785156 34.074219 514.84375 C 31.648438 523.464844 29.375 532.089844 27.15625 540.765625 C 27.054688 541.488281 28.1875 541.851562 28.394531 541.078125 Z M 28.394531 541.078125 " fill-opacity="1" fill-rule="nonzero"/><path fill="#010101" d="M 27.570312 549.496094 C 25.144531 538.597656 21.167969 528.21875 17.398438 517.785156 C 13.628906 507.457031 9.964844 496.972656 8.105469 486.023438 C 6.09375 474.042969 7.074219 461.90625 7.949219 449.875 C 8.414062 443.679688 8.929688 437.429688 9.5 431.230469 C 10.066406 425.136719 10.84375 419.097656 11.460938 412.949219 C 12.03125 407.269531 12.390625 401.433594 11.410156 395.753906 C 10.582031 391.261719 8.878906 384.90625 3.664062 383.875 C 2.632812 383.617188 1.496094 383.773438 0.464844 384.183594 C 0.207031 384.289062 0 384.496094 0.0507812 384.753906 C 0.308594 387.179688 1.238281 389.402344 2.273438 391.570312 C 3.460938 393.945312 4.542969 396.269531 5.679688 398.59375 C 8.003906 403.34375 10.273438 408.097656 12.597656 412.847656 C 17.242188 422.453125 21.890625 431.953125 26.535156 441.5625 C 31.183594 451.113281 35.828125 460.617188 40.425781 470.171875 C 44.246094 478.125 46.773438 486.75 47.445312 495.527344 C 47.808594 499.660156 47.703125 503.789062 47.34375 507.871094 C 47.136719 510.453125 46.878906 513.035156 46.308594 515.566406 C 45.742188 518.199219 44.863281 520.730469 43.882812 523.261719 C 43.058594 525.378906 42.128906 527.390625 41.097656 529.355469 C 40.527344 530.4375 39.910156 531.574219 39.289062 532.605469 C 38.824219 533.382812 38.101562 534.984375 37.273438 535.34375 C 36.035156 535.808594 35.519531 533.640625 35.519531 532.867188 C 35.46875 531.625 35.828125 530.4375 36.242188 529.300781 C 37.070312 527.082031 38.101562 524.964844 39.082031 522.796875 C 40.992188 518.507812 43.058594 514.171875 45.382812 510.039062 C 49.355469 502.914062 54.3125 496.355469 60.148438 490.621094 C 72.742188 478.226562 88.851562 469.859375 106.148438 466.195312 C 107.539062 465.882812 108.988281 465.625 110.433594 465.367188 C 111 465.265625 110.949219 464.386719 110.433594 464.179688 C 105.476562 462.941406 101.65625 468.363281 98.867188 471.617188 C 95.460938 475.59375 92.105469 479.570312 88.851562 483.648438 C 82.292969 491.808594 75.789062 500.070312 68.5625 507.664062 C 64.484375 511.898438 60.199219 515.976562 55.601562 519.644531 C 55.035156 520.109375 55.808594 520.9375 56.429688 520.472656 C 64.378906 514.117188 71.351562 506.683594 77.957031 498.9375 C 84.515625 491.136719 90.761719 482.976562 97.371094 475.230469 C 99.175781 473.0625 101.035156 470.945312 102.945312 468.878906 C 104.804688 466.917969 107.28125 464.644531 110.226562 465.316406 C 110.226562 464.902344 110.226562 464.542969 110.226562 464.128906 C 102.894531 465.367188 95.769531 467.332031 88.902344 470.171875 C 79.765625 473.941406 71.296875 479.207031 63.8125 485.664062 C 57.617188 491.035156 51.988281 497.285156 47.550781 504.253906 C 44.863281 508.386719 42.59375 512.828125 40.527344 517.21875 C 39.445312 519.488281 38.410156 521.8125 37.378906 524.085938 C 36.449219 526.203125 35.261719 528.320312 34.796875 530.59375 C 34.382812 532.402344 34.382812 534.828125 36.035156 536.066406 C 37.894531 537.460938 39.339844 535.085938 40.167969 533.742188 C 42.542969 529.871094 44.503906 525.636719 46.050781 521.347656 C 46.773438 519.4375 47.445312 517.371094 47.808594 515.359375 C 48.425781 512.054688 48.789062 508.59375 48.996094 505.238281 C 49.5625 495.890625 48.21875 486.386719 45.121094 477.503906 C 43.730469 473.628906 41.921875 469.859375 40.113281 466.144531 C 37.738281 461.183594 35.3125 456.277344 32.886719 451.320312 C 28.085938 441.355469 23.234375 431.488281 18.429688 421.523438 C 13.628906 411.554688 8.777344 401.691406 3.976562 391.726562 C 2.890625 389.402344 1.652344 387.078125 1.496094 384.496094 C 1.394531 384.648438 1.1875 384.90625 1.085938 385.0625 C 3.511719 384.03125 6.144531 385.425781 7.589844 387.4375 C 9.136719 389.609375 9.859375 392.34375 10.378906 394.925781 C 11.566406 400.503906 11.253906 406.339844 10.6875 411.96875 C 10.117188 417.960938 9.34375 423.898438 8.777344 429.835938 C 8.207031 435.878906 7.691406 441.921875 7.226562 447.964844 C 6.351562 459.789062 5.316406 471.773438 6.917969 483.496094 C 8.414062 494.183594 11.824219 504.460938 15.488281 514.6875 C 19.152344 524.914062 23.128906 535.035156 25.8125 545.570312 C 26.175781 546.914062 26.433594 548.203125 26.742188 549.546875 C 26.589844 550.578125 27.722656 550.21875 27.570312 549.496094 Z M 27.570312 549.496094 " fill-opacity="1" fill-rule="nonzero"/><g clip-path="url(#70f909c2d7)"><path fill="#777cbb" d="M 33.976562 103.9375 C 36.253906 110.042969 36.34375 114.34375 35.332031 118.039062 C 35.015625 119.1875 33.777344 123.257812 28.949219 127.882812 C 22.21875 134.332031 9.359375 141.046875 -0.328125 139.648438 L -0.328125 189.078125 C 11.730469 188.347656 26.355469 183.953125 38.363281 175.777344 C 43.882812 172.019531 57.375 162.839844 62.226562 146.222656 C 65.171875 136.132812 63.921875 126.769531 62.808594 118.414062 C 61.824219 111.0625 60.8125 109.832031 56.425781 93.3125 C 51.707031 75.515625 49.351562 66.488281 49.65625 60.285156 C 49.851562 56.300781 50.546875 42.332031 60.496094 30.921875 C 69.855469 20.183594 82.222656 17.683594 93.191406 15.472656 C 113.777344 11.3125 131.058594 15.417969 142.914062 18.367188 C 155.34375 21.457031 152.960938 22.527344 176.191406 29.765625 C 202.414062 37.933594 211.4375 38.433594 219.332031 37.679688 C 227.09375 36.941406 237.027344 35.847656 244.671875 28.210938 C 251.386719 21.507812 252.933594 13.164062 253.953125 7.160156 C 253.953125 7.160156 254.410156 4.46875 254.578125 0.140625 L -0.320312 0.140625 L -0.320312 64.433594 C 2.335938 67.046875 6.097656 70.785156 11.546875 76.113281 C 24.414062 88.714844 30.320312 94.128906 33.976562 103.9375 Z M 33.976562 103.9375 " fill-opacity="1" fill-rule="nonzero"/></g><g clip-path="url(#b0be72b16b)"><path fill="#caaacd" d="M 63.957031 220.253906 C 85.054688 212.761719 99.484375 201.820312 104.585938 189.445312 C 105.128906 188.128906 109.875 176.117188 109.566406 159.953125 C 109.453125 153.925781 108.398438 145.039062 97.359375 115.738281 C 94.96875 109.402344 92.957031 104.351562 91.179688 99.882812 C 86.066406 87.027344 83.488281 80.578125 82.363281 69.226562 C 81.554688 61.054688 81.871094 54.230469 83.320312 48.945312 C 84.5 44.628906 86.144531 42.3125 87.277344 40.953125 C 90.355469 37.257812 94.589844 34.511719 99.882812 32.792969 C 104.109375 31.421875 107.890625 31.089844 109.496094 30.941406 C 110.542969 30.84375 111.5625 30.800781 112.566406 30.800781 C 119.921875 30.800781 126.082031 33.195312 133.640625 36.125 C 141.015625 38.988281 145.605469 41.671875 152.539062 45.734375 C 154.042969 46.613281 155.589844 47.523438 157.332031 48.527344 C 173.828125 58.054688 182.109375 62.835938 186.617188 64.3125 C 205.234375 70.382812 222.460938 66.863281 235.046875 64.292969 C 240.453125 63.1875 248.628906 61.519531 258.515625 57 C 264.6875 54.175781 283.46875 45.585938 293.113281 29.792969 C 293.136719 29.738281 296.230469 24.605469 298.210938 15.789062 C 299.125 11.714844 299.886719 6.414062 299.863281 0.140625 L 301.144531 0.140625 C 301.171875 5.582031 300.601562 10.933594 299.449219 16.058594 C 297.425781 25.078125 294.332031 30.230469 294.203125 30.441406 C 289.28125 38.503906 282.054688 44.71875 275.277344 49.261719 C 268.5 53.816406 262.171875 56.703125 259.042969 58.140625 C 249.023438 62.722656 240.769531 64.40625 235.300781 65.53125 C 229.195312 66.777344 221.582031 68.328125 213.242188 68.785156 C 203.441406 69.3125 194.605469 68.25 186.230469 65.511719 C 181.589844 64.003906 173.273438 59.195312 156.707031 49.621094 C 154.964844 48.613281 153.410156 47.710938 151.90625 46.824219 C 145.023438 42.796875 140.472656 40.128906 133.195312 37.300781 C 124.429688 33.898438 118.101562 31.441406 109.621094 32.195312 C 100.003906 33.046875 92.816406 36.257812 88.253906 41.761719 C 83.894531 47 82.335938 56.203125 83.621094 69.109375 C 84.738281 80.289062 87.285156 86.6875 92.359375 99.425781 C 94.132812 103.894531 96.15625 108.957031 98.546875 115.300781 C 109.664062 144.785156 110.71875 153.796875 110.84375 159.929688 C 110.964844 166.113281 110.367188 172.398438 109.074219 178.601562 C 107.828125 184.59375 106.34375 188.515625 105.761719 189.921875 C 103.089844 196.394531 97.972656 202.476562 90.539062 208.011719 C 83.488281 213.261719 74.691406 217.78125 64.390625 221.4375 C 48.09375 227.230469 29.160156 230.371094 10.773438 230.371094 C 9.789062 230.371094 8.804688 230.363281 7.828125 230.34375 C 5.078125 230.292969 2.351562 230.167969 -0.328125 229.984375 L -0.328125 228.773438 C 22.585938 230.390625 45.859375 226.675781 63.957031 220.253906 Z M 63.957031 220.253906 " fill-opacity="1" fill-rule="nonzero"/></g><g clip-path="url(#d3d4d11f5a)"><path fill="#777cbb" d="M 990.519531 472.335938 C 988.242188 466.226562 988.152344 461.925781 989.164062 458.234375 C 989.480469 457.082031 990.71875 453.011719 995.546875 448.386719 C 1002.277344 441.9375 1015.136719 435.226562 1024.824219 436.621094 L 1024.824219 387.195312 C 1012.765625 387.921875 998.136719 392.316406 986.132812 400.496094 C 980.613281 404.25 967.121094 413.429688 962.269531 430.050781 C 959.324219 440.140625 960.570312 449.503906 961.6875 457.855469 C 962.671875 465.210938 963.683594 466.4375 968.070312 482.960938 C 972.789062 500.753906 975.144531 509.785156 974.835938 515.988281 C 974.644531 519.972656 973.949219 533.941406 964 545.347656 C 954.640625 556.089844 942.273438 558.589844 931.300781 560.800781 C 910.71875 564.960938 893.4375 560.851562 881.578125 557.90625 C 869.152344 554.816406 871.535156 553.746094 848.300781 546.507812 C 822.082031 538.335938 813.054688 537.835938 805.164062 538.589844 C 797.402344 539.328125 787.46875 540.425781 779.824219 548.058594 C 773.109375 554.761719 771.5625 563.109375 770.542969 569.109375 C 770.542969 569.109375 770.085938 571.804688 769.917969 576.128906 L 1024.816406 576.128906 L 1024.816406 511.835938 C 1022.160156 509.222656 1018.398438 505.484375 1012.949219 500.160156 C 1000.082031 487.558594 994.175781 482.144531 990.519531 472.335938 Z M 990.519531 472.335938 " fill-opacity="1" fill-rule="nonzero"/></g><g clip-path="url(#bc970daf99)"><path fill="#caaacd" d="M 960.535156 356.015625 C 939.441406 363.511719 925.007812 374.453125 919.910156 386.824219 C 919.367188 388.140625 914.621094 400.152344 914.925781 416.316406 C 915.042969 422.34375 916.097656 431.234375 927.136719 460.53125 C 929.527344 466.867188 931.539062 471.921875 933.316406 476.386719 C 938.429688 489.242188 941.007812 495.691406 942.132812 507.046875 C 942.941406 515.214844 942.625 522.042969 941.171875 527.324219 C 939.996094 531.640625 938.351562 533.957031 937.21875 535.320312 C 934.140625 539.011719 929.90625 541.757812 924.613281 543.480469 C 920.386719 544.847656 916.605469 545.179688 914.996094 545.332031 C 913.953125 545.425781 912.933594 545.472656 911.929688 545.472656 C 904.574219 545.472656 898.410156 543.074219 890.851562 540.144531 C 883.476562 537.285156 878.890625 534.597656 871.957031 530.535156 C 870.453125 529.660156 868.90625 528.746094 867.164062 527.746094 C 850.667969 518.21875 842.386719 513.433594 837.878906 511.960938 C 819.261719 505.886719 802.035156 509.40625 789.449219 511.976562 C 784.042969 513.082031 775.867188 514.75 765.980469 519.269531 C 759.808594 522.09375 741.027344 530.6875 731.382812 546.480469 C 731.355469 546.53125 728.261719 551.664062 726.285156 560.484375 C 725.371094 564.554688 724.605469 569.855469 724.632812 576.128906 L 723.351562 576.128906 C 723.324219 570.6875 723.894531 565.335938 725.046875 560.210938 C 727.066406 551.191406 730.160156 546.042969 730.292969 545.832031 C 735.214844 537.765625 742.441406 531.554688 749.21875 527.007812 C 755.996094 522.453125 762.324219 519.566406 765.453125 518.128906 C 775.472656 513.546875 783.726562 511.863281 789.191406 510.742188 C 795.300781 509.496094 802.914062 507.941406 811.253906 507.484375 C 821.054688 506.957031 829.886719 508.019531 838.265625 510.757812 C 842.90625 512.269531 851.21875 517.074219 867.789062 526.648438 C 869.53125 527.660156 871.085938 528.5625 872.589844 529.449219 C 879.46875 533.476562 884.023438 536.144531 891.300781 538.96875 C 900.0625 542.375 906.394531 544.832031 914.875 544.074219 C 924.492188 543.222656 931.679688 540.011719 936.242188 534.511719 C 940.601562 529.273438 942.15625 520.066406 940.875 507.160156 C 939.757812 495.980469 937.210938 489.585938 932.136719 476.84375 C 930.363281 472.378906 928.339844 467.316406 925.949219 460.972656 C 914.832031 431.488281 913.777344 422.476562 913.652344 416.34375 C 913.53125 410.15625 914.128906 403.875 915.417969 397.671875 C 916.667969 391.675781 918.152344 387.753906 918.734375 386.351562 C 921.40625 379.875 926.519531 373.792969 933.957031 368.257812 C 941.007812 363.011719 949.804688 358.492188 960.105469 354.832031 C 976.402344 349.042969 995.335938 345.898438 1013.722656 345.898438 C 1014.707031 345.898438 1015.691406 345.910156 1016.667969 345.925781 C 1019.417969 345.980469 1022.144531 346.101562 1024.824219 346.285156 L 1024.824219 347.496094 C 1001.910156 345.882812 978.632812 349.59375 960.535156 356.015625 Z M 960.535156 356.015625 " fill-opacity="1" fill-rule="nonzero"/></g></svg>