<svg xmlns="http://www.w3.org/2000/svg" xmlns:xlink="http://www.w3.org/1999/xlink" width="1366" zoomAndPan="magnify" viewBox="0 0 1024.5 576" height="768" preserveAspectRatio="xMidYMid meet" version="1.0"><defs><clipPath id="36000b7377"><path d="M 126 236 L 362.816406 236 L 362.816406 247.8125 L 126 247.8125 Z M 126 236 " clip-rule="nonzero"/></clipPath></defs><g clip-path="url(#36000b7377)"><path fill="#ced0f5" d="M 362.292969 243.453125 C 362.179688 240.851562 361.210938 238.8125 359.449219 238.757812 C 356.375 238.644531 353.300781 237.511719 350.226562 238.019531 C 346.925781 238.585938 343.796875 238.078125 340.609375 237.226562 C 339.984375 237.058594 339.414062 236.832031 338.84375 237.171875 C 337.367188 238.132812 335.828125 237.625 334.292969 237.453125 C 332.015625 237.226562 329.796875 236.207031 327.519531 237.625 C 327.179688 237.851562 326.609375 237.679688 326.15625 237.566406 C 320.066406 235.8125 313.863281 237.226562 307.714844 237.058594 C 306.234375 238.078125 304.699219 236.832031 303.21875 237.113281 C 301.511719 237.453125 299.863281 237.453125 298.152344 237.285156 C 295.25 237.058594 292.292969 236.378906 289.445312 237.738281 C 288.933594 237.964844 288.25 237.851562 287.625 237.851562 C 285.007812 237.90625 282.390625 237.851562 279.773438 238.078125 C 278.347656 238.191406 277.039062 238.304688 275.789062 237.339844 C 275.105469 236.773438 274.308594 237.113281 273.570312 237.339844 C 270.78125 238.246094 267.195312 238.925781 265.089844 238.417969 C 263.324219 238.019531 261.730469 238.132812 260.023438 238.472656 C 258.828125 238.699219 257.578125 238.8125 256.324219 238.871094 C 242.210938 239.265625 228.097656 239.71875 213.984375 240.625 C 206.699219 241.078125 199.414062 241.417969 192.128906 241.8125 C 189.339844 241.984375 186.550781 242.433594 183.761719 242.492188 C 173.519531 242.773438 163.273438 242.773438 153.03125 243.511719 C 149.902344 243.738281 146.941406 244.585938 143.8125 244.8125 C 138.574219 245.265625 133.28125 245.945312 128.046875 246.511719 C 127.308594 246.625 126.566406 246.792969 126.28125 247.8125 C 132.828125 247.417969 139.316406 246.851562 145.746094 246.625 C 151.152344 246.398438 156.558594 246.511719 161.964844 246.511719 C 165.835938 246.511719 169.707031 246.566406 173.574219 246.453125 C 180.121094 246.285156 186.609375 245.773438 193.152344 245.773438 C 196.910156 245.773438 200.609375 245.546875 204.308594 245.320312 C 208.175781 245.097656 212.046875 245.265625 215.859375 245.039062 C 227.753906 244.359375 239.648438 243.738281 251.601562 244.246094 C 253.707031 243.339844 255.925781 244.644531 258.03125 244.078125 C 260.992188 243.226562 263.835938 243.285156 266.796875 243.964844 C 267.648438 244.191406 268.675781 244.019531 269.585938 243.964844 C 272.203125 243.792969 274.820312 243.566406 277.4375 243.453125 C 284.4375 243.113281 291.382812 243.113281 298.324219 244.132812 C 298.78125 244.191406 299.347656 244.359375 299.691406 244.132812 C 302.308594 242.71875 305.097656 244.078125 307.828125 243.566406 C 309.648438 243.226562 311.871094 243.285156 313.804688 243.625 C 317.277344 244.246094 320.746094 244.078125 324.21875 244.472656 C 326.4375 244.757812 328.488281 243.964844 330.648438 244.019531 C 333.894531 244.132812 337.195312 244.132812 340.4375 244.304688 C 345.21875 244.53125 350.058594 244.472656 354.78125 245.378906 C 356.660156 245.773438 358.480469 245.605469 360.359375 245.546875 C 362.121094 245.433594 362.351562 245.097656 362.292969 243.453125 Z M 362.292969 243.453125 " fill-opacity="1" fill-rule="nonzero"/></g></svg>