<svg xmlns="http://www.w3.org/2000/svg" xmlns:xlink="http://www.w3.org/1999/xlink" width="1366" zoomAndPan="magnify" viewBox="0 0 1024.5 576" height="768" preserveAspectRatio="xMidYMid meet" version="1.0"><defs><g/><clipPath id="e126e12bfe"><path d="M 0 355.59375 L 57.703125 355.59375 L 57.703125 575.859375 L 0 575.859375 Z M 0 355.59375 " clip-rule="nonzero"/></clipPath><clipPath id="645f176704"><path d="M 13.410156 510.195312 L 69.660156 510.195312 L 69.660156 521.445312 L 13.410156 521.445312 Z M 13.410156 510.195312 " clip-rule="nonzero"/></clipPath></defs><g clip-path="url(#e126e12bfe)"><path fill="#587d9f" d="M 56.816406 360.164062 C 56.566406 360.195312 56.328125 360.265625 56.101562 360.378906 C 55.855469 360.496094 55.625 360.640625 55.402344 360.800781 C 55.207031 360.972656 55.046875 361.183594 54.859375 361.363281 C 51.570312 364.472656 48.582031 367.773438 47.90625 372.507812 C 47.84375 372.730469 47.75 372.949219 47.636719 373.152344 C 47.496094 372.941406 47.375 372.722656 47.269531 372.496094 C 45.828125 369.054688 44.566406 365.527344 42.863281 362.1875 C 42.4375 361.335938 41.851562 360.574219 41.441406 359.707031 C 41.238281 359.285156 41.097656 358.84375 41.023438 358.378906 C 40.9375 357.894531 41.085938 357.402344 41.023438 356.910156 C 40.929688 356.488281 40.742188 356.109375 40.460938 355.777344 C 40.417969 355.714844 40.359375 355.664062 40.289062 355.628906 C 40.21875 355.59375 40.144531 355.574219 40.066406 355.574219 C 39.988281 355.574219 39.914062 355.59375 39.84375 355.628906 C 39.773438 355.664062 39.714844 355.714844 39.671875 355.777344 C 39.566406 355.921875 39.472656 356.078125 39.390625 356.203125 C 39.132812 356.640625 38.972656 357.113281 38.910156 357.613281 C 38.800781 358.140625 38.714844 358.667969 38.589844 359.1875 C 38.359375 360.164062 38.042969 361.109375 37.640625 362.027344 C 36.804688 363.933594 35.503906 365.445312 33.742188 366.554688 C 33.433594 366.742188 33.144531 366.964844 32.890625 367.167969 L 32.890625 366.097656 C 32.890625 365.75 32.890625 365.402344 32.890625 365.050781 C 32.949219 363.648438 33.015625 362.253906 33.066406 360.851562 C 33.066406 360.15625 33.117188 359.460938 33.136719 358.761719 C 33.210938 358.164062 33.191406 357.570312 33.085938 356.976562 C 32.988281 356.613281 32.785156 356.324219 32.472656 356.109375 L 32.402344 356.109375 C 32.375 356.125 32.351562 356.144531 32.335938 356.171875 C 31.84375 357.167969 31.601562 358.222656 31.601562 359.332031 C 31.476562 360.5625 31.257812 361.773438 30.9375 362.96875 C 29.007812 368.796875 26.0625 374.058594 22.105469 378.753906 C 21.246094 379.792969 20.5 380.910156 19.867188 382.097656 C 19.234375 383.289062 18.726562 384.527344 18.34375 385.820312 C 17.960938 387.109375 17.710938 388.425781 17.589844 389.769531 C 17.472656 391.109375 17.488281 392.449219 17.640625 393.789062 C 17.847656 395.527344 18.300781 397.203125 18.996094 398.808594 C 19.695312 400.417969 20.605469 401.894531 21.730469 403.238281 C 22.691406 404.457031 23.125 405.507812 22.042969 407.082031 C 21.160156 408.433594 20.5625 409.90625 20.257812 411.492188 C 19.953125 413.082031 19.960938 414.667969 20.28125 416.253906 C 20.691406 419.71875 21.351562 423.140625 22.257812 426.511719 C 22.847656 428.375 23.039062 430.28125 22.828125 432.226562 C 22.617188 434.171875 22.023438 435.992188 21.046875 437.6875 C 20.875 438.074219 20.734375 438.476562 20.628906 438.886719 C 19.394531 442.738281 18.074219 446.535156 16.96875 450.445312 C 15.417969 455.96875 13.875 461.496094 12.65625 467.113281 C 12.253906 468.945312 11.585938 470.679688 10.65625 472.3125 C 9.730469 473.945312 8.582031 475.40625 7.214844 476.691406 C 6.914062 477.042969 6.652344 477.417969 6.421875 477.8125 C 6.90625 477.714844 7.394531 477.652344 7.886719 477.636719 C 8.414062 477.636719 9.34375 477.761719 9.386719 477.976562 C 10.792969 484.851562 10.707031 491.777344 10.007812 498.722656 C 9.53125 503.574219 8.960938 508.429688 8.484375 513.28125 C 8.003906 518.136719 7.683594 523.210938 7.085938 528.132812 C 6.539062 532.753906 5.722656 537.34375 5.074219 541.949219 C 4.691406 544.671875 4.554688 547.425781 4.070312 550.117188 C 3.507812 553.238281 2.691406 556.304688 1.984375 559.398438 C 1.8125 559.996094 1.640625 560.605469 1.472656 561.210938 C 1.140625 561.835938 0.855469 562.480469 0.621094 563.148438 C 0.167969 564.847656 -0.128906 566.597656 -0.605469 568.25 C -1.695312 572.117188 -2.863281 575.949219 -4.015625 579.800781 C -4.355469 580.402344 -4.703125 581.007812 -5.054688 581.609375 C -5.214844 582.09375 -5.410156 582.570312 -5.554688 583.0625 C -5.972656 584.542969 -5.8125 585.492188 -3.851562 585.671875 C -2.257812 585.816406 -1.800781 585.265625 -1.433594 583.828125 C -0.632812 580.699219 0.371094 577.625 1.371094 574.554688 C 3.023438 569.457031 5.203125 564.449219 6.292969 559.257812 C 7.707031 552.457031 8.277344 545.46875 9.199219 538.566406 C 10.335938 530.226562 11.433594 521.890625 12.496094 513.5625 C 12.980469 509.78125 14.019531 509.3125 17.085938 511.558594 C 17.277344 511.738281 17.488281 511.886719 17.726562 512 C 17.980469 512.074219 18.382812 512.117188 18.527344 512 C 18.699219 511.75 18.730469 511.484375 18.621094 511.199219 C 18.375 510.757812 17.972656 510.402344 17.683594 509.976562 C 15.980469 507.425781 13.984375 505.097656 14.359375 501.613281 C 14.964844 495.976562 15.296875 490.308594 15.664062 484.613281 C 15.988281 479.597656 15.945312 474.542969 16.515625 469.550781 C 17 465.507812 18.160156 461.527344 19.070312 457.535156 C 19.546875 455.46875 20.691406 454.984375 22.546875 456.011719 C 22.785156 456.148438 23.160156 456.011719 23.46875 456.011719 C 23.460938 455.695312 23.417969 455.382812 23.332031 455.078125 C 22.992188 454.226562 22.25 453.464844 22.265625 452.671875 C 22.34375 449.792969 22.265625 446.816406 23.007812 444.070312 C 23.859375 440.859375 25.433594 437.824219 26.796875 434.722656 C 27.585938 432.726562 28.5625 430.824219 29.71875 429.019531 C 31.984375 425.804688 34.960938 423.019531 36.851562 419.617188 C 38.996094 415.75 40.394531 411.425781 38.179688 406.921875 C 38.15625 406.800781 38.191406 406.703125 38.28125 406.621094 C 40.488281 405.773438 42.761719 405.050781 44.882812 404.074219 C 48.632812 402.269531 51.699219 399.5 53.019531 395.574219 C 53.679688 393.59375 53.957031 391.558594 53.851562 389.472656 C 53.746094 387.390625 53.269531 385.394531 52.414062 383.488281 C 51.5625 381.585938 51.117188 379.59375 51.085938 377.507812 C 51.058594 375.425781 51.4375 373.421875 52.234375 371.496094 C 52.960938 369.792969 53.300781 367.636719 54.1875 366.019531 C 54.859375 364.863281 55.640625 364.414062 56.296875 363.242188 C 56.699219 362.492188 57.507812 361.644531 57.550781 360.777344 C 57.550781 360.523438 57.449219 360.488281 57.378906 360.386719 C 57.238281 360.199219 57.050781 360.125 56.816406 360.164062 Z M 41.21875 362.9375 C 41.257812 362.769531 41.332031 362.625 41.449219 362.503906 C 41.503906 362.433594 41.574219 362.394531 41.660156 362.386719 C 41.746094 362.375 41.824219 362.398438 41.894531 362.453125 C 42.007812 362.535156 42.09375 362.640625 42.15625 362.765625 C 43.792969 367.3125 46.316406 371.773438 46.765625 376.433594 C 47.175781 380.683594 45.328125 385.078125 44.457031 389.410156 C 44.457031 389.511719 44.175781 389.574219 44.023438 389.65625 L 44.023438 389.75 L 44.023438 389.648438 C 43.714844 385.816406 43.589844 382 43.070312 378.15625 C 42.660156 375.140625 41.59375 372.226562 41.160156 369.191406 C 41 367.105469 41.019531 365.019531 41.21875 362.9375 Z M 39.242188 360.539062 C 39.703125 365.359375 40.097656 370.203125 40.667969 374.988281 C 41.09375 378.292969 42.164062 381.53125 42.4375 384.847656 C 42.847656 389.945312 41.722656 394.867188 38.441406 398.921875 C 37.300781 400.332031 35.273438 401.03125 33.648438 402.050781 L 33.289062 402.347656 L 33.238281 402.261719 C 34.21875 401.007812 35.070312 399.675781 35.792969 398.257812 C 36.527344 396.648438 37.09375 394.984375 37.496094 393.261719 C 37.703125 392.410156 37.863281 391.5625 38 390.652344 C 38.078125 390.203125 38.171875 389.75 38.214844 389.292969 C 38.261719 388.921875 38.226562 388.558594 38.101562 388.203125 C 38.097656 388.175781 38.082031 388.152344 38.058594 388.136719 C 37.933594 388.058594 37.683594 388.679688 37.640625 388.773438 C 37.53125 389.011719 37.429688 389.257812 37.335938 389.503906 C 37.15625 389.988281 37.003906 390.480469 36.832031 390.96875 L 35.785156 393.925781 C 35.304688 395.101562 34.964844 396.316406 34.773438 397.570312 C 34.625 397.484375 34.660156 397.265625 34.71875 397.09375 C 35.148438 395.386719 35.460938 393.652344 35.65625 391.902344 C 36.042969 390.53125 36.207031 389.132812 36.152344 387.710938 C 35.878906 387.855469 35.835938 388.101562 35.734375 388.375 C 35.1875 389.9375 34.738281 391.519531 34.234375 393.089844 C 33.597656 395.054688 32.964844 397.019531 32.300781 398.964844 C 31.964844 399.699219 31.550781 400.386719 31.058594 401.03125 C 30.972656 400.816406 30.757812 400.554688 30.820312 400.402344 C 32.839844 395.894531 33.792969 391.171875 33.679688 386.234375 C 33.605469 383.894531 33.722656 381.539062 33.578125 379.210938 C 33.289062 374.46875 35.988281 370.710938 37.472656 366.464844 C 38.277344 364.550781 38.867188 362.578125 39.242188 360.539062 Z M 33.152344 368.1875 C 33.550781 367.734375 33.984375 367.316406 34.449219 366.929688 C 34.90625 366.546875 35.574219 366.277344 35.972656 365.859375 C 34.738281 369.15625 33.09375 372.363281 32.394531 375.761719 C 31.808594 378.632812 32.328125 381.710938 32.351562 384.746094 C 32.351562 385.839844 32.429688 386.9375 32.445312 388.035156 C 32.4375 388.222656 32.382812 388.394531 32.285156 388.554688 C 31.890625 388.347656 31.609375 387.03125 31.433594 386.597656 C 31.144531 385.875 30.863281 385.160156 30.582031 384.4375 C 29.9375 383.019531 29.542969 381.535156 29.394531 379.984375 C 29.464844 378.519531 29.679688 377.074219 30.035156 375.652344 C 30.273438 374.066406 30.710938 372.535156 31.347656 371.0625 C 31.804688 370.011719 32.40625 369.050781 33.152344 368.179688 Z M 22.335938 399.789062 C 22.0625 399.121094 21.832031 398.4375 21.644531 397.742188 C 21.175781 395.980469 20.960938 394.191406 21.003906 392.371094 C 21.03125 391.449219 21.117188 390.535156 21.261719 389.625 C 21.328125 389.15625 21.414062 388.699219 21.515625 388.230469 C 21.609375 387.839844 21.671875 387.441406 21.703125 387.039062 C 21.703125 386.648438 21.039062 386.957031 20.980469 387.175781 C 20.546875 388.875 19.746094 390.574219 19.871094 392.277344 C 20.246094 395.316406 20.773438 398.324219 21.457031 401.3125 C 20.441406 399.789062 19.695312 398.148438 19.214844 396.386719 C 18.734375 394.625 18.550781 392.832031 18.652344 391.007812 C 18.925781 384.429688 22.992188 379.757812 26.601562 374.75 C 28.5625 372.023438 29.644531 368.664062 31.109375 365.585938 C 31.390625 365.007812 31.59375 364.398438 31.832031 363.800781 C 31.527344 365.296875 31.289062 366.820312 30.894531 368.296875 C 29.976562 371.800781 28.894531 375.261719 28.074219 378.777344 C 27.875 379.859375 28.023438 380.890625 28.519531 381.871094 C 31.925781 388.5625 31.925781 395.105469 27.949219 401.546875 C 27.25 402.679688 26.421875 403.734375 25.664062 404.828125 C 25.914062 403.546875 26.132812 402.28125 26.421875 400.980469 C 26.941406 398.640625 27.539062 396.320312 28.023438 393.976562 C 28.054688 393.683594 28.015625 393.398438 27.90625 393.125 C 27.90625 393.007812 27.71875 392.453125 27.546875 392.742188 C 27.242188 393.28125 27.011719 393.847656 26.859375 394.441406 C 26.441406 395.777344 26.117188 397.136719 25.597656 398.4375 C 25.488281 398.75 25.417969 399.070312 25.382812 399.398438 C 25.382812 399.566406 25.207031 399.695312 25.101562 399.839844 C 25.039062 399.6875 24.996094 399.527344 24.976562 399.363281 C 24.976562 398.011719 24.832031 396.652344 24.753906 395.292969 C 24.621094 393.445312 24.65625 391.601562 24.863281 389.761719 C 24.988281 388.832031 25.199219 387.925781 25.496094 387.039062 C 25.648438 386.585938 25.828125 386.140625 26.03125 385.707031 C 26.234375 385.359375 26.382812 384.988281 26.484375 384.601562 C 26.542969 384.261719 25.914062 384.601562 25.828125 384.726562 C 25.179688 385.960938 24.175781 387.175781 24.054688 388.46875 C 23.699219 392.410156 23.699219 396.382812 23.535156 400.367188 C 23.46875 400.945312 23.351562 401.511719 23.1875 402.066406 L 23.101562 402.007812 C 23.03125 401.613281 22.921875 401.230469 22.769531 400.859375 C 22.617188 400.476562 22.46875 400.136719 22.335938 399.789062 Z M 32.316406 424.257812 C 30.613281 426.144531 28.722656 427.898438 27.34375 429.988281 C 26.320312 431.816406 25.53125 433.738281 24.976562 435.757812 C 22.34375 443.410156 19.558594 450.929688 17.25 458.632812 C 16.738281 460.390625 16.363281 462.179688 16.117188 463.992188 C 15.878906 465.695312 15.484375 467.324219 15.382812 469.042969 C 15.289062 470.597656 15.316406 472.160156 15.265625 473.726562 C 15.171875 477.125 14.71875 480.527344 14.410156 483.882812 L 13.902344 489.695312 C 13.636719 492.746094 13.644531 495.816406 13.21875 498.867188 C 12.886719 501.296875 12.367188 503.695312 12.035156 506.125 C 11.4375 510.375 10.894531 514.710938 10.332031 519.011719 L 10.28125 519.445312 C 10.058594 521.296875 9.84375 523.148438 9.632812 525.003906 C 8.976562 530.773438 8.527344 536.585938 7.65625 542.332031 C 7.539062 543.089844 7.417969 543.855469 7.308594 544.621094 C 7.140625 545.34375 7.023438 546.078125 6.964844 546.820312 C 6.183594 551.988281 5.542969 557.183594 4.257812 562.257812 C 3.585938 564.910156 2.777344 567.523438 1.828125 570.09375 C 1.523438 570.941406 1.207031 571.75 0.867188 572.566406 C 0.6875 573.015625 0.5 573.414062 0.3125 573.910156 C 0.0390625 574.539062 -0.230469 575.160156 -0.539062 575.777344 C -0.882812 576.34375 -1.167969 576.941406 -1.390625 577.5625 C 0.746094 567.464844 4.640625 557.769531 6.097656 547.550781 C 6.515625 544.609375 6.738281 541.644531 6.949219 538.6875 C 7.164062 535.730469 7.390625 532.933594 7.800781 530.085938 C 8.210938 527.238281 8.816406 524.519531 9.128906 521.695312 C 9.640625 517.105469 9.855469 512.492188 10.273438 507.894531 C 10.757812 502.554688 11.371094 497.226562 11.832031 491.878906 C 12.027344 489.578125 11.898438 487.25 12.042969 484.9375 C 12.160156 481.597656 12.445312 478.269531 12.894531 474.957031 C 13.996094 468.320312 14.984375 461.621094 16.710938 455.128906 C 18.542969 448.210938 21.285156 441.53125 23.382812 434.679688 C 23.925781 432.910156 23.65625 430.847656 23.5 428.933594 C 23.03125 422.984375 20.453125 417.246094 21.507812 411.136719 C 21.671875 409.707031 22.207031 408.433594 23.109375 407.3125 C 23.714844 406.691406 25.273438 406.894531 26.40625 406.910156 C 29.25 406.960938 32.105469 407.261719 34.925781 407.183594 C 36.925781 407.132812 37.992188 407.703125 37.941406 409.800781 C 37.917969 412.472656 37.421875 415.050781 36.453125 417.542969 C 35.484375 420.03125 34.105469 422.269531 32.316406 424.257812 Z M 51.910156 367.195312 C 51.757812 367.566406 51.613281 367.941406 51.484375 368.324219 C 51.214844 369.160156 51 370.011719 50.839844 370.875 C 50.378906 373.308594 50.210938 375.761719 50.335938 378.234375 C 50.375 379.375 50.480469 380.507812 50.652344 381.632812 C 50.898438 382.984375 51.234375 384.308594 51.65625 385.613281 C 51.75 385.910156 51.835938 386.214844 51.910156 386.511719 C 52.082031 387.289062 52.199219 388.070312 52.269531 388.859375 C 52.609375 392.105469 52.558594 395.292969 50.140625 397.773438 C 49.957031 397.914062 49.789062 398.066406 49.636719 398.234375 C 49.699219 398.113281 49.738281 397.988281 49.746094 397.851562 C 49.933594 397.34375 50.058594 396.824219 50.121094 396.289062 C 49.941406 396.355469 49.777344 396.460938 49.636719 396.59375 C 49.441406 396.738281 49.253906 396.890625 49.050781 397.035156 C 48.714844 397.269531 48.429688 397.550781 48.195312 397.886719 C 45.171875 401.972656 41.339844 404.761719 36.21875 405.535156 C 35.875 405.566406 35.53125 405.566406 35.1875 405.535156 C 35.484375 405.382812 35.769531 405.210938 36.039062 405.023438 L 36.21875 404.898438 C 38.910156 402.851562 41.613281 400.8125 44.320312 398.777344 C 45.214844 398.179688 45.992188 397.457031 46.664062 396.617188 C 46.96875 396.175781 47.21875 395.691406 47.515625 395.277344 C 47.722656 395.085938 47.835938 394.851562 47.847656 394.570312 C 44.59375 396.917969 41.269531 399.246094 37.871094 401.558594 C 39.144531 400.535156 40.21875 399.335938 41.09375 397.960938 C 41.96875 396.585938 42.597656 395.109375 42.984375 393.523438 C 43.039062 393.242188 43.140625 392.980469 43.289062 392.734375 C 43.523438 392.476562 43.785156 392.253906 44.074219 392.0625 C 44.738281 391.480469 45.21875 390.769531 45.515625 389.9375 C 46.222656 388.238281 46.960938 386.539062 47.574219 384.761719 C 48.382812 382.390625 48.914062 379.957031 49.167969 377.460938 C 49.371094 375.496094 49.109375 373.433594 49.636719 371.511719 C 49.929688 370.503906 50.328125 369.539062 50.839844 368.621094 C 51.304688 367.773438 51.9375 366.988281 52.398438 366.132812 C 52.441406 366.421875 52.054688 366.929688 51.945312 367.195312 Z M 51.910156 367.195312 " fill-opacity="1" fill-rule="nonzero"/></g><g clip-path="url(#645f176704)"><path fill="#000000" d="M 69.542969 515.613281 C 69.53125 515.601562 69.515625 515.59375 69.5 515.582031 C 67.054688 514.101562 64.761719 512.394531 62.640625 510.480469 C 62.34375 510.210938 61.347656 510.621094 61.664062 510.910156 C 63.554688 512.617188 65.578125 514.164062 67.726562 515.539062 C 59.890625 515.226562 52.054688 515.058594 44.214844 515.03125 C 38.609375 514.714844 33.003906 514.457031 27.390625 514.390625 C 23.515625 514.34375 19.644531 514.390625 15.773438 514.554688 C 15.464844 514.566406 14.628906 515.050781 15.328125 515.023438 C 21.703125 514.753906 28.074219 514.832031 34.441406 515.074219 C 31.765625 515.105469 29.09375 515.152344 26.421875 515.21875 C 22.460938 515.3125 18.507812 515.445312 14.550781 515.617188 C 14.242188 515.628906 13.40625 516.113281 14.105469 516.085938 C 23.851562 515.667969 33.605469 515.472656 43.359375 515.5 C 47.507812 515.730469 51.65625 515.996094 55.804688 516.246094 C 58.902344 516.429688 62 516.601562 65.097656 516.746094 C 64.265625 517.09375 63.457031 517.503906 62.664062 517.976562 C 60.996094 518.972656 59.425781 520.121094 57.558594 520.722656 C 57.246094 520.820312 57.125 521.019531 57.164062 521.167969 C 57.203125 521.316406 57.398438 521.414062 57.714844 521.3125 C 61.8125 520.015625 65.734375 518.25 69.417969 516.035156 C 69.484375 515.996094 69.542969 515.9375 69.578125 515.875 C 69.648438 515.789062 69.652344 515.699219 69.542969 515.613281 Z M 53.910156 515.617188 C 54.523438 515.628906 55.140625 515.640625 55.753906 515.652344 C 59.558594 515.738281 63.363281 515.859375 67.167969 516.007812 C 66.863281 516.097656 66.558594 516.195312 66.257812 516.300781 C 62.140625 516.113281 58.027344 515.871094 53.910156 515.617188 Z M 62.65625 518.757812 C 63.933594 517.957031 65.25 517.296875 66.644531 516.8125 C 66.675781 516.8125 66.710938 516.816406 66.742188 516.816406 C 65.324219 517.585938 63.871094 518.289062 62.386719 518.925781 C 62.476562 518.871094 62.566406 518.8125 62.65625 518.757812 Z M 62.65625 518.757812 " fill-opacity="1" fill-rule="nonzero"/></g><g fill="#373d3b" fill-opacity="1"><g transform="translate(539.426031, 187.24676)"><g/></g></g><g fill="#8b93db" fill-opacity="1"><g transform="translate(76.719451, 520.790492)"><g><path d="M 2.179688 0 L 4.261719 0 C 4.316406 0 4.316406 -0.410156 4.261719 -0.410156 C 2.902344 -0.410156 2.5625 -0.621094 2.5625 -2.113281 L 2.5625 -8.132812 L 6.546875 -2.546875 C 6.601562 -2.480469 6.625 -2.480469 6.679688 -2.519531 C 6.878906 -2.839844 7.101562 -3.140625 7.3125 -3.445312 L 10.558594 -7.894531 L 10.558594 -1.675781 C 10.558594 -0.421875 10.375 -0.394531 9.28125 -0.394531 C 9.226562 -0.394531 9.238281 0.0117188 9.292969 0.0117188 C 10.164062 0 10.335938 0 10.679688 0 L 11.601562 -0.0117188 L 12.988281 -0.0117188 C 13.042969 -0.0117188 13.042969 -0.421875 12.988281 -0.421875 C 11.90625 -0.410156 11.707031 -0.4375 11.707031 -1.691406 L 11.707031 -7.5625 C 11.707031 -8.816406 11.90625 -8.84375 12.988281 -8.832031 C 13.042969 -8.832031 13.042969 -9.238281 12.988281 -9.238281 L 10.917969 -9.238281 L 7.007812 -3.828125 L 3.167969 -9.238281 L 0.726562 -9.238281 C 0.671875 -9.238281 0.671875 -8.816406 0.726562 -8.816406 C 1.859375 -8.816406 2.074219 -8.792969 2.074219 -7.484375 C 2.074219 -5.886719 2.074219 -3.550781 2.085938 -1.902344 C 2.085938 -0.566406 1.78125 -0.371094 0.621094 -0.371094 C 0.566406 -0.371094 0.566406 0 0.621094 0 Z M 2.179688 0 "/></g></g></g><g fill="#8b93db" fill-opacity="1"><g transform="translate(90.337094, 520.790492)"><g><path d="M 7.933594 -6.96875 L 5.175781 -6.96875 C 5.121094 -6.96875 5.121094 -6.585938 5.175781 -6.585938 C 6.152344 -6.574219 6.347656 -6.058594 5.859375 -4.898438 L 4.328125 -1.28125 L 2.785156 -4.988281 C 2.21875 -6.347656 2.324219 -6.585938 3.457031 -6.585938 C 3.511719 -6.585938 3.511719 -6.96875 3.457031 -6.96875 L 0.160156 -6.96875 C 0.117188 -6.96875 0.117188 -6.585938 0.160156 -6.585938 C 0.792969 -6.585938 1.121094 -6.347656 1.691406 -4.988281 L 3.695312 -0.238281 L 3.683594 -0.210938 C 3.433594 1.359375 2.46875 2.257812 1.769531 2.257812 C 1.597656 2.03125 1.226562 1.4375 0.582031 1.4375 C 0.222656 1.4375 0.0546875 1.675781 0.0546875 1.941406 C 0.0546875 2.375 0.738281 2.730469 1.453125 2.730469 C 2.839844 2.730469 3.539062 1.570312 4.171875 0.117188 L 4.183594 0.117188 L 6.324219 -4.898438 C 6.8125 -6.058594 7.378906 -6.574219 7.933594 -6.585938 C 7.960938 -6.585938 7.960938 -6.96875 7.933594 -6.96875 Z M 7.933594 -6.96875 "/></g></g></g><g fill="#8b93db" fill-opacity="1"><g transform="translate(98.637001, 520.790492)"><g/></g></g><g fill="#8b93db" fill-opacity="1"><g transform="translate(102.278934, 520.790492)"><g><path d="M 2.007812 -8.261719 C 2.457031 -8.261719 2.730469 -8.554688 2.730469 -8.9375 C 2.730469 -9.332031 2.414062 -9.609375 2.007812 -9.609375 C 1.585938 -9.609375 1.292969 -9.304688 1.292969 -8.9375 C 1.292969 -8.539062 1.609375 -8.261719 2.007812 -8.261719 Z M 2.429688 -7.128906 C 1.847656 -7.023438 1.253906 -6.917969 0.671875 -6.824219 C 0.621094 -6.796875 0.632812 -6.496094 0.671875 -6.480469 C 1.347656 -6.269531 1.519531 -6.191406 1.519531 -5.042969 L 1.519531 -0.632812 C 1.519531 0.199219 1.542969 0.566406 1.542969 1.371094 C 1.542969 2.152344 1.292969 3.023438 0.371094 3.023438 C 0.105469 3.035156 -0.0273438 2.957031 -0.144531 2.917969 C -0.199219 2.136719 -0.460938 1.835938 -0.898438 1.835938 C -1.203125 1.835938 -1.425781 2.046875 -1.425781 2.335938 C -1.425781 2.878906 -0.582031 3.417969 0.355469 3.417969 C 1.453125 3.417969 2.546875 2.667969 2.546875 0.355469 L 2.546875 -7.035156 C 2.546875 -7.089844 2.496094 -7.128906 2.429688 -7.128906 Z M 2.429688 -7.128906 "/></g></g></g><g fill="#8b93db" fill-opacity="1"><g transform="translate(106.092403, 520.790492)"><g><path d="M 4.171875 0.144531 C 6.296875 0.144531 7.800781 -1.359375 7.800781 -3.484375 C 7.800781 -5.609375 6.296875 -7.128906 4.171875 -7.128906 C 2.058594 -7.128906 0.566406 -5.609375 0.566406 -3.484375 C 0.566406 -1.359375 2.058594 0.144531 4.171875 0.144531 Z M 4.171875 -0.25 C 2.71875 -0.25 1.742188 -1.519531 1.742188 -3.484375 C 1.742188 -5.453125 2.71875 -6.71875 4.171875 -6.71875 C 5.636719 -6.71875 6.613281 -5.453125 6.613281 -3.496094 C 6.613281 -1.53125 5.636719 -0.25 4.171875 -0.25 Z M 4.171875 -0.25 "/></g></g></g><g fill="#8b93db" fill-opacity="1"><g transform="translate(114.458285, 520.790492)"><g><path d="M 7.15625 -1.875 L 7.15625 -7.035156 C 7.15625 -7.074219 7.074219 -7.128906 7.035156 -7.128906 C 6.203125 -6.984375 5.78125 -6.902344 5.28125 -6.824219 C 5.226562 -6.8125 5.199219 -6.519531 5.28125 -6.480469 C 6.125 -6.242188 6.113281 -5.992188 6.113281 -5.09375 L 6.113281 -1.636719 C 5.542969 -1.160156 4.699219 -0.59375 3.816406 -0.59375 C 2.839844 -0.59375 2.21875 -1.121094 2.21875 -2.8125 L 2.21875 -7.035156 C 2.230469 -7.074219 2.152344 -7.128906 2.097656 -7.128906 C 1.53125 -7.007812 0.925781 -6.917969 0.355469 -6.824219 C 0.277344 -6.8125 0.265625 -6.507812 0.34375 -6.480469 C 1.1875 -6.242188 1.1875 -5.992188 1.1875 -5.09375 L 1.1875 -2.613281 C 1.1875 -0.660156 1.859375 0.144531 3.234375 0.144531 C 4.34375 0.144531 5.265625 -0.488281 6.136719 -1.175781 L 6.21875 -1.175781 L 6.136719 -0.0117188 C 6.125 0.0546875 6.257812 0.144531 6.324219 0.132812 C 7.273438 -0.0273438 7.484375 -0.078125 7.984375 -0.171875 C 8.039062 -0.171875 8.039062 -0.488281 7.984375 -0.5 C 7.140625 -0.738281 7.15625 -0.988281 7.15625 -1.875 Z M 7.15625 -1.875 "/></g></g></g><g fill="#8b93db" fill-opacity="1"><g transform="translate(123.127664, 520.790492)"><g><path d="M 1.597656 0 L 3.933594 0 C 4 0 4 -0.394531 3.933594 -0.394531 C 2.613281 -0.394531 2.574219 -0.554688 2.574219 -1.453125 L 2.574219 -4.765625 C 2.96875 -5.914062 3.828125 -6.230469 3.945312 -6.242188 L 3.972656 -6.242188 C 4.289062 -6.019531 4.699219 -5.859375 5.082031 -5.859375 C 5.476562 -5.859375 5.914062 -6.085938 5.914062 -6.453125 C 5.914062 -6.824219 5.570312 -7.128906 4.949219 -7.128906 C 4.171875 -7.128906 2.890625 -6.363281 2.535156 -5.371094 L 2.457031 -5.371094 C 2.535156 -6.640625 2.519531 -6.390625 2.546875 -6.96875 C 2.546875 -7.046875 2.441406 -7.128906 2.324219 -7.101562 C 1.136719 -6.902344 1.214844 -6.917969 0.621094 -6.824219 C 0.59375 -6.8125 0.566406 -6.496094 0.621094 -6.480469 C 1.542969 -6.242188 1.53125 -5.980469 1.53125 -5.09375 L 1.53125 -1.453125 C 1.53125 -0.554688 1.503906 -0.394531 0.5 -0.394531 C 0.449219 -0.394531 0.449219 0 0.5 0 Z M 1.597656 0 "/></g></g></g><g fill="#8b93db" fill-opacity="1"><g transform="translate(129.171151, 520.790492)"><g><path d="M 1.597656 0 L 3.550781 0 C 3.605469 0 3.605469 -0.394531 3.550781 -0.394531 C 2.601562 -0.394531 2.574219 -0.554688 2.574219 -1.453125 L 2.574219 -5.332031 C 3.167969 -5.835938 4 -6.375 4.871094 -6.375 C 5.847656 -6.375 6.46875 -5.847656 6.46875 -4.15625 L 6.46875 -1.453125 C 6.46875 -0.554688 6.429688 -0.394531 5.476562 -0.394531 C 5.425781 -0.394531 5.425781 0 5.476562 0 L 8.527344 0 C 8.578125 0 8.578125 -0.394531 8.527344 -0.394531 C 7.539062 -0.394531 7.496094 -0.554688 7.496094 -1.453125 L 7.496094 -4.355469 C 7.496094 -6.308594 6.824219 -7.128906 5.453125 -7.128906 C 4.316406 -7.128906 3.417969 -6.480469 2.546875 -5.808594 L 2.46875 -5.808594 L 2.546875 -6.96875 C 2.546875 -7.046875 2.457031 -7.128906 2.347656 -7.101562 C 1.253906 -6.902344 1.265625 -6.917969 0.699219 -6.824219 C 0.648438 -6.8125 0.648438 -6.496094 0.699219 -6.480469 C 1.542969 -6.242188 1.53125 -5.992188 1.53125 -5.09375 L 1.53125 -1.453125 C 1.53125 -0.554688 1.503906 -0.394531 0.5 -0.394531 C 0.449219 -0.394531 0.449219 0 0.5 0 Z M 1.597656 0 "/></g></g></g><g fill="#8b93db" fill-opacity="1"><g transform="translate(138.144016, 520.790492)"><g><path d="M 6.96875 -2.363281 C 6.46875 -1.648438 5.808594 -0.605469 4.382812 -0.605469 C 2.519531 -0.605469 1.703125 -2.242188 1.703125 -3.5625 L 1.703125 -3.816406 L 6.835938 -3.816406 C 6.878906 -4 6.902344 -4.304688 6.902344 -4.515625 C 6.902344 -5.886719 5.808594 -7.128906 4.183594 -7.128906 C 2.058594 -7.128906 0.566406 -5.558594 0.566406 -3.40625 C 0.566406 -1.398438 1.96875 0.132812 3.960938 0.132812 C 5.636719 0.132812 6.601562 -1.109375 7.179688 -2.21875 C 7.195312 -2.257812 6.996094 -2.414062 6.96875 -2.363281 Z M 4.132812 -6.71875 C 5.226562 -6.71875 5.820312 -5.875 5.820312 -4.898438 C 5.820312 -4.410156 5.597656 -4.25 5.109375 -4.25 L 1.742188 -4.25 C 1.953125 -5.808594 2.902344 -6.71875 4.132812 -6.71875 Z M 4.132812 -6.71875 "/></g></g></g><g fill="#8b93db" fill-opacity="1"><g transform="translate(145.625807, 520.790492)"><g><path d="M 7.933594 -6.96875 L 5.175781 -6.96875 C 5.121094 -6.96875 5.121094 -6.585938 5.175781 -6.585938 C 6.152344 -6.574219 6.347656 -6.058594 5.859375 -4.898438 L 4.328125 -1.28125 L 2.785156 -4.988281 C 2.21875 -6.347656 2.324219 -6.585938 3.457031 -6.585938 C 3.511719 -6.585938 3.511719 -6.96875 3.457031 -6.96875 L 0.160156 -6.96875 C 0.117188 -6.96875 0.117188 -6.585938 0.160156 -6.585938 C 0.792969 -6.585938 1.121094 -6.347656 1.691406 -4.988281 L 3.695312 -0.238281 L 3.683594 -0.210938 C 3.433594 1.359375 2.46875 2.257812 1.769531 2.257812 C 1.597656 2.03125 1.226562 1.4375 0.582031 1.4375 C 0.222656 1.4375 0.0546875 1.675781 0.0546875 1.941406 C 0.0546875 2.375 0.738281 2.730469 1.453125 2.730469 C 2.839844 2.730469 3.539062 1.570312 4.171875 0.117188 L 4.183594 0.117188 L 6.324219 -4.898438 C 6.8125 -6.058594 7.378906 -6.574219 7.933594 -6.585938 C 7.960938 -6.585938 7.960938 -6.96875 7.933594 -6.96875 Z M 7.933594 -6.96875 "/></g></g></g></svg>