<svg xmlns="http://www.w3.org/2000/svg" xmlns:xlink="http://www.w3.org/1999/xlink" width="400" zoomAndPan="magnify" viewBox="0 0 300 500.249999" height="667" preserveAspectRatio="xMidYMid meet" version="1.0"><defs><clipPath id="d9f17cffee"><path d="M 0.222656 0 L 299.773438 0 L 299.773438 499.5 L 0.222656 499.5 Z M 0.222656 0 " clip-rule="nonzero"/></clipPath><clipPath id="3f518c1673"><path d="M 27 181.238281 L 43 181.238281 L 43 205 L 27 205 Z M 27 181.238281 " clip-rule="nonzero"/></clipPath><clipPath id="39a3971740"><path d="M 41 181.238281 L 46 181.238281 L 46 189 L 41 189 Z M 41 181.238281 " clip-rule="nonzero"/></clipPath><clipPath id="6577580e79"><path d="M 3.703125 197 L 56.871094 197 L 56.871094 277 L 3.703125 277 Z M 3.703125 197 " clip-rule="nonzero"/></clipPath><clipPath id="b5526cbc2e"><path d="M 0.222656 0 L 127 0 L 127 95 L 0.222656 95 Z M 0.222656 0 " clip-rule="nonzero"/></clipPath><clipPath id="528de368f5"><path d="M 0.222656 0 L 150 0 L 150 114.578125 L 0.222656 114.578125 Z M 0.222656 0 " clip-rule="nonzero"/></clipPath><clipPath id="3c45d25690"><path d="M 158 231 L 299.773438 231 L 299.773438 349.046875 L 158 349.046875 Z M 158 231 " clip-rule="nonzero"/></clipPath><clipPath id="7e57bad2af"><path d="M 130.003906 206.089844 L 299.773438 206.089844 L 299.773438 349.046875 L 130.003906 349.046875 Z M 130.003906 206.089844 " clip-rule="nonzero"/></clipPath></defs><g clip-path="url(#d9f17cffee)"><path fill="#ffffff" d="M 0.222656 0 L 299.777344 0 L 299.777344 506.988281 L 0.222656 506.988281 Z M 0.222656 0 " fill-opacity="1" fill-rule="nonzero"/><path fill="#ffffff" d="M 0.222656 0 L 299.777344 0 L 299.777344 499.5 L 0.222656 499.5 Z M 0.222656 0 " fill-opacity="1" fill-rule="nonzero"/><path fill="#ffffff" d="M 0.222656 0 L 299.777344 0 L 299.777344 499.5 L 0.222656 499.5 Z M 0.222656 0 " fill-opacity="1" fill-rule="nonzero"/></g><path fill="#ffffff" d="M 193.292969 267.476562 C 190.753906 260.6875 194.609375 257.453125 195.324219 252.457031 C 196.039062 247.457031 203.480469 227.808594 224.050781 222.796875 C 244.625 217.785156 255.625 218.503906 259.886719 229.234375 C 264.144531 239.960938 263.78125 256.042969 254.558594 260.6875 C 245.339844 265.332031 217.410156 275.960938 212.699219 277.472656 C 202.765625 280.691406 195.167969 272.5 193.292969 267.476562 Z M 193.292969 267.476562 " fill-opacity="1" fill-rule="nonzero"/><g clip-path="url(#3f518c1673)"><path fill="#010101" d="M 35.28125 204.195312 C 33.253906 204.390625 31.351562 203.410156 29.992188 201.957031 C 28.480469 200.285156 27.839844 198.144531 27.914062 195.957031 C 27.988281 193.816406 28.777344 191.773438 29.84375 189.953125 C 30.855469 188.230469 32.066406 186.683594 33.675781 185.5 C 35.308594 184.273438 37.1875 183.433594 39.015625 182.550781 C 39.660156 182.253906 41.589844 181.269531 41.613281 182.625 C 41.636719 183.117188 41.488281 183.65625 41.441406 184.148438 C 41.390625 184.8125 41.390625 185.476562 41.367188 186.164062 C 41.367188 186.855469 41.367188 187.542969 41.316406 188.230469 C 41.265625 188.894531 41.144531 189.585938 41.070312 190.25 C 40.921875 191.183594 40.796875 192.09375 40.648438 193.054688 C 40.527344 193.839844 40.425781 194.628906 40.277344 195.414062 C 40.007812 196.816406 39.5625 198.242188 39.015625 199.570312 C 38.570312 200.703125 38.101562 201.859375 37.3125 202.84375 C 36.617188 203.726562 35.703125 204.246094 34.566406 204.292969 C 34.195312 204.292969 33.847656 204.269531 33.476562 204.246094 C 33.105469 204.21875 33.105469 204.761719 33.476562 204.808594 C 34.390625 204.933594 35.308594 204.882812 36.171875 204.539062 C 37.285156 204.074219 38.027344 202.988281 38.597656 201.957031 C 39.609375 200.0625 40.328125 197.972656 40.773438 195.882812 C 40.921875 195.21875 40.996094 194.554688 41.117188 193.914062 C 41.441406 191.75 41.910156 189.558594 41.960938 187.347656 C 41.984375 185.945312 41.984375 184.566406 42.183594 183.164062 C 42.230469 182.722656 42.257812 182.230469 41.960938 181.835938 C 41.6875 181.46875 41.21875 181.394531 40.796875 181.441406 C 39.636719 181.566406 38.523438 182.253906 37.484375 182.746094 C 36.519531 183.214844 35.503906 183.707031 34.589844 184.296875 C 32.761719 185.425781 31.203125 186.902344 30.015625 188.722656 C 28.851562 190.496094 27.863281 192.460938 27.542969 194.578125 C 27.144531 196.867188 27.46875 199.324219 28.730469 201.316406 C 29.84375 203.0625 31.648438 204.492188 33.773438 204.835938 C 34.269531 204.910156 34.8125 204.957031 35.308594 204.882812 C 35.652344 204.738281 35.652344 204.144531 35.28125 204.195312 Z M 35.28125 204.195312 " fill-opacity="1" fill-rule="nonzero"/></g><path fill="#010101" d="M 41.292969 192.339844 C 42.703125 190.59375 44.113281 188.847656 45.519531 187.101562 C 45.816406 186.707031 46.164062 186.289062 46.460938 185.917969 C 46.511719 185.871094 46.585938 185.746094 46.660156 185.773438 C 46.855469 185.847656 46.855469 186.582031 46.882812 186.707031 C 46.957031 187.347656 46.957031 187.984375 46.929688 188.625 C 46.808594 191.304688 45.84375 193.863281 44.703125 196.273438 C 44.113281 197.503906 43.46875 198.660156 42.875 199.839844 C 42.378906 200.777344 41.933594 201.785156 41.117188 202.5 C 39.488281 204 37.113281 204.320312 34.960938 204.121094 C 34.589844 204.097656 34.589844 204.636719 34.960938 204.6875 C 36.988281 204.882812 39.140625 204.566406 40.847656 203.410156 C 41.8125 202.746094 42.429688 201.859375 42.972656 200.824219 C 43.640625 199.546875 44.335938 198.316406 44.976562 197.011719 C 46.238281 194.453125 47.277344 191.773438 47.476562 188.921875 C 47.523438 188.207031 47.5 187.46875 47.449219 186.757812 C 47.402344 186.289062 47.402344 185.574219 46.957031 185.253906 C 46.363281 184.886719 45.941406 185.648438 45.667969 185.992188 C 44.085938 187.984375 42.503906 189.929688 40.898438 191.898438 C 40.648438 192.214844 41.070312 192.632812 41.292969 192.339844 Z M 41.292969 192.339844 " fill-opacity="1" fill-rule="nonzero"/><g clip-path="url(#39a3971740)"><path fill="#010101" d="M 42.332031 182.769531 C 42.726562 182.425781 43.417969 181.886719 43.9375 182.035156 C 44.261719 182.105469 44.410156 182.550781 44.507812 182.871094 C 44.777344 184 44.628906 185.253906 44.457031 186.386719 C 44.410156 186.804688 44.308594 187.246094 44.234375 187.667969 C 44.160156 188.035156 44.703125 188.15625 44.804688 187.8125 C 45.027344 186.707031 45.199219 185.574219 45.222656 184.445312 C 45.25 183.535156 45.273438 181.789062 44.136719 181.492188 C 43.34375 181.269531 42.527344 181.910156 41.960938 182.378906 C 41.664062 182.597656 42.058594 182.992188 42.332031 182.769531 Z M 42.332031 182.769531 " fill-opacity="1" fill-rule="nonzero"/></g><path fill="#010101" d="M 42.109375 218.167969 C 44.53125 217.109375 47.03125 216.273438 49.601562 215.683594 C 50.246094 215.511719 50.886719 215.386719 51.53125 215.265625 C 51.828125 215.214844 52.148438 215.140625 52.421875 215.09375 C 52.71875 215.042969 53.136719 214.894531 53.386719 215.117188 C 53.804688 215.460938 53.804688 216.25 53.757812 216.714844 C 53.683594 217.28125 53.410156 217.796875 53.113281 218.265625 C 52.496094 219.222656 51.605469 220.035156 50.714844 220.75 C 49.800781 221.488281 48.785156 222.152344 47.746094 222.71875 C 46.683594 223.28125 45.59375 223.75 44.457031 224.09375 C 43.320312 224.464844 42.035156 224.757812 40.972656 224.019531 C 40.128906 223.429688 39.636719 222.472656 39.164062 221.609375 C 38.570312 220.527344 38.027344 219.371094 38.449219 218.117188 C 38.820312 217.011719 39.710938 216.148438 40.527344 215.410156 C 41.390625 214.675781 42.332031 214.011719 43.34375 213.445312 C 45.347656 212.335938 47.574219 211.648438 49.847656 211.476562 C 50.367188 211.453125 51.011719 211.328125 51.53125 211.597656 C 51.976562 211.820312 52.222656 212.261719 52.347656 212.707031 C 52.617188 213.835938 51.902344 214.921875 51.257812 215.78125 C 49.773438 217.722656 47.996094 219.46875 46.039062 220.921875 C 45.101562 221.609375 44.085938 222.300781 42.925781 222.519531 C 41.886719 222.71875 40.773438 222.519531 39.859375 222.003906 C 39.386719 221.757812 38.992188 221.414062 38.621094 221.042969 C 38.375 220.773438 37.976562 221.191406 38.226562 221.4375 C 38.96875 222.300781 40.03125 222.890625 41.167969 223.0625 C 42.40625 223.28125 43.566406 223.039062 44.65625 222.472656 C 45.84375 221.855469 46.929688 220.972656 47.945312 220.085938 C 48.984375 219.199219 49.949219 218.191406 50.839844 217.183594 C 51.652344 216.222656 52.59375 215.164062 52.890625 213.910156 C 53.113281 212.953125 52.867188 211.773438 51.976562 211.179688 C 51.480469 210.835938 50.863281 210.835938 50.269531 210.886719 C 49.625 210.910156 49.007812 211.007812 48.414062 211.082031 C 47.152344 211.304688 45.941406 211.648438 44.730469 212.140625 C 43.566406 212.632812 42.480469 213.246094 41.441406 213.960938 C 40.425781 214.675781 39.4375 215.511719 38.695312 216.542969 C 37.902344 217.578125 37.535156 218.78125 37.878906 220.0625 C 38.050781 220.699219 38.375 221.316406 38.695312 221.90625 C 38.96875 222.398438 39.265625 222.9375 39.585938 223.40625 C 40.277344 224.339844 41.191406 225.03125 42.429688 225.101562 C 43.742188 225.128906 45.125 224.585938 46.3125 224.070312 C 48.6875 223.0625 51.035156 221.609375 52.792969 219.691406 C 53.609375 218.804688 54.351562 217.699219 54.375 216.445312 C 54.398438 215.929688 54.300781 215.265625 53.929688 214.847656 C 53.507812 214.378906 52.914062 214.453125 52.371094 214.574219 C 49.476562 215.066406 46.632812 215.878906 43.890625 216.9375 C 43.222656 217.183594 42.554688 217.453125 41.886719 217.773438 C 41.488281 217.824219 41.785156 218.339844 42.109375 218.167969 Z M 42.109375 218.167969 " fill-opacity="1" fill-rule="nonzero"/><path fill="#010101" d="M 21.085938 297.542969 C 19.605469 292.132812 18.566406 286.621094 17.945312 281.085938 C 17.15625 274.125 17.054688 267.089844 17.675781 260.15625 C 18.242188 253.90625 19.40625 247.707031 20.742188 241.609375 C 21.878906 236.246094 23.164062 230.910156 24.671875 225.644531 C 26.527344 219.175781 28.730469 212.753906 31.226562 206.484375 C 31.574219 205.621094 31.917969 204.761719 32.265625 203.898438 C 32.414062 203.554688 31.84375 203.433594 31.695312 203.753906 C 29.050781 210.171875 26.75 216.738281 24.722656 223.40625 C 23.117188 228.71875 21.78125 234.058594 20.566406 239.445312 C 19.234375 245.542969 17.972656 251.691406 17.277344 257.890625 C 16.488281 264.851562 16.464844 271.863281 17.105469 278.800781 C 17.625 284.652344 18.640625 290.457031 20.074219 296.140625 C 20.222656 296.65625 20.34375 297.222656 20.492188 297.738281 C 20.640625 298.035156 21.160156 297.910156 21.085938 297.542969 Z M 21.085938 297.542969 " fill-opacity="1" fill-rule="nonzero"/><path fill="#010101" d="M 17.304688 272.257812 C 19.207031 264.804688 21.261719 257.398438 23.511719 250.070312 C 24.574219 246.625 25.636719 243.183594 26.824219 239.789062 C 27.9375 236.714844 29.273438 233.710938 31.027344 230.980469 C 33.207031 227.5625 35.925781 224.539062 39.066406 221.980469 C 39.339844 221.757812 38.96875 221.339844 38.671875 221.585938 C 35.851562 223.847656 33.378906 226.503906 31.324219 229.480469 C 29.398438 232.261719 27.914062 235.261719 26.703125 238.433594 C 25.464844 241.65625 24.476562 244.976562 23.4375 248.273438 C 22.25 252.085938 21.085938 255.921875 20.023438 259.761719 C 18.863281 263.867188 17.773438 267.976562 16.710938 272.109375 C 16.660156 272.453125 17.203125 272.625 17.304688 272.257812 Z M 17.304688 272.257812 " fill-opacity="1" fill-rule="nonzero"/><g clip-path="url(#6577580e79)"><path fill="#010101" d="M 16.90625 276.265625 C 15.746094 271.074219 13.839844 266.132812 12.035156 261.164062 C 10.230469 256.242188 8.476562 251.25 7.585938 246.035156 C 6.621094 240.328125 7.089844 234.546875 7.511719 228.816406 C 7.734375 225.867188 7.980469 222.890625 8.253906 219.9375 C 8.523438 217.035156 8.894531 214.15625 9.191406 211.230469 C 9.464844 208.523438 9.636719 205.746094 9.167969 203.039062 C 8.773438 200.898438 7.957031 197.875 5.457031 197.382812 C 4.964844 197.257812 4.417969 197.332031 3.925781 197.53125 C 3.800781 197.578125 3.703125 197.675781 3.726562 197.800781 C 3.851562 198.957031 4.296875 200.015625 4.789062 201.046875 C 5.359375 202.179688 5.878906 203.285156 6.421875 204.390625 C 7.535156 206.65625 8.625 208.917969 9.734375 211.179688 C 11.960938 215.757812 14.1875 220.28125 16.414062 224.855469 C 18.640625 229.40625 20.863281 233.933594 23.066406 238.484375 C 24.894531 242.273438 26.109375 246.378906 26.429688 250.5625 C 26.601562 252.53125 26.554688 254.496094 26.378906 256.441406 C 26.28125 257.671875 26.15625 258.898438 25.886719 260.105469 C 25.613281 261.359375 25.191406 262.566406 24.722656 263.769531 C 24.328125 264.777344 23.882812 265.738281 23.386719 266.671875 C 23.117188 267.1875 22.820312 267.730469 22.523438 268.222656 C 22.300781 268.589844 21.953125 269.355469 21.558594 269.527344 C 20.964844 269.746094 20.714844 268.714844 20.714844 268.34375 C 20.691406 267.753906 20.863281 267.1875 21.0625 266.648438 C 21.457031 265.589844 21.953125 264.582031 22.421875 263.550781 C 23.339844 261.507812 24.328125 259.441406 25.441406 257.472656 C 27.34375 254.078125 29.71875 250.957031 32.511719 248.226562 C 38.546875 242.320312 46.261719 238.335938 54.546875 236.589844 C 55.214844 236.441406 55.90625 236.320312 56.601562 236.195312 C 56.871094 236.148438 56.847656 235.730469 56.601562 235.632812 C 54.226562 235.039062 52.394531 237.625 51.0625 239.171875 C 49.429688 241.066406 47.820312 242.960938 46.261719 244.902344 C 43.121094 248.789062 40.007812 252.726562 36.542969 256.34375 C 34.589844 258.359375 32.539062 260.300781 30.335938 262.046875 C 30.066406 262.269531 30.4375 262.664062 30.730469 262.441406 C 34.539062 259.417969 37.878906 255.875 41.046875 252.183594 C 44.1875 248.472656 47.179688 244.585938 50.34375 240.894531 C 51.210938 239.863281 52.097656 238.851562 53.015625 237.871094 C 53.90625 236.933594 55.089844 235.851562 56.5 236.171875 C 56.5 235.976562 56.5 235.804688 56.5 235.605469 C 52.988281 236.195312 49.578125 237.132812 46.289062 238.484375 C 41.910156 240.28125 37.855469 242.789062 34.269531 245.863281 C 31.300781 248.421875 28.605469 251.398438 26.480469 254.71875 C 25.191406 256.6875 24.105469 258.800781 23.117188 260.890625 C 22.597656 261.976562 22.101562 263.082031 21.605469 264.164062 C 21.160156 265.171875 20.59375 266.179688 20.371094 267.261719 C 20.171875 268.125 20.171875 269.28125 20.964844 269.871094 C 21.855469 270.535156 22.546875 269.402344 22.941406 268.761719 C 24.078125 266.917969 25.019531 264.902344 25.761719 262.859375 C 26.109375 261.949219 26.429688 260.964844 26.601562 260.007812 C 26.898438 258.433594 27.074219 256.785156 27.171875 255.1875 C 27.441406 250.734375 26.800781 246.207031 25.316406 241.976562 C 24.648438 240.132812 23.78125 238.335938 22.917969 236.566406 C 21.78125 234.203125 20.617188 231.867188 19.457031 229.507812 C 17.15625 224.757812 14.832031 220.0625 12.53125 215.3125 C 10.230469 210.566406 7.90625 205.867188 5.605469 201.121094 C 5.085938 200.015625 4.492188 198.90625 4.417969 197.675781 C 4.371094 197.75 4.269531 197.875 4.222656 197.949219 C 5.382812 197.457031 6.644531 198.121094 7.335938 199.078125 C 8.078125 200.113281 8.425781 201.414062 8.671875 202.644531 C 9.242188 205.300781 9.09375 208.082031 8.820312 210.761719 C 8.550781 213.617188 8.179688 216.445312 7.90625 219.273438 C 7.632812 222.152344 7.386719 225.03125 7.164062 227.90625 C 6.742188 233.539062 6.25 239.246094 7.015625 244.832031 C 7.734375 249.921875 9.367188 254.816406 11.121094 259.6875 C 12.878906 264.558594 14.78125 269.378906 16.066406 274.394531 C 16.242188 275.035156 16.363281 275.652344 16.511719 276.289062 C 16.4375 276.78125 16.980469 276.609375 16.90625 276.265625 Z M 16.90625 276.265625 " fill-opacity="1" fill-rule="nonzero"/></g><g clip-path="url(#b5526cbc2e)"><path fill="#777cbb" d="M 17.265625 51.652344 C 18.398438 54.691406 18.441406 56.832031 17.9375 58.667969 C 17.78125 59.242188 17.167969 61.265625 14.769531 63.566406 C 11.425781 66.777344 5.035156 70.117188 0.222656 69.421875 L 0.222656 94.019531 C 6.214844 93.65625 13.480469 91.46875 19.445312 87.398438 C 22.1875 85.53125 28.890625 80.964844 31.300781 72.695312 C 32.761719 67.671875 32.144531 63.011719 31.589844 58.855469 C 31.097656 55.199219 30.597656 54.585938 28.417969 46.363281 C 26.074219 37.507812 24.902344 33.015625 25.054688 29.929688 C 25.152344 27.945312 25.496094 20.996094 30.441406 15.320312 C 35.089844 9.976562 41.234375 8.730469 46.683594 7.628906 C 56.910156 5.5625 65.492188 7.605469 71.382812 9.070312 C 77.558594 10.609375 76.375 11.140625 87.914062 14.742188 C 100.9375 18.808594 105.421875 19.058594 109.34375 18.679688 C 113.199219 18.316406 118.132812 17.769531 121.933594 13.96875 C 125.269531 10.632812 126.039062 6.480469 126.542969 3.496094 C 126.542969 3.496094 126.769531 2.15625 126.855469 0.00390625 L 0.230469 0.00390625 L 0.230469 31.996094 C 1.546875 33.296875 3.417969 35.15625 6.125 37.804688 C 12.515625 44.078125 15.449219 46.769531 17.265625 51.652344 Z M 17.265625 51.652344 " fill-opacity="1" fill-rule="nonzero"/></g><g clip-path="url(#528de368f5)"><path fill="#caaacd" d="M 32.160156 109.53125 C 42.640625 105.804688 49.808594 100.359375 52.339844 94.203125 C 52.613281 93.546875 54.96875 87.570312 54.816406 79.527344 C 54.761719 76.527344 54.238281 72.105469 48.753906 57.523438 C 47.566406 54.371094 46.566406 51.855469 45.683594 49.636719 C 43.140625 43.238281 41.863281 40.027344 41.304688 34.378906 C 40.902344 30.3125 41.058594 26.917969 41.78125 24.289062 C 42.363281 22.140625 43.179688 20.988281 43.746094 20.308594 C 45.273438 18.472656 47.378906 17.105469 50.003906 16.25 C 52.105469 15.570312 53.984375 15.402344 54.78125 15.328125 C 55.300781 15.28125 55.808594 15.257812 56.304688 15.257812 C 59.960938 15.257812 63.023438 16.449219 66.777344 17.910156 C 70.441406 19.332031 72.71875 20.667969 76.164062 22.691406 C 76.910156 23.125 77.679688 23.582031 78.542969 24.078125 C 86.738281 28.820312 90.851562 31.199219 93.09375 31.933594 C 102.339844 34.957031 110.898438 33.203125 117.152344 31.925781 C 119.835938 31.375 123.898438 30.546875 128.808594 28.296875 C 131.875 26.890625 141.207031 22.617188 145.996094 14.757812 C 146.007812 14.730469 147.546875 12.175781 148.527344 7.789062 C 148.984375 5.761719 149.363281 3.125 149.347656 0.00390625 L 149.988281 0.00390625 C 150 2.710938 149.714844 5.371094 149.144531 7.921875 C 148.140625 12.410156 146.601562 14.972656 146.539062 15.078125 C 144.09375 19.09375 140.503906 22.183594 137.136719 24.445312 C 133.769531 26.710938 130.625 28.148438 129.070312 28.863281 C 124.09375 31.144531 119.996094 31.980469 117.277344 32.539062 C 114.242188 33.160156 110.460938 33.933594 106.320312 34.160156 C 101.449219 34.421875 97.0625 33.894531 92.902344 32.53125 C 90.59375 31.78125 86.464844 29.386719 78.234375 24.625 C 77.371094 24.121094 76.597656 23.671875 75.851562 23.230469 C 72.429688 21.226562 70.167969 19.898438 66.554688 18.492188 C 62.199219 16.800781 59.058594 15.578125 54.84375 15.953125 C 50.066406 16.375 46.496094 17.972656 44.230469 20.710938 C 42.0625 23.320312 41.289062 27.898438 41.929688 34.320312 C 42.480469 39.882812 43.75 43.066406 46.269531 49.40625 C 47.148438 51.628906 48.152344 54.148438 49.34375 57.304688 C 54.867188 71.976562 55.390625 76.460938 55.449219 79.515625 C 55.511719 82.59375 55.214844 85.71875 54.574219 88.804688 C 53.953125 91.789062 53.214844 93.738281 52.925781 94.4375 C 51.597656 97.660156 49.058594 100.6875 45.363281 103.441406 C 41.863281 106.054688 37.492188 108.300781 32.375 110.121094 C 24.277344 113.003906 14.875 114.566406 5.738281 114.566406 C 5.25 114.566406 4.761719 114.5625 4.277344 114.554688 C 2.910156 114.527344 1.554688 114.46875 0.222656 114.375 L 0.222656 113.773438 C 11.609375 114.574219 23.167969 112.730469 32.160156 109.53125 Z M 32.160156 109.53125 " fill-opacity="1" fill-rule="nonzero"/></g><g clip-path="url(#3c45d25690)"><path fill="#777cbb" d="M 295.921875 284.648438 C 294.507812 280.851562 294.453125 278.183594 295.078125 275.886719 C 295.277344 275.171875 296.046875 272.644531 299.042969 269.769531 C 303.222656 265.765625 311.207031 261.59375 317.222656 262.460938 L 317.222656 231.753906 C 309.734375 232.207031 300.652344 234.9375 293.195312 240.019531 C 289.769531 242.351562 281.390625 248.054688 278.378906 258.378906 C 276.550781 264.648438 277.324219 270.464844 278.019531 275.652344 C 278.628906 280.21875 279.257812 280.984375 281.980469 291.25 C 284.910156 302.304688 286.375 307.910156 286.183594 311.765625 C 286.0625 314.242188 285.632812 322.917969 279.453125 330.003906 C 273.640625 336.675781 265.960938 338.230469 259.148438 339.605469 C 246.367188 342.1875 235.636719 339.636719 228.273438 337.804688 C 220.558594 335.886719 222.035156 335.222656 207.609375 330.722656 C 191.328125 325.648438 185.726562 325.339844 180.824219 325.808594 C 176.003906 326.265625 169.835938 326.945312 165.089844 331.6875 C 160.917969 335.855469 159.957031 341.039062 159.324219 344.765625 C 159.324219 344.765625 159.039062 346.441406 158.9375 349.128906 L 317.21875 349.128906 L 317.21875 309.1875 C 315.570312 307.5625 313.234375 305.242188 309.847656 301.933594 C 301.859375 294.105469 298.191406 290.742188 295.921875 284.648438 Z M 295.921875 284.648438 " fill-opacity="1" fill-rule="nonzero"/></g><g clip-path="url(#7e57bad2af)"><path fill="#caaacd" d="M 277.304688 212.386719 C 264.203125 217.042969 255.242188 223.839844 252.078125 231.527344 C 251.738281 232.34375 248.792969 239.804688 248.980469 249.847656 C 249.054688 253.59375 249.707031 259.113281 256.5625 277.316406 C 258.046875 281.25 259.296875 284.390625 260.398438 287.164062 C 263.578125 295.152344 265.175781 299.15625 265.875 306.210938 C 266.375 311.285156 266.179688 315.527344 265.28125 318.808594 C 264.546875 321.492188 263.527344 322.929688 262.824219 323.773438 C 260.914062 326.070312 258.28125 327.777344 254.996094 328.84375 C 252.371094 329.695312 250.023438 329.902344 249.027344 329.992188 C 248.375 330.054688 247.742188 330.082031 247.121094 330.082031 C 242.550781 330.082031 238.726562 328.59375 234.03125 326.773438 C 229.453125 324.996094 226.605469 323.328125 222.296875 320.804688 C 221.363281 320.257812 220.40625 319.691406 219.324219 319.070312 C 209.078125 313.148438 203.9375 310.179688 201.136719 309.265625 C 189.578125 305.492188 178.878906 307.675781 171.066406 309.273438 C 167.707031 309.960938 162.632812 310.996094 156.492188 313.804688 C 152.660156 315.558594 140.996094 320.894531 135.007812 330.707031 C 134.992188 330.742188 133.070312 333.929688 131.84375 339.40625 C 131.277344 341.9375 130.800781 345.230469 130.816406 349.128906 L 130.019531 349.128906 C 130.003906 345.746094 130.359375 342.421875 131.074219 339.238281 C 132.328125 333.636719 134.25 330.4375 134.332031 330.304688 C 137.390625 325.296875 141.875 321.4375 146.082031 318.613281 C 150.292969 315.785156 154.222656 313.988281 156.164062 313.097656 C 162.386719 310.25 167.511719 309.203125 170.90625 308.507812 C 174.699219 307.730469 179.425781 306.765625 184.605469 306.484375 C 190.691406 306.15625 196.175781 306.816406 201.378906 308.515625 C 204.261719 309.453125 209.421875 312.441406 219.710938 318.390625 C 220.792969 319.015625 221.757812 319.578125 222.691406 320.128906 C 226.964844 322.628906 229.792969 324.285156 234.3125 326.042969 C 239.753906 328.15625 243.683594 329.683594 248.949219 329.214844 C 254.921875 328.6875 259.386719 326.691406 262.21875 323.273438 C 264.925781 320.019531 265.890625 314.300781 265.09375 306.28125 C 264.402344 299.335938 262.816406 295.363281 259.667969 287.449219 C 258.566406 284.675781 257.3125 281.527344 255.828125 277.585938 C 248.921875 259.273438 248.265625 253.675781 248.191406 249.863281 C 248.113281 246.019531 248.484375 242.117188 249.289062 238.265625 C 250.0625 234.539062 250.984375 232.105469 251.34375 231.230469 C 253.003906 227.210938 256.179688 223.429688 260.796875 219.992188 C 265.175781 216.730469 270.640625 213.925781 277.035156 211.652344 C 287.15625 208.054688 298.910156 206.101562 310.328125 206.101562 C 310.941406 206.101562 311.550781 206.109375 312.15625 206.117188 C 313.867188 206.152344 315.558594 206.226562 317.222656 206.34375 L 317.222656 207.09375 C 302.992188 206.089844 288.542969 208.398438 277.304688 212.386719 Z M 277.304688 212.386719 " fill-opacity="1" fill-rule="nonzero"/></g></svg>