<svg xmlns="http://www.w3.org/2000/svg" xmlns:xlink="http://www.w3.org/1999/xlink" width="1024" zoomAndPan="magnify" viewBox="0 0 768 576" height="768" preserveAspectRatio="xMidYMid meet" version="1.0"><defs><clipPath id="f0a6fc7d95"><path d="M 29 248 L 62 248 L 62 445.496094 L 29 445.496094 Z M 29 248 " clip-rule="nonzero"/></clipPath><clipPath id="acd66d848a"><path d="M 2.394531 235 L 112.644531 235 L 112.644531 401 L 2.394531 401 Z M 2.394531 235 " clip-rule="nonzero"/></clipPath><clipPath id="f9a24b8968"><path d="M 0 0 L 269.71875 0 L 269.71875 206.25 L 0 206.25 Z M 0 0 " clip-rule="nonzero"/></clipPath><clipPath id="bcaf1a82f0"><path d="M 519 390 L 768 390 L 768 575.992188 L 519 575.992188 Z M 519 390 " clip-rule="nonzero"/></clipPath><clipPath id="7bdc841be2"><path d="M 473.527344 350.253906 L 768 350.253906 L 768 575.992188 L 473.527344 575.992188 Z M 473.527344 350.253906 " clip-rule="nonzero"/></clipPath></defs><rect x="-76.8" width="921.6" fill="#ffffff" y="-57.6" height="691.2" fill-opacity="1"/><rect x="-76.8" width="921.6" fill="#ffffff" y="-57.6" height="691.2" fill-opacity="1"/><rect x="-76.8" width="921.6" fill="#ffffff" y="-57.6" height="691.2" fill-opacity="1"/><path fill="#ffffff" d="M 433.929688 308.402344 C 431 300.550781 435.449219 296.8125 436.273438 291.035156 C 437.101562 285.253906 445.691406 262.53125 469.449219 256.734375 C 493.207031 250.9375 505.910156 251.769531 510.828125 264.179688 C 515.75 276.585938 515.328125 295.179688 504.679688 300.550781 C 494.03125 305.921875 461.777344 318.214844 456.339844 319.960938 C 444.867188 323.683594 436.097656 314.214844 433.929688 308.402344 Z M 433.929688 308.402344 " fill-opacity="1" fill-rule="nonzero"/><path fill="#010101" d="M 67.878906 249.640625 C 63.671875 250.050781 59.722656 248 56.902344 244.96875 C 53.777344 241.480469 52.441406 237.015625 52.597656 232.449219 C 52.75 227.980469 54.390625 223.722656 56.597656 219.925781 C 58.699219 216.332031 61.210938 213.097656 64.542969 210.636719 C 67.929688 208.070312 71.824219 206.324219 75.621094 204.476562 C 76.953125 203.859375 80.953125 201.808594 81.003906 204.628906 C 81.054688 205.65625 80.75 206.785156 80.644531 207.8125 C 80.542969 209.199219 80.542969 210.582031 80.492188 212.019531 C 80.492188 213.457031 80.492188 214.894531 80.390625 216.332031 C 80.285156 217.71875 80.03125 219.15625 79.875 220.539062 C 79.570312 222.492188 79.3125 224.390625 79.003906 226.390625 C 78.75 228.035156 78.542969 229.675781 78.234375 231.316406 C 77.671875 234.242188 76.75 237.21875 75.621094 239.992188 C 74.699219 242.351562 73.722656 244.765625 72.082031 246.816406 C 70.648438 248.664062 68.75 249.742188 66.390625 249.847656 C 65.621094 249.847656 64.902344 249.792969 64.132812 249.742188 C 63.363281 249.691406 63.363281 250.820312 64.132812 250.921875 C 66.03125 251.179688 67.929688 251.078125 69.722656 250.359375 C 72.03125 249.382812 73.570312 247.125 74.75 244.96875 C 76.851562 241.019531 78.339844 236.65625 79.261719 232.292969 C 79.570312 230.90625 79.722656 229.523438 79.980469 228.1875 C 80.644531 223.671875 81.621094 219.101562 81.722656 214.484375 C 81.773438 211.558594 81.773438 208.683594 82.183594 205.757812 C 82.285156 204.835938 82.339844 203.808594 81.722656 202.988281 C 81.160156 202.21875 80.183594 202.0625 79.3125 202.167969 C 76.902344 202.421875 74.59375 203.859375 72.441406 204.886719 C 70.441406 205.863281 68.339844 206.886719 66.441406 208.121094 C 62.648438 210.480469 59.417969 213.558594 56.953125 217.359375 C 54.542969 221.054688 52.492188 225.160156 51.828125 229.574219 C 51.007812 234.347656 51.671875 239.480469 54.289062 243.636719 C 56.597656 247.28125 60.339844 250.257812 64.75 250.976562 C 65.773438 251.128906 66.902344 251.230469 67.929688 251.078125 C 68.648438 250.769531 68.648438 249.539062 67.878906 249.640625 Z M 67.878906 249.640625 " fill-opacity="1" fill-rule="nonzero"/><path fill="#010101" d="M 80.339844 224.902344 C 83.261719 221.257812 86.183594 217.613281 89.105469 213.972656 C 89.722656 213.148438 90.441406 212.277344 91.054688 211.507812 C 91.15625 211.40625 91.3125 211.148438 91.464844 211.199219 C 91.875 211.355469 91.875 212.894531 91.925781 213.148438 C 92.082031 214.484375 92.082031 215.820312 92.03125 217.152344 C 91.773438 222.746094 89.773438 228.085938 87.414062 233.113281 C 86.183594 235.679688 84.851562 238.09375 83.621094 240.554688 C 82.59375 242.507812 81.671875 244.609375 79.980469 246.097656 C 76.59375 249.230469 71.671875 249.898438 67.210938 249.488281 C 66.441406 249.433594 66.441406 250.5625 67.210938 250.667969 C 71.414062 251.078125 75.878906 250.410156 79.414062 248 C 81.414062 246.613281 82.695312 244.765625 83.824219 242.609375 C 85.210938 239.941406 86.644531 237.375 87.980469 234.652344 C 90.59375 229.316406 92.746094 223.722656 93.15625 217.769531 C 93.261719 216.28125 93.210938 214.742188 93.105469 213.253906 C 93.003906 212.277344 93.003906 210.789062 92.082031 210.121094 C 90.851562 209.351562 89.980469 210.941406 89.414062 211.660156 C 86.132812 215.820312 82.851562 219.875 79.519531 223.980469 C 79.003906 224.644531 79.875 225.519531 80.339844 224.902344 Z M 80.339844 224.902344 " fill-opacity="1" fill-rule="nonzero"/><path fill="#010101" d="M 82.492188 204.9375 C 83.3125 204.21875 84.75 203.089844 85.824219 203.398438 C 86.492188 203.550781 86.800781 204.476562 87.003906 205.144531 C 87.570312 207.503906 87.261719 210.121094 86.902344 212.484375 C 86.800781 213.355469 86.59375 214.277344 86.441406 215.152344 C 86.285156 215.921875 87.414062 216.179688 87.621094 215.460938 C 88.082031 213.148438 88.441406 210.789062 88.492188 208.429688 C 88.542969 206.53125 88.59375 202.886719 86.234375 202.269531 C 84.59375 201.808594 82.902344 203.140625 81.722656 204.117188 C 81.109375 204.578125 81.929688 205.398438 82.492188 204.9375 Z M 82.492188 204.9375 " fill-opacity="1" fill-rule="nonzero"/><path fill="#010101" d="M 82.03125 278.792969 C 87.054688 276.585938 92.234375 274.839844 97.566406 273.609375 C 98.902344 273.25 100.234375 272.992188 101.566406 272.734375 C 102.183594 272.632812 102.851562 272.480469 103.414062 272.375 C 104.027344 272.273438 104.902344 271.964844 105.414062 272.429688 C 106.285156 273.144531 106.285156 274.789062 106.183594 275.765625 C 106.027344 276.945312 105.464844 278.023438 104.851562 278.996094 C 103.566406 281 101.722656 282.691406 99.875 284.179688 C 97.976562 285.71875 95.875 287.105469 93.722656 288.285156 C 91.515625 289.46875 89.261719 290.441406 86.902344 291.160156 C 84.542969 291.929688 81.875 292.546875 79.671875 291.007812 C 77.929688 289.773438 76.902344 287.773438 75.929688 285.976562 C 74.699219 283.71875 73.570312 281.304688 74.441406 278.6875 C 75.210938 276.378906 77.054688 274.582031 78.75 273.042969 C 80.542969 271.503906 82.492188 270.117188 84.59375 268.9375 C 88.746094 266.628906 93.363281 265.191406 98.082031 264.832031 C 99.15625 264.78125 100.492188 264.523438 101.566406 265.089844 C 102.492188 265.550781 103.003906 266.472656 103.261719 267.398438 C 103.824219 269.757812 102.335938 272.015625 101.003906 273.8125 C 97.925781 277.867188 94.234375 281.511719 90.183594 284.539062 C 88.234375 285.976562 86.132812 287.414062 83.722656 287.875 C 81.570312 288.285156 79.261719 287.875 77.363281 286.796875 C 76.390625 286.285156 75.570312 285.566406 74.800781 284.796875 C 74.289062 284.230469 73.46875 285.105469 73.980469 285.617188 C 75.519531 287.414062 77.722656 288.644531 80.082031 289.003906 C 82.644531 289.46875 85.054688 288.953125 87.3125 287.773438 C 89.773438 286.488281 92.03125 284.644531 94.132812 282.796875 C 96.285156 280.949219 98.285156 278.84375 100.132812 276.738281 C 101.824219 274.738281 103.773438 272.53125 104.386719 269.914062 C 104.851562 267.910156 104.335938 265.449219 102.492188 264.214844 C 101.464844 263.496094 100.183594 263.496094 98.953125 263.601562 C 97.621094 263.652344 96.335938 263.855469 95.105469 264.011719 C 92.492188 264.472656 89.980469 265.191406 87.464844 266.21875 C 85.054688 267.246094 82.800781 268.527344 80.644531 270.015625 C 78.542969 271.503906 76.492188 273.25 74.953125 275.40625 C 73.3125 277.558594 72.542969 280.074219 73.261719 282.742188 C 73.621094 284.078125 74.289062 285.359375 74.953125 286.59375 C 75.519531 287.621094 76.132812 288.75 76.800781 289.722656 C 78.234375 291.671875 80.132812 293.109375 82.695312 293.265625 C 85.414062 293.316406 88.285156 292.1875 90.746094 291.109375 C 95.671875 289.003906 100.542969 285.976562 104.183594 281.972656 C 105.875 280.125 107.414062 277.816406 107.464844 275.199219 C 107.515625 274.121094 107.3125 272.734375 106.542969 271.863281 C 105.671875 270.886719 104.4375 271.042969 103.3125 271.296875 C 97.3125 272.324219 91.414062 274.019531 85.722656 276.226562 C 84.339844 276.738281 82.953125 277.304688 81.570312 277.96875 C 80.75 278.074219 81.363281 279.152344 82.03125 278.792969 Z M 82.03125 278.792969 " fill-opacity="1" fill-rule="nonzero"/><g clip-path="url(#f0a6fc7d95)"><path fill="#010101" d="M 38.441406 444.410156 C 35.367188 433.121094 33.210938 421.625 31.929688 410.074219 C 30.289062 395.550781 30.085938 380.871094 31.367188 366.398438 C 32.546875 353.363281 34.957031 340.429688 37.726562 327.703125 C 40.085938 316.515625 42.75 305.378906 45.878906 294.394531 C 49.726562 280.894531 54.289062 267.5 59.46875 254.414062 C 60.1875 252.617188 60.902344 250.820312 61.621094 249.023438 C 61.929688 248.304688 60.75 248.050781 60.441406 248.714844 C 54.957031 262.113281 50.1875 275.816406 45.980469 289.722656 C 42.648438 300.808594 39.878906 311.945312 37.367188 323.1875 C 34.597656 335.914062 31.980469 348.746094 30.546875 361.679688 C 28.90625 376.203125 28.855469 390.828125 30.1875 405.300781 C 31.265625 417.515625 33.367188 429.628906 36.339844 441.484375 C 36.648438 442.5625 36.90625 443.742188 37.210938 444.820312 C 37.519531 445.4375 38.597656 445.179688 38.441406 444.410156 Z M 38.441406 444.410156 " fill-opacity="1" fill-rule="nonzero"/></g><path fill="#010101" d="M 30.597656 391.652344 C 34.546875 376.101562 38.800781 360.652344 43.46875 345.359375 C 45.671875 338.171875 47.878906 330.988281 50.339844 323.90625 C 52.648438 317.488281 55.417969 311.226562 59.058594 305.53125 C 63.570312 298.398438 69.210938 292.085938 75.722656 286.746094 C 76.289062 286.285156 75.519531 285.414062 74.902344 285.925781 C 69.058594 290.648438 63.929688 296.191406 59.671875 302.398438 C 55.671875 308.199219 52.597656 314.460938 50.082031 321.082031 C 47.519531 327.804688 45.46875 334.734375 43.316406 341.609375 C 40.851562 349.566406 38.441406 357.570312 36.238281 365.578125 C 33.828125 374.148438 31.570312 382.71875 29.367188 391.34375 C 29.265625 392.0625 30.390625 392.421875 30.597656 391.652344 Z M 30.597656 391.652344 " fill-opacity="1" fill-rule="nonzero"/><g clip-path="url(#acd66d848a)"><path fill="#010101" d="M 29.777344 400.015625 C 27.367188 389.1875 23.417969 378.871094 19.675781 368.503906 C 15.933594 358.238281 12.289062 347.820312 10.445312 336.941406 C 8.445312 325.035156 9.417969 312.972656 10.292969 301.015625 C 10.753906 294.855469 11.265625 288.644531 11.828125 282.488281 C 12.394531 276.429688 13.164062 270.425781 13.777344 264.320312 C 14.34375 258.671875 14.699219 252.875 13.726562 247.226562 C 12.90625 242.761719 11.214844 236.449219 6.035156 235.425781 C 5.007812 235.167969 3.882812 235.320312 2.855469 235.730469 C 2.597656 235.835938 2.394531 236.039062 2.445312 236.296875 C 2.703125 238.707031 3.625 240.914062 4.648438 243.070312 C 5.828125 245.433594 6.90625 247.742188 8.035156 250.050781 C 10.34375 254.773438 12.597656 259.496094 14.90625 264.214844 C 19.519531 273.761719 24.136719 283.207031 28.75 292.75 C 33.367188 302.246094 37.980469 311.691406 42.546875 321.183594 C 46.339844 329.089844 48.851562 337.660156 49.519531 346.382812 C 49.878906 350.488281 49.777344 354.59375 49.417969 358.648438 C 49.210938 361.214844 48.957031 363.78125 48.390625 366.296875 C 47.828125 368.914062 46.957031 371.429688 45.980469 373.945312 C 45.160156 376.046875 44.238281 378.050781 43.210938 380 C 42.648438 381.078125 42.03125 382.207031 41.417969 383.234375 C 40.957031 384.003906 40.238281 385.59375 39.417969 385.953125 C 38.1875 386.414062 37.675781 384.261719 37.675781 383.488281 C 37.621094 382.257812 37.980469 381.078125 38.390625 379.949219 C 39.210938 377.742188 40.238281 375.636719 41.210938 373.480469 C 43.109375 369.222656 45.160156 364.910156 47.46875 360.804688 C 51.417969 353.722656 56.339844 347.203125 62.132812 341.507812 C 74.644531 329.191406 90.644531 320.875 107.824219 317.234375 C 109.207031 316.925781 110.644531 316.667969 112.078125 316.410156 C 112.644531 316.308594 112.59375 315.4375 112.078125 315.230469 C 107.15625 314 103.363281 319.386719 100.59375 322.621094 C 97.210938 326.574219 93.875 330.523438 90.644531 334.578125 C 84.132812 342.6875 77.671875 350.898438 70.492188 358.445312 C 66.441406 362.652344 62.183594 366.707031 57.621094 370.351562 C 57.058594 370.8125 57.828125 371.632812 58.441406 371.171875 C 66.339844 364.859375 73.261719 357.46875 79.824219 349.769531 C 86.339844 342.019531 92.542969 333.914062 99.105469 326.214844 C 100.902344 324.058594 102.746094 321.953125 104.644531 319.902344 C 106.492188 317.949219 108.953125 315.691406 111.875 316.359375 C 111.875 315.949219 111.875 315.589844 111.875 315.179688 C 104.59375 316.410156 97.515625 318.363281 90.695312 321.183594 C 81.621094 324.929688 73.210938 330.164062 65.773438 336.582031 C 59.621094 341.917969 54.03125 348.128906 49.621094 355.058594 C 46.957031 359.164062 44.699219 363.578125 42.648438 367.9375 C 41.570312 370.199219 40.546875 372.507812 39.519531 374.765625 C 38.597656 376.871094 37.417969 378.972656 36.957031 381.230469 C 36.546875 383.027344 36.546875 385.441406 38.1875 386.671875 C 40.03125 388.058594 41.46875 385.695312 42.289062 384.363281 C 44.648438 380.511719 46.597656 376.304688 48.136719 372.046875 C 48.851562 370.144531 49.519531 368.09375 49.878906 366.089844 C 50.492188 362.808594 50.851562 359.367188 51.058594 356.03125 C 51.621094 346.742188 50.289062 337.300781 47.210938 328.472656 C 45.828125 324.621094 44.03125 320.875 42.238281 317.179688 C 39.878906 312.253906 37.46875 307.378906 35.058594 302.453125 C 30.289062 292.546875 25.46875 282.742188 20.699219 272.839844 C 15.933594 262.933594 11.113281 253.128906 6.34375 243.226562 C 5.265625 240.914062 4.035156 238.605469 3.882812 236.039062 C 3.777344 236.195312 3.574219 236.449219 3.472656 236.605469 C 5.882812 235.578125 8.496094 236.964844 9.933594 238.964844 C 11.46875 241.121094 12.1875 243.839844 12.703125 246.40625 C 13.878906 251.949219 13.574219 257.75 13.007812 263.34375 C 12.445312 269.296875 11.675781 275.199219 11.113281 281.101562 C 10.546875 287.105469 10.035156 293.109375 9.574219 299.117188 C 8.703125 310.867188 7.675781 322.773438 9.265625 334.425781 C 10.753906 345.050781 14.136719 355.261719 17.777344 365.425781 C 21.417969 375.585938 25.367188 385.644531 28.035156 396.117188 C 28.394531 397.449219 28.648438 398.734375 28.957031 400.066406 C 28.804688 401.09375 29.929688 400.734375 29.777344 400.015625 Z M 29.777344 400.015625 " fill-opacity="1" fill-rule="nonzero"/></g><path fill="#777cbb" d="M 30.441406 92.976562 C 32.480469 98.449219 32.558594 102.300781 31.652344 105.609375 C 31.367188 106.636719 30.257812 110.285156 25.9375 114.425781 C 19.910156 120.203125 8.394531 126.21875 -0.28125 124.96875 L -0.28125 169.242188 C 10.519531 168.589844 23.617188 164.652344 34.367188 157.328125 C 39.3125 153.964844 51.394531 145.742188 55.738281 130.855469 C 58.375 121.816406 57.257812 113.429688 56.257812 105.945312 C 55.375 99.359375 54.472656 98.257812 50.542969 83.460938 C 46.316406 67.519531 44.207031 59.429688 44.484375 53.875 C 44.65625 50.304688 45.277344 37.792969 54.1875 27.574219 C 62.570312 17.953125 73.644531 15.714844 83.46875 13.734375 C 101.902344 10.007812 117.378906 13.6875 127.996094 16.328125 C 139.125 19.09375 136.992188 20.054688 157.796875 26.539062 C 181.277344 33.855469 189.359375 34.304688 196.429688 33.628906 C 203.378906 32.96875 212.273438 31.984375 219.121094 25.148438 C 225.136719 19.140625 226.519531 11.667969 227.433594 6.289062 C 227.433594 6.289062 227.84375 3.878906 227.992188 0.00390625 L -0.273438 0.00390625 L -0.273438 57.59375 C 2.105469 59.933594 5.472656 63.28125 10.351562 68.054688 C 21.875 79.339844 27.164062 84.191406 30.441406 92.976562 Z M 30.441406 92.976562 " fill-opacity="1" fill-rule="nonzero"/><g clip-path="url(#f9a24b8968)"><path fill="#caaacd" d="M 57.289062 197.167969 C 76.179688 190.457031 89.105469 180.65625 93.671875 169.574219 C 94.15625 168.394531 98.410156 157.632812 98.132812 143.15625 C 98.03125 137.757812 97.085938 129.792969 87.199219 103.550781 C 85.058594 97.875 83.257812 93.347656 81.667969 89.347656 C 77.085938 77.832031 74.777344 72.054688 73.773438 61.882812 C 73.046875 54.566406 73.332031 48.453125 74.628906 43.71875 C 75.683594 39.851562 77.15625 37.777344 78.171875 36.558594 C 80.925781 33.25 84.71875 30.789062 89.460938 29.25 C 93.246094 28.023438 96.628906 27.726562 98.070312 27.589844 C 99.007812 27.503906 99.917969 27.464844 100.816406 27.464844 C 107.40625 27.464844 112.921875 29.609375 119.691406 32.234375 C 126.296875 34.796875 130.40625 37.203125 136.617188 40.84375 C 137.960938 41.628906 139.347656 42.445312 140.90625 43.34375 C 155.679688 51.878906 163.09375 56.160156 167.132812 57.480469 C 183.804688 62.921875 199.230469 59.769531 210.503906 57.464844 C 215.34375 56.476562 222.664062 54.984375 231.519531 50.933594 C 237.046875 48.402344 253.867188 40.710938 262.5 26.5625 C 262.523438 26.515625 265.296875 21.917969 267.066406 14.015625 C 267.882812 10.371094 268.570312 5.621094 268.546875 0.00390625 L 269.695312 0.00390625 C 269.71875 4.875 269.207031 9.671875 268.175781 14.261719 C 266.367188 22.339844 263.59375 26.953125 263.476562 27.144531 C 259.070312 34.367188 252.597656 39.929688 246.53125 44.003906 C 240.460938 48.082031 234.792969 50.667969 231.992188 51.957031 C 223.019531 56.058594 215.628906 57.570312 210.730469 58.574219 C 205.261719 59.691406 198.445312 61.082031 190.976562 61.492188 C 182.199219 61.960938 174.289062 61.011719 166.785156 58.558594 C 162.628906 57.207031 155.183594 52.898438 140.347656 44.324219 C 138.789062 43.421875 137.394531 42.613281 136.050781 41.816406 C 129.886719 38.210938 125.808594 35.820312 119.292969 33.289062 C 111.445312 30.238281 105.777344 28.039062 98.179688 28.714844 C 89.570312 29.476562 83.128906 32.355469 79.046875 37.28125 C 75.140625 41.976562 73.746094 50.21875 74.898438 61.78125 C 75.898438 71.796875 78.179688 77.523438 82.722656 88.9375 C 84.3125 92.9375 86.121094 97.472656 88.261719 103.15625 C 98.21875 129.566406 99.164062 137.636719 99.273438 143.132812 C 99.382812 148.671875 98.847656 154.300781 97.691406 159.859375 C 96.574219 165.226562 95.246094 168.738281 94.726562 169.996094 C 92.332031 175.796875 87.75 181.246094 81.09375 186.203125 C 74.777344 190.90625 66.898438 194.953125 57.675781 198.230469 C 43.082031 203.417969 26.125 206.230469 9.660156 206.230469 C 8.777344 206.230469 7.898438 206.222656 7.023438 206.207031 C 4.558594 206.160156 2.121094 206.050781 -0.28125 205.886719 L -0.28125 204.800781 C 20.238281 206.246094 41.082031 202.921875 57.289062 197.167969 Z M 57.289062 197.167969 " fill-opacity="1" fill-rule="nonzero"/></g><g clip-path="url(#bcaf1a82f0)"><path fill="#777cbb" d="M 734.738281 474.226562 C 732.511719 468.238281 732.425781 464.023438 733.414062 460.402344 C 733.726562 459.273438 734.9375 455.28125 739.652344 450.746094 C 746.234375 444.425781 758.808594 437.84375 768.277344 439.210938 L 768.277344 390.75 C 756.488281 391.464844 742.1875 395.773438 730.453125 403.792969 C 725.054688 407.472656 711.863281 416.472656 707.121094 432.765625 C 704.242188 442.660156 705.464844 451.839844 706.554688 460.03125 C 707.515625 467.238281 708.503906 468.445312 712.792969 484.644531 C 717.40625 502.089844 719.710938 510.945312 719.410156 517.027344 C 719.21875 520.933594 718.542969 534.628906 708.816406 545.8125 C 699.664062 556.34375 687.574219 558.792969 676.847656 560.960938 C 656.726562 565.039062 639.832031 561.015625 628.238281 558.125 C 616.089844 555.09375 618.417969 554.046875 595.707031 546.949219 C 570.074219 538.9375 561.25 538.449219 553.535156 539.1875 C 545.945312 539.910156 536.238281 540.984375 528.761719 548.472656 C 522.195312 555.042969 520.683594 563.226562 519.6875 569.109375 C 519.6875 569.109375 519.242188 571.75 519.078125 575.992188 L 768.269531 575.992188 L 768.269531 512.957031 C 765.671875 510.394531 761.996094 506.726562 756.667969 501.507812 C 744.089844 489.152344 738.3125 483.84375 734.738281 474.226562 Z M 734.738281 474.226562 " fill-opacity="1" fill-rule="nonzero"/></g><g clip-path="url(#7bdc841be2)"><path fill="#caaacd" d="M 705.429688 360.183594 C 684.804688 367.53125 670.695312 378.257812 665.714844 390.386719 C 665.179688 391.679688 660.539062 403.457031 660.839844 419.304688 C 660.953125 425.214844 661.984375 433.929688 672.777344 462.65625 C 675.113281 468.867188 677.082031 473.820312 678.816406 478.199219 C 683.816406 490.804688 686.335938 497.128906 687.4375 508.261719 C 688.226562 516.269531 687.917969 522.960938 686.5 528.140625 C 685.347656 532.375 683.742188 534.644531 682.632812 535.980469 C 679.625 539.601562 675.484375 542.292969 670.308594 543.980469 C 666.175781 545.320312 662.480469 545.648438 660.910156 545.796875 C 659.886719 545.890625 658.890625 545.933594 657.910156 545.933594 C 650.71875 545.933594 644.695312 543.585938 637.304688 540.710938 C 630.097656 537.90625 625.609375 535.273438 618.832031 531.289062 C 617.363281 530.429688 615.847656 529.535156 614.148438 528.554688 C 598.019531 519.210938 589.925781 514.523438 585.515625 513.078125 C 567.316406 507.125 550.476562 510.574219 538.171875 513.09375 C 532.886719 514.179688 524.894531 515.8125 515.226562 520.242188 C 509.195312 523.015625 490.832031 531.4375 481.40625 546.921875 C 481.378906 546.972656 478.355469 552.007812 476.421875 560.652344 C 475.527344 564.644531 474.78125 569.839844 474.808594 575.992188 L 473.550781 575.992188 C 473.527344 570.660156 474.085938 565.410156 475.210938 560.386719 C 477.1875 551.542969 480.210938 546.492188 480.339844 546.285156 C 485.152344 538.378906 492.214844 532.289062 498.839844 527.832031 C 505.464844 523.367188 511.652344 520.535156 514.710938 519.125 C 524.507812 514.632812 532.578125 512.984375 537.921875 511.882812 C 543.894531 510.660156 551.335938 509.136719 559.488281 508.691406 C 569.070312 508.171875 577.707031 509.214844 585.894531 511.898438 C 590.433594 513.378906 598.558594 518.09375 614.757812 527.480469 C 616.460938 528.46875 617.980469 529.355469 619.449219 530.222656 C 626.179688 534.171875 630.628906 536.789062 637.742188 539.558594 C 646.3125 542.894531 652.496094 545.304688 660.789062 544.566406 C 670.191406 543.730469 677.21875 540.582031 681.679688 535.1875 C 685.941406 530.050781 687.460938 521.027344 686.207031 508.371094 C 685.117188 497.410156 682.625 491.140625 677.664062 478.648438 C 675.929688 474.269531 673.953125 469.304688 671.617188 463.085938 C 660.746094 434.179688 659.714844 425.34375 659.59375 419.328125 C 659.476562 413.265625 660.058594 407.105469 661.324219 401.023438 C 662.542969 395.144531 663.996094 391.300781 664.5625 389.921875 C 667.175781 383.574219 672.175781 377.613281 679.445312 372.183594 C 686.335938 367.039062 694.9375 362.609375 705.007812 359.019531 C 720.9375 353.34375 739.449219 350.261719 757.425781 350.261719 C 758.386719 350.261719 759.347656 350.273438 760.300781 350.289062 C 762.992188 350.339844 765.65625 350.460938 768.277344 350.640625 L 768.277344 351.828125 C 745.875 350.246094 723.121094 353.886719 705.429688 360.183594 Z M 705.429688 360.183594 " fill-opacity="1" fill-rule="nonzero"/></g></svg>