<svg xmlns="http://www.w3.org/2000/svg" xmlns:xlink="http://www.w3.org/1999/xlink" width="1024" zoomAndPan="magnify" viewBox="0 0 768 576" height="768" preserveAspectRatio="xMidYMid meet" version="1.0"><defs><clipPath id="262666259b"><path d="M 86 161 L 129 161 L 129 212 L 86 212 Z M 86 161 " clip-rule="nonzero"/></clipPath><clipPath id="a0cee6d210"><path d="M 42.175781 141.53125 L 161.976562 169.402344 L 100.285156 434.570312 L -19.515625 406.699219 Z M 42.175781 141.53125 " clip-rule="nonzero"/></clipPath><clipPath id="4588dc9cdc"><path d="M 42.175781 141.53125 L 161.976562 169.402344 L 100.285156 434.570312 L -19.515625 406.699219 Z M 42.175781 141.53125 " clip-rule="nonzero"/></clipPath><clipPath id="55a473d354"><path d="M 42.175781 141.53125 L 161.976562 169.402344 L 100.285156 434.570312 L -19.515625 406.699219 Z M 42.175781 141.53125 " clip-rule="nonzero"/></clipPath><clipPath id="6b9b91370e"><path d="M 99 172 L 139 172 L 139 213 L 99 213 Z M 99 172 " clip-rule="nonzero"/></clipPath><clipPath id="beb6d643d2"><path d="M 42.175781 141.53125 L 161.976562 169.402344 L 100.285156 434.570312 L -19.515625 406.699219 Z M 42.175781 141.53125 " clip-rule="nonzero"/></clipPath><clipPath id="ae1216936b"><path d="M 42.175781 141.53125 L 161.976562 169.402344 L 100.285156 434.570312 L -19.515625 406.699219 Z M 42.175781 141.53125 " clip-rule="nonzero"/></clipPath><clipPath id="d2b0aad25f"><path d="M 42.175781 141.53125 L 161.976562 169.402344 L 100.285156 434.570312 L -19.515625 406.699219 Z M 42.175781 141.53125 " clip-rule="nonzero"/></clipPath><clipPath id="7d0a3de209"><path d="M 127 162 L 135 162 L 135 179 L 127 179 Z M 127 162 " clip-rule="nonzero"/></clipPath><clipPath id="ae2a32dd2c"><path d="M 42.175781 141.53125 L 161.976562 169.402344 L 100.285156 434.570312 L -19.515625 406.699219 Z M 42.175781 141.53125 " clip-rule="nonzero"/></clipPath><clipPath id="f99b856df0"><path d="M 42.175781 141.53125 L 161.976562 169.402344 L 100.285156 434.570312 L -19.515625 406.699219 Z M 42.175781 141.53125 " clip-rule="nonzero"/></clipPath><clipPath id="05e6e42234"><path d="M 42.175781 141.53125 L 161.976562 169.402344 L 100.285156 434.570312 L -19.515625 406.699219 Z M 42.175781 141.53125 " clip-rule="nonzero"/></clipPath><clipPath id="0c21784ef7"><path d="M 98 232 L 139 232 L 139 262 L 98 262 Z M 98 232 " clip-rule="nonzero"/></clipPath><clipPath id="8c5c5d377f"><path d="M 42.175781 141.53125 L 161.976562 169.402344 L 100.285156 434.570312 L -19.515625 406.699219 Z M 42.175781 141.53125 " clip-rule="nonzero"/></clipPath><clipPath id="63ea875130"><path d="M 42.175781 141.53125 L 161.976562 169.402344 L 100.285156 434.570312 L -19.515625 406.699219 Z M 42.175781 141.53125 " clip-rule="nonzero"/></clipPath><clipPath id="bb23e9b8d1"><path d="M 42.175781 141.53125 L 161.976562 169.402344 L 100.285156 434.570312 L -19.515625 406.699219 Z M 42.175781 141.53125 " clip-rule="nonzero"/></clipPath><clipPath id="38a4dc062b"><path d="M 18 207 L 95 207 L 95 416 L 18 416 Z M 18 207 " clip-rule="nonzero"/></clipPath><clipPath id="44b672688c"><path d="M 42.175781 141.53125 L 161.976562 169.402344 L 100.285156 434.570312 L -19.515625 406.699219 Z M 42.175781 141.53125 " clip-rule="nonzero"/></clipPath><clipPath id="773bf2d1c1"><path d="M 42.175781 141.53125 L 161.976562 169.402344 L 100.285156 434.570312 L -19.515625 406.699219 Z M 42.175781 141.53125 " clip-rule="nonzero"/></clipPath><clipPath id="7ea1481da9"><path d="M 42.175781 141.53125 L 161.976562 169.402344 L 100.285156 434.570312 L -19.515625 406.699219 Z M 42.175781 141.53125 " clip-rule="nonzero"/></clipPath><clipPath id="360a46b3a1"><path d="M 23 251 L 101 251 L 101 356 L 23 356 Z M 23 251 " clip-rule="nonzero"/></clipPath><clipPath id="908fdccebc"><path d="M 42.175781 141.53125 L 161.976562 169.402344 L 100.285156 434.570312 L -19.515625 406.699219 Z M 42.175781 141.53125 " clip-rule="nonzero"/></clipPath><clipPath id="15cad704bd"><path d="M 42.175781 141.53125 L 161.976562 169.402344 L 100.285156 434.570312 L -19.515625 406.699219 Z M 42.175781 141.53125 " clip-rule="nonzero"/></clipPath><clipPath id="af868ddca0"><path d="M 42.175781 141.53125 L 161.976562 169.402344 L 100.285156 434.570312 L -19.515625 406.699219 Z M 42.175781 141.53125 " clip-rule="nonzero"/></clipPath><clipPath id="2616db94ae"><path d="M 15 178 L 133 178 L 133 365 L 15 365 Z M 15 178 " clip-rule="nonzero"/></clipPath><clipPath id="f0080f1ced"><path d="M 42.175781 141.53125 L 161.976562 169.402344 L 100.285156 434.570312 L -19.515625 406.699219 Z M 42.175781 141.53125 " clip-rule="nonzero"/></clipPath><clipPath id="b2352107ea"><path d="M 42.175781 141.53125 L 161.976562 169.402344 L 100.285156 434.570312 L -19.515625 406.699219 Z M 42.175781 141.53125 " clip-rule="nonzero"/></clipPath><clipPath id="ce7b4e1779"><path d="M 42.175781 141.53125 L 161.976562 169.402344 L 100.285156 434.570312 L -19.515625 406.699219 Z M 42.175781 141.53125 " clip-rule="nonzero"/></clipPath><clipPath id="49df06f144"><path d="M 0 0 L 269.71875 0 L 269.71875 206.25 L 0 206.25 Z M 0 0 " clip-rule="nonzero"/></clipPath><clipPath id="a7dafb3b8c"><path d="M 519 390 L 768 390 L 768 575.992188 L 519 575.992188 Z M 519 390 " clip-rule="nonzero"/></clipPath><clipPath id="0d9a0a5e1b"><path d="M 473.527344 350.253906 L 768 350.253906 L 768 575.992188 L 473.527344 575.992188 Z M 473.527344 350.253906 " clip-rule="nonzero"/></clipPath></defs><rect x="-76.8" width="921.6" fill="#ffffff" y="-57.6" height="691.2" fill-opacity="1"/><rect x="-76.8" width="921.6" fill="#ffffff" y="-57.6" height="691.2" fill-opacity="1"/><rect x="-76.8" width="921.6" fill="#ffffff" y="-57.6" height="691.2" fill-opacity="1"/><path fill="#ffffff" d="M 433.929688 308.402344 C 431 300.550781 435.449219 296.8125 436.273438 291.035156 C 437.101562 285.253906 445.691406 262.53125 469.449219 256.734375 C 493.207031 250.9375 505.910156 251.769531 510.828125 264.179688 C 515.75 276.585938 515.328125 295.179688 504.679688 300.550781 C 494.03125 305.921875 461.777344 318.214844 456.339844 319.960938 C 444.867188 323.683594 436.097656 314.214844 433.929688 308.402344 Z M 433.929688 308.402344 " fill-opacity="1" fill-rule="nonzero"/><g clip-path="url(#262666259b)"><g clip-path="url(#a0cee6d210)"><g clip-path="url(#4588dc9cdc)"><g clip-path="url(#55a473d354)"><path fill="#010101" d="M 101.210938 210.179688 C 96.539062 209.5625 92.769531 206.332031 90.46875 202.324219 C 87.953125 197.738281 87.636719 192.542969 88.957031 187.609375 C 90.257812 182.792969 93.117188 178.574219 96.476562 174.996094 C 99.667969 171.621094 103.21875 168.738281 107.464844 166.902344 C 111.789062 164.964844 116.464844 164.050781 121.058594 163 C 122.664062 162.667969 127.527344 161.445312 126.871094 164.527344 C 126.664062 165.660156 126.046875 166.808594 125.675781 167.898438 C 125.210938 169.382812 124.859375 170.890625 124.441406 172.441406 C 124.078125 174.003906 123.714844 175.566406 123.238281 177.105469 C 122.777344 178.585938 122.132812 180.085938 121.617188 181.554688 C 120.789062 183.597656 120.027344 185.597656 119.1875 187.699219 C 118.492188 189.421875 117.855469 191.15625 117.105469 192.863281 C 115.75 195.90625 113.996094 198.910156 112.066406 201.640625 C 110.46875 203.976562 108.796875 206.351562 106.496094 208.171875 C 104.46875 209.820312 102.132812 210.511719 99.542969 210.027344 C 98.707031 209.832031 97.941406 209.59375 97.117188 209.34375 C 96.296875 209.09375 96.007812 210.324219 96.820312 210.628906 C 98.816406 211.386719 100.902344 211.757812 103.035156 211.429688 C 105.789062 210.949219 108.035156 208.882812 109.859375 206.835938 C 113.144531 203.066406 115.867188 198.699219 117.972656 194.183594 C 118.65625 192.753906 119.175781 191.285156 119.792969 189.898438 C 121.660156 185.152344 123.875 180.429688 125.15625 175.429688 C 125.953125 172.261719 126.679688 169.132812 127.863281 166.054688 C 128.210938 165.078125 128.527344 163.972656 128.066406 162.921875 C 127.648438 161.945312 126.628906 161.53125 125.652344 161.421875 C 122.96875 161.089844 120.097656 162.070312 117.5 162.644531 C 115.078125 163.199219 112.535156 163.785156 110.160156 164.644531 C 105.441406 166.253906 101.148438 168.785156 97.515625 172.296875 C 93.960938 175.707031 90.691406 179.65625 88.851562 184.289062 C 86.75 189.273438 86.175781 195.027344 87.964844 200.210938 C 89.550781 204.757812 92.863281 208.945312 97.476562 210.839844 C 98.550781 211.265625 99.75 211.664062 100.902344 211.757812 C 101.761719 211.601562 102.074219 210.261719 101.210938 210.179688 Z M 101.210938 210.179688 " fill-opacity="1" fill-rule="nonzero"/></g></g></g></g><g clip-path="url(#6b9b91370e)"><g clip-path="url(#beb6d643d2)"><g clip-path="url(#ae1216936b)"><g clip-path="url(#d2b0aad25f)"><path fill="#010101" d="M 121.011719 186.417969 C 125.113281 183.191406 129.210938 179.964844 133.308594 176.738281 C 134.183594 176 135.1875 175.234375 136.050781 174.550781 C 136.1875 174.464844 136.417969 174.226562 136.574219 174.320312 C 136.980469 174.59375 136.589844 176.265625 136.582031 176.558594 C 136.410156 178.050781 136.074219 179.5 135.679688 180.941406 C 133.984375 186.960938 130.460938 192.261719 126.625 197.140625 C 124.636719 199.621094 122.578125 201.90625 120.617188 204.277344 C 119.007812 206.140625 117.472656 208.195312 115.257812 209.386719 C 110.789062 211.9375 105.269531 211.417969 100.527344 209.84375 C 99.703125 209.59375 99.417969 210.820312 100.226562 211.128906 C 104.691406 212.636719 109.710938 213.039062 114.164062 211.308594 C 116.6875 210.308594 118.550781 208.621094 120.320312 206.5625 C 122.5 204.007812 124.710938 201.578125 126.847656 198.957031 C 131.039062 193.8125 134.796875 188.269531 136.75 181.894531 C 137.238281 180.300781 137.570312 178.613281 137.835938 176.96875 C 137.972656 175.882812 138.347656 174.261719 137.515625 173.304688 C 136.371094 172.15625 135.023438 173.664062 134.226562 174.304688 C 129.609375 177.996094 125.015625 181.578125 120.355469 185.203125 C 119.628906 185.800781 120.355469 186.96875 121.011719 186.417969 Z M 121.011719 186.417969 " fill-opacity="1" fill-rule="nonzero"/></g></g></g></g><g clip-path="url(#7d0a3de209)"><g clip-path="url(#ae2a32dd2c)"><g clip-path="url(#f99b856df0)"><g clip-path="url(#05e6e42234)"><path fill="#010101" d="M 128.40625 165.238281 C 129.480469 164.664062 131.328125 163.800781 132.417969 164.40625 C 133.105469 164.742188 133.203125 165.828125 133.257812 166.605469 C 133.273438 169.316406 132.277344 172.085938 131.289062 174.5625 C 130.957031 175.484375 130.5 176.441406 130.113281 177.351562 C 129.75 178.148438 130.910156 178.714844 131.316406 177.984375 C 132.402344 175.585938 133.390625 173.109375 134.042969 170.554688 C 134.578125 168.5 135.558594 164.550781 133.152344 163.28125 C 131.484375 162.367188 129.308594 163.390625 127.78125 164.152344 C 126.992188 164.5 127.675781 165.601562 128.40625 165.238281 Z M 128.40625 165.238281 " fill-opacity="1" fill-rule="nonzero"/></g></g></g></g><g clip-path="url(#0c21784ef7)"><g clip-path="url(#8c5c5d377f)"><g clip-path="url(#63ea875130)"><g clip-path="url(#bb23e9b8d1)"><path fill="#010101" d="M 109.210938 245.472656 C 115.230469 244.34375 121.300781 243.753906 127.40625 243.761719 C 128.949219 243.707031 130.460938 243.765625 131.976562 243.824219 C 132.667969 243.867188 133.433594 243.867188 134.070312 243.898438 C 134.765625 243.945312 135.792969 243.828125 136.230469 244.460938 C 136.996094 245.464844 136.582031 247.25 136.222656 248.285156 C 135.757812 249.53125 134.871094 250.558594 133.957031 251.464844 C 132.054688 253.320312 129.621094 254.695312 127.238281 255.847656 C 124.789062 257.042969 122.152344 258.019531 119.511719 258.757812 C 116.820312 259.484375 114.121094 259.976562 111.375 260.160156 C 108.617188 260.402344 105.5625 260.398438 103.558594 258.167969 C 101.972656 256.386719 101.367188 253.949219 100.761719 251.746094 C 99.996094 248.980469 99.382812 246.070312 100.992188 243.441406 C 102.410156 241.125 104.871094 239.636719 107.101562 238.390625 C 109.441406 237.167969 111.910156 236.152344 114.492188 235.402344 C 119.589844 233.9375 124.96875 233.542969 130.1875 234.34375 C 131.371094 234.558594 132.882812 234.617188 133.910156 235.503906 C 134.796875 236.238281 135.121094 237.375 135.164062 238.445312 C 135.179688 241.15625 132.992188 243.238281 131.089844 244.855469 C 126.71875 248.488281 121.785156 251.519531 116.617188 253.789062 C 114.136719 254.859375 111.488281 255.890625 108.75 255.785156 C 106.308594 255.6875 103.902344 254.65625 102.113281 253.003906 C 101.1875 252.199219 100.476562 251.210938 99.835938 250.179688 C 99.421875 249.433594 98.308594 250.175781 98.734375 250.863281 C 99.953125 253.207031 102.039062 255.105469 104.507812 256.09375 C 107.179688 257.242188 109.925781 257.292969 112.679688 256.582031 C 115.675781 255.804688 118.597656 254.367188 121.347656 252.886719 C 124.15625 251.421875 126.863281 249.636719 129.402344 247.816406 C 131.746094 246.066406 134.421875 244.15625 135.753906 241.464844 C 136.761719 239.40625 136.828125 236.59375 135.132812 234.789062 C 134.203125 233.746094 132.808594 233.421875 131.445312 233.222656 C 129.984375 232.941406 128.539062 232.839844 127.164062 232.699219 C 124.203125 232.539062 121.292969 232.6875 118.300781 233.167969 C 115.421875 233.675781 112.644531 234.5 109.929688 235.574219 C 107.269531 236.664062 104.597656 238.042969 102.378906 240 C 100.050781 241.929688 98.578125 244.472656 98.683594 247.554688 C 98.734375 249.097656 99.136719 250.664062 99.546875 252.171875 C 99.902344 253.429688 100.285156 254.816406 100.761719 256.042969 C 101.828125 258.527344 103.527344 260.574219 106.273438 261.386719 C 109.214844 262.132812 112.621094 261.628906 115.566406 261.078125 C 121.449219 260.035156 127.507812 257.96875 132.476562 254.535156 C 134.785156 252.953125 137.039062 250.828125 137.757812 247.996094 C 138.085938 246.835938 138.214844 245.277344 137.601562 244.132812 C 136.898438 242.851562 135.523438 242.707031 134.234375 242.699219 C 127.453125 242.300781 120.617188 242.652344 113.875 243.613281 C 112.238281 243.824219 110.59375 244.085938 108.917969 244.464844 C 108 244.367188 108.398438 245.695312 109.210938 245.472656 Z M 109.210938 245.472656 " fill-opacity="1" fill-rule="nonzero"/></g></g></g></g><g clip-path="url(#38a4dc062b)"><g clip-path="url(#44b672688c)"><g clip-path="url(#773bf2d1c1)"><g clip-path="url(#7ea1481da9)"><path fill="#010101" d="M 19.929688 414.640625 C 19.441406 401.578125 20.011719 388.527344 21.542969 375.640625 C 23.4375 359.421875 26.929688 343.402344 31.984375 327.980469 C 36.566406 314.09375 42.457031 300.632812 48.6875 287.484375 C 54.085938 275.910156 59.800781 264.46875 65.980469 253.308594 C 73.574219 239.59375 81.925781 226.175781 90.867188 213.246094 C 92.101562 211.472656 93.335938 209.699219 94.570312 207.929688 C 95.085938 207.222656 93.871094 206.648438 93.367188 207.296875 C 84.011719 220.480469 75.363281 234.183594 67.273438 248.253906 C 60.84375 259.472656 55.015625 270.886719 49.441406 282.480469 C 43.210938 295.628906 37.121094 308.925781 32.289062 322.636719 C 26.828125 338.023438 23.070312 353.921875 20.855469 370.007812 C 18.933594 383.566406 18.152344 397.277344 18.382812 410.925781 C 18.445312 412.175781 18.425781 413.527344 18.488281 414.777344 C 18.664062 415.523438 19.902344 415.519531 19.929688 414.640625 Z M 19.929688 414.640625 " fill-opacity="1" fill-rule="nonzero"/></g></g></g></g><g clip-path="url(#360a46b3a1)"><g clip-path="url(#908fdccebc)"><g clip-path="url(#15cad704bd)"><g clip-path="url(#af868ddca0)"><path fill="#010101" d="M 24.757812 355.257812 C 32.984375 339.335938 41.519531 323.605469 50.460938 308.144531 C 54.675781 300.886719 58.890625 293.625 63.359375 286.542969 C 67.488281 280.148438 72.082031 274.035156 77.480469 268.757812 C 84.191406 262.136719 91.917969 256.695312 100.34375 252.535156 C 101.074219 252.171875 100.460938 251.03125 99.660156 251.433594 C 92.113281 255.09375 85.140625 259.824219 78.941406 265.507812 C 73.128906 270.804688 68.199219 276.839844 63.792969 283.40625 C 59.304688 290.074219 55.324219 297.09375 51.242188 304.03125 C 46.554688 312.0625 41.910156 320.164062 37.484375 328.316406 C 32.699219 337.035156 28.078125 345.789062 23.496094 354.609375 C 23.203125 355.367188 24.339844 356.042969 24.757812 355.257812 Z M 24.757812 355.257812 " fill-opacity="1" fill-rule="nonzero"/></g></g></g></g><g clip-path="url(#2616db94ae)"><g clip-path="url(#f0080f1ced)"><g clip-path="url(#b2352107ea)"><g clip-path="url(#ce7b4e1779)"><path fill="#010101" d="M 21.75 364.152344 C 21.871094 351.761719 20.191406 339.539062 18.746094 327.3125 C 17.277344 315.199219 15.957031 302.945312 16.707031 290.640625 C 17.546875 277.179688 21.660156 264.304688 25.632812 251.515625 C 27.695312 244.929688 29.824219 238.304688 31.996094 231.746094 C 34.140625 225.300781 36.496094 218.960938 38.710938 212.472656 C 40.753906 206.472656 42.609375 200.253906 42.980469 193.867188 C 43.21875 188.800781 42.980469 181.503906 37.609375 179.078125 C 36.5625 178.539062 35.296875 178.421875 34.078125 178.609375 C 33.773438 178.65625 33.5 178.828125 33.488281 179.121094 C 33.15625 181.808594 33.601562 184.445312 34.171875 187.046875 C 34.855469 189.914062 35.441406 192.699219 36.082031 195.496094 C 37.394531 201.21875 38.648438 206.925781 39.960938 212.644531 C 42.5625 224.199219 45.1875 235.640625 47.785156 247.191406 C 50.394531 258.6875 53.019531 270.128906 55.578125 281.613281 C 57.699219 291.171875 58.261719 301.132812 56.777344 310.792969 C 56.128906 315.351562 54.976562 319.789062 53.558594 324.109375 C 52.6875 326.851562 51.757812 329.578125 50.511719 332.171875 C 49.234375 334.875 47.652344 337.390625 45.957031 339.882812 C 44.53125 341.964844 43.023438 343.910156 41.414062 345.769531 C 40.527344 346.800781 39.574219 347.875 38.644531 348.835938 C 37.949219 349.554688 36.765625 351.105469 35.785156 351.289062 C 34.328125 351.480469 34.316406 349.003906 34.511719 348.167969 C 34.769531 346.816406 35.457031 345.621094 36.1875 344.496094 C 37.640625 342.304688 39.285156 340.273438 40.890625 338.175781 C 44.03125 334.019531 47.351562 329.847656 50.898438 325.964844 C 56.980469 319.257812 63.980469 313.410156 71.71875 308.675781 C 88.429688 298.4375 107.921875 293.4375 127.511719 293.816406 C 129.09375 293.832031 130.71875 293.914062 132.34375 294 C 132.980469 294.03125 133.148438 293.066406 132.640625 292.714844 C 127.605469 290.128906 122.117188 295.035156 118.289062 297.851562 C 113.609375 301.296875 108.988281 304.75 104.453125 308.347656 C 95.324219 315.523438 86.222656 322.824219 76.511719 329.214844 C 71.046875 332.769531 65.394531 336.105469 59.511719 338.917969 C 58.785156 339.277344 59.410156 340.363281 60.195312 340.015625 C 70.375 335.144531 79.769531 328.855469 88.851562 322.140625 C 97.886719 315.355469 106.683594 308.101562 115.765625 301.382812 C 118.261719 299.492188 120.796875 297.667969 123.378906 295.914062 C 125.878906 294.261719 129.125 292.425781 132.132812 293.890625 C 132.238281 293.445312 132.328125 293.054688 132.429688 292.605469 C 124.207031 292.105469 116.023438 292.4375 107.898438 293.785156 C 97.085938 295.566406 86.625 299.136719 76.921875 304.238281 C 68.882812 308.488281 61.238281 313.832031 54.691406 320.253906 C 50.753906 324.046875 47.1875 328.277344 43.855469 332.507812 C 42.113281 334.691406 40.414062 336.945312 38.726562 339.140625 C 37.191406 341.199219 35.378906 343.1875 34.304688 345.53125 C 33.402344 347.378906 32.792969 350.003906 34.265625 351.757812 C 35.917969 353.734375 38.078125 351.527344 39.304688 350.285156 C 42.84375 346.691406 46.027344 342.605469 48.777344 338.359375 C 50.039062 336.476562 51.28125 334.410156 52.179688 332.324219 C 53.679688 328.90625 54.9375 325.257812 56.003906 321.679688 C 58.96875 311.714844 59.910156 301.101562 58.800781 290.722656 C 58.273438 286.183594 57.269531 281.652344 56.253906 277.179688 C 54.941406 271.222656 53.554688 265.308594 52.183594 259.339844 C 49.507812 247.355469 46.75 235.472656 44.078125 223.492188 C 41.402344 211.507812 38.644531 199.625 35.96875 187.644531 C 35.386719 184.859375 34.632812 182.035156 35.113281 179.203125 C 34.964844 179.347656 34.675781 179.574219 34.527344 179.714844 C 37.40625 179.207031 39.894531 181.375 40.949219 183.917969 C 42.074219 186.652344 42.167969 189.792969 42.074219 192.714844 C 41.953125 199.042969 40.152344 205.273438 38.121094 211.21875 C 36 217.550781 33.671875 223.777344 31.566406 230.058594 C 29.433594 236.449219 27.355469 242.851562 25.332031 249.265625 C 21.410156 261.832031 17.285156 274.527344 16.0625 287.605469 C 14.988281 299.539062 16.082031 311.507812 17.464844 323.484375 C 18.847656 335.460938 20.59375 347.402344 20.839844 359.464844 C 20.894531 361.007812 20.847656 362.46875 20.84375 364 C 20.417969 365.078125 21.734375 364.972656 21.75 364.152344 Z M 21.75 364.152344 " fill-opacity="1" fill-rule="nonzero"/></g></g></g></g><path fill="#777cbb" d="M 30.441406 92.976562 C 32.480469 98.449219 32.558594 102.300781 31.652344 105.609375 C 31.367188 106.636719 30.257812 110.285156 25.9375 114.425781 C 19.910156 120.203125 8.394531 126.21875 -0.28125 124.96875 L -0.28125 169.242188 C 10.519531 168.589844 23.617188 164.652344 34.367188 157.328125 C 39.3125 153.964844 51.394531 145.742188 55.738281 130.855469 C 58.375 121.816406 57.257812 113.429688 56.257812 105.945312 C 55.375 99.359375 54.472656 98.257812 50.542969 83.460938 C 46.316406 67.519531 44.207031 59.429688 44.484375 53.875 C 44.65625 50.304688 45.277344 37.792969 54.1875 27.574219 C 62.570312 17.953125 73.644531 15.714844 83.46875 13.734375 C 101.902344 10.007812 117.378906 13.6875 127.996094 16.328125 C 139.125 19.09375 136.992188 20.054688 157.796875 26.539062 C 181.277344 33.855469 189.359375 34.304688 196.429688 33.628906 C 203.378906 32.96875 212.273438 31.984375 219.121094 25.148438 C 225.136719 19.140625 226.519531 11.667969 227.433594 6.289062 C 227.433594 6.289062 227.84375 3.878906 227.992188 0.00390625 L -0.273438 0.00390625 L -0.273438 57.59375 C 2.105469 59.933594 5.472656 63.28125 10.351562 68.054688 C 21.875 79.339844 27.164062 84.191406 30.441406 92.976562 Z M 30.441406 92.976562 " fill-opacity="1" fill-rule="nonzero"/><g clip-path="url(#49df06f144)"><path fill="#caaacd" d="M 57.289062 197.167969 C 76.179688 190.457031 89.105469 180.65625 93.671875 169.574219 C 94.15625 168.394531 98.410156 157.632812 98.132812 143.15625 C 98.03125 137.757812 97.085938 129.792969 87.199219 103.550781 C 85.058594 97.875 83.257812 93.347656 81.667969 89.347656 C 77.085938 77.832031 74.777344 72.054688 73.773438 61.882812 C 73.046875 54.566406 73.332031 48.453125 74.628906 43.71875 C 75.683594 39.851562 77.15625 37.777344 78.171875 36.558594 C 80.925781 33.25 84.71875 30.789062 89.460938 29.25 C 93.246094 28.023438 96.628906 27.726562 98.070312 27.589844 C 99.007812 27.503906 99.917969 27.464844 100.816406 27.464844 C 107.40625 27.464844 112.921875 29.609375 119.691406 32.234375 C 126.296875 34.796875 130.40625 37.203125 136.617188 40.84375 C 137.960938 41.628906 139.347656 42.445312 140.90625 43.34375 C 155.679688 51.878906 163.09375 56.160156 167.132812 57.480469 C 183.804688 62.921875 199.230469 59.769531 210.503906 57.464844 C 215.34375 56.476562 222.664062 54.984375 231.519531 50.933594 C 237.046875 48.402344 253.867188 40.710938 262.5 26.5625 C 262.523438 26.515625 265.296875 21.917969 267.066406 14.015625 C 267.882812 10.371094 268.570312 5.621094 268.546875 0.00390625 L 269.695312 0.00390625 C 269.71875 4.875 269.207031 9.671875 268.175781 14.261719 C 266.367188 22.339844 263.59375 26.953125 263.476562 27.144531 C 259.070312 34.367188 252.597656 39.929688 246.53125 44.003906 C 240.460938 48.082031 234.792969 50.667969 231.992188 51.957031 C 223.019531 56.058594 215.628906 57.570312 210.730469 58.574219 C 205.261719 59.691406 198.445312 61.082031 190.976562 61.492188 C 182.199219 61.960938 174.289062 61.011719 166.785156 58.558594 C 162.628906 57.207031 155.183594 52.898438 140.347656 44.324219 C 138.789062 43.421875 137.394531 42.613281 136.050781 41.816406 C 129.886719 38.210938 125.808594 35.820312 119.292969 33.289062 C 111.445312 30.238281 105.777344 28.039062 98.179688 28.714844 C 89.570312 29.476562 83.128906 32.355469 79.046875 37.28125 C 75.140625 41.976562 73.746094 50.21875 74.898438 61.78125 C 75.898438 71.796875 78.179688 77.523438 82.722656 88.9375 C 84.3125 92.9375 86.121094 97.472656 88.261719 103.15625 C 98.21875 129.566406 99.164062 137.636719 99.273438 143.132812 C 99.382812 148.671875 98.847656 154.300781 97.691406 159.859375 C 96.574219 165.226562 95.246094 168.738281 94.726562 169.996094 C 92.332031 175.796875 87.75 181.246094 81.09375 186.203125 C 74.777344 190.90625 66.898438 194.953125 57.675781 198.230469 C 43.082031 203.417969 26.125 206.230469 9.660156 206.230469 C 8.777344 206.230469 7.898438 206.222656 7.023438 206.207031 C 4.558594 206.160156 2.121094 206.050781 -0.28125 205.886719 L -0.28125 204.800781 C 20.238281 206.246094 41.082031 202.921875 57.289062 197.167969 Z M 57.289062 197.167969 " fill-opacity="1" fill-rule="nonzero"/></g><g clip-path="url(#a7dafb3b8c)"><path fill="#777cbb" d="M 734.738281 474.226562 C 732.511719 468.238281 732.425781 464.023438 733.414062 460.402344 C 733.726562 459.273438 734.9375 455.28125 739.652344 450.746094 C 746.234375 444.425781 758.808594 437.84375 768.277344 439.210938 L 768.277344 390.75 C 756.488281 391.464844 742.1875 395.773438 730.453125 403.792969 C 725.054688 407.472656 711.863281 416.472656 707.121094 432.765625 C 704.242188 442.660156 705.464844 451.839844 706.554688 460.03125 C 707.515625 467.238281 708.503906 468.445312 712.792969 484.644531 C 717.40625 502.089844 719.710938 510.945312 719.410156 517.027344 C 719.21875 520.933594 718.542969 534.628906 708.816406 545.8125 C 699.664062 556.34375 687.574219 558.792969 676.847656 560.960938 C 656.726562 565.039062 639.832031 561.015625 628.238281 558.125 C 616.089844 555.09375 618.417969 554.046875 595.707031 546.949219 C 570.074219 538.9375 561.25 538.449219 553.535156 539.1875 C 545.945312 539.910156 536.238281 540.984375 528.761719 548.472656 C 522.195312 555.042969 520.683594 563.226562 519.6875 569.109375 C 519.6875 569.109375 519.242188 571.75 519.078125 575.992188 L 768.269531 575.992188 L 768.269531 512.957031 C 765.671875 510.394531 761.996094 506.726562 756.667969 501.507812 C 744.089844 489.152344 738.3125 483.84375 734.738281 474.226562 Z M 734.738281 474.226562 " fill-opacity="1" fill-rule="nonzero"/></g><g clip-path="url(#0d9a0a5e1b)"><path fill="#caaacd" d="M 705.429688 360.183594 C 684.804688 367.53125 670.695312 378.257812 665.714844 390.386719 C 665.179688 391.679688 660.539062 403.457031 660.839844 419.304688 C 660.953125 425.214844 661.984375 433.929688 672.777344 462.65625 C 675.113281 468.867188 677.082031 473.820312 678.816406 478.199219 C 683.816406 490.804688 686.335938 497.128906 687.4375 508.261719 C 688.226562 516.269531 687.917969 522.960938 686.5 528.140625 C 685.347656 532.375 683.742188 534.644531 682.632812 535.980469 C 679.625 539.601562 675.484375 542.292969 670.308594 543.980469 C 666.175781 545.320312 662.480469 545.648438 660.910156 545.796875 C 659.886719 545.890625 658.890625 545.933594 657.910156 545.933594 C 650.71875 545.933594 644.695312 543.585938 637.304688 540.710938 C 630.097656 537.90625 625.609375 535.273438 618.832031 531.289062 C 617.363281 530.429688 615.847656 529.535156 614.148438 528.554688 C 598.019531 519.210938 589.925781 514.523438 585.515625 513.078125 C 567.316406 507.125 550.476562 510.574219 538.171875 513.09375 C 532.886719 514.179688 524.894531 515.8125 515.226562 520.242188 C 509.195312 523.015625 490.832031 531.4375 481.40625 546.921875 C 481.378906 546.972656 478.355469 552.007812 476.421875 560.652344 C 475.527344 564.644531 474.78125 569.839844 474.808594 575.992188 L 473.550781 575.992188 C 473.527344 570.660156 474.085938 565.410156 475.210938 560.386719 C 477.1875 551.542969 480.210938 546.492188 480.339844 546.285156 C 485.152344 538.378906 492.214844 532.289062 498.839844 527.832031 C 505.464844 523.367188 511.652344 520.535156 514.710938 519.125 C 524.507812 514.632812 532.578125 512.984375 537.921875 511.882812 C 543.894531 510.660156 551.335938 509.136719 559.488281 508.691406 C 569.070312 508.171875 577.707031 509.214844 585.894531 511.898438 C 590.433594 513.378906 598.558594 518.09375 614.757812 527.480469 C 616.460938 528.46875 617.980469 529.355469 619.449219 530.222656 C 626.179688 534.171875 630.628906 536.789062 637.742188 539.558594 C 646.3125 542.894531 652.496094 545.304688 660.789062 544.566406 C 670.191406 543.730469 677.21875 540.582031 681.679688 535.1875 C 685.941406 530.050781 687.460938 521.027344 686.207031 508.371094 C 685.117188 497.410156 682.625 491.140625 677.664062 478.648438 C 675.929688 474.269531 673.953125 469.304688 671.617188 463.085938 C 660.746094 434.179688 659.714844 425.34375 659.59375 419.328125 C 659.476562 413.265625 660.058594 407.105469 661.324219 401.023438 C 662.542969 395.144531 663.996094 391.300781 664.5625 389.921875 C 667.175781 383.574219 672.175781 377.613281 679.445312 372.183594 C 686.335938 367.039062 694.9375 362.609375 705.007812 359.019531 C 720.9375 353.34375 739.449219 350.261719 757.425781 350.261719 C 758.386719 350.261719 759.347656 350.273438 760.300781 350.289062 C 762.992188 350.339844 765.65625 350.460938 768.277344 350.640625 L 768.277344 351.828125 C 745.875 350.246094 723.121094 353.886719 705.429688 360.183594 Z M 705.429688 360.183594 " fill-opacity="1" fill-rule="nonzero"/></g></svg>