<svg xmlns="http://www.w3.org/2000/svg" xmlns:xlink="http://www.w3.org/1999/xlink" width="1366" zoomAndPan="magnify" viewBox="0 0 1024.5 576" height="768" preserveAspectRatio="xMidYMid meet" version="1.0"><defs><g/><clipPath id="d4247f0330"><path d="M 0 0.140625 L 1024 0.140625 L 1024 575.859375 L 0 575.859375 Z M 0 0.140625 " clip-rule="nonzero"/></clipPath><clipPath id="db71baeb80"><path d="M 462.210938 158.453125 L 531.960938 158.453125 L 531.960938 321.953125 L 462.210938 321.953125 Z M 462.210938 158.453125 " clip-rule="nonzero"/></clipPath></defs><g clip-path="url(#d4247f0330)"><path fill="#ffffff" d="M 0 0.140625 L 1024.5 0.140625 L 1024.5 576.140625 L 0 576.140625 Z M 0 0.140625 " fill-opacity="1" fill-rule="nonzero"/><path fill="#ffffff" d="M 0 0.140625 L 1024.5 0.140625 L 1024.5 576.140625 L 0 576.140625 Z M 0 0.140625 " fill-opacity="1" fill-rule="nonzero"/></g><g fill="#373d3b" fill-opacity="1"><g transform="translate(390.823509, 76.740517)"><g><path d="M 14.09375 0 L 10.59375 0 L 9.703125 -2.796875 L 4.296875 -2.796875 L 3.40625 0 L -0.09375 0 L 4.703125 -14 L 9.296875 -14 Z M 6.796875 -10.59375 L 5.203125 -5.59375 L 8.796875 -5.59375 L 7.203125 -10.59375 Z M 6.796875 -10.59375 "/></g></g></g><g fill="#373d3b" fill-opacity="1"><g transform="translate(410.977991, 76.740517)"><g><path d="M 13 0 L 9.015625 0 L 5.09375 -4.5 L 4.59375 -4.5 L 4.59375 0 L 1.40625 0 L 1.40625 -14 L 8.015625 -14 C 8.910156 -14 9.703125 -13.796875 10.390625 -13.390625 C 11.085938 -12.984375 11.628906 -12.414062 12.015625 -11.6875 C 12.398438 -10.957031 12.59375 -10.113281 12.59375 -9.15625 C 12.59375 -8.332031 12.421875 -7.578125 12.078125 -6.890625 C 11.742188 -6.203125 11.289062 -5.65625 10.71875 -5.25 C 10.144531 -4.84375 9.519531 -4.617188 8.84375 -4.578125 Z M 4.59375 -7.40625 L 7.84375 -7.40625 C 8.28125 -7.40625 8.648438 -7.570312 8.953125 -7.90625 C 9.253906 -8.25 9.40625 -8.679688 9.40625 -9.203125 C 9.40625 -9.722656 9.253906 -10.148438 8.953125 -10.484375 C 8.648438 -10.828125 8.28125 -11 7.84375 -11 L 4.59375 -11 Z M 4.59375 -7.40625 "/></g></g></g><g fill="#373d3b" fill-opacity="1"><g transform="translate(430.73264, 76.740517)"><g><path d="M 14.09375 0 L 10.59375 0 L 9.703125 -2.796875 L 4.296875 -2.796875 L 3.40625 0 L -0.09375 0 L 4.703125 -14 L 9.296875 -14 Z M 6.796875 -10.59375 L 5.203125 -5.59375 L 8.796875 -5.59375 L 7.203125 -10.59375 Z M 6.796875 -10.59375 "/></g></g></g><g fill="#373d3b" fill-opacity="1"><g transform="translate(450.88712, 76.740517)"><g><path d="M 8 0 L 4.796875 0 L 4.796875 -4.5 L -0.296875 -14 L 3.296875 -14 L 6.203125 -8.40625 L 6.59375 -8.40625 L 9.5 -14 L 13.09375 -14 L 8 -4.5 Z M 8 0 "/></g></g></g><g fill="#373d3b" fill-opacity="1"><g transform="translate(469.842082, 76.740517)"><g><path d="M 4.59375 0 L 1.40625 0 L 1.40625 -14 L 5.296875 -14 L 9.703125 -5.59375 L 10.09375 -5.59375 L 10.09375 -14 L 13.296875 -14 L 13.296875 0 L 9.40625 0 L 5 -8.40625 L 4.59375 -8.40625 Z M 4.59375 0 "/></g></g></g><g fill="#373d3b" fill-opacity="1"><g transform="translate(490.696293, 76.740517)"><g><path d="M 14.09375 0 L 10.59375 0 L 9.703125 -2.796875 L 4.296875 -2.796875 L 3.40625 0 L -0.09375 0 L 4.703125 -14 L 9.296875 -14 Z M 6.796875 -10.59375 L 5.203125 -5.59375 L 8.796875 -5.59375 L 7.203125 -10.59375 Z M 6.796875 -10.59375 "/></g></g></g><g fill="#373d3b" fill-opacity="1"><g transform="translate(510.850778, 76.740517)"><g/></g></g><g fill="#373d3b" fill-opacity="1"><g transform="translate(522.408657, 76.740517)"><g><path d="M 6.40625 0.203125 C 5.195312 0.203125 4.15625 -0.00390625 3.28125 -0.421875 C 2.414062 -0.835938 1.75 -1.40625 1.28125 -2.125 C 0.820312 -2.851562 0.59375 -3.671875 0.59375 -4.578125 L 3.796875 -4.578125 C 3.796875 -4.003906 4.019531 -3.53125 4.46875 -3.15625 C 4.925781 -2.78125 5.570312 -2.59375 6.40625 -2.59375 C 7.195312 -2.59375 7.789062 -2.734375 8.1875 -3.015625 C 8.59375 -3.296875 8.796875 -3.65625 8.796875 -4.09375 C 8.796875 -4.46875 8.640625 -4.78125 8.328125 -5.03125 C 8.023438 -5.28125 7.515625 -5.46875 6.796875 -5.59375 L 4.59375 -6 C 3.34375 -6.226562 2.414062 -6.660156 1.8125 -7.296875 C 1.207031 -7.941406 0.90625 -8.8125 0.90625 -9.90625 C 0.90625 -10.71875 1.113281 -11.445312 1.53125 -12.09375 C 1.945312 -12.738281 2.550781 -13.25 3.34375 -13.625 C 4.144531 -14.007812 5.097656 -14.203125 6.203125 -14.203125 C 7.398438 -14.203125 8.425781 -14 9.28125 -13.59375 C 10.144531 -13.1875 10.796875 -12.617188 11.234375 -11.890625 C 11.679688 -11.171875 11.90625 -10.34375 11.90625 -9.40625 L 8.703125 -9.40625 C 8.703125 -9.957031 8.472656 -10.425781 8.015625 -10.8125 C 7.566406 -11.207031 6.960938 -11.40625 6.203125 -11.40625 C 5.535156 -11.40625 5.015625 -11.257812 4.640625 -10.96875 C 4.273438 -10.6875 4.09375 -10.332031 4.09375 -9.90625 C 4.09375 -9.539062 4.21875 -9.257812 4.46875 -9.0625 C 4.71875 -8.875 5.160156 -8.71875 5.796875 -8.59375 L 8 -8.203125 C 9.394531 -7.941406 10.410156 -7.492188 11.046875 -6.859375 C 11.679688 -6.222656 12 -5.300781 12 -4.09375 C 12 -3.28125 11.785156 -2.546875 11.359375 -1.890625 C 10.929688 -1.242188 10.296875 -0.734375 9.453125 -0.359375 C 8.617188 0.015625 7.601562 0.203125 6.40625 0.203125 Z M 6.40625 0.203125 "/></g></g></g><g fill="#373d3b" fill-opacity="1"><g transform="translate(541.363619, 76.740517)"><g><path d="M 14.09375 0 L 10.59375 0 L 9.703125 -2.796875 L 4.296875 -2.796875 L 3.40625 0 L -0.09375 0 L 4.703125 -14 L 9.296875 -14 Z M 6.796875 -10.59375 L 5.203125 -5.59375 L 8.796875 -5.59375 L 7.203125 -10.59375 Z M 6.796875 -10.59375 "/></g></g></g><g fill="#373d3b" fill-opacity="1"><g transform="translate(561.518104, 76.740517)"><g><path d="M 3.5 0 L -0.296875 0 L 4.40625 -7.203125 L 0 -14 L 3.796875 -14 L 6.296875 -9.796875 L 6.703125 -9.796875 L 9.203125 -14 L 13 -14 L 8.59375 -7.203125 L 13.296875 0 L 9.5 0 L 6.703125 -4.5 L 6.296875 -4.5 Z M 3.5 0 "/></g></g></g><g fill="#373d3b" fill-opacity="1"><g transform="translate(580.672982, 76.740517)"><g><path d="M 11 0 L 1.40625 0 L 1.40625 -14 L 11 -14 L 11 -11.09375 L 4.59375 -11.09375 L 4.59375 -8.40625 L 10.59375 -8.40625 L 10.59375 -5.59375 L 4.59375 -5.59375 L 4.59375 -2.90625 L 11 -2.90625 Z M 11 0 "/></g></g></g><g fill="#373d3b" fill-opacity="1"><g transform="translate(598.828253, 76.740517)"><g><path d="M 4.59375 0 L 1.40625 0 L 1.40625 -14 L 5.296875 -14 L 9.703125 -5.59375 L 10.09375 -5.59375 L 10.09375 -14 L 13.296875 -14 L 13.296875 0 L 9.40625 0 L 5 -8.40625 L 4.59375 -8.40625 Z M 4.59375 0 "/></g></g></g><g fill="#373d3b" fill-opacity="1"><g transform="translate(619.682453, 76.740517)"><g><path d="M 14.09375 0 L 10.59375 0 L 9.703125 -2.796875 L 4.296875 -2.796875 L 3.40625 0 L -0.09375 0 L 4.703125 -14 L 9.296875 -14 Z M 6.796875 -10.59375 L 5.203125 -5.59375 L 8.796875 -5.59375 L 7.203125 -10.59375 Z M 6.796875 -10.59375 "/></g></g></g><g fill="#373d3b" fill-opacity="1"><g transform="translate(446.792253, 104.490514)"><g><path d="M 8 0 L 4.796875 0 L 4.796875 -4.5 L -0.296875 -14 L 3.296875 -14 L 6.203125 -8.40625 L 6.59375 -8.40625 L 9.5 -14 L 13.09375 -14 L 8 -4.5 Z M 8 0 "/></g></g></g><g fill="#373d3b" fill-opacity="1"><g transform="translate(465.747211, 104.490514)"><g><path d="M 7.59375 0.203125 C 6.34375 0.203125 5.195312 -0.101562 4.15625 -0.71875 C 3.113281 -1.34375 2.289062 -2.203125 1.6875 -3.296875 C 1.09375 -4.390625 0.796875 -5.625 0.796875 -7 C 0.796875 -8.375 1.09375 -9.609375 1.6875 -10.703125 C 2.289062 -11.796875 3.113281 -12.648438 4.15625 -13.265625 C 5.195312 -13.890625 6.34375 -14.203125 7.59375 -14.203125 C 8.851562 -14.203125 10 -13.890625 11.03125 -13.265625 C 12.070312 -12.648438 12.894531 -11.796875 13.5 -10.703125 C 14.101562 -9.609375 14.40625 -8.375 14.40625 -7 C 14.40625 -5.625 14.101562 -4.390625 13.5 -3.296875 C 12.894531 -2.203125 12.070312 -1.34375 11.03125 -0.71875 C 10 -0.101562 8.851562 0.203125 7.59375 0.203125 Z M 7.59375 -2.90625 C 8.257812 -2.90625 8.863281 -3.070312 9.40625 -3.40625 C 9.957031 -3.75 10.394531 -4.226562 10.71875 -4.84375 C 11.039062 -5.46875 11.203125 -6.1875 11.203125 -7 C 11.203125 -7.8125 11.039062 -8.523438 10.71875 -9.140625 C 10.394531 -9.765625 9.957031 -10.242188 9.40625 -10.578125 C 8.863281 -10.921875 8.257812 -11.09375 7.59375 -11.09375 C 6.925781 -11.09375 6.316406 -10.921875 5.765625 -10.578125 C 5.222656 -10.242188 4.789062 -9.765625 4.46875 -9.140625 C 4.15625 -8.523438 4 -7.8125 4 -7 C 4 -6.1875 4.15625 -5.46875 4.46875 -4.84375 C 4.789062 -4.226562 5.222656 -3.75 5.765625 -3.40625 C 6.316406 -3.070312 6.925781 -2.90625 7.59375 -2.90625 Z M 7.59375 -2.90625 "/></g></g></g><g fill="#373d3b" fill-opacity="1"><g transform="translate(487.101229, 104.490514)"><g><path d="M 7.203125 0.203125 C 6.015625 0.203125 4.972656 -0.0390625 4.078125 -0.53125 C 3.179688 -1.019531 2.492188 -1.710938 2.015625 -2.609375 C 1.535156 -3.503906 1.296875 -4.566406 1.296875 -5.796875 L 1.296875 -14 L 4.5 -14 L 4.5 -5.796875 C 4.5 -5.234375 4.617188 -4.734375 4.859375 -4.296875 C 5.097656 -3.859375 5.421875 -3.515625 5.828125 -3.265625 C 6.242188 -3.023438 6.703125 -2.90625 7.203125 -2.90625 C 7.691406 -2.90625 8.144531 -3.023438 8.5625 -3.265625 C 8.976562 -3.515625 9.304688 -3.859375 9.546875 -4.296875 C 9.785156 -4.734375 9.90625 -5.234375 9.90625 -5.796875 L 9.90625 -14 L 13.09375 -14 L 13.09375 -5.796875 C 13.09375 -4.566406 12.851562 -3.503906 12.375 -2.609375 C 11.894531 -1.710938 11.207031 -1.019531 10.3125 -0.53125 C 9.425781 -0.0390625 8.390625 0.203125 7.203125 0.203125 Z M 7.203125 0.203125 "/></g></g></g><g fill="#373d3b" fill-opacity="1"><g transform="translate(507.655553, 104.490514)"><g><path d="M 7.5 0 L 4.296875 0 L 4.296875 -10.90625 L 0.40625 -10.90625 L 0.40625 -14 L 11.40625 -14 L 11.40625 -10.90625 L 7.5 -10.90625 Z M 7.5 0 "/></g></g></g><g fill="#373d3b" fill-opacity="1"><g transform="translate(525.610908, 104.490514)"><g><path d="M 7.203125 0.203125 C 6.015625 0.203125 4.972656 -0.0390625 4.078125 -0.53125 C 3.179688 -1.019531 2.492188 -1.710938 2.015625 -2.609375 C 1.535156 -3.503906 1.296875 -4.566406 1.296875 -5.796875 L 1.296875 -14 L 4.5 -14 L 4.5 -5.796875 C 4.5 -5.234375 4.617188 -4.734375 4.859375 -4.296875 C 5.097656 -3.859375 5.421875 -3.515625 5.828125 -3.265625 C 6.242188 -3.023438 6.703125 -2.90625 7.203125 -2.90625 C 7.691406 -2.90625 8.144531 -3.023438 8.5625 -3.265625 C 8.976562 -3.515625 9.304688 -3.859375 9.546875 -4.296875 C 9.785156 -4.734375 9.90625 -5.234375 9.90625 -5.796875 L 9.90625 -14 L 13.09375 -14 L 13.09375 -5.796875 C 13.09375 -4.566406 12.851562 -3.503906 12.375 -2.609375 C 11.894531 -1.710938 11.207031 -1.019531 10.3125 -0.53125 C 9.425781 -0.0390625 8.390625 0.203125 7.203125 0.203125 Z M 7.203125 0.203125 "/></g></g></g><g fill="#373d3b" fill-opacity="1"><g transform="translate(546.165238, 104.490514)"><g><path d="M 1.40625 0 L 1.40625 -14 L 8.203125 -14 C 9.023438 -14 9.742188 -13.832031 10.359375 -13.5 C 10.984375 -13.175781 11.460938 -12.71875 11.796875 -12.125 C 12.128906 -11.53125 12.296875 -10.851562 12.296875 -10.09375 C 12.296875 -9.414062 12.140625 -8.8125 11.828125 -8.28125 C 11.523438 -7.75 11.179688 -7.351562 10.796875 -7.09375 L 10.796875 -7 C 11.234375 -6.757812 11.625 -6.359375 11.96875 -5.796875 C 12.320312 -5.234375 12.5 -4.601562 12.5 -3.90625 C 12.5 -3.144531 12.332031 -2.46875 12 -1.875 C 11.664062 -1.28125 11.1875 -0.816406 10.5625 -0.484375 C 9.945312 -0.160156 9.226562 0 8.40625 0 Z M 7.703125 -8.40625 C 8.097656 -8.40625 8.425781 -8.535156 8.6875 -8.796875 C 8.957031 -9.066406 9.09375 -9.398438 9.09375 -9.796875 C 9.09375 -10.203125 8.957031 -10.535156 8.6875 -10.796875 C 8.425781 -11.066406 8.097656 -11.203125 7.703125 -11.203125 L 4.59375 -11.203125 L 4.59375 -8.40625 Z M 7.90625 -2.796875 C 8.300781 -2.796875 8.628906 -2.925781 8.890625 -3.1875 C 9.160156 -3.457031 9.296875 -3.796875 9.296875 -4.203125 C 9.296875 -4.597656 9.160156 -4.925781 8.890625 -5.1875 C 8.628906 -5.457031 8.300781 -5.59375 7.90625 -5.59375 L 4.59375 -5.59375 L 4.59375 -2.796875 Z M 7.90625 -2.796875 "/></g></g></g><g fill="#373d3b" fill-opacity="1"><g transform="translate(565.719962, 104.490514)"><g><path d="M 11 0 L 1.40625 0 L 1.40625 -14 L 11 -14 L 11 -11.09375 L 4.59375 -11.09375 L 4.59375 -8.40625 L 10.59375 -8.40625 L 10.59375 -5.59375 L 4.59375 -5.59375 L 4.59375 -2.90625 L 11 -2.90625 Z M 11 0 "/></g></g></g><g clip-path="url(#db71baeb80)"><path fill="#a67aa9" d="M 531.722656 209.9375 C 531.546875 209.8125 531.300781 209.832031 531.148438 209.984375 C 531.117188 210.015625 528.1875 212.925781 525.46875 214.078125 C 524.125 214.75 522.660156 215.605469 521.425781 216.925781 C 522.152344 213.957031 522.796875 211.011719 523.414062 208.199219 L 523.476562 207.914062 C 523.699219 207.242188 524.207031 205.753906 524.921875 205.515625 C 525.070312 205.488281 525.214844 205.484375 525.367188 205.476562 C 525.636719 205.464844 525.941406 205.449219 526.289062 205.316406 C 527.070312 205.085938 527.707031 204.632812 528.109375 204.027344 C 528.859375 203.070312 529.15625 202.292969 529.449219 201.195312 C 529.605469 200.59375 529.835938 199.84375 530.039062 199.183594 C 530.253906 198.484375 530.421875 197.933594 530.476562 197.675781 C 530.503906 197.53125 530.457031 197.386719 530.359375 197.285156 C 530.425781 196.65625 530.496094 196.011719 530.625 195.402344 C 530.695312 195.160156 530.742188 194.910156 530.792969 194.667969 C 530.839844 194.433594 530.882812 194.214844 530.941406 194.007812 C 530.984375 193.855469 531.023438 193.707031 531.050781 193.554688 C 531.179688 193.492188 531.28125 193.375 531.300781 193.222656 C 531.320312 193.085938 531.355469 192.953125 531.386719 192.820312 C 531.460938 192.503906 531.546875 192.144531 531.488281 191.753906 C 531.390625 191.183594 530.972656 190.878906 530.640625 190.636719 C 530.546875 190.566406 530.449219 190.5 530.371094 190.425781 C 530.25 190.316406 530.09375 190.292969 529.949219 190.332031 C 529.925781 190.324219 529.90625 190.3125 529.882812 190.304688 C 529.710938 190.253906 529.4375 190.25 529.15625 190.503906 C 528.910156 190.703125 528.75 190.953125 528.605469 191.171875 C 528.503906 191.324219 528.410156 191.46875 528.277344 191.601562 C 528.09375 191.808594 527.84375 192.042969 527.558594 192.261719 C 527.316406 192.441406 527.0625 192.617188 526.808594 192.789062 C 526.15625 193.242188 525.476562 193.710938 524.890625 194.324219 C 524.503906 194.769531 524.070312 195.300781 523.78125 195.820312 C 523.589844 195.816406 523.410156 195.929688 523.347656 196.117188 C 523.210938 196.527344 522.9375 196.929688 522.644531 197.359375 C 522.390625 197.734375 522.125 198.121094 521.945312 198.527344 C 521.410156 199.597656 521.140625 200.496094 521.046875 201.53125 C 521.046875 201.546875 521.046875 201.558594 521.046875 201.570312 C 521.046875 201.679688 521.042969 201.789062 521.039062 201.902344 C 521.023438 202.417969 521.003906 203.003906 521.273438 203.558594 C 521.390625 203.835938 521.582031 204.0625 521.769531 204.285156 C 521.957031 204.503906 522.132812 204.710938 522.214844 204.953125 C 522.484375 205.679688 522.679688 207.078125 522.601562 207.738281 L 522.539062 208.007812 C 521.933594 210.785156 521.296875 213.691406 520.582031 216.621094 C 520.363281 215.851562 520.09375 215.136719 519.835938 214.472656 C 519.386719 213.296875 518.992188 212.277344 518.992188 211.25 C 518.992188 210.941406 518.988281 210.625 518.980469 210.308594 C 518.964844 209.375 518.945312 208.410156 519.085938 207.492188 C 519.125 207.050781 519.191406 206.59375 519.257812 206.15625 C 519.363281 205.464844 519.46875 204.753906 519.46875 204.039062 C 519.46875 203.84375 519.339844 203.671875 519.15625 203.613281 C 518.96875 203.554688 518.765625 203.625 518.65625 203.785156 C 514.777344 209.429688 517.238281 215.304688 518.3125 217.84375 C 518.492188 218.5625 519.101562 221.210938 519.230469 221.785156 C 518.144531 225.632812 516.875 229.417969 515.300781 232.902344 C 514.847656 233.804688 514.371094 234.71875 513.867188 235.6875 C 512.027344 239.210938 510.019531 243.070312 508.941406 247.035156 C 508.941406 246.640625 508.941406 246.253906 508.941406 245.882812 C 508.941406 226.273438 507.4375 210.746094 504.214844 197.0625 C 504.535156 196.882812 504.851562 196.640625 505.160156 196.332031 C 506.082031 195.410156 506.617188 194.355469 507.089844 193.425781 C 507.953125 191.734375 508.636719 190.398438 511.191406 190.109375 C 513.5 189.847656 516.675781 190.203125 518.648438 191.976562 C 518.796875 192.109375 519.011719 192.125 519.179688 192.023438 C 519.351562 191.917969 519.429688 191.714844 519.375 191.523438 C 518.476562 188.289062 516.34375 186.664062 513.1875 186.78125 C 513.679688 186.109375 513.902344 185.328125 514.113281 184.570312 C 514.28125 183.964844 514.441406 183.394531 514.726562 182.898438 C 515.46875 181.621094 516.683594 180.328125 517.898438 179.535156 C 518.753906 178.972656 519.738281 178.558594 520.785156 178.121094 C 522.640625 177.339844 524.558594 176.53125 525.796875 174.832031 C 526.632812 173.683594 526.871094 171.949219 526.410156 170.410156 C 526.011719 169.082031 525.167969 168.117188 524.039062 167.695312 C 524.027344 167.691406 524.019531 167.6875 524.007812 167.683594 C 523.304688 167.484375 522.417969 167.601562 521.550781 167.796875 C 521.234375 166.945312 520.375 166.191406 519.664062 165.566406 C 519.414062 165.347656 519.179688 165.144531 519.015625 164.972656 C 518.757812 164.707031 518.597656 164.320312 518.429688 163.910156 C 518.222656 163.414062 517.992188 162.851562 517.53125 162.429688 C 516.410156 161.398438 514.324219 160.679688 510.71875 162.945312 C 509.914062 162.4375 508.960938 162.082031 508.023438 161.734375 C 506.933594 161.332031 505.90625 160.953125 505.171875 160.363281 C 505.144531 160.34375 505.121094 160.328125 505.089844 160.3125 C 504.785156 160.160156 504.457031 159.960938 504.109375 159.746094 C 503.203125 159.191406 502.171875 158.558594 501.09375 158.558594 C 500.121094 158.558594 499.222656 159.214844 498.425781 159.789062 C 498.144531 159.992188 497.878906 160.183594 497.664062 160.316406 C 495.746094 161.273438 493.011719 162.335938 491.601562 162.1875 C 490.597656 161.980469 489.617188 162.066406 488.503906 162.808594 C 486.703125 164.007812 484.960938 165.386719 484.34375 167.378906 C 483.613281 168.871094 483.054688 171.78125 484.613281 173.335938 C 485.304688 174.144531 486.390625 174.613281 487.445312 175.070312 C 488.269531 175.425781 489.050781 175.761719 489.597656 176.230469 C 489.609375 176.242188 489.621094 176.25 489.632812 176.257812 C 491.230469 177.375 493.691406 180.003906 494.582031 182.050781 C 495.109375 183.949219 495.789062 185.609375 496.609375 187.011719 C 494.992188 186.089844 493.136719 185.488281 491.402344 185.648438 C 489.9375 185.78125 487.875 186.746094 486.953125 188.132812 C 486.445312 188.898438 486.3125 189.730469 486.570312 190.546875 C 486.644531 190.78125 486.890625 190.910156 487.128906 190.835938 C 487.363281 190.765625 487.492188 190.515625 487.421875 190.28125 C 487.414062 190.257812 487.410156 190.25 487.4375 190.214844 C 487.96875 189.550781 491.410156 189.277344 492.339844 189.34375 C 495.128906 189.546875 496.515625 190.910156 498.242188 193.519531 C 499.429688 195.316406 500.84375 197.246094 502.609375 197.421875 C 502.695312 197.433594 502.78125 197.4375 502.863281 197.4375 C 503.035156 197.4375 503.203125 197.414062 503.371094 197.382812 C 506.003906 208.585938 507.476562 221.039062 507.910156 235.988281 C 507.242188 232.886719 506.378906 229.910156 504.765625 227.089844 C 502.707031 223.488281 500.195312 220.125 497.507812 216.964844 C 497.277344 216.691406 496.859375 216.984375 496.9375 217.296875 C 498.078125 221.820312 499.347656 226.339844 501.1875 230.632812 C 502.796875 234.382812 505.390625 237.273438 508.007812 240.335938 C 508.035156 242.148438 508.050781 243.996094 508.050781 245.882812 C 508.050781 247.136719 508.042969 248.53125 508.03125 250.054688 C 508.003906 254.097656 507.972656 259.03125 508.085938 264.574219 C 507.414062 260.964844 506.476562 257.734375 505.578125 255.519531 C 503.574219 250.289062 501.285156 245.417969 498.863281 240.257812 C 497.75 237.894531 496.601562 235.445312 495.5 232.996094 C 494.210938 229.730469 491.21875 223.925781 490.507812 222.554688 C 491.265625 221.765625 491.71875 220.65625 491.714844 219.378906 C 491.703125 219.117188 491.671875 218.855469 491.640625 218.601562 C 491.566406 218 491.496094 217.433594 491.660156 216.980469 C 492.027344 215.953125 492.503906 215.925781 493.546875 215.871094 C 493.671875 215.863281 493.789062 215.804688 493.867188 215.707031 C 493.949219 215.609375 493.984375 215.484375 493.964844 215.359375 C 493.878906 214.761719 493.519531 214.304688 492.988281 214.113281 C 492.378906 213.890625 491.621094 214.039062 490.855469 214.496094 C 490.898438 213.195312 490.746094 212.828125 490.429688 212.214844 C 490.265625 211.894531 490.058594 211.496094 489.828125 210.746094 C 489.300781 208.691406 489.480469 206.617188 489.652344 204.613281 C 489.828125 202.597656 490.007812 200.511719 489.460938 198.5 C 489.167969 197.179688 488.191406 194.945312 486.6875 194.183594 C 486.039062 193.851562 485.335938 193.828125 484.660156 194.113281 C 483.773438 194.355469 483.375 195.03125 483.019531 195.628906 C 482.777344 196.042969 482.539062 196.4375 482.152344 196.703125 C 481.78125 196.214844 481.039062 195.414062 480.03125 195.183594 C 478.945312 194.949219 478.347656 195.378906 477.824219 195.757812 C 477.65625 195.878906 477.484375 196 477.289062 196.113281 C 476.570312 196.542969 475.734375 196.449219 474.855469 196.351562 C 473.828125 196.234375 472.664062 196.101562 471.609375 196.867188 C 470.925781 197.378906 470.738281 198.070312 470.554688 198.738281 C 470.449219 199.136719 470.347656 199.511719 470.148438 199.847656 C 469.523438 200.851562 468.683594 201.484375 467.523438 201.84375 C 465.492188 202.410156 465.0625 203.5 465.109375 205.285156 C 464.277344 205.183594 463.414062 205.160156 462.84375 205.703125 C 462.386719 206.132812 462.210938 206.824219 462.300781 207.8125 C 462.449219 209.464844 464.785156 210.652344 466.492188 211.523438 C 466.925781 211.742188 467.300781 211.933594 467.5625 212.09375 C 468.273438 212.527344 469.332031 213.339844 470.558594 214.277344 C 472.882812 216.050781 475.859375 218.328125 478.859375 219.9375 C 478.484375 220.117188 478.128906 220.359375 477.785156 220.613281 C 476.980469 221.253906 475.683594 223.503906 476.496094 224.519531 C 476.582031 224.625 476.710938 224.6875 476.84375 224.6875 C 476.871094 224.6875 476.902344 224.683594 476.929688 224.679688 C 477.09375 224.644531 477.226562 224.523438 477.273438 224.367188 C 477.820312 222.480469 480.429688 222.058594 482.089844 222.355469 C 482.753906 222.503906 483.417969 222.75 484.0625 222.988281 C 485.300781 223.445312 486.578125 223.921875 487.988281 223.769531 C 488.667969 223.699219 489.28125 223.476562 489.804688 223.136719 C 490.644531 224.757812 493.445312 230.222656 494.675781 233.34375 C 495.789062 235.816406 496.941406 238.269531 498.054688 240.636719 C 500.472656 245.78125 502.753906 250.636719 504.75 255.847656 C 506.179688 259.371094 507.703125 265.515625 508.078125 271.617188 C 508.027344 271.363281 507.984375 271.109375 507.9375 270.859375 C 507.746094 269.796875 507.566406 268.796875 507.253906 267.867188 C 507.046875 267.296875 506.839844 266.703125 506.628906 266.097656 C 505.820312 263.796875 504.90625 261.191406 503.679688 258.941406 C 502.011719 256.027344 499.203125 254.441406 496.488281 252.90625 C 495.800781 252.519531 495.085938 252.113281 494.414062 251.703125 C 493.867188 251.355469 493.300781 250.957031 492.699219 250.535156 C 490.246094 248.816406 487.464844 246.867188 484.269531 247.078125 C 484.105469 247.089844 483.960938 247.191406 483.890625 247.34375 C 483.824219 247.496094 483.847656 247.671875 483.953125 247.800781 C 486.023438 250.390625 487.726562 252.585938 489.214844 255.308594 C 489.34375 255.613281 489.464844 255.917969 489.585938 256.214844 C 490.667969 258.875 491.605469 261.171875 494.464844 262.84375 C 498.796875 265.21875 504.347656 268.652344 507.019531 272.875 C 507.160156 273.210938 507.296875 273.546875 507.433594 273.882812 L 507.691406 274.511719 C 507.746094 274.644531 507.859375 274.738281 507.988281 274.773438 C 508.03125 274.882812 508.070312 274.992188 508.117188 275.101562 C 508.246094 275.464844 508.347656 275.832031 508.425781 276.207031 C 508.445312 276.292969 508.492188 276.367188 508.554688 276.429688 C 509.390625 290.375 511.453125 306.449219 516.433594 321.542969 C 516.496094 321.730469 516.667969 321.847656 516.855469 321.847656 C 516.902344 321.847656 516.949219 321.839844 516.996094 321.824219 C 517.230469 321.75 517.359375 321.496094 517.28125 321.261719 C 510.738281 301.429688 509.253906 279.855469 508.964844 263.71875 C 508.992188 263.714844 509.015625 263.710938 509.042969 263.703125 C 509.046875 263.699219 509.054688 263.695312 509.0625 263.691406 C 509.105469 263.675781 509.144531 263.65625 509.179688 263.628906 C 509.179688 263.628906 509.179688 263.625 509.183594 263.625 C 509.214844 263.597656 509.242188 263.566406 509.265625 263.53125 C 509.273438 263.523438 509.277344 263.515625 509.28125 263.507812 C 509.304688 263.472656 509.320312 263.433594 509.332031 263.394531 C 509.332031 263.386719 509.335938 263.382812 509.335938 263.375 C 509.667969 261.882812 511.429688 260.972656 513.65625 259.820312 C 514.476562 259.398438 515.324219 258.957031 516.21875 258.433594 C 519.792969 256.34375 521.695312 252.964844 523.472656 249.410156 C 525.015625 246.582031 525.535156 243.78125 526.058594 240.382812 C 526.148438 239.464844 526.382812 238.433594 526.628906 237.339844 C 527.050781 235.457031 527.488281 233.507812 527.324219 231.699219 C 527.324219 231.691406 527.320312 231.6875 527.320312 231.683594 C 527.316406 231.644531 527.308594 231.609375 527.292969 231.574219 C 527.292969 231.574219 527.292969 231.570312 527.292969 231.566406 C 527.277344 231.535156 527.257812 231.503906 527.234375 231.472656 C 527.230469 231.464844 527.222656 231.457031 527.21875 231.449219 C 527.195312 231.421875 527.167969 231.398438 527.136719 231.375 C 527.136719 231.375 527.132812 231.371094 527.132812 231.371094 C 527.109375 231.355469 527.082031 231.339844 527.050781 231.328125 C 527.042969 231.324219 527.035156 231.324219 527.027344 231.320312 C 527.023438 231.316406 527.019531 231.316406 527.015625 231.3125 C 527.011719 231.3125 527.003906 231.3125 527 231.3125 C 526.964844 231.300781 526.929688 231.292969 526.894531 231.292969 C 526.890625 231.292969 526.886719 231.292969 526.886719 231.292969 C 526.84375 231.292969 526.804688 231.296875 526.765625 231.308594 C 526.761719 231.308594 526.753906 231.3125 526.75 231.3125 C 526.710938 231.324219 526.675781 231.339844 526.644531 231.359375 C 526.644531 231.359375 526.640625 231.359375 526.640625 231.359375 C 526.605469 231.382812 526.578125 231.410156 526.550781 231.4375 C 526.546875 231.441406 526.542969 231.441406 526.542969 231.445312 C 524.839844 233.414062 522.839844 235.195312 520.910156 236.917969 C 517.402344 240.042969 513.777344 243.273438 511.789062 247.738281 C 510.476562 250.523438 509.453125 254.179688 508.902344 257.792969 C 508.894531 255.785156 508.902344 253.898438 508.910156 252.152344 C 508.996094 252.074219 509.050781 251.964844 509.054688 251.839844 C 509.261719 246.433594 512.128906 240.941406 514.65625 236.097656 C 515.164062 235.125 515.644531 234.210938 516.105469 233.285156 C 517.707031 229.746094 518.992188 225.917969 520.085938 222.03125 C 520.382812 221.75 521.34375 220.789062 522.324219 219.484375 C 522.90625 218.710938 524.734375 217.542969 526.351562 216.511719 C 527.773438 215.601562 529.113281 214.746094 529.785156 214.078125 C 530.386719 213.472656 531.714844 210.800781 531.863281 210.496094 C 531.957031 210.300781 531.898438 210.066406 531.722656 209.9375 Z M 524.539062 196.289062 C 524.808594 195.808594 525.210938 195.320312 525.550781 194.921875 C 526.058594 194.390625 526.699219 193.949219 527.316406 193.523438 C 527.578125 193.34375 527.839844 193.164062 528.097656 192.972656 C 528.332031 192.789062 528.671875 192.507812 528.929688 192.210938 C 529.105469 192.035156 529.234375 191.835938 529.351562 191.660156 C 529.441406 191.519531 529.53125 191.382812 529.640625 191.269531 C 529.707031 191.4375 529.773438 191.6875 529.8125 191.84375 C 529.890625 192.148438 529.960938 192.40625 530.070312 192.574219 C 530.277344 192.898438 530.242188 193.191406 530.085938 193.765625 C 530.015625 194.003906 529.964844 194.253906 529.917969 194.496094 C 529.871094 194.730469 529.824219 194.953125 529.761719 195.183594 C 529.609375 195.890625 529.535156 196.578125 529.46875 197.246094 C 529.453125 197.394531 529.4375 197.535156 529.421875 197.679688 C 529.246094 197.933594 529.039062 198.257812 528.796875 198.632812 C 528.203125 199.554688 526.972656 201.472656 526.164062 202.183594 C 526.265625 201.371094 526.523438 200.546875 526.773438 199.746094 C 526.871094 199.445312 526.964844 199.144531 527.050781 198.835938 C 527.238281 198.082031 527.421875 197.449219 527.695312 196.816406 C 527.703125 196.796875 527.707031 196.78125 527.710938 196.761719 C 527.902344 196.097656 528.375 194.488281 528.375 194.488281 C 528.441406 194.273438 528.332031 194.042969 528.125 193.953125 C 527.917969 193.863281 527.675781 193.941406 527.5625 194.136719 C 527.496094 194.25 525.925781 196.929688 525.628906 197.71875 C 525.371094 198.425781 524.6875 200.304688 523.785156 201.03125 C 523.730469 201.070312 523.691406 201.09375 523.660156 201.109375 C 523.507812 200.773438 523.5625 199.597656 523.726562 198.929688 C 523.734375 198.910156 523.738281 198.890625 523.738281 198.871094 C 523.785156 198.46875 523.875 198.0625 523.96875 197.636719 C 524.015625 197.433594 524.058594 197.226562 524.101562 197.019531 C 524.15625 196.957031 524.195312 196.882812 524.210938 196.796875 C 524.226562 196.730469 524.347656 196.558594 524.414062 196.46875 C 524.453125 196.414062 524.492188 196.363281 524.539062 196.289062 Z M 522.453125 203.707031 C 522.300781 203.53125 522.15625 203.359375 522.09375 203.210938 C 522.089844 203.199219 522.085938 203.1875 522.082031 203.175781 C 521.902344 202.820312 521.917969 202.367188 521.929688 201.929688 C 521.933594 201.816406 521.9375 201.703125 521.9375 201.59375 C 522.023438 200.683594 522.265625 199.882812 522.753906 198.90625 C 522.785156 198.832031 522.824219 198.757812 522.863281 198.683594 C 522.859375 198.707031 522.855469 198.726562 522.855469 198.75 C 522.792969 199.046875 522.421875 200.980469 522.992188 201.714844 C 523.148438 201.914062 523.367188 202.023438 523.609375 202.023438 C 523.839844 202.023438 524.074219 201.929688 524.332031 201.730469 C 525.042969 201.164062 525.59375 200.164062 526.023438 199.160156 C 525.988281 199.265625 525.957031 199.371094 525.921875 199.480469 C 525.578125 200.582031 525.222656 201.722656 525.222656 202.898438 C 525.222656 203.144531 525.421875 203.347656 525.667969 203.347656 C 526.558594 203.347656 527.574219 202.09375 528.769531 200.304688 C 528.703125 200.535156 528.640625 200.757812 528.585938 200.96875 C 528.28125 202.113281 527.996094 202.722656 527.386719 203.507812 C 527.082031 203.964844 526.609375 204.296875 526.023438 204.464844 C 526.007812 204.46875 525.992188 204.472656 525.980469 204.480469 C 525.761719 204.566406 525.570312 204.574219 525.328125 204.585938 C 525.152344 204.59375 524.949219 204.601562 524.726562 204.644531 C 524.714844 204.648438 524.699219 204.652344 524.6875 204.65625 C 524.117188 204.828125 523.691406 205.3125 523.363281 205.878906 C 523.28125 205.40625 523.167969 204.964844 523.054688 204.65625 C 522.925781 204.269531 522.671875 203.972656 522.453125 203.707031 Z M 525.074219 174.308594 C 523.984375 175.808594 522.179688 176.566406 520.4375 177.300781 C 519.402344 177.734375 518.332031 178.183594 517.410156 178.789062 C 516.085938 179.65625 514.761719 181.0625 513.953125 182.453125 C 513.609375 183.046875 513.429688 183.699219 513.253906 184.332031 C 513.015625 185.1875 512.789062 185.996094 512.1875 186.585938 C 511.359375 187.390625 509.445312 187.898438 506.992188 187.984375 C 507.222656 187.460938 507.394531 186.917969 507.554688 186.390625 C 507.925781 185.191406 508.273438 184.054688 509.324219 183.324219 C 510.089844 182.789062 511.050781 182.402344 512.070312 181.988281 C 514.148438 181.144531 516.507812 180.1875 517.148438 177.726562 C 517.742188 175.445312 516.492188 174.253906 515.15625 173.230469 C 514.539062 172.753906 513.929688 172.203125 513.335938 171.648438 C 513.613281 171.359375 513.917969 171.109375 514.246094 170.890625 C 514.96875 170.667969 516.277344 170.695312 516.847656 170.980469 C 517.335938 171.222656 517.699219 171.640625 518.082031 172.082031 C 518.683594 172.769531 519.355469 173.539062 520.550781 173.539062 C 520.730469 173.539062 520.917969 173.519531 521.121094 173.484375 C 522.175781 173.273438 522.75 172.113281 523.257812 171.09375 C 523.609375 170.390625 524.003906 169.59375 524.417969 169.480469 C 524.472656 169.464844 524.640625 169.417969 524.972656 169.628906 C 525.015625 169.65625 525.058594 169.667969 525.105469 169.679688 C 525.292969 169.96875 525.445312 170.300781 525.554688 170.667969 C 525.941406 171.949219 525.753906 173.375 525.074219 174.308594 Z M 501.816406 168.214844 C 501.882812 168.25 501.949219 168.273438 502.023438 168.273438 C 502.050781 168.273438 502.082031 168.269531 502.109375 168.265625 C 502.175781 168.253906 502.234375 168.222656 502.285156 168.1875 C 502.753906 168.164062 503.21875 168.148438 503.679688 168.148438 C 506.039062 168.148438 507.789062 168.507812 509.03125 169.25 C 510.179688 169.9375 511.242188 170.917969 512.269531 171.878906 C 512.296875 171.949219 512.335938 172.015625 512.398438 172.066406 C 512.449219 172.105469 512.503906 172.132812 512.5625 172.148438 C 512.863281 172.433594 513.171875 172.714844 513.484375 172.996094 C 512.878906 172.886719 512.234375 172.875 511.546875 172.953125 C 509.753906 173.160156 508.992188 173.042969 507.382812 171.882812 C 507.1875 171.738281 507.011719 171.597656 506.84375 171.464844 C 506.089844 170.855469 505.375 170.277344 503.894531 170.851562 C 503.226562 171.113281 502.640625 171.496094 502.074219 171.863281 C 500.9375 172.605469 499.957031 173.242188 498.550781 172.785156 C 497.496094 172.441406 496.636719 171.777344 495.722656 171.074219 C 494.789062 170.355469 493.832031 169.617188 492.648438 169.246094 C 493.253906 169.132812 493.917969 169.074219 494.550781 169.019531 C 494.859375 168.992188 495.160156 168.96875 495.445312 168.9375 C 496.023438 168.871094 496.660156 168.789062 497.335938 168.699219 C 498.742188 168.515625 500.277344 168.316406 501.816406 168.214844 Z M 523.746094 168.539062 C 523.847656 168.578125 523.945312 168.621094 524.042969 168.675781 C 523.332031 168.957031 522.90625 169.800781 522.460938 170.695312 C 522.023438 171.574219 521.570312 172.484375 520.953125 172.609375 C 519.894531 172.800781 519.417969 172.253906 518.753906 171.496094 C 518.351562 171.03125 517.890625 170.503906 517.246094 170.183594 C 517.007812 170.0625 516.699219 169.976562 516.355469 169.921875 C 517.289062 169.632812 518.273438 169.457031 519.210938 169.3125 C 519.566406 169.253906 520 169.132812 520.5 168.992188 C 520.765625 168.917969 521.046875 168.839844 521.335938 168.765625 C 521.34375 168.761719 521.355469 168.761719 521.363281 168.757812 C 522.230469 168.535156 523.132812 168.371094 523.746094 168.539062 Z M 516.929688 163.085938 C 517.242188 163.371094 517.417969 163.796875 517.605469 164.25 C 517.796875 164.71875 517.996094 165.203125 518.375 165.59375 C 518.566406 165.789062 518.8125 166.007812 519.074219 166.238281 C 519.652344 166.742188 520.402344 167.402344 520.679688 168.015625 C 520.535156 168.054688 520.394531 168.09375 520.257812 168.132812 C 519.800781 168.261719 519.371094 168.382812 519.066406 168.433594 C 517.3125 168.703125 515.394531 169.082031 513.839844 170.089844 C 513.761719 170.117188 513.6875 170.148438 513.617188 170.183594 C 513.527344 170.226562 513.460938 170.300781 513.417969 170.382812 C 513.160156 170.582031 512.914062 170.800781 512.679688 171.042969 C 512.246094 170.636719 511.800781 170.230469 511.34375 169.84375 C 511.996094 169.328125 512.480469 168.5625 512.691406 167.660156 C 512.980469 166.433594 512.75 165.125 512.105469 164.269531 C 511.929688 163.992188 511.710938 163.75 511.472656 163.53125 C 513.855469 162.101562 515.691406 161.949219 516.929688 163.085938 Z M 498.09375 161.09375 C 498.371094 160.929688 498.652344 160.726562 498.949219 160.511719 C 499.636719 160.015625 500.414062 159.449219 501.09375 159.449219 C 501.917969 159.449219 502.796875 159.988281 503.644531 160.507812 C 503.992188 160.722656 504.324219 160.925781 504.652344 161.089844 C 505.496094 161.75 506.625 162.167969 507.714844 162.570312 C 508.570312 162.886719 509.4375 163.210938 510.15625 163.652344 C 510.167969 163.707031 510.1875 163.757812 510.21875 163.808594 C 510.316406 163.953125 510.488281 164.019531 510.652344 163.996094 C 510.9375 164.226562 511.183594 164.480469 511.371094 164.777344 C 511.882812 165.453125 512.054688 166.480469 511.824219 167.453125 C 511.636719 168.25 511.214844 168.882812 510.625 169.265625 C 510.257812 168.984375 509.882812 168.71875 509.492188 168.484375 C 508.6875 168.003906 507.707031 167.671875 506.535156 167.476562 C 506.558594 167.148438 506.628906 166.816406 506.703125 166.464844 C 506.800781 166.007812 506.902344 165.535156 506.902344 165.042969 C 506.902344 164.796875 506.703125 164.597656 506.457031 164.597656 C 506.210938 164.597656 506.011719 164.796875 506.011719 165.042969 C 506.011719 165.441406 505.921875 165.847656 505.828125 166.277344 C 505.753906 166.628906 505.679688 166.984375 505.648438 167.355469 C 505.039062 167.289062 504.386719 167.253906 503.679688 167.253906 C 503.246094 167.253906 502.808594 167.269531 502.375 167.289062 C 502.191406 166.402344 501.835938 164.847656 501.496094 164.398438 C 501.347656 164.199219 501.066406 164.160156 500.871094 164.308594 C 500.675781 164.457031 500.632812 164.734375 500.78125 164.933594 C 500.949219 165.152344 501.242188 166.261719 501.472656 167.34375 C 500.75 167.398438 500.03125 167.46875 499.332031 167.550781 C 498.421875 165.40625 495.882812 163.875 493.851562 162.957031 L 493.738281 162.910156 C 493.6875 162.890625 493.636719 162.867188 493.582031 162.847656 C 495.382812 162.402344 497.347656 161.46875 498.09375 161.09375 Z M 488.996094 163.550781 C 489.851562 162.980469 490.582031 162.890625 491.398438 163.054688 C 491.425781 163.0625 491.457031 163.070312 491.488281 163.074219 C 492.058594 163.199219 492.675781 163.445312 493.40625 163.738281 L 493.503906 163.773438 C 495.289062 164.585938 497.519531 165.898438 498.40625 167.664062 C 498.003906 167.714844 497.605469 167.765625 497.222656 167.816406 C 496.550781 167.902344 495.921875 167.988281 495.347656 168.050781 C 495.070312 168.082031 494.777344 168.105469 494.472656 168.132812 C 492.722656 168.285156 490.738281 168.457031 489.894531 169.75 C 489.523438 170.3125 489.429688 171.03125 489.597656 171.890625 C 488.90625 171.535156 488.179688 171.535156 487.511719 171.539062 C 486.855469 171.542969 486.234375 171.542969 485.636719 171.222656 C 485.175781 170.992188 484.832031 170.492188 484.714844 169.878906 C 484.585938 169.222656 484.746094 168.5625 485.140625 168.121094 C 485.261719 167.984375 485.28125 167.785156 485.203125 167.628906 C 485.738281 165.910156 487.339844 164.652344 488.996094 163.550781 Z M 490.164062 175.539062 C 489.511719 174.992188 488.640625 174.613281 487.796875 174.25 C 486.839844 173.835938 485.847656 173.40625 485.265625 172.730469 C 484.960938 172.425781 484.761719 172.03125 484.648438 171.589844 C 484.824219 171.761719 485.015625 171.910156 485.226562 172.015625 C 486.011719 172.433594 486.808594 172.429688 487.519531 172.429688 C 488.464844 172.429688 489.21875 172.421875 489.898438 173.289062 C 489.972656 173.382812 490.078125 173.4375 490.1875 173.453125 C 490.46875 173.925781 490.824219 174.402344 491.152344 174.847656 C 491.335938 175.09375 491.511719 175.328125 491.65625 175.539062 C 492.417969 176.652344 493.027344 177.71875 493.492188 178.734375 C 492.363281 177.371094 491.0625 176.171875 490.164062 175.539062 Z M 498.28125 187.921875 C 497.265625 186.589844 496.425781 184.910156 495.769531 182.910156 C 495.769531 182.894531 495.769531 182.878906 495.769531 182.863281 C 495.707031 182.503906 495.585938 182.128906 495.421875 181.738281 C 495.339844 181.449219 495.261719 181.15625 495.1875 180.851562 C 494.761719 179.085938 493.824219 177.128906 492.394531 175.035156 C 492.242188 174.816406 492.0625 174.570312 491.867188 174.3125 C 491.386719 173.664062 490.835938 172.929688 490.640625 172.351562 C 490.328125 171.425781 490.328125 170.714844 490.640625 170.238281 C 490.726562 170.101562 490.839844 169.984375 490.972656 169.882812 C 490.992188 169.882812 491.007812 169.886719 491.027344 169.886719 C 492.722656 169.886719 493.917969 170.808594 495.179688 171.78125 C 496.109375 172.5 497.074219 173.242188 498.273438 173.632812 C 500.085938 174.222656 501.34375 173.402344 502.558594 172.609375 C 503.089844 172.265625 503.632812 171.910156 504.21875 171.683594 C 505.214844 171.296875 505.550781 171.566406 506.285156 172.160156 C 506.460938 172.300781 506.648438 172.453125 506.863281 172.605469 C 508.6875 173.921875 509.65625 174.070312 511.648438 173.839844 C 513.40625 173.636719 514.753906 174.097656 516.027344 175.328125 C 516.417969 175.933594 516.519531 176.601562 516.285156 177.503906 C 515.757812 179.53125 513.800781 180.324219 511.734375 181.160156 C 510.714844 181.574219 509.660156 182.003906 508.816406 182.589844 C 507.511719 183.5 507.097656 184.835938 506.703125 186.128906 C 506.519531 186.722656 506.332031 187.335938 506.054688 187.886719 C 506.019531 187.957031 505.964844 188.066406 505.898438 188.191406 C 505.878906 188.21875 505.863281 188.246094 505.851562 188.273438 C 505.691406 188.566406 505.472656 188.941406 505.242188 189.246094 C 504.910156 189.691406 504.75 189.734375 504.75 189.734375 C 504.71875 189.742188 504.691406 189.746094 504.664062 189.746094 C 504.355469 189.746094 504.003906 189.214844 503.746094 188.363281 C 503.574219 187.796875 503.5625 187.167969 503.554688 186.5 C 503.542969 185.878906 503.53125 185.234375 503.378906 184.621094 C 503.332031 184.4375 503.175781 184.304688 502.992188 184.285156 C 502.804688 184.265625 502.625 184.367188 502.542969 184.535156 C 501.949219 185.765625 501.605469 186.792969 501.457031 187.765625 C 501.433594 187.910156 501.414062 188.085938 501.398438 188.277344 C 501.316406 189.179688 501.203125 189.933594 500.6875 189.984375 C 500.675781 189.988281 500.660156 189.988281 500.648438 189.988281 C 500.488281 189.988281 500.105469 189.894531 499.421875 189.234375 C 499.402344 189.171875 499.371094 189.113281 499.320312 189.0625 C 499.171875 188.914062 499.015625 188.769531 498.851562 188.621094 C 498.675781 188.417969 498.488281 188.1875 498.28125 187.921875 Z M 502.699219 196.535156 C 501.207031 196.386719 499.761719 194.203125 498.988281 193.03125 C 497.429688 190.675781 495.863281 188.707031 492.40625 188.453125 C 492.367188 188.453125 489.046875 188.425781 487.425781 189.171875 C 487.488281 188.988281 487.578125 188.808594 487.695312 188.625 C 488.460938 187.476562 490.257812 186.648438 491.480469 186.535156 C 493.804688 186.320312 496.484375 187.722656 498.214844 189.253906 C 499.175781 190.355469 499.960938 190.878906 500.648438 190.878906 C 500.691406 190.878906 500.734375 190.878906 500.777344 190.871094 C 502.066406 190.742188 502.203125 189.25 502.289062 188.359375 C 502.304688 188.1875 502.316406 188.03125 502.339844 187.898438 C 502.402344 187.476562 502.507812 187.042969 502.664062 186.578125 C 502.675781 187.253906 502.691406 187.953125 502.894531 188.621094 C 503.398438 190.289062 504.136719 190.636719 504.664062 190.636719 C 504.761719 190.636719 504.859375 190.625 504.957031 190.601562 C 505.277344 190.523438 505.597656 190.265625 505.960938 189.78125 C 506.171875 189.5 506.367188 189.175781 506.53125 188.886719 C 508.164062 188.867188 510.707031 188.660156 512.253906 187.65625 C 512.335938 187.707031 512.4375 187.734375 512.542969 187.722656 C 515.207031 187.410156 517.015625 188.300781 518.03125 190.441406 C 515.910156 189.226562 513.171875 188.992188 511.089844 189.226562 C 508.058594 189.566406 507.160156 191.324219 506.296875 193.023438 C 505.832031 193.9375 505.347656 194.878906 504.527344 195.703125 C 503.90625 196.324219 503.3125 196.597656 502.699219 196.535156 Z M 488.765625 204.539062 C 488.585938 206.617188 488.402344 208.765625 488.96875 210.988281 C 489.230469 211.832031 489.464844 212.289062 489.636719 212.621094 C 489.917969 213.167969 490.03125 213.394531 489.945312 214.917969 C 489.878906 215.820312 489.628906 216.570312 489.367188 217.132812 C 489.160156 215.574219 488.492188 214.203125 487.921875 213.046875 C 487.683594 212.5625 487.457031 212.105469 487.292969 211.6875 C 486.5 209.671875 485.660156 208.027344 484.761719 206.730469 C 484.683594 206.59375 484.59375 206.464844 484.488281 206.34375 C 483.75 205.351562 482.976562 204.582031 482.152344 204.03125 C 480.550781 202.957031 479.789062 203.539062 479.054688 204.097656 C 478.714844 204.359375 478.363281 204.628906 477.875 204.777344 C 477.058594 205.023438 476.722656 205.117188 476.5 205.097656 C 477.527344 204.488281 477.890625 202.847656 478.238281 201.257812 C 478.300781 200.964844 478.367188 200.671875 478.433594 200.382812 C 478.746094 199.90625 479.15625 199.492188 479.363281 199.449219 C 479.855469 199.359375 480.347656 199.371094 480.75 199.492188 C 481.113281 199.574219 481.46875 199.777344 481.847656 199.992188 C 482.394531 200.300781 483.007812 200.648438 483.734375 200.648438 C 483.796875 200.648438 483.859375 200.644531 483.921875 200.640625 C 485.15625 200.546875 485.527344 199.65625 485.828125 198.9375 C 485.90625 198.746094 485.992188 198.546875 486.082031 198.378906 C 486.144531 198.265625 486.210938 198.136719 486.289062 197.992188 C 486.566406 197.457031 487.082031 196.464844 487.550781 196.464844 C 487.558594 196.464844 487.5625 196.464844 487.570312 196.464844 C 487.605469 196.46875 487.644531 196.464844 487.679688 196.457031 C 488.128906 197.203125 488.453125 198.0625 488.597656 198.710938 C 489.105469 200.59375 488.941406 202.511719 488.765625 204.539062 Z M 474.671875 205.136719 C 475.128906 205.339844 475.386719 205.511719 475.589844 205.652344 C 476.285156 206.113281 476.542969 206.109375 478.132812 205.628906 C 478.773438 205.433594 479.230469 205.085938 479.59375 204.808594 C 480.253906 204.304688 480.582031 204.054688 481.65625 204.773438 C 481.855469 204.90625 482.050781 205.058594 482.246094 205.222656 C 481.820312 205.175781 481.40625 205.214844 481.046875 205.359375 C 480.4375 205.609375 479.910156 206.003906 479.558594 206.484375 C 479.347656 206.777344 479.25 207.097656 479.167969 207.382812 C 479.09375 207.632812 479.03125 207.847656 478.90625 208.007812 C 478.394531 208.507812 477.875 208.304688 477.078125 207.933594 C 476.828125 207.820312 476.570312 207.699219 476.304688 207.621094 C 475.402344 207.398438 474.390625 207.574219 473.210938 208.164062 C 471.191406 209.171875 469.734375 208.152344 468.054688 206.96875 C 467.746094 206.753906 467.433594 206.535156 467.113281 206.328125 C 468.101562 206.183594 468.875 205.648438 469.621094 205.128906 C 470.191406 204.730469 470.730469 204.355469 471.332031 204.179688 C 472.730469 203.765625 472.910156 203.914062 473.386719 204.308594 C 473.660156 204.535156 474.035156 204.847656 474.671875 205.136719 Z M 483.789062 196.082031 C 484.144531 195.480469 484.390625 195.101562 484.917969 194.96875 C 484.941406 194.960938 484.964844 194.953125 484.988281 194.945312 C 485.429688 194.75 485.855469 194.761719 486.285156 194.980469 C 486.578125 195.128906 486.855469 195.367188 487.109375 195.65625 C 486.355469 195.9375 485.851562 196.902344 485.496094 197.578125 C 485.425781 197.710938 485.363281 197.832031 485.296875 197.949219 C 485.183594 198.167969 485.09375 198.382812 485.003906 198.59375 C 484.691406 199.339844 484.511719 199.699219 483.851562 199.753906 C 483.316406 199.796875 482.816406 199.515625 482.289062 199.214844 C 481.871094 198.980469 481.441406 198.734375 480.976562 198.632812 C 480.46875 198.476562 479.835938 198.457031 479.195312 198.574219 C 479.148438 198.582031 479.101562 198.59375 479.058594 198.609375 C 479.125 198.503906 479.195312 198.402344 479.277344 198.332031 C 479.742188 197.941406 480.144531 197.949219 480.660156 197.960938 C 481.144531 197.972656 481.691406 197.988281 482.296875 197.648438 C 483.082031 197.277344 483.457031 196.644531 483.789062 196.082031 Z M 467.773438 202.699219 C 469.164062 202.269531 470.160156 201.515625 470.910156 200.308594 C 471.175781 199.863281 471.304688 199.390625 471.417969 198.972656 C 471.578125 198.378906 471.703125 197.910156 472.136719 197.585938 C 472.910156 197.027344 473.804688 197.128906 474.753906 197.238281 C 475.746094 197.347656 476.769531 197.464844 477.738281 196.882812 C 477.96875 196.753906 478.167969 196.609375 478.347656 196.480469 C 478.84375 196.121094 479.144531 195.902344 479.835938 196.050781 C 480.320312 196.164062 480.839844 196.523438 481.292969 197.054688 C 481.097656 197.082031 480.894531 197.074219 480.683594 197.070312 C 480.097656 197.054688 479.429688 197.039062 478.6875 197.660156 C 477.964844 198.332031 477.671875 199.660156 477.363281 201.070312 C 477.128906 202.152344 476.863281 203.351562 476.40625 203.984375 C 476.265625 203.769531 476.097656 203.570312 475.925781 203.371094 C 475.789062 203.214844 475.65625 203.066406 475.558594 202.917969 C 475.175781 202.40625 474.691406 201.742188 474.359375 201.125 C 474.242188 200.90625 473.972656 200.824219 473.753906 200.941406 C 473.539062 201.058594 473.457031 201.328125 473.574219 201.546875 C 473.933594 202.214844 474.441406 202.917969 474.828125 203.429688 C 474.949219 203.609375 475.101562 203.789062 475.253906 203.957031 C 475.386719 204.113281 475.53125 204.28125 475.636719 204.4375 C 475.457031 204.445312 475.253906 204.40625 475.023438 204.316406 C 474.507812 204.078125 474.214844 203.835938 473.957031 203.625 C 473.234375 203.023438 472.769531 202.824219 471.078125 203.324219 C 470.339844 203.542969 469.714844 203.976562 469.109375 204.398438 C 468.414062 204.882812 467.757812 205.34375 466.972656 205.449219 C 466.703125 205.484375 466.371094 205.457031 466.007812 205.410156 C 465.941406 203.796875 466.222656 203.128906 467.773438 202.699219 Z M 468.027344 211.332031 C 467.734375 211.15625 467.347656 210.957031 466.898438 210.726562 C 465.460938 209.996094 463.292969 208.894531 463.1875 207.730469 C 463.125 207.042969 463.214844 206.578125 463.457031 206.347656 C 463.640625 206.175781 463.9375 206.117188 464.292969 206.117188 C 464.414062 206.117188 464.539062 206.125 464.671875 206.136719 C 465.683594 206.394531 466.628906 207.054688 467.539062 207.699219 C 468.785156 208.574219 470.0625 209.472656 471.59375 209.472656 C 472.21875 209.472656 472.886719 209.320312 473.609375 208.960938 C 474.234375 208.648438 475.171875 208.257812 476.074219 208.484375 C 476.257812 208.535156 476.476562 208.636719 476.703125 208.742188 C 477.445312 209.085938 478.566406 209.605469 479.550781 208.625 C 479.558594 208.613281 479.570312 208.605469 479.578125 208.59375 C 479.828125 208.292969 479.933594 207.941406 480.023438 207.632812 C 480.09375 207.398438 480.160156 207.175781 480.28125 207.007812 C 480.535156 206.664062 480.925781 206.371094 481.378906 206.1875 C 482.054688 205.914062 483.179688 206.273438 483.757812 206.871094 C 484.71875 208.167969 485.621094 209.882812 486.460938 212.011719 C 486.640625 212.464844 486.871094 212.9375 487.121094 213.4375 C 487.851562 214.917969 488.675781 216.589844 488.523438 218.523438 C 488.394531 218.632812 488.261719 218.695312 488.125 218.710938 C 487.1875 218.808594 485.875 217.003906 485.082031 215.925781 C 484.882812 215.652344 484.703125 215.410156 484.546875 215.214844 C 484.425781 215.0625 484.222656 215.007812 484.042969 215.078125 C 483.859375 215.144531 483.746094 215.324219 483.753906 215.519531 C 483.777344 215.953125 484.121094 216.535156 484.722656 217.527344 C 485.363281 218.574219 486.328125 220.164062 486.082031 220.792969 C 486.054688 220.871094 485.992188 220.964844 485.785156 221.035156 C 484.160156 221.175781 482.289062 220.625 480.375 219.710938 C 480.367188 219.707031 480.359375 219.703125 480.351562 219.699219 C 477.082031 218.140625 473.675781 215.539062 471.097656 213.566406 C 469.855469 212.617188 468.777344 211.792969 468.027344 211.332031 Z M 487.894531 222.882812 C 486.691406 223.011719 485.566406 222.59375 484.375 222.152344 C 483.703125 221.902344 483.007812 221.644531 482.265625 221.484375 C 480.902344 221.238281 478.8125 221.394531 477.492188 222.488281 C 477.730469 222.007812 478.046875 221.546875 478.328125 221.320312 C 478.890625 220.902344 479.484375 220.523438 480.058594 220.546875 C 481.863281 221.394531 483.644531 221.949219 485.269531 221.949219 C 485.488281 221.949219 485.707031 221.9375 485.917969 221.917969 C 485.945312 221.914062 485.976562 221.910156 486 221.902344 C 486.570312 221.734375 486.8125 221.382812 486.914062 221.117188 C 487.140625 220.535156 486.933594 219.777344 486.558594 218.972656 C 487.09375 219.394531 487.652344 219.65625 488.21875 219.597656 C 488.488281 219.570312 488.734375 219.472656 488.964844 219.308594 C 489.175781 219.296875 489.351562 219.136719 489.378906 218.917969 C 489.378906 218.917969 489.378906 218.914062 489.378906 218.910156 C 489.5625 218.6875 489.730469 218.40625 489.882812 218.074219 C 490.207031 217.519531 490.574219 216.703125 490.746094 215.671875 C 491.605469 214.945312 492.304688 214.8125 492.683594 214.949219 C 492.738281 214.972656 492.789062 214.996094 492.835938 215.03125 C 492.007812 215.128906 491.269531 215.421875 490.820312 216.679688 C 490.582031 217.328125 490.667969 218.03125 490.753906 218.710938 C 490.785156 218.960938 490.8125 219.199219 490.824219 219.402344 C 490.824219 221.269531 489.621094 222.703125 487.894531 222.882812 Z M 502.042969 230.914062 C 500.289062 226.953125 499.058594 222.777344 497.972656 218.585938 C 500.125 221.21875 502.101562 223.988281 503.863281 226.902344 C 504.9375 228.683594 505.824219 230.507812 506.421875 232.503906 C 507.023438 234.515625 507.273438 236.617188 507.976562 238.59375 C 507.984375 238.886719 507.988281 239.183594 507.992188 239.476562 C 505.90625 236.652344 503.5 234.203125 502.042969 230.914062 Z M 493.941406 252.457031 C 494.632812 252.882812 495.351562 253.289062 496.050781 253.683594 C 498.660156 255.15625 501.359375 256.683594 502.898438 259.375 C 504.089844 261.554688 504.953125 264.015625 505.785156 266.390625 C 506 267 506.207031 267.597656 506.414062 268.160156 C 506.636719 268.835938 506.796875 269.582031 506.941406 270.371094 C 505.082031 266.007812 502.941406 261.726562 499.554688 258.339844 C 497.765625 256.554688 495.710938 255.101562 493.535156 253.566406 C 492.910156 253.125 492.28125 252.679688 491.65625 252.226562 C 490.90625 251.664062 490.128906 251.039062 489.304688 250.375 C 488.394531 249.640625 487.460938 248.894531 486.515625 248.195312 C 488.558594 248.722656 490.457031 250.054688 492.1875 251.265625 C 492.796875 251.691406 493.371094 252.09375 493.941406 252.457031 Z M 494.90625 262.066406 C 492.316406 260.558594 491.476562 258.492188 490.414062 255.878906 C 490.289062 255.570312 490.160156 255.261719 490.03125 254.941406 C 490.023438 254.929688 490.015625 254.914062 490.007812 254.902344 C 488.808594 252.699219 487.476562 250.847656 485.9375 248.875 C 486.886719 249.578125 487.824219 250.328125 488.746094 251.070312 C 489.574219 251.738281 490.359375 252.367188 491.128906 252.945312 C 491.761719 253.40625 492.390625 253.851562 493.019531 254.292969 C 495.164062 255.808594 497.1875 257.238281 498.925781 258.972656 C 501.96875 262.011719 503.992188 265.847656 505.730469 269.8125 C 502.710938 266.609375 498.414062 263.996094 494.90625 262.066406 Z M 525.757812 237.144531 C 525.503906 238.265625 525.265625 239.320312 525.171875 240.273438 C 524.667969 243.558594 524.164062 246.285156 522.683594 248.996094 C 520.957031 252.441406 519.132812 255.699219 515.765625 257.667969 C 514.894531 258.175781 514.054688 258.609375 513.242188 259.03125 C 511.652344 259.851562 510.277344 260.5625 509.398438 261.488281 C 509.433594 260.933594 509.480469 260.371094 509.539062 259.800781 C 510.679688 253.570312 515.792969 248.5625 517.554688 247 C 521.515625 243.480469 524.828125 237.183594 526.371094 233.945312 C 526.238281 234.996094 525.996094 236.082031 525.757812 237.144531 Z M 512.601562 248.113281 C 514.511719 243.8125 517.90625 240.789062 521.5 237.585938 C 522.777344 236.445312 524.082031 235.28125 525.320312 234.050781 C 523.710938 237.347656 520.570312 243.128906 516.960938 246.332031 C 515.636719 247.507812 512.5 250.554688 510.417969 254.625 C 510.972656 252.246094 511.722656 249.980469 512.601562 248.113281 Z M 519.171875 217.59375 C 519.164062 217.570312 519.15625 217.550781 519.148438 217.527344 C 518.253906 215.417969 516.304688 210.808594 518.359375 206.132812 C 518.296875 206.554688 518.234375 206.984375 518.203125 207.386719 C 518.054688 208.351562 518.074219 209.355469 518.089844 210.328125 C 518.097656 210.636719 518.101562 210.945312 518.101562 211.25 C 518.101562 212.441406 518.539062 213.585938 519.003906 214.792969 C 519.460938 215.980469 519.929688 217.210938 520.074219 218.652344 C 519.960938 219.089844 519.84375 219.527344 519.726562 219.96875 C 519.511719 219.027344 519.269531 217.984375 519.171875 217.59375 Z M 529.152344 213.449219 C 528.550781 214.050781 527.1875 214.917969 525.871094 215.761719 C 524.109375 216.882812 522.289062 218.046875 521.609375 218.953125 C 521.257812 219.421875 520.90625 219.84375 520.589844 220.207031 C 520.683594 219.847656 520.78125 219.488281 520.871094 219.132812 C 520.890625 219.109375 520.910156 219.089844 520.925781 219.066406 C 522.199219 216.910156 524.140625 215.738281 525.84375 214.886719 C 527.304688 214.265625 528.792969 213.191406 529.917969 212.277344 C 529.605469 212.828125 529.320312 213.28125 529.152344 213.449219 Z M 529.152344 213.449219 " fill-opacity="1" fill-rule="nonzero"/></g></svg>