<svg xmlns="http://www.w3.org/2000/svg" xmlns:xlink="http://www.w3.org/1999/xlink" width="1366" zoomAndPan="magnify" viewBox="0 0 1024.5 576" height="768" preserveAspectRatio="xMidYMid meet" version="1.0"><defs><g/><clipPath id="ecacc4ee67"><path d="M 0 0.140625 L 1024 0.140625 L 1024 575.859375 L 0 575.859375 Z M 0 0.140625 " clip-rule="nonzero"/></clipPath><clipPath id="c9d488e5b0"><path d="M 819 450.570312 L 824 450.570312 L 824 459 L 819 459 Z M 819 450.570312 " clip-rule="nonzero"/></clipPath><clipPath id="538ae0f419"><path d="M 814 450.570312 L 819 450.570312 L 819 459 L 814 459 Z M 814 450.570312 " clip-rule="nonzero"/></clipPath><clipPath id="c1413b75b5"><path d="M 925.117188 507 L 930 507 L 930 514.761719 L 925.117188 514.761719 Z M 925.117188 507 " clip-rule="nonzero"/></clipPath><clipPath id="3d4cfb20a9"><path d="M 931 507 L 935.800781 507 L 935.800781 514.761719 L 931 514.761719 Z M 931 507 " clip-rule="nonzero"/></clipPath><clipPath id="00bcc14bad"><path d="M 827.167969 453.574219 L 939.710938 453.574219 L 939.710938 475.898438 L 827.167969 475.898438 Z M 827.167969 453.574219 " clip-rule="nonzero"/></clipPath><clipPath id="987936ff2e"><path d="M 808.46875 490 L 921 490 L 921 512 L 808.46875 512 Z M 808.46875 490 " clip-rule="nonzero"/></clipPath></defs><g clip-path="url(#ecacc4ee67)"><path fill="#ffffff" d="M 0 0.140625 L 1024.5 0.140625 L 1024.5 583.640625 L 0 583.640625 Z M 0 0.140625 " fill-opacity="1" fill-rule="nonzero"/><path fill="#ffffff" d="M 0 0.140625 L 1024.5 0.140625 L 1024.5 576.140625 L 0 576.140625 Z M 0 0.140625 " fill-opacity="1" fill-rule="nonzero"/><path fill="#ffffff" d="M 0 0.140625 L 1024.5 0.140625 L 1024.5 576.140625 L 0 576.140625 Z M 0 0.140625 " fill-opacity="1" fill-rule="nonzero"/></g><g fill="#000000" fill-opacity="1"><g transform="translate(829.878813, 464.771396)"><g><path d="M 10.996094 -6.6875 L 8.589844 -6.6875 C 8.550781 -6.6875 8.550781 -6.375 8.589844 -6.375 C 9.546875 -6.375 9.71875 -6.21875 9.269531 -5.140625 L 7.664062 -1.28125 L 6.058594 -5.160156 C 5.617188 -6.203125 5.703125 -6.382812 6.621094 -6.390625 C 6.667969 -6.390625 6.667969 -6.6875 6.621094 -6.6875 L 5.390625 -6.6875 L 1.117188 -6.679688 L 0.21875 -6.679688 C 0.179688 -6.679688 0.179688 -6.402344 0.21875 -6.402344 C 0.886719 -6.390625 1.183594 -6.230469 1.59375 -5.246094 L 3.851562 0.105469 L 3.898438 0.105469 L 4.308594 -0.832031 L 5.628906 -3.992188 L 7.386719 0.105469 L 7.433594 0.105469 L 7.84375 -0.832031 L 9.699219 -5.253906 C 10.109375 -6.25 10.359375 -6.390625 10.996094 -6.390625 C 11.027344 -6.390625 11.027344 -6.6875 10.996094 -6.6875 Z M 4.128906 -1.28125 L 2.214844 -5.90625 C 2.339844 -6.210938 2.675781 -6.382812 3.449219 -6.390625 C 4.117188 -6.382812 4.511719 -6.230469 4.804688 -5.914062 L 5.4375 -4.433594 Z M 4.128906 -1.28125 "/></g></g></g><g fill="#000000" fill-opacity="1"><g transform="translate(841.101014, 464.771396)"><g><path d="M 1.433594 -5.980469 C 1.757812 -5.980469 1.957031 -6.191406 1.957031 -6.46875 C 1.957031 -6.753906 1.730469 -6.957031 1.433594 -6.957031 C 1.128906 -6.957031 0.917969 -6.734375 0.917969 -6.46875 C 0.917969 -6.183594 1.148438 -5.980469 1.433594 -5.980469 Z M 1.15625 0 L 2.609375 0 C 2.648438 0 2.648438 -0.285156 2.609375 -0.285156 C 1.882812 -0.285156 1.863281 -0.402344 1.863281 -1.050781 L 1.863281 -5.09375 C 1.863281 -5.121094 1.804688 -5.160156 1.777344 -5.160156 C 1.355469 -5.082031 0.898438 -4.996094 0.507812 -4.941406 C 0.46875 -4.921875 0.476562 -4.699219 0.507812 -4.691406 C 0.984375 -4.539062 1.109375 -4.480469 1.109375 -3.648438 L 1.109375 -1.050781 C 1.109375 -0.402344 1.089844 -0.285156 0.363281 -0.285156 C 0.324219 -0.285156 0.324219 0 0.363281 0 Z M 1.15625 0 "/></g></g></g><g fill="#000000" fill-opacity="1"><g transform="translate(844.061761, 464.771396)"><g><path d="M 2.101562 0.105469 C 2.597656 0.105469 2.960938 -0.230469 3.363281 -0.859375 C 3.382812 -0.898438 3.269531 -0.984375 3.238281 -0.945312 C 2.941406 -0.507812 2.703125 -0.34375 2.417969 -0.34375 C 2.054688 -0.34375 1.796875 -0.613281 1.796875 -1.269531 L 1.796875 -4.757812 L 3 -4.757812 L 3.132812 -5.046875 L 1.804688 -5.046875 L 1.804688 -6.71875 C 1.804688 -6.753906 1.683594 -6.773438 1.664062 -6.71875 C 1.492188 -5.820312 1.109375 -5.273438 0.316406 -5.007812 L 0.277344 -4.757812 L 1.050781 -4.757812 L 1.050781 -1.222656 C 1.050781 -0.265625 1.453125 0.105469 2.101562 0.105469 Z M 2.101562 0.105469 "/></g></g></g><g fill="#000000" fill-opacity="1"><g transform="translate(847.748371, 464.771396)"><g><path d="M 1.148438 0 L 2.550781 0 C 2.578125 0 2.578125 -0.285156 2.550781 -0.285156 C 1.863281 -0.285156 1.835938 -0.402344 1.835938 -1.050781 L 1.835938 -3.859375 C 2.417969 -4.328125 2.933594 -4.613281 3.5625 -4.613281 C 4.164062 -4.613281 4.652344 -4.261719 4.652344 -3.058594 L 4.652344 -1.050781 C 4.652344 -0.402344 4.632812 -0.285156 3.945312 -0.285156 C 3.90625 -0.285156 3.90625 0 3.945312 0 L 6.152344 0 C 6.191406 0 6.191406 -0.285156 6.152344 -0.285156 C 5.425781 -0.285156 5.40625 -0.402344 5.40625 -1.050781 L 5.40625 -3.097656 C 5.40625 -4.253906 5.140625 -5.160156 3.9375 -5.160156 C 3.21875 -5.160156 2.648438 -4.84375 1.835938 -4.203125 L 1.777344 -4.203125 L 1.835938 -4.960938 L 1.835938 -7.128906 C 1.835938 -7.195312 1.785156 -7.214844 1.699219 -7.183594 C 1.289062 -7.109375 0.871094 -7.050781 0.457031 -6.976562 C 0.421875 -6.964844 0.429688 -6.734375 0.46875 -6.734375 C 1.042969 -6.765625 1.089844 -6.382812 1.089844 -5.820312 L 1.097656 -1.050781 C 1.097656 -0.402344 1.070312 -0.285156 0.355469 -0.285156 C 0.316406 -0.285156 0.316406 0 0.355469 0 Z M 1.148438 0 "/></g></g></g><g fill="#000000" fill-opacity="1"><g transform="translate(854.214271, 464.771396)"><g/></g></g><g fill="#000000" fill-opacity="1"><g transform="translate(856.850291, 464.771396)"><g><path d="M 2.140625 -6.6875 L 0.457031 -6.6875 C 0.421875 -6.6875 0.421875 -6.390625 0.457031 -6.390625 C 1.242188 -6.402344 1.386719 -6.382812 1.386719 -5.476562 L 1.386719 -1.214844 C 1.386719 -0.304688 1.242188 -0.285156 0.457031 -0.296875 C 0.421875 -0.296875 0.421875 0 0.457031 0 L 3.144531 0 C 3.183594 0 3.183594 -0.296875 3.144531 -0.296875 C 2.359375 -0.285156 2.214844 -0.304688 2.214844 -1.214844 L 2.214844 -5.476562 C 2.214844 -6.382812 2.359375 -6.402344 3.144531 -6.390625 C 3.183594 -6.390625 3.183594 -6.6875 3.144531 -6.6875 Z M 2.140625 -6.6875 "/></g></g></g><g fill="#000000" fill-opacity="1"><g transform="translate(860.450946, 464.771396)"><g><path d="M 1.148438 0 L 2.589844 0 C 2.628906 0 2.628906 -0.285156 2.589844 -0.285156 C 1.871094 -0.285156 1.84375 -0.402344 1.84375 -1.050781 L 1.84375 -7.136719 C 1.84375 -7.203125 1.796875 -7.222656 1.710938 -7.195312 C 1.289062 -7.117188 0.871094 -7.0625 0.46875 -6.984375 C 0.429688 -6.976562 0.441406 -6.746094 0.476562 -6.746094 C 1.050781 -6.773438 1.097656 -6.390625 1.097656 -5.828125 L 1.097656 -1.050781 C 1.097656 -0.402344 1.070312 -0.285156 0.355469 -0.285156 C 0.316406 -0.285156 0.316406 0 0.355469 0 Z M 1.148438 0 "/></g></g></g><g fill="#000000" fill-opacity="1"><g transform="translate(863.392592, 464.771396)"><g><path d="M 1.148438 0 L 2.589844 0 C 2.628906 0 2.628906 -0.285156 2.589844 -0.285156 C 1.871094 -0.285156 1.84375 -0.402344 1.84375 -1.050781 L 1.84375 -7.136719 C 1.84375 -7.203125 1.796875 -7.222656 1.710938 -7.195312 C 1.289062 -7.117188 0.871094 -7.0625 0.46875 -6.984375 C 0.429688 -6.976562 0.441406 -6.746094 0.476562 -6.746094 C 1.050781 -6.773438 1.097656 -6.390625 1.097656 -5.828125 L 1.097656 -1.050781 C 1.097656 -0.402344 1.070312 -0.285156 0.355469 -0.285156 C 0.316406 -0.285156 0.316406 0 0.355469 0 Z M 1.148438 0 "/></g></g></g><g fill="#000000" fill-opacity="1"><g transform="translate(866.334238, 464.771396)"><g><path d="M 5.179688 -1.355469 L 5.179688 -5.09375 C 5.179688 -5.121094 5.121094 -5.160156 5.09375 -5.160156 C 4.492188 -5.054688 4.183594 -4.996094 3.820312 -4.941406 C 3.785156 -4.929688 3.765625 -4.71875 3.820312 -4.691406 C 4.433594 -4.519531 4.425781 -4.339844 4.425781 -3.6875 L 4.425781 -1.183594 C 4.011719 -0.839844 3.402344 -0.429688 2.761719 -0.429688 C 2.054688 -0.429688 1.605469 -0.8125 1.605469 -2.035156 L 1.605469 -5.09375 C 1.613281 -5.121094 1.558594 -5.160156 1.519531 -5.160156 C 1.109375 -5.074219 0.667969 -5.007812 0.257812 -4.941406 C 0.199219 -4.929688 0.191406 -4.710938 0.25 -4.691406 C 0.859375 -4.519531 0.859375 -4.339844 0.859375 -3.6875 L 0.859375 -1.890625 C 0.859375 -0.476562 1.347656 0.105469 2.339844 0.105469 C 3.144531 0.105469 3.8125 -0.355469 4.441406 -0.851562 L 4.5 -0.851562 L 4.441406 -0.0078125 C 4.433594 0.0390625 4.527344 0.105469 4.578125 0.09375 C 5.265625 -0.0195312 5.417969 -0.0585938 5.78125 -0.125 C 5.820312 -0.125 5.820312 -0.355469 5.78125 -0.363281 C 5.167969 -0.535156 5.179688 -0.714844 5.179688 -1.355469 Z M 5.179688 -1.355469 "/></g></g></g><g fill="#000000" fill-opacity="1"><g transform="translate(872.609124, 464.771396)"><g><path d="M 2.761719 0.105469 C 3.640625 0.105469 4.644531 -0.304688 4.644531 -1.441406 C 4.644531 -2.253906 3.90625 -2.597656 3.011719 -2.875 L 2.464844 -3.046875 C 1.699219 -3.285156 1.367188 -3.46875 1.367188 -4.011719 C 1.367188 -4.585938 1.796875 -4.863281 2.351562 -4.863281 C 3.058594 -4.863281 3.746094 -4.453125 4.0625 -3.125 C 4.070312 -3.105469 4.261719 -3.125 4.261719 -3.152344 L 4.003906 -5.21875 C 3.992188 -5.246094 3.871094 -5.246094 3.859375 -5.21875 C 3.8125 -5.101562 3.839844 -4.941406 3.574219 -4.941406 C 3.304688 -4.941406 2.875 -5.160156 2.320312 -5.160156 C 1.644531 -5.160156 0.785156 -4.824219 0.785156 -3.785156 C 0.785156 -2.941406 1.472656 -2.578125 2.199219 -2.351562 L 2.886719 -2.121094 C 3.6875 -1.871094 4.0625 -1.683594 4.0625 -1.109375 C 4.0625 -0.527344 3.535156 -0.179688 2.734375 -0.179688 C 2.054688 -0.179688 1.25 -0.699219 0.925781 -2.042969 C 0.917969 -2.09375 0.726562 -2.054688 0.726562 -2.027344 L 1.023438 0.191406 C 1.03125 0.21875 1.15625 0.21875 1.164062 0.191406 C 1.222656 0.0664062 1.222656 -0.105469 1.480469 -0.105469 C 1.804688 -0.105469 2.214844 0.105469 2.761719 0.105469 Z M 2.761719 0.105469 "/></g></g></g><g fill="#000000" fill-opacity="1"><g transform="translate(877.594651, 464.771396)"><g><path d="M 2.101562 0.105469 C 2.597656 0.105469 2.960938 -0.230469 3.363281 -0.859375 C 3.382812 -0.898438 3.269531 -0.984375 3.238281 -0.945312 C 2.941406 -0.507812 2.703125 -0.34375 2.417969 -0.34375 C 2.054688 -0.34375 1.796875 -0.613281 1.796875 -1.269531 L 1.796875 -4.757812 L 3 -4.757812 L 3.132812 -5.046875 L 1.804688 -5.046875 L 1.804688 -6.71875 C 1.804688 -6.753906 1.683594 -6.773438 1.664062 -6.71875 C 1.492188 -5.820312 1.109375 -5.273438 0.316406 -5.007812 L 0.277344 -4.757812 L 1.050781 -4.757812 L 1.050781 -1.222656 C 1.050781 -0.265625 1.453125 0.105469 2.101562 0.105469 Z M 2.101562 0.105469 "/></g></g></g><g fill="#000000" fill-opacity="1"><g transform="translate(881.281262, 464.771396)"><g><path d="M 1.15625 0 L 2.847656 0 C 2.894531 0 2.894531 -0.285156 2.847656 -0.285156 C 1.890625 -0.285156 1.863281 -0.402344 1.863281 -1.050781 L 1.863281 -3.449219 C 2.148438 -4.28125 2.769531 -4.511719 2.855469 -4.519531 L 2.875 -4.519531 C 3.105469 -4.355469 3.402344 -4.242188 3.679688 -4.242188 C 3.964844 -4.242188 4.28125 -4.40625 4.28125 -4.671875 C 4.28125 -4.941406 4.03125 -5.160156 3.582031 -5.160156 C 3.019531 -5.160156 2.09375 -4.605469 1.835938 -3.890625 L 1.777344 -3.890625 C 1.835938 -4.804688 1.824219 -4.625 1.84375 -5.046875 C 1.84375 -5.101562 1.769531 -5.160156 1.683594 -5.140625 C 0.820312 -4.996094 0.878906 -5.007812 0.449219 -4.941406 C 0.429688 -4.929688 0.410156 -4.699219 0.449219 -4.691406 C 1.117188 -4.519531 1.109375 -4.328125 1.109375 -3.6875 L 1.109375 -1.050781 C 1.109375 -0.402344 1.089844 -0.285156 0.363281 -0.285156 C 0.324219 -0.285156 0.324219 0 0.363281 0 Z M 1.15625 0 "/></g></g></g><g fill="#000000" fill-opacity="1"><g transform="translate(885.655536, 464.771396)"><g><path d="M 1.863281 0.09375 C 2.894531 0.09375 3.648438 -0.820312 3.917969 -1.394531 L 3.9375 -1.394531 L 3.9375 -0.699219 C 3.9375 -0.429688 4.023438 0.105469 4.652344 0.105469 C 5.054688 0.105469 5.332031 -0.164062 5.582031 -0.507812 C 5.597656 -0.542969 5.484375 -0.640625 5.457031 -0.59375 C 5.285156 -0.371094 5.140625 -0.199219 4.976562 -0.199219 C 4.757812 -0.199219 4.671875 -0.390625 4.671875 -0.660156 L 4.671875 -3.496094 C 4.671875 -4.890625 3.8125 -5.160156 2.925781 -5.160156 C 1.976562 -5.160156 0.753906 -4.375 0.753906 -3.785156 C 0.753906 -3.527344 0.945312 -3.34375 1.164062 -3.34375 C 1.507812 -3.34375 1.769531 -3.726562 1.59375 -4.347656 C 1.910156 -4.644531 2.457031 -4.863281 2.789062 -4.863281 C 3.410156 -4.863281 3.925781 -4.519531 3.925781 -3.582031 L 3.925781 -3.097656 C 1.40625 -2.664062 0.515625 -2.015625 0.515625 -1.117188 C 0.515625 -0.371094 1.0625 0.09375 1.863281 0.09375 Z M 2.226562 -0.410156 C 1.699219 -0.410156 1.242188 -0.785156 1.242188 -1.355469 C 1.242188 -1.835938 1.691406 -2.4375 3.925781 -2.78125 L 3.925781 -1.824219 C 3.621094 -1.117188 3 -0.410156 2.226562 -0.410156 Z M 2.226562 -0.410156 "/></g></g></g><g fill="#000000" fill-opacity="1"><g transform="translate(891.424228, 464.771396)"><g><path d="M 2.101562 0.105469 C 2.597656 0.105469 2.960938 -0.230469 3.363281 -0.859375 C 3.382812 -0.898438 3.269531 -0.984375 3.238281 -0.945312 C 2.941406 -0.507812 2.703125 -0.34375 2.417969 -0.34375 C 2.054688 -0.34375 1.796875 -0.613281 1.796875 -1.269531 L 1.796875 -4.757812 L 3 -4.757812 L 3.132812 -5.046875 L 1.804688 -5.046875 L 1.804688 -6.71875 C 1.804688 -6.753906 1.683594 -6.773438 1.664062 -6.71875 C 1.492188 -5.820312 1.109375 -5.273438 0.316406 -5.007812 L 0.277344 -4.757812 L 1.050781 -4.757812 L 1.050781 -1.222656 C 1.050781 -0.265625 1.453125 0.105469 2.101562 0.105469 Z M 2.101562 0.105469 "/></g></g></g><g fill="#000000" fill-opacity="1"><g transform="translate(895.110838, 464.771396)"><g><path d="M 1.433594 -5.980469 C 1.757812 -5.980469 1.957031 -6.191406 1.957031 -6.46875 C 1.957031 -6.753906 1.730469 -6.957031 1.433594 -6.957031 C 1.128906 -6.957031 0.917969 -6.734375 0.917969 -6.46875 C 0.917969 -6.183594 1.148438 -5.980469 1.433594 -5.980469 Z M 1.15625 0 L 2.609375 0 C 2.648438 0 2.648438 -0.285156 2.609375 -0.285156 C 1.882812 -0.285156 1.863281 -0.402344 1.863281 -1.050781 L 1.863281 -5.09375 C 1.863281 -5.121094 1.804688 -5.160156 1.777344 -5.160156 C 1.355469 -5.082031 0.898438 -4.996094 0.507812 -4.941406 C 0.46875 -4.921875 0.476562 -4.699219 0.507812 -4.691406 C 0.984375 -4.539062 1.109375 -4.480469 1.109375 -3.648438 L 1.109375 -1.050781 C 1.109375 -0.402344 1.089844 -0.285156 0.363281 -0.285156 C 0.324219 -0.285156 0.324219 0 0.363281 0 Z M 1.15625 0 "/></g></g></g><g fill="#000000" fill-opacity="1"><g transform="translate(898.071585, 464.771396)"><g><path d="M 3.019531 0.105469 C 4.558594 0.105469 5.648438 -0.984375 5.648438 -2.523438 C 5.648438 -4.0625 4.558594 -5.160156 3.019531 -5.160156 C 1.492188 -5.160156 0.410156 -4.0625 0.410156 -2.523438 C 0.410156 -0.984375 1.492188 0.105469 3.019531 0.105469 Z M 3.019531 -0.179688 C 1.96875 -0.179688 1.261719 -1.097656 1.261719 -2.523438 C 1.261719 -3.945312 1.96875 -4.863281 3.019531 -4.863281 C 4.078125 -4.863281 4.785156 -3.945312 4.785156 -2.53125 C 4.785156 -1.109375 4.078125 -0.179688 3.019531 -0.179688 Z M 3.019531 -0.179688 "/></g></g></g><g fill="#000000" fill-opacity="1"><g transform="translate(904.126802, 464.771396)"><g><path d="M 1.15625 0 L 2.570312 0 C 2.609375 0 2.609375 -0.285156 2.570312 -0.285156 C 1.882812 -0.285156 1.863281 -0.402344 1.863281 -1.050781 L 1.863281 -3.859375 C 2.292969 -4.222656 2.894531 -4.613281 3.527344 -4.613281 C 4.234375 -4.613281 4.683594 -4.234375 4.683594 -3.011719 L 4.683594 -1.050781 C 4.683594 -0.402344 4.652344 -0.285156 3.964844 -0.285156 C 3.925781 -0.285156 3.925781 0 3.964844 0 L 6.171875 0 C 6.210938 0 6.210938 -0.285156 6.171875 -0.285156 C 5.457031 -0.285156 5.425781 -0.402344 5.425781 -1.050781 L 5.425781 -3.152344 C 5.425781 -4.566406 4.941406 -5.160156 3.945312 -5.160156 C 3.125 -5.160156 2.476562 -4.691406 1.84375 -4.203125 L 1.785156 -4.203125 L 1.84375 -5.046875 C 1.84375 -5.101562 1.777344 -5.160156 1.699219 -5.140625 C 0.90625 -4.996094 0.917969 -5.007812 0.507812 -4.941406 C 0.46875 -4.929688 0.46875 -4.699219 0.507812 -4.691406 C 1.117188 -4.519531 1.109375 -4.339844 1.109375 -3.6875 L 1.109375 -1.050781 C 1.109375 -0.402344 1.089844 -0.285156 0.363281 -0.285156 C 0.324219 -0.285156 0.324219 0 0.363281 0 Z M 1.15625 0 "/></g></g></g><g fill="#000000" fill-opacity="1"><g transform="translate(910.621358, 464.771396)"><g><path d="M 2.761719 0.105469 C 3.640625 0.105469 4.644531 -0.304688 4.644531 -1.441406 C 4.644531 -2.253906 3.90625 -2.597656 3.011719 -2.875 L 2.464844 -3.046875 C 1.699219 -3.285156 1.367188 -3.46875 1.367188 -4.011719 C 1.367188 -4.585938 1.796875 -4.863281 2.351562 -4.863281 C 3.058594 -4.863281 3.746094 -4.453125 4.0625 -3.125 C 4.070312 -3.105469 4.261719 -3.125 4.261719 -3.152344 L 4.003906 -5.21875 C 3.992188 -5.246094 3.871094 -5.246094 3.859375 -5.21875 C 3.8125 -5.101562 3.839844 -4.941406 3.574219 -4.941406 C 3.304688 -4.941406 2.875 -5.160156 2.320312 -5.160156 C 1.644531 -5.160156 0.785156 -4.824219 0.785156 -3.785156 C 0.785156 -2.941406 1.472656 -2.578125 2.199219 -2.351562 L 2.886719 -2.121094 C 3.6875 -1.871094 4.0625 -1.683594 4.0625 -1.109375 C 4.0625 -0.527344 3.535156 -0.179688 2.734375 -0.179688 C 2.054688 -0.179688 1.25 -0.699219 0.925781 -2.042969 C 0.917969 -2.09375 0.726562 -2.054688 0.726562 -2.027344 L 1.023438 0.191406 C 1.03125 0.21875 1.15625 0.21875 1.164062 0.191406 C 1.222656 0.0664062 1.222656 -0.105469 1.480469 -0.105469 C 1.804688 -0.105469 2.214844 0.105469 2.761719 0.105469 Z M 2.761719 0.105469 "/></g></g></g><g fill="#000000" fill-opacity="1"><g transform="translate(915.606884, 464.771396)"><g><path d="M 0.992188 1.519531 C 1.460938 1.183594 2.113281 0.488281 2.101562 -0.402344 C 2.101562 -0.773438 1.84375 -1.03125 1.5 -1.03125 C 1.128906 -1.03125 0.90625 -0.773438 0.90625 -0.449219 C 0.90625 -0.0859375 1.164062 0.105469 1.5 0.105469 C 1.625 0.105469 1.71875 0.078125 1.777344 0.046875 C 1.730469 0.402344 1.289062 1.023438 0.851562 1.347656 Z M 0.992188 1.519531 "/></g></g></g><g fill="#000000" fill-opacity="1"><g transform="translate(843.308499, 477.521395)"><g><path d="M 3.839844 0.09375 C 5.609375 0.09375 6.355469 -1.003906 6.910156 -1.941406 C 6.925781 -1.988281 6.667969 -2.128906 6.648438 -2.074219 C 6.191406 -1.261719 5.4375 -0.390625 4.242188 -0.390625 C 2.40625 -0.390625 1.453125 -1.671875 1.453125 -3.371094 C 1.453125 -5.523438 2.734375 -6.429688 3.871094 -6.429688 C 4.816406 -6.429688 5.425781 -6.125 5.992188 -4.214844 C 6 -4.164062 6.230469 -4.222656 6.230469 -4.261719 L 5.894531 -7.050781 C 5.894531 -7.082031 5.695312 -7.082031 5.683594 -7.050781 C 5.617188 -6.851562 5.484375 -6.613281 5.253906 -6.613281 C 4.902344 -6.613281 4.566406 -6.792969 3.945312 -6.792969 C 2.015625 -6.792969 0.496094 -5.339844 0.496094 -3.296875 C 0.496094 -1.183594 2.1875 0.09375 3.839844 0.09375 Z M 3.839844 0.09375 "/></g></g></g><g fill="#000000" fill-opacity="1"><g transform="translate(850.299694, 477.521395)"><g><path d="M 1.863281 0.09375 C 2.894531 0.09375 3.648438 -0.820312 3.917969 -1.394531 L 3.9375 -1.394531 L 3.9375 -0.699219 C 3.9375 -0.429688 4.023438 0.105469 4.652344 0.105469 C 5.054688 0.105469 5.332031 -0.164062 5.582031 -0.507812 C 5.597656 -0.542969 5.484375 -0.640625 5.457031 -0.59375 C 5.285156 -0.371094 5.140625 -0.199219 4.976562 -0.199219 C 4.757812 -0.199219 4.671875 -0.390625 4.671875 -0.660156 L 4.671875 -3.496094 C 4.671875 -4.890625 3.8125 -5.160156 2.925781 -5.160156 C 1.976562 -5.160156 0.753906 -4.375 0.753906 -3.785156 C 0.753906 -3.527344 0.945312 -3.34375 1.164062 -3.34375 C 1.507812 -3.34375 1.769531 -3.726562 1.59375 -4.347656 C 1.910156 -4.644531 2.457031 -4.863281 2.789062 -4.863281 C 3.410156 -4.863281 3.925781 -4.519531 3.925781 -3.582031 L 3.925781 -3.097656 C 1.40625 -2.664062 0.515625 -2.015625 0.515625 -1.117188 C 0.515625 -0.371094 1.0625 0.09375 1.863281 0.09375 Z M 2.226562 -0.410156 C 1.699219 -0.410156 1.242188 -0.785156 1.242188 -1.355469 C 1.242188 -1.835938 1.691406 -2.4375 3.925781 -2.78125 L 3.925781 -1.824219 C 3.621094 -1.117188 3 -0.410156 2.226562 -0.410156 Z M 2.226562 -0.410156 "/></g></g></g><g fill="#000000" fill-opacity="1"><g transform="translate(856.068385, 477.521395)"><g><path d="M 1.148438 0 L 2.589844 0 C 2.628906 0 2.628906 -0.285156 2.589844 -0.285156 C 1.871094 -0.285156 1.84375 -0.402344 1.84375 -1.050781 L 1.84375 -7.136719 C 1.84375 -7.203125 1.796875 -7.222656 1.710938 -7.195312 C 1.289062 -7.117188 0.871094 -7.0625 0.46875 -6.984375 C 0.429688 -6.976562 0.441406 -6.746094 0.476562 -6.746094 C 1.050781 -6.773438 1.097656 -6.390625 1.097656 -5.828125 L 1.097656 -1.050781 C 1.097656 -0.402344 1.070312 -0.285156 0.355469 -0.285156 C 0.316406 -0.285156 0.316406 0 0.355469 0 Z M 1.148438 0 "/></g></g></g><g fill="#000000" fill-opacity="1"><g transform="translate(859.010032, 477.521395)"><g><path d="M 1.148438 0 L 2.589844 0 C 2.628906 0 2.628906 -0.285156 2.589844 -0.285156 C 1.871094 -0.285156 1.84375 -0.402344 1.84375 -1.050781 L 1.84375 -7.136719 C 1.84375 -7.203125 1.796875 -7.222656 1.710938 -7.195312 C 1.289062 -7.117188 0.871094 -7.0625 0.46875 -6.984375 C 0.429688 -6.976562 0.441406 -6.746094 0.476562 -6.746094 C 1.050781 -6.773438 1.097656 -6.390625 1.097656 -5.828125 L 1.097656 -1.050781 C 1.097656 -0.402344 1.070312 -0.285156 0.355469 -0.285156 C 0.316406 -0.285156 0.316406 0 0.355469 0 Z M 1.148438 0 "/></g></g></g><g fill="#000000" fill-opacity="1"><g transform="translate(861.951678, 477.521395)"><g><path d="M 1.433594 -5.980469 C 1.757812 -5.980469 1.957031 -6.191406 1.957031 -6.46875 C 1.957031 -6.753906 1.730469 -6.957031 1.433594 -6.957031 C 1.128906 -6.957031 0.917969 -6.734375 0.917969 -6.46875 C 0.917969 -6.183594 1.148438 -5.980469 1.433594 -5.980469 Z M 1.15625 0 L 2.609375 0 C 2.648438 0 2.648438 -0.285156 2.609375 -0.285156 C 1.882812 -0.285156 1.863281 -0.402344 1.863281 -1.050781 L 1.863281 -5.09375 C 1.863281 -5.121094 1.804688 -5.160156 1.777344 -5.160156 C 1.355469 -5.082031 0.898438 -4.996094 0.507812 -4.941406 C 0.46875 -4.921875 0.476562 -4.699219 0.507812 -4.691406 C 0.984375 -4.539062 1.109375 -4.480469 1.109375 -3.648438 L 1.109375 -1.050781 C 1.109375 -0.402344 1.089844 -0.285156 0.363281 -0.285156 C 0.324219 -0.285156 0.324219 0 0.363281 0 Z M 1.15625 0 "/></g></g></g><g fill="#000000" fill-opacity="1"><g transform="translate(864.912424, 477.521395)"><g><path d="M 3.734375 -0.574219 L 2.167969 -0.574219 C 1.699219 -0.574219 1.632812 -0.773438 1.632812 -0.886719 C 1.632812 -1.261719 1.824219 -1.441406 2.121094 -1.652344 C 2.332031 -1.59375 2.5625 -1.566406 2.800781 -1.566406 C 4.011719 -1.566406 4.84375 -2.359375 4.84375 -3.363281 C 4.84375 -4.03125 4.480469 -4.605469 3.878906 -4.910156 C 4.175781 -4.875 4.652344 -4.824219 4.875 -4.824219 C 5.148438 -4.824219 5.332031 -4.863281 5.332031 -5.101562 C 5.332031 -5.273438 5.132812 -5.371094 4.875 -5.371094 C 4.460938 -5.371094 4.011719 -5.246094 3.488281 -5.0625 C 3.277344 -5.132812 3.046875 -5.160156 2.808594 -5.160156 C 1.539062 -5.160156 0.753906 -4.367188 0.753906 -3.355469 C 0.753906 -2.628906 1.195312 -2.015625 1.902344 -1.730469 C 1.453125 -1.527344 1.078125 -1.203125 1.078125 -0.667969 C 1.078125 -0.535156 1.136719 -0.257812 1.40625 -0.0859375 C 0.925781 0.285156 0.441406 0.601562 0.441406 1.25 C 0.441406 1.996094 1.40625 2.53125 2.886719 2.53125 C 4.175781 2.53125 5.476562 1.671875 5.476562 0.660156 C 5.476562 0.0195312 4.96875 -0.574219 3.734375 -0.574219 Z M 1.492188 -3.355469 C 1.492188 -4.289062 1.941406 -4.84375 2.800781 -4.84375 C 3.660156 -4.84375 4.097656 -4.289062 4.097656 -3.355469 C 4.097656 -2.476562 3.660156 -1.882812 2.808594 -1.882812 C 1.941406 -1.882812 1.492188 -2.476562 1.492188 -3.355469 Z M 2.886719 2.234375 C 1.710938 2.234375 1.0625 1.691406 1.0625 1.070312 C 1.0625 0.621094 1.328125 0.304688 1.605469 0.0078125 C 1.71875 0.046875 1.84375 0.0664062 2.007812 0.0664062 L 3.679688 0.0664062 C 4.625 0.0664062 4.75 0.667969 4.75 0.945312 C 4.75 1.816406 3.773438 2.234375 2.886719 2.234375 Z M 2.886719 2.234375 "/></g></g></g><g fill="#000000" fill-opacity="1"><g transform="translate(870.595159, 477.521395)"><g><path d="M 1.15625 0 L 2.847656 0 C 2.894531 0 2.894531 -0.285156 2.847656 -0.285156 C 1.890625 -0.285156 1.863281 -0.402344 1.863281 -1.050781 L 1.863281 -3.449219 C 2.148438 -4.28125 2.769531 -4.511719 2.855469 -4.519531 L 2.875 -4.519531 C 3.105469 -4.355469 3.402344 -4.242188 3.679688 -4.242188 C 3.964844 -4.242188 4.28125 -4.40625 4.28125 -4.671875 C 4.28125 -4.941406 4.03125 -5.160156 3.582031 -5.160156 C 3.019531 -5.160156 2.09375 -4.605469 1.835938 -3.890625 L 1.777344 -3.890625 C 1.835938 -4.804688 1.824219 -4.625 1.84375 -5.046875 C 1.84375 -5.101562 1.769531 -5.160156 1.683594 -5.140625 C 0.820312 -4.996094 0.878906 -5.007812 0.449219 -4.941406 C 0.429688 -4.929688 0.410156 -4.699219 0.449219 -4.691406 C 1.117188 -4.519531 1.109375 -4.328125 1.109375 -3.6875 L 1.109375 -1.050781 C 1.109375 -0.402344 1.089844 -0.285156 0.363281 -0.285156 C 0.324219 -0.285156 0.324219 0 0.363281 0 Z M 1.15625 0 "/></g></g></g><g fill="#000000" fill-opacity="1"><g transform="translate(874.969434, 477.521395)"><g><path d="M 1.863281 0.09375 C 2.894531 0.09375 3.648438 -0.820312 3.917969 -1.394531 L 3.9375 -1.394531 L 3.9375 -0.699219 C 3.9375 -0.429688 4.023438 0.105469 4.652344 0.105469 C 5.054688 0.105469 5.332031 -0.164062 5.582031 -0.507812 C 5.597656 -0.542969 5.484375 -0.640625 5.457031 -0.59375 C 5.285156 -0.371094 5.140625 -0.199219 4.976562 -0.199219 C 4.757812 -0.199219 4.671875 -0.390625 4.671875 -0.660156 L 4.671875 -3.496094 C 4.671875 -4.890625 3.8125 -5.160156 2.925781 -5.160156 C 1.976562 -5.160156 0.753906 -4.375 0.753906 -3.785156 C 0.753906 -3.527344 0.945312 -3.34375 1.164062 -3.34375 C 1.507812 -3.34375 1.769531 -3.726562 1.59375 -4.347656 C 1.910156 -4.644531 2.457031 -4.863281 2.789062 -4.863281 C 3.410156 -4.863281 3.925781 -4.519531 3.925781 -3.582031 L 3.925781 -3.097656 C 1.40625 -2.664062 0.515625 -2.015625 0.515625 -1.117188 C 0.515625 -0.371094 1.0625 0.09375 1.863281 0.09375 Z M 2.226562 -0.410156 C 1.699219 -0.410156 1.242188 -0.785156 1.242188 -1.355469 C 1.242188 -1.835938 1.691406 -2.4375 3.925781 -2.78125 L 3.925781 -1.824219 C 3.621094 -1.117188 3 -0.410156 2.226562 -0.410156 Z M 2.226562 -0.410156 "/></g></g></g><g fill="#000000" fill-opacity="1"><g transform="translate(880.738125, 477.521395)"><g><path d="M 3.859375 -5.160156 C 2.808594 -5.160156 2.160156 -4.546875 1.738281 -4.15625 L 1.691406 -4.15625 C 1.71875 -4.453125 1.738281 -4.738281 1.757812 -5.046875 C 1.757812 -5.101562 1.699219 -5.148438 1.605469 -5.132812 C 1.203125 -5.0625 0.820312 -4.996094 0.402344 -4.941406 C 0.363281 -4.929688 0.371094 -4.699219 0.402344 -4.691406 C 0.976562 -4.519531 1.011719 -4.453125 1.011719 -3.515625 L 1.011719 1.335938 C 1.011719 1.988281 0.984375 2.101562 0.265625 2.101562 C 0.230469 2.101562 0.230469 2.390625 0.265625 2.390625 L 2.742188 2.390625 C 2.789062 2.390625 2.789062 2.101562 2.742188 2.101562 C 1.785156 2.101562 1.757812 1.988281 1.757812 1.335938 L 1.757812 -0.390625 C 2.074219 -0.171875 2.609375 0.105469 3.21875 0.105469 C 4.910156 0.105469 5.914062 -1.128906 5.914062 -2.65625 C 5.914062 -4.492188 4.777344 -5.160156 3.859375 -5.160156 Z M 3.542969 -4.757812 C 4.5 -4.757812 5.0625 -3.773438 5.0625 -2.5625 C 5.0625 -1.03125 4.269531 -0.179688 3.304688 -0.179688 C 2.578125 -0.179688 2.148438 -0.542969 1.757812 -1.0625 L 1.757812 -3.820312 C 2.09375 -4.148438 2.628906 -4.757812 3.542969 -4.757812 Z M 3.542969 -4.757812 "/></g></g></g><g fill="#000000" fill-opacity="1"><g transform="translate(887.060756, 477.521395)"><g><path d="M 1.148438 0 L 2.550781 0 C 2.578125 0 2.578125 -0.285156 2.550781 -0.285156 C 1.863281 -0.285156 1.835938 -0.402344 1.835938 -1.050781 L 1.835938 -3.859375 C 2.417969 -4.328125 2.933594 -4.613281 3.5625 -4.613281 C 4.164062 -4.613281 4.652344 -4.261719 4.652344 -3.058594 L 4.652344 -1.050781 C 4.652344 -0.402344 4.632812 -0.285156 3.945312 -0.285156 C 3.90625 -0.285156 3.90625 0 3.945312 0 L 6.152344 0 C 6.191406 0 6.191406 -0.285156 6.152344 -0.285156 C 5.425781 -0.285156 5.40625 -0.402344 5.40625 -1.050781 L 5.40625 -3.097656 C 5.40625 -4.253906 5.140625 -5.160156 3.9375 -5.160156 C 3.21875 -5.160156 2.648438 -4.84375 1.835938 -4.203125 L 1.777344 -4.203125 L 1.835938 -4.960938 L 1.835938 -7.128906 C 1.835938 -7.195312 1.785156 -7.214844 1.699219 -7.183594 C 1.289062 -7.109375 0.871094 -7.050781 0.457031 -6.976562 C 0.421875 -6.964844 0.429688 -6.734375 0.46875 -6.734375 C 1.042969 -6.765625 1.089844 -6.382812 1.089844 -5.820312 L 1.097656 -1.050781 C 1.097656 -0.402344 1.070312 -0.285156 0.355469 -0.285156 C 0.316406 -0.285156 0.316406 0 0.355469 0 Z M 1.148438 0 "/></g></g></g><g fill="#000000" fill-opacity="1"><g transform="translate(893.526656, 477.521395)"><g><path d="M 5.742188 -5.046875 L 3.746094 -5.046875 C 3.707031 -5.046875 3.707031 -4.769531 3.746094 -4.769531 C 4.453125 -4.757812 4.597656 -4.386719 4.242188 -3.542969 L 3.132812 -0.925781 L 2.015625 -3.613281 C 1.605469 -4.597656 1.683594 -4.769531 2.503906 -4.769531 C 2.542969 -4.769531 2.542969 -5.046875 2.503906 -5.046875 L 0.113281 -5.046875 C 0.0859375 -5.046875 0.0859375 -4.769531 0.113281 -4.769531 C 0.574219 -4.769531 0.8125 -4.597656 1.222656 -3.613281 L 2.675781 -0.171875 L 2.664062 -0.152344 C 2.484375 0.984375 1.785156 1.632812 1.28125 1.632812 C 1.15625 1.472656 0.886719 1.042969 0.421875 1.042969 C 0.164062 1.042969 0.0390625 1.214844 0.0390625 1.40625 C 0.0390625 1.71875 0.535156 1.976562 1.050781 1.976562 C 2.054688 1.976562 2.5625 1.136719 3.019531 0.0859375 L 3.027344 0.0859375 L 4.578125 -3.542969 C 4.929688 -4.386719 5.339844 -4.757812 5.742188 -4.769531 C 5.761719 -4.769531 5.761719 -5.046875 5.742188 -5.046875 Z M 5.742188 -5.046875 "/></g></g></g><g fill="#000000" fill-opacity="1"><g transform="translate(899.534117, 477.521395)"><g/></g></g><g fill="#000000" fill-opacity="1"><g transform="translate(902.170137, 477.521395)"><g><path d="M 0.992188 1.519531 C 1.460938 1.183594 2.113281 0.488281 2.101562 -0.402344 C 2.101562 -0.773438 1.84375 -1.03125 1.5 -1.03125 C 1.128906 -1.03125 0.90625 -0.773438 0.90625 -0.449219 C 0.90625 -0.0859375 1.164062 0.105469 1.5 0.105469 C 1.625 0.105469 1.71875 0.078125 1.777344 0.046875 C 1.730469 0.402344 1.289062 1.023438 0.851562 1.347656 Z M 0.992188 1.519531 "/></g></g></g><g fill="#000000" fill-opacity="1"><g transform="translate(833.406157, 490.271393)"><g><path d="M 4.386719 0 C 5.820312 0 6.792969 -0.714844 6.792969 -1.816406 C 6.792969 -3.230469 4.875 -3.527344 3.679688 -3.515625 L 3.679688 -3.554688 C 4.960938 -3.632812 6.375 -4.078125 6.375 -5.207031 C 6.375 -6.21875 5.371094 -6.6875 3.925781 -6.6875 L 0.457031 -6.6875 C 0.421875 -6.6875 0.421875 -6.390625 0.457031 -6.390625 C 1.242188 -6.402344 1.386719 -6.382812 1.386719 -5.476562 L 1.386719 -1.214844 C 1.386719 -0.304688 1.242188 -0.285156 0.457031 -0.296875 C 0.421875 -0.296875 0.421875 0 0.457031 0 Z M 2.214844 -3.699219 L 2.214844 -4.929688 C 2.214844 -5.53125 2.214844 -5.960938 2.292969 -6.34375 L 3.5625 -6.34375 C 4.492188 -6.34375 5.417969 -6.097656 5.417969 -5.1875 C 5.417969 -4.109375 4.394531 -3.699219 2.628906 -3.699219 Z M 2.214844 -3.355469 L 2.65625 -3.355469 C 3.878906 -3.355469 5.839844 -3.371094 5.839844 -1.804688 C 5.839844 -0.839844 4.996094 -0.34375 3.90625 -0.34375 L 2.292969 -0.34375 C 2.226562 -0.714844 2.214844 -0.917969 2.214844 -1.957031 Z M 2.214844 -3.355469 "/></g></g></g><g fill="#000000" fill-opacity="1"><g transform="translate(840.473752, 490.271393)"><g><path d="M 3.019531 0.105469 C 4.558594 0.105469 5.648438 -0.984375 5.648438 -2.523438 C 5.648438 -4.0625 4.558594 -5.160156 3.019531 -5.160156 C 1.492188 -5.160156 0.410156 -4.0625 0.410156 -2.523438 C 0.410156 -0.984375 1.492188 0.105469 3.019531 0.105469 Z M 3.019531 -0.179688 C 1.96875 -0.179688 1.261719 -1.097656 1.261719 -2.523438 C 1.261719 -3.945312 1.96875 -4.863281 3.019531 -4.863281 C 4.078125 -4.863281 4.785156 -3.945312 4.785156 -2.53125 C 4.785156 -1.109375 4.078125 -0.179688 3.019531 -0.179688 Z M 3.019531 -0.179688 "/></g></g></g><g fill="#000000" fill-opacity="1"><g transform="translate(846.528969, 490.271393)"><g><path d="M 3.019531 0.105469 C 4.558594 0.105469 5.648438 -0.984375 5.648438 -2.523438 C 5.648438 -4.0625 4.558594 -5.160156 3.019531 -5.160156 C 1.492188 -5.160156 0.410156 -4.0625 0.410156 -2.523438 C 0.410156 -0.984375 1.492188 0.105469 3.019531 0.105469 Z M 3.019531 -0.179688 C 1.96875 -0.179688 1.261719 -1.097656 1.261719 -2.523438 C 1.261719 -3.945312 1.96875 -4.863281 3.019531 -4.863281 C 4.078125 -4.863281 4.785156 -3.945312 4.785156 -2.53125 C 4.785156 -1.109375 4.078125 -0.179688 3.019531 -0.179688 Z M 3.019531 -0.179688 "/></g></g></g><g fill="#000000" fill-opacity="1"><g transform="translate(852.584186, 490.271393)"><g><path d="M 6.304688 -0.277344 C 5.695312 -0.285156 5.398438 -0.449219 4.941406 -1.40625 L 4.605469 -2.101562 C 4.214844 -2.914062 3.601562 -3.125 3.171875 -3.125 C 3.078125 -3.125 2.972656 -3.105469 2.855469 -3.066406 L 3.832031 -3.925781 C 4.519531 -4.519531 5.265625 -4.757812 5.953125 -4.769531 C 5.992188 -4.769531 5.992188 -5.046875 5.953125 -5.046875 L 3.132812 -5.046875 C 3.097656 -5.046875 3.097656 -4.769531 3.132812 -4.769531 C 4.003906 -4.757812 4.03125 -4.519531 3.34375 -3.917969 L 1.84375 -2.597656 L 1.84375 -7.136719 C 1.84375 -7.203125 1.796875 -7.222656 1.710938 -7.195312 C 1.289062 -7.117188 0.871094 -7.0625 0.46875 -6.984375 C 0.429688 -6.976562 0.441406 -6.746094 0.476562 -6.746094 C 1.050781 -6.773438 1.097656 -6.390625 1.097656 -5.828125 L 1.097656 -1.050781 C 1.097656 -0.402344 1.070312 -0.285156 0.355469 -0.285156 C 0.316406 -0.285156 0.316406 0 0.355469 0 L 2.570312 0 C 2.609375 0 2.609375 -0.285156 2.570312 -0.285156 C 1.871094 -0.285156 1.84375 -0.402344 1.84375 -1.050781 L 1.84375 -2.179688 L 2.027344 -2.332031 C 2.285156 -2.542969 2.648438 -2.734375 2.925781 -2.734375 C 3.390625 -2.734375 3.746094 -2.371094 3.9375 -1.96875 C 4.328125 -1.136719 4.683594 -0.210938 4.941406 0 L 6.304688 0 C 6.34375 0 6.34375 -0.277344 6.304688 -0.277344 Z M 6.304688 -0.277344 "/></g></g></g><g fill="#000000" fill-opacity="1"><g transform="translate(858.954574, 490.271393)"><g><path d="M 9.429688 -0.285156 C 8.703125 -0.285156 8.683594 -0.402344 8.683594 -1.050781 L 8.683594 -3.152344 C 8.683594 -4.527344 8.359375 -5.160156 7.347656 -5.160156 C 6.554688 -5.160156 5.820312 -4.652344 5.1875 -4.164062 C 5.035156 -4.84375 4.664062 -5.160156 3.945312 -5.160156 C 3.125 -5.160156 2.476562 -4.691406 1.84375 -4.203125 L 1.785156 -4.203125 L 1.84375 -5.046875 C 1.855469 -5.101562 1.769531 -5.160156 1.699219 -5.140625 C 0.90625 -4.996094 0.917969 -5.007812 0.507812 -4.941406 C 0.46875 -4.921875 0.476562 -4.699219 0.507812 -4.691406 C 1.117188 -4.519531 1.109375 -4.339844 1.109375 -3.6875 L 1.109375 -1.050781 C 1.109375 -0.402344 1.089844 -0.285156 0.363281 -0.285156 C 0.324219 -0.285156 0.324219 0 0.363281 0 L 2.570312 0 C 2.609375 0 2.609375 -0.285156 2.570312 -0.285156 C 1.882812 -0.285156 1.863281 -0.402344 1.863281 -1.050781 L 1.863281 -3.859375 C 2.304688 -4.222656 2.894531 -4.613281 3.527344 -4.613281 C 4.214844 -4.613281 4.527344 -4.234375 4.527344 -3.011719 L 4.527344 -1.050781 C 4.527344 -0.402344 4.511719 -0.285156 3.820312 -0.285156 C 3.785156 -0.285156 3.785156 0 3.820312 0 L 6.027344 0 C 6.066406 0 6.066406 -0.285156 6.027344 -0.285156 C 5.304688 -0.285156 5.285156 -0.402344 5.285156 -1.050781 L 5.285156 -3.152344 C 5.285156 -3.410156 5.273438 -3.640625 5.246094 -3.851562 C 5.703125 -4.234375 6.316406 -4.613281 6.9375 -4.613281 C 7.625 -4.613281 7.929688 -4.234375 7.929688 -3.011719 L 7.929688 -1.050781 C 7.929688 -0.402344 7.910156 -0.285156 7.222656 -0.285156 C 7.183594 -0.285156 7.183594 0 7.222656 0 L 9.429688 0 C 9.46875 0 9.46875 -0.285156 9.429688 -0.285156 Z M 9.429688 -0.285156 "/></g></g></g><g fill="#000000" fill-opacity="1"><g transform="translate(868.705946, 490.271393)"><g><path d="M 1.863281 0.09375 C 2.894531 0.09375 3.648438 -0.820312 3.917969 -1.394531 L 3.9375 -1.394531 L 3.9375 -0.699219 C 3.9375 -0.429688 4.023438 0.105469 4.652344 0.105469 C 5.054688 0.105469 5.332031 -0.164062 5.582031 -0.507812 C 5.597656 -0.542969 5.484375 -0.640625 5.457031 -0.59375 C 5.285156 -0.371094 5.140625 -0.199219 4.976562 -0.199219 C 4.757812 -0.199219 4.671875 -0.390625 4.671875 -0.660156 L 4.671875 -3.496094 C 4.671875 -4.890625 3.8125 -5.160156 2.925781 -5.160156 C 1.976562 -5.160156 0.753906 -4.375 0.753906 -3.785156 C 0.753906 -3.527344 0.945312 -3.34375 1.164062 -3.34375 C 1.507812 -3.34375 1.769531 -3.726562 1.59375 -4.347656 C 1.910156 -4.644531 2.457031 -4.863281 2.789062 -4.863281 C 3.410156 -4.863281 3.925781 -4.519531 3.925781 -3.582031 L 3.925781 -3.097656 C 1.40625 -2.664062 0.515625 -2.015625 0.515625 -1.117188 C 0.515625 -0.371094 1.0625 0.09375 1.863281 0.09375 Z M 2.226562 -0.410156 C 1.699219 -0.410156 1.242188 -0.785156 1.242188 -1.355469 C 1.242188 -1.835938 1.691406 -2.4375 3.925781 -2.78125 L 3.925781 -1.824219 C 3.621094 -1.117188 3 -0.410156 2.226562 -0.410156 Z M 2.226562 -0.410156 "/></g></g></g><g fill="#000000" fill-opacity="1"><g transform="translate(874.474637, 490.271393)"><g><path d="M 1.15625 0 L 2.847656 0 C 2.894531 0 2.894531 -0.285156 2.847656 -0.285156 C 1.890625 -0.285156 1.863281 -0.402344 1.863281 -1.050781 L 1.863281 -3.449219 C 2.148438 -4.28125 2.769531 -4.511719 2.855469 -4.519531 L 2.875 -4.519531 C 3.105469 -4.355469 3.402344 -4.242188 3.679688 -4.242188 C 3.964844 -4.242188 4.28125 -4.40625 4.28125 -4.671875 C 4.28125 -4.941406 4.03125 -5.160156 3.582031 -5.160156 C 3.019531 -5.160156 2.09375 -4.605469 1.835938 -3.890625 L 1.777344 -3.890625 C 1.835938 -4.804688 1.824219 -4.625 1.84375 -5.046875 C 1.84375 -5.101562 1.769531 -5.160156 1.683594 -5.140625 C 0.820312 -4.996094 0.878906 -5.007812 0.449219 -4.941406 C 0.429688 -4.929688 0.410156 -4.699219 0.449219 -4.691406 C 1.117188 -4.519531 1.109375 -4.328125 1.109375 -3.6875 L 1.109375 -1.050781 C 1.109375 -0.402344 1.089844 -0.285156 0.363281 -0.285156 C 0.324219 -0.285156 0.324219 0 0.363281 0 Z M 1.15625 0 "/></g></g></g><g fill="#000000" fill-opacity="1"><g transform="translate(878.848912, 490.271393)"><g><path d="M 6.304688 -0.277344 C 5.695312 -0.285156 5.398438 -0.449219 4.941406 -1.40625 L 4.605469 -2.101562 C 4.214844 -2.914062 3.601562 -3.125 3.171875 -3.125 C 3.078125 -3.125 2.972656 -3.105469 2.855469 -3.066406 L 3.832031 -3.925781 C 4.519531 -4.519531 5.265625 -4.757812 5.953125 -4.769531 C 5.992188 -4.769531 5.992188 -5.046875 5.953125 -5.046875 L 3.132812 -5.046875 C 3.097656 -5.046875 3.097656 -4.769531 3.132812 -4.769531 C 4.003906 -4.757812 4.03125 -4.519531 3.34375 -3.917969 L 1.84375 -2.597656 L 1.84375 -7.136719 C 1.84375 -7.203125 1.796875 -7.222656 1.710938 -7.195312 C 1.289062 -7.117188 0.871094 -7.0625 0.46875 -6.984375 C 0.429688 -6.976562 0.441406 -6.746094 0.476562 -6.746094 C 1.050781 -6.773438 1.097656 -6.390625 1.097656 -5.828125 L 1.097656 -1.050781 C 1.097656 -0.402344 1.070312 -0.285156 0.355469 -0.285156 C 0.316406 -0.285156 0.316406 0 0.355469 0 L 2.570312 0 C 2.609375 0 2.609375 -0.285156 2.570312 -0.285156 C 1.871094 -0.285156 1.84375 -0.402344 1.84375 -1.050781 L 1.84375 -2.179688 L 2.027344 -2.332031 C 2.285156 -2.542969 2.648438 -2.734375 2.925781 -2.734375 C 3.390625 -2.734375 3.746094 -2.371094 3.9375 -1.96875 C 4.328125 -1.136719 4.683594 -0.210938 4.941406 0 L 6.304688 0 C 6.34375 0 6.34375 -0.277344 6.304688 -0.277344 Z M 6.304688 -0.277344 "/></g></g></g><g fill="#000000" fill-opacity="1"><g transform="translate(885.219299, 490.271393)"><g/></g></g><g fill="#000000" fill-opacity="1"><g transform="translate(887.855319, 490.271393)"><g><path d="M 1.863281 0.09375 C 2.894531 0.09375 3.648438 -0.820312 3.917969 -1.394531 L 3.9375 -1.394531 L 3.9375 -0.699219 C 3.9375 -0.429688 4.023438 0.105469 4.652344 0.105469 C 5.054688 0.105469 5.332031 -0.164062 5.582031 -0.507812 C 5.597656 -0.542969 5.484375 -0.640625 5.457031 -0.59375 C 5.285156 -0.371094 5.140625 -0.199219 4.976562 -0.199219 C 4.757812 -0.199219 4.671875 -0.390625 4.671875 -0.660156 L 4.671875 -3.496094 C 4.671875 -4.890625 3.8125 -5.160156 2.925781 -5.160156 C 1.976562 -5.160156 0.753906 -4.375 0.753906 -3.785156 C 0.753906 -3.527344 0.945312 -3.34375 1.164062 -3.34375 C 1.507812 -3.34375 1.769531 -3.726562 1.59375 -4.347656 C 1.910156 -4.644531 2.457031 -4.863281 2.789062 -4.863281 C 3.410156 -4.863281 3.925781 -4.519531 3.925781 -3.582031 L 3.925781 -3.097656 C 1.40625 -2.664062 0.515625 -2.015625 0.515625 -1.117188 C 0.515625 -0.371094 1.0625 0.09375 1.863281 0.09375 Z M 2.226562 -0.410156 C 1.699219 -0.410156 1.242188 -0.785156 1.242188 -1.355469 C 1.242188 -1.835938 1.691406 -2.4375 3.925781 -2.78125 L 3.925781 -1.824219 C 3.621094 -1.117188 3 -0.410156 2.226562 -0.410156 Z M 2.226562 -0.410156 "/></g></g></g><g fill="#000000" fill-opacity="1"><g transform="translate(893.624011, 490.271393)"><g><path d="M 1.15625 0 L 2.570312 0 C 2.609375 0 2.609375 -0.285156 2.570312 -0.285156 C 1.882812 -0.285156 1.863281 -0.402344 1.863281 -1.050781 L 1.863281 -3.859375 C 2.292969 -4.222656 2.894531 -4.613281 3.527344 -4.613281 C 4.234375 -4.613281 4.683594 -4.234375 4.683594 -3.011719 L 4.683594 -1.050781 C 4.683594 -0.402344 4.652344 -0.285156 3.964844 -0.285156 C 3.925781 -0.285156 3.925781 0 3.964844 0 L 6.171875 0 C 6.210938 0 6.210938 -0.285156 6.171875 -0.285156 C 5.457031 -0.285156 5.425781 -0.402344 5.425781 -1.050781 L 5.425781 -3.152344 C 5.425781 -4.566406 4.941406 -5.160156 3.945312 -5.160156 C 3.125 -5.160156 2.476562 -4.691406 1.84375 -4.203125 L 1.785156 -4.203125 L 1.84375 -5.046875 C 1.84375 -5.101562 1.777344 -5.160156 1.699219 -5.140625 C 0.90625 -4.996094 0.917969 -5.007812 0.507812 -4.941406 C 0.46875 -4.929688 0.46875 -4.699219 0.507812 -4.691406 C 1.117188 -4.519531 1.109375 -4.339844 1.109375 -3.6875 L 1.109375 -1.050781 C 1.109375 -0.402344 1.089844 -0.285156 0.363281 -0.285156 C 0.324219 -0.285156 0.324219 0 0.363281 0 Z M 1.15625 0 "/></g></g></g><g fill="#000000" fill-opacity="1"><g transform="translate(900.118567, 490.271393)"><g><path d="M 2.464844 0.105469 C 3.515625 0.105469 4.164062 -0.507812 4.578125 -0.886719 L 4.632812 -0.886719 C 4.625 -0.59375 4.605469 -0.304688 4.605469 -0.0078125 C 4.605469 0.0273438 4.71875 0.0859375 4.769531 0.0859375 C 5.160156 0.0195312 5.550781 -0.0585938 5.941406 -0.113281 C 5.972656 -0.125 5.980469 -0.324219 5.941406 -0.34375 C 5.359375 -0.527344 5.3125 -0.613281 5.3125 -1.539062 L 5.3125 -7.136719 C 5.3125 -7.203125 5.265625 -7.214844 5.167969 -7.195312 C 4.757812 -7.117188 4.339844 -7.050781 3.925781 -6.984375 C 3.898438 -6.976562 3.898438 -6.746094 3.945312 -6.746094 C 4.511719 -6.773438 4.566406 -6.390625 4.566406 -5.820312 L 4.566406 -4.652344 C 4.261719 -4.875 3.71875 -5.160156 3.105469 -5.160156 C 1.414062 -5.160156 0.410156 -3.917969 0.410156 -2.398438 C 0.410156 -0.5625 1.546875 0.105469 2.464844 0.105469 Z M 2.78125 -0.296875 C 1.816406 -0.296875 1.261719 -1.269531 1.261719 -2.484375 C 1.261719 -4.023438 2.042969 -4.863281 3.019531 -4.863281 C 3.746094 -4.863281 4.164062 -4.511719 4.566406 -3.984375 L 4.566406 -1.234375 C 4.234375 -0.898438 3.699219 -0.296875 2.78125 -0.296875 Z M 2.78125 -0.296875 "/></g></g></g><g fill="#000000" fill-opacity="1"><g transform="translate(906.55581, 490.271393)"><g/></g></g><g fill="#000000" fill-opacity="1"><g transform="translate(909.191831, 490.271393)"><g><path d="M 1.863281 0.09375 C 2.894531 0.09375 3.648438 -0.820312 3.917969 -1.394531 L 3.9375 -1.394531 L 3.9375 -0.699219 C 3.9375 -0.429688 4.023438 0.105469 4.652344 0.105469 C 5.054688 0.105469 5.332031 -0.164062 5.582031 -0.507812 C 5.597656 -0.542969 5.484375 -0.640625 5.457031 -0.59375 C 5.285156 -0.371094 5.140625 -0.199219 4.976562 -0.199219 C 4.757812 -0.199219 4.671875 -0.390625 4.671875 -0.660156 L 4.671875 -3.496094 C 4.671875 -4.890625 3.8125 -5.160156 2.925781 -5.160156 C 1.976562 -5.160156 0.753906 -4.375 0.753906 -3.785156 C 0.753906 -3.527344 0.945312 -3.34375 1.164062 -3.34375 C 1.507812 -3.34375 1.769531 -3.726562 1.59375 -4.347656 C 1.910156 -4.644531 2.457031 -4.863281 2.789062 -4.863281 C 3.410156 -4.863281 3.925781 -4.519531 3.925781 -3.582031 L 3.925781 -3.097656 C 1.40625 -2.664062 0.515625 -2.015625 0.515625 -1.117188 C 0.515625 -0.371094 1.0625 0.09375 1.863281 0.09375 Z M 2.226562 -0.410156 C 1.699219 -0.410156 1.242188 -0.785156 1.242188 -1.355469 C 1.242188 -1.835938 1.691406 -2.4375 3.925781 -2.78125 L 3.925781 -1.824219 C 3.621094 -1.117188 3 -0.410156 2.226562 -0.410156 Z M 2.226562 -0.410156 "/></g></g></g><g fill="#000000" fill-opacity="1"><g transform="translate(833.757719, 503.021392)"><g><path d="M 3.011719 0 L 5.046875 0 C 5.101562 0 5.101562 -0.296875 5.046875 -0.296875 C 3.925781 -0.296875 3.726562 -0.316406 3.726562 -1.242188 L 3.726562 -6.34375 L 4.347656 -6.34375 C 5.390625 -6.34375 5.636719 -6.21875 6.085938 -4.328125 C 6.097656 -4.28125 6.304688 -4.320312 6.304688 -4.355469 L 6 -7.050781 C 5.992188 -7.082031 5.828125 -7.097656 5.800781 -7.050781 C 5.628906 -6.753906 5.292969 -6.6875 4.632812 -6.6875 L 2.015625 -6.6875 C 1.347656 -6.6875 1.003906 -6.746094 0.832031 -7.0625 C 0.800781 -7.097656 0.628906 -7.082031 0.628906 -7.050781 L 0.324219 -4.355469 C 0.324219 -4.320312 0.535156 -4.28125 0.542969 -4.328125 C 0.984375 -6.21875 1.242188 -6.34375 2.285156 -6.34375 L 2.894531 -6.34375 L 2.894531 -1.242188 C 2.894531 -0.316406 2.695312 -0.296875 1.578125 -0.296875 C 1.519531 -0.296875 1.519531 0 1.578125 0 Z M 3.011719 0 "/></g></g></g><g fill="#000000" fill-opacity="1"><g transform="translate(840.385976, 503.021392)"><g><path d="M 1.148438 0 L 2.550781 0 C 2.578125 0 2.578125 -0.285156 2.550781 -0.285156 C 1.863281 -0.285156 1.835938 -0.402344 1.835938 -1.050781 L 1.835938 -3.859375 C 2.417969 -4.328125 2.933594 -4.613281 3.5625 -4.613281 C 4.164062 -4.613281 4.652344 -4.261719 4.652344 -3.058594 L 4.652344 -1.050781 C 4.652344 -0.402344 4.632812 -0.285156 3.945312 -0.285156 C 3.90625 -0.285156 3.90625 0 3.945312 0 L 6.152344 0 C 6.191406 0 6.191406 -0.285156 6.152344 -0.285156 C 5.425781 -0.285156 5.40625 -0.402344 5.40625 -1.050781 L 5.40625 -3.097656 C 5.40625 -4.253906 5.140625 -5.160156 3.9375 -5.160156 C 3.21875 -5.160156 2.648438 -4.84375 1.835938 -4.203125 L 1.777344 -4.203125 L 1.835938 -4.960938 L 1.835938 -7.128906 C 1.835938 -7.195312 1.785156 -7.214844 1.699219 -7.183594 C 1.289062 -7.109375 0.871094 -7.050781 0.457031 -6.976562 C 0.421875 -6.964844 0.429688 -6.734375 0.46875 -6.734375 C 1.042969 -6.765625 1.089844 -6.382812 1.089844 -5.820312 L 1.097656 -1.050781 C 1.097656 -0.402344 1.070312 -0.285156 0.355469 -0.285156 C 0.316406 -0.285156 0.316406 0 0.355469 0 Z M 1.148438 0 "/></g></g></g><g fill="#000000" fill-opacity="1"><g transform="translate(846.851876, 503.021392)"><g><path d="M 1.863281 0.09375 C 2.894531 0.09375 3.648438 -0.820312 3.917969 -1.394531 L 3.9375 -1.394531 L 3.9375 -0.699219 C 3.9375 -0.429688 4.023438 0.105469 4.652344 0.105469 C 5.054688 0.105469 5.332031 -0.164062 5.582031 -0.507812 C 5.597656 -0.542969 5.484375 -0.640625 5.457031 -0.59375 C 5.285156 -0.371094 5.140625 -0.199219 4.976562 -0.199219 C 4.757812 -0.199219 4.671875 -0.390625 4.671875 -0.660156 L 4.671875 -3.496094 C 4.671875 -4.890625 3.8125 -5.160156 2.925781 -5.160156 C 1.976562 -5.160156 0.753906 -4.375 0.753906 -3.785156 C 0.753906 -3.527344 0.945312 -3.34375 1.164062 -3.34375 C 1.507812 -3.34375 1.769531 -3.726562 1.59375 -4.347656 C 1.910156 -4.644531 2.457031 -4.863281 2.789062 -4.863281 C 3.410156 -4.863281 3.925781 -4.519531 3.925781 -3.582031 L 3.925781 -3.097656 C 1.40625 -2.664062 0.515625 -2.015625 0.515625 -1.117188 C 0.515625 -0.371094 1.0625 0.09375 1.863281 0.09375 Z M 2.226562 -0.410156 C 1.699219 -0.410156 1.242188 -0.785156 1.242188 -1.355469 C 1.242188 -1.835938 1.691406 -2.4375 3.925781 -2.78125 L 3.925781 -1.824219 C 3.621094 -1.117188 3 -0.410156 2.226562 -0.410156 Z M 2.226562 -0.410156 "/></g></g></g><g fill="#000000" fill-opacity="1"><g transform="translate(852.620567, 503.021392)"><g><path d="M 1.15625 0 L 2.570312 0 C 2.609375 0 2.609375 -0.285156 2.570312 -0.285156 C 1.882812 -0.285156 1.863281 -0.402344 1.863281 -1.050781 L 1.863281 -3.859375 C 2.292969 -4.222656 2.894531 -4.613281 3.527344 -4.613281 C 4.234375 -4.613281 4.683594 -4.234375 4.683594 -3.011719 L 4.683594 -1.050781 C 4.683594 -0.402344 4.652344 -0.285156 3.964844 -0.285156 C 3.925781 -0.285156 3.925781 0 3.964844 0 L 6.171875 0 C 6.210938 0 6.210938 -0.285156 6.171875 -0.285156 C 5.457031 -0.285156 5.425781 -0.402344 5.425781 -1.050781 L 5.425781 -3.152344 C 5.425781 -4.566406 4.941406 -5.160156 3.945312 -5.160156 C 3.125 -5.160156 2.476562 -4.691406 1.84375 -4.203125 L 1.785156 -4.203125 L 1.84375 -5.046875 C 1.84375 -5.101562 1.777344 -5.160156 1.699219 -5.140625 C 0.90625 -4.996094 0.917969 -5.007812 0.507812 -4.941406 C 0.46875 -4.929688 0.46875 -4.699219 0.507812 -4.691406 C 1.117188 -4.519531 1.109375 -4.339844 1.109375 -3.6875 L 1.109375 -1.050781 C 1.109375 -0.402344 1.089844 -0.285156 0.363281 -0.285156 C 0.324219 -0.285156 0.324219 0 0.363281 0 Z M 1.15625 0 "/></g></g></g><g fill="#000000" fill-opacity="1"><g transform="translate(859.115123, 503.021392)"><g><path d="M 6.304688 -0.277344 C 5.695312 -0.285156 5.398438 -0.449219 4.941406 -1.40625 L 4.605469 -2.101562 C 4.214844 -2.914062 3.601562 -3.125 3.171875 -3.125 C 3.078125 -3.125 2.972656 -3.105469 2.855469 -3.066406 L 3.832031 -3.925781 C 4.519531 -4.519531 5.265625 -4.757812 5.953125 -4.769531 C 5.992188 -4.769531 5.992188 -5.046875 5.953125 -5.046875 L 3.132812 -5.046875 C 3.097656 -5.046875 3.097656 -4.769531 3.132812 -4.769531 C 4.003906 -4.757812 4.03125 -4.519531 3.34375 -3.917969 L 1.84375 -2.597656 L 1.84375 -7.136719 C 1.84375 -7.203125 1.796875 -7.222656 1.710938 -7.195312 C 1.289062 -7.117188 0.871094 -7.0625 0.46875 -6.984375 C 0.429688 -6.976562 0.441406 -6.746094 0.476562 -6.746094 C 1.050781 -6.773438 1.097656 -6.390625 1.097656 -5.828125 L 1.097656 -1.050781 C 1.097656 -0.402344 1.070312 -0.285156 0.355469 -0.285156 C 0.316406 -0.285156 0.316406 0 0.355469 0 L 2.570312 0 C 2.609375 0 2.609375 -0.285156 2.570312 -0.285156 C 1.871094 -0.285156 1.84375 -0.402344 1.84375 -1.050781 L 1.84375 -2.179688 L 2.027344 -2.332031 C 2.285156 -2.542969 2.648438 -2.734375 2.925781 -2.734375 C 3.390625 -2.734375 3.746094 -2.371094 3.9375 -1.96875 C 4.328125 -1.136719 4.683594 -0.210938 4.941406 0 L 6.304688 0 C 6.34375 0 6.34375 -0.277344 6.304688 -0.277344 Z M 6.304688 -0.277344 "/></g></g></g><g fill="#000000" fill-opacity="1"><g transform="translate(865.48551, 503.021392)"><g/></g></g><g fill="#000000" fill-opacity="1"><g transform="translate(868.12153, 503.021392)"><g><path d="M 5.742188 -5.046875 L 3.746094 -5.046875 C 3.707031 -5.046875 3.707031 -4.769531 3.746094 -4.769531 C 4.453125 -4.757812 4.597656 -4.386719 4.242188 -3.542969 L 3.132812 -0.925781 L 2.015625 -3.613281 C 1.605469 -4.597656 1.683594 -4.769531 2.503906 -4.769531 C 2.542969 -4.769531 2.542969 -5.046875 2.503906 -5.046875 L 0.113281 -5.046875 C 0.0859375 -5.046875 0.0859375 -4.769531 0.113281 -4.769531 C 0.574219 -4.769531 0.8125 -4.597656 1.222656 -3.613281 L 2.675781 -0.171875 L 2.664062 -0.152344 C 2.484375 0.984375 1.785156 1.632812 1.28125 1.632812 C 1.15625 1.472656 0.886719 1.042969 0.421875 1.042969 C 0.164062 1.042969 0.0390625 1.214844 0.0390625 1.40625 C 0.0390625 1.71875 0.535156 1.976562 1.050781 1.976562 C 2.054688 1.976562 2.5625 1.136719 3.019531 0.0859375 L 3.027344 0.0859375 L 4.578125 -3.542969 C 4.929688 -4.386719 5.339844 -4.757812 5.742188 -4.769531 C 5.761719 -4.769531 5.761719 -5.046875 5.742188 -5.046875 Z M 5.742188 -5.046875 "/></g></g></g><g fill="#000000" fill-opacity="1"><g transform="translate(874.128991, 503.021392)"><g><path d="M 3.019531 0.105469 C 4.558594 0.105469 5.648438 -0.984375 5.648438 -2.523438 C 5.648438 -4.0625 4.558594 -5.160156 3.019531 -5.160156 C 1.492188 -5.160156 0.410156 -4.0625 0.410156 -2.523438 C 0.410156 -0.984375 1.492188 0.105469 3.019531 0.105469 Z M 3.019531 -0.179688 C 1.96875 -0.179688 1.261719 -1.097656 1.261719 -2.523438 C 1.261719 -3.945312 1.96875 -4.863281 3.019531 -4.863281 C 4.078125 -4.863281 4.785156 -3.945312 4.785156 -2.53125 C 4.785156 -1.109375 4.078125 -0.179688 3.019531 -0.179688 Z M 3.019531 -0.179688 "/></g></g></g><g fill="#000000" fill-opacity="1"><g transform="translate(880.184208, 503.021392)"><g><path d="M 5.179688 -1.355469 L 5.179688 -5.09375 C 5.179688 -5.121094 5.121094 -5.160156 5.09375 -5.160156 C 4.492188 -5.054688 4.183594 -4.996094 3.820312 -4.941406 C 3.785156 -4.929688 3.765625 -4.71875 3.820312 -4.691406 C 4.433594 -4.519531 4.425781 -4.339844 4.425781 -3.6875 L 4.425781 -1.183594 C 4.011719 -0.839844 3.402344 -0.429688 2.761719 -0.429688 C 2.054688 -0.429688 1.605469 -0.8125 1.605469 -2.035156 L 1.605469 -5.09375 C 1.613281 -5.121094 1.558594 -5.160156 1.519531 -5.160156 C 1.109375 -5.074219 0.667969 -5.007812 0.257812 -4.941406 C 0.199219 -4.929688 0.191406 -4.710938 0.25 -4.691406 C 0.859375 -4.519531 0.859375 -4.339844 0.859375 -3.6875 L 0.859375 -1.890625 C 0.859375 -0.476562 1.347656 0.105469 2.339844 0.105469 C 3.144531 0.105469 3.8125 -0.355469 4.441406 -0.851562 L 4.5 -0.851562 L 4.441406 -0.0078125 C 4.433594 0.0390625 4.527344 0.105469 4.578125 0.09375 C 5.265625 -0.0195312 5.417969 -0.0585938 5.78125 -0.125 C 5.820312 -0.125 5.820312 -0.355469 5.78125 -0.363281 C 5.167969 -0.535156 5.179688 -0.714844 5.179688 -1.355469 Z M 5.179688 -1.355469 "/></g></g></g><g fill="#000000" fill-opacity="1"><g transform="translate(886.459095, 503.021392)"><g/></g></g><g fill="#000000" fill-opacity="1"><g transform="translate(889.095115, 503.021392)"><g><path d="M 1.148438 0 L 2.589844 0 C 2.628906 0 2.628906 -0.285156 2.589844 -0.285156 C 1.871094 -0.285156 1.84375 -0.402344 1.84375 -1.050781 L 1.84375 -7.136719 C 1.84375 -7.203125 1.796875 -7.222656 1.710938 -7.195312 C 1.289062 -7.117188 0.871094 -7.0625 0.46875 -6.984375 C 0.429688 -6.976562 0.441406 -6.746094 0.476562 -6.746094 C 1.050781 -6.773438 1.097656 -6.390625 1.097656 -5.828125 L 1.097656 -1.050781 C 1.097656 -0.402344 1.070312 -0.285156 0.355469 -0.285156 C 0.316406 -0.285156 0.316406 0 0.355469 0 Z M 1.148438 0 "/></g></g></g><g fill="#000000" fill-opacity="1"><g transform="translate(892.036761, 503.021392)"><g><path d="M 5.046875 -1.710938 C 4.683594 -1.195312 4.203125 -0.441406 3.171875 -0.441406 C 1.824219 -0.441406 1.234375 -1.625 1.234375 -2.578125 L 1.234375 -2.761719 L 4.949219 -2.761719 C 4.976562 -2.894531 4.996094 -3.113281 4.996094 -3.269531 C 4.996094 -4.261719 4.203125 -5.160156 3.027344 -5.160156 C 1.492188 -5.160156 0.410156 -4.023438 0.410156 -2.464844 C 0.410156 -1.011719 1.421875 0.09375 2.867188 0.09375 C 4.078125 0.09375 4.777344 -0.800781 5.199219 -1.605469 C 5.207031 -1.632812 5.0625 -1.75 5.046875 -1.710938 Z M 2.992188 -4.863281 C 3.785156 -4.863281 4.214844 -4.253906 4.214844 -3.542969 C 4.214844 -3.191406 4.050781 -3.078125 3.699219 -3.078125 L 1.261719 -3.078125 C 1.414062 -4.203125 2.101562 -4.863281 2.992188 -4.863281 Z M 2.992188 -4.863281 "/></g></g></g><g fill="#000000" fill-opacity="1"><g transform="translate(897.45207, 503.021392)"><g><path d="M 2.101562 0.105469 C 2.597656 0.105469 2.960938 -0.230469 3.363281 -0.859375 C 3.382812 -0.898438 3.269531 -0.984375 3.238281 -0.945312 C 2.941406 -0.507812 2.703125 -0.34375 2.417969 -0.34375 C 2.054688 -0.34375 1.796875 -0.613281 1.796875 -1.269531 L 1.796875 -4.757812 L 3 -4.757812 L 3.132812 -5.046875 L 1.804688 -5.046875 L 1.804688 -6.71875 C 1.804688 -6.753906 1.683594 -6.773438 1.664062 -6.71875 C 1.492188 -5.820312 1.109375 -5.273438 0.316406 -5.007812 L 0.277344 -4.757812 L 1.050781 -4.757812 L 1.050781 -1.222656 C 1.050781 -0.265625 1.453125 0.105469 2.101562 0.105469 Z M 2.101562 0.105469 "/></g></g></g><g fill="#000000" fill-opacity="1"><g transform="translate(901.138681, 503.021392)"><g><path d="M 2.101562 0.105469 C 2.597656 0.105469 2.960938 -0.230469 3.363281 -0.859375 C 3.382812 -0.898438 3.269531 -0.984375 3.238281 -0.945312 C 2.941406 -0.507812 2.703125 -0.34375 2.417969 -0.34375 C 2.054688 -0.34375 1.796875 -0.613281 1.796875 -1.269531 L 1.796875 -4.757812 L 3 -4.757812 L 3.132812 -5.046875 L 1.804688 -5.046875 L 1.804688 -6.71875 C 1.804688 -6.753906 1.683594 -6.773438 1.664062 -6.71875 C 1.492188 -5.820312 1.109375 -5.273438 0.316406 -5.007812 L 0.277344 -4.757812 L 1.050781 -4.757812 L 1.050781 -1.222656 C 1.050781 -0.265625 1.453125 0.105469 2.101562 0.105469 Z M 2.101562 0.105469 "/></g></g></g><g fill="#000000" fill-opacity="1"><g transform="translate(904.825292, 503.021392)"><g><path d="M 5.046875 -1.710938 C 4.683594 -1.195312 4.203125 -0.441406 3.171875 -0.441406 C 1.824219 -0.441406 1.234375 -1.625 1.234375 -2.578125 L 1.234375 -2.761719 L 4.949219 -2.761719 C 4.976562 -2.894531 4.996094 -3.113281 4.996094 -3.269531 C 4.996094 -4.261719 4.203125 -5.160156 3.027344 -5.160156 C 1.492188 -5.160156 0.410156 -4.023438 0.410156 -2.464844 C 0.410156 -1.011719 1.421875 0.09375 2.867188 0.09375 C 4.078125 0.09375 4.777344 -0.800781 5.199219 -1.605469 C 5.207031 -1.632812 5.0625 -1.75 5.046875 -1.710938 Z M 2.992188 -4.863281 C 3.785156 -4.863281 4.214844 -4.253906 4.214844 -3.542969 C 4.214844 -3.191406 4.050781 -3.078125 3.699219 -3.078125 L 1.261719 -3.078125 C 1.414062 -4.203125 2.101562 -4.863281 2.992188 -4.863281 Z M 2.992188 -4.863281 "/></g></g></g><g fill="#000000" fill-opacity="1"><g transform="translate(910.240601, 503.021392)"><g><path d="M 1.15625 0 L 2.847656 0 C 2.894531 0 2.894531 -0.285156 2.847656 -0.285156 C 1.890625 -0.285156 1.863281 -0.402344 1.863281 -1.050781 L 1.863281 -3.449219 C 2.148438 -4.28125 2.769531 -4.511719 2.855469 -4.519531 L 2.875 -4.519531 C 3.105469 -4.355469 3.402344 -4.242188 3.679688 -4.242188 C 3.964844 -4.242188 4.28125 -4.40625 4.28125 -4.671875 C 4.28125 -4.941406 4.03125 -5.160156 3.582031 -5.160156 C 3.019531 -5.160156 2.09375 -4.605469 1.835938 -3.890625 L 1.777344 -3.890625 C 1.835938 -4.804688 1.824219 -4.625 1.84375 -5.046875 C 1.84375 -5.101562 1.769531 -5.160156 1.683594 -5.140625 C 0.820312 -4.996094 0.878906 -5.007812 0.449219 -4.941406 C 0.429688 -4.929688 0.410156 -4.699219 0.449219 -4.691406 C 1.117188 -4.519531 1.109375 -4.328125 1.109375 -3.6875 L 1.109375 -1.050781 C 1.109375 -0.402344 1.089844 -0.285156 0.363281 -0.285156 C 0.324219 -0.285156 0.324219 0 0.363281 0 Z M 1.15625 0 "/></g></g></g><g clip-path="url(#c9d488e5b0)"><path fill="#020202" d="M 823.640625 458.199219 L 823.640625 454.90625 C 823.640625 454.6875 823.46875 454.515625 823.25 454.515625 L 821.972656 454.515625 C 821.945312 454.203125 821.980469 453.914062 822.054688 453.644531 C 822.167969 453.230469 822.375 452.851562 822.644531 452.523438 L 823.082031 451.996094 C 823.199219 451.855469 823.195312 451.652344 823.078125 451.519531 L 822.644531 451.023438 C 822.542969 450.902344 822.378906 450.867188 822.234375 450.917969 L 822.222656 450.925781 C 819.636719 451.851562 819.578125 454.515625 819.578125 454.515625 L 819.578125 458.199219 C 819.578125 458.414062 819.753906 458.589844 819.96875 458.589844 L 823.25 458.589844 C 823.46875 458.589844 823.640625 458.414062 823.640625 458.199219 " fill-opacity="1" fill-rule="nonzero"/></g><g clip-path="url(#538ae0f419)"><path fill="#020202" d="M 818.347656 458.199219 L 818.347656 454.90625 C 818.347656 454.6875 818.171875 454.515625 817.957031 454.515625 L 816.675781 454.515625 C 816.648438 454.203125 816.6875 453.914062 816.761719 453.644531 C 816.871094 453.230469 817.082031 452.851562 817.351562 452.523438 L 817.789062 451.996094 C 817.90625 451.855469 817.902344 451.652344 817.785156 451.519531 L 817.351562 451.023438 C 817.25 450.902344 817.089844 450.867188 816.945312 450.917969 L 816.929688 450.925781 C 814.347656 451.851562 814.285156 454.515625 814.285156 454.515625 L 814.285156 458.199219 C 814.285156 458.414062 814.457031 458.589844 814.675781 458.589844 L 817.957031 458.589844 C 818.171875 458.589844 818.347656 458.414062 818.347656 458.199219 " fill-opacity="1" fill-rule="nonzero"/></g><g clip-path="url(#c1413b75b5)"><path fill="#020202" d="M 925.800781 507.453125 L 925.800781 510.746094 C 925.800781 510.964844 925.976562 511.136719 926.191406 511.136719 L 927.46875 511.136719 C 927.5 511.449219 927.460938 511.738281 927.386719 512.011719 C 927.277344 512.421875 927.066406 512.800781 926.796875 513.128906 L 926.359375 513.65625 C 926.242188 513.796875 926.246094 514 926.363281 514.136719 L 926.800781 514.628906 C 926.898438 514.75 927.0625 514.789062 927.207031 514.734375 L 927.21875 514.726562 C 929.804688 513.800781 929.863281 511.136719 929.863281 511.136719 L 929.863281 507.453125 C 929.863281 507.238281 929.691406 507.0625 929.472656 507.0625 L 926.191406 507.0625 C 925.976562 507.0625 925.800781 507.238281 925.800781 507.453125 " fill-opacity="1" fill-rule="nonzero"/></g><g clip-path="url(#3d4cfb20a9)"><path fill="#020202" d="M 931.09375 507.453125 L 931.09375 510.746094 C 931.09375 510.964844 931.269531 511.136719 931.484375 511.136719 L 932.765625 511.136719 C 932.789062 511.449219 932.753906 511.738281 932.679688 512.011719 C 932.570312 512.421875 932.359375 512.800781 932.089844 513.128906 L 931.652344 513.65625 C 931.535156 513.796875 931.539062 514 931.660156 514.136719 L 932.089844 514.628906 C 932.191406 514.75 932.355469 514.789062 932.496094 514.734375 L 932.515625 514.726562 C 935.09375 513.800781 935.15625 511.136719 935.15625 511.136719 L 935.15625 507.453125 C 935.15625 507.238281 934.984375 507.0625 934.769531 507.0625 L 931.484375 507.0625 C 931.269531 507.0625 931.09375 507.238281 931.09375 507.453125 " fill-opacity="1" fill-rule="nonzero"/></g><g clip-path="url(#00bcc14bad)"><path fill="#000000" d="M 939.707031 475.199219 L 938.070312 475.199219 L 938.070312 455.324219 L 827.996094 455.324219 L 827.996094 453.683594 L 939.707031 453.683594 L 939.707031 475.199219 " fill-opacity="1" fill-rule="nonzero"/></g><g clip-path="url(#987936ff2e)"><path fill="#000000" d="M 920.179688 511.972656 L 808.46875 511.972656 L 808.46875 490.457031 L 810.105469 490.457031 L 810.105469 510.328125 L 920.179688 510.328125 L 920.179688 511.972656 " fill-opacity="1" fill-rule="nonzero"/></g></svg>